<?xml version="1.0" encoding="UTF-8"?>
<svg version="1.1" xmlns="http://www.w3.org/2000/svg" width="320" height="320">
<path d="M0 0 C6.26950205 5.88414258 10.57560499 13.76570197 11.25 22.375 C11.35049328 32.13720437 8.87536277 41.53078476 2.07421875 48.77734375 C-5.68615603 55.57390325 -13.92064414 58.81236991 -24.1875 58.25 C-32.94039783 57.18496208 -40.85645731 54.1043018 -46.75 47.375 C-53.11617367 38.74464447 -55.58196171 30.80218533 -54.28515625 20.14453125 C-52.56195135 11.22663146 -48.80462559 4.10353983 -41.45703125 -1.31640625 C-28.37845685 -9.73130296 -12.60606817 -9.75864488 0 0 Z " fill="#013893" transform="translate(293.75,134.625)"/>
<path d="M0 0 C6.26950205 5.88414258 10.57560499 13.76570197 11.25 22.375 C11.35049328 32.13720437 8.87536277 41.53078476 2.07421875 48.77734375 C-5.68615603 55.57390325 -13.92064414 58.81236991 -24.1875 58.25 C-32.94039783 57.18496208 -40.85645731 54.1043018 -46.75 47.375 C-53.11617367 38.74464447 -55.58196171 30.80218533 -54.28515625 20.14453125 C-52.56195135 11.22663146 -48.80462559 4.10353983 -41.45703125 -1.31640625 C-28.37845685 -9.73130296 -12.60606817 -9.75864488 0 0 Z " fill="#013893" transform="translate(181.75,134.625)"/>
<path d="M0 0 C6.26950205 5.88414258 10.57560499 13.76570197 11.25 22.375 C11.35049328 32.13720437 8.87536277 41.53078476 2.07421875 48.77734375 C-5.68615603 55.57390325 -13.92064414 58.81236991 -24.1875 58.25 C-32.94039783 57.18496208 -40.85645731 54.1043018 -46.75 47.375 C-53.11617367 38.74464447 -55.58196171 30.80218533 -54.28515625 20.14453125 C-52.56195135 11.22663146 -48.80462559 4.10353983 -41.45703125 -1.31640625 C-28.37845685 -9.73130296 -12.60606817 -9.75864488 0 0 Z " fill="#013893" transform="translate(69.75,134.625)"/>
</svg>
