<?xml version="1.0" encoding="UTF-8"?>
<svg version="1.1" xmlns="http://www.w3.org/2000/svg" width="320" height="393">
<path d="M0 0 C0.64821014 -0.00453111 1.29642028 -0.00906223 1.96427315 -0.01373065 C4.11657121 -0.02629867 6.26861374 -0.02475927 8.42094421 -0.02310181 C9.97223736 -0.02909182 11.52352754 -0.03589846 13.07481384 -0.04345703 C17.27536607 -0.06107612 21.47583674 -0.06581068 25.67642236 -0.0670886 C28.30460657 -0.06851309 30.93277023 -0.07278831 33.56094933 -0.07808304 C42.74069402 -0.09656981 51.92038074 -0.10475535 61.10014343 -0.10317993 C69.63949985 -0.10197891 78.17860336 -0.12307694 86.71789581 -0.15466726 C94.06421665 -0.18086999 101.4104551 -0.19154555 108.75682229 -0.19026911 C113.13789186 -0.18976065 117.51873653 -0.19537941 121.89975929 -0.21662521 C126.02278086 -0.23607519 130.14536454 -0.23608631 134.2684021 -0.22159195 C135.77518038 -0.2195111 137.28198656 -0.22416134 138.78871727 -0.23631287 C149.34740031 -0.31590171 158.0764781 0.53483224 166.37675476 7.57992554 C175.89732296 17.95107186 180.39606827 34.76289004 185.68925476 47.64242554 C186.41680603 49.40557569 187.14466952 51.16859704 187.87284851 52.93148804 C188.23052811 53.79880051 188.5882077 54.66611298 188.95672607 55.55970764 C189.66984513 57.28649003 190.38502015 59.0124249 191.10232544 60.73747253 C192.81577145 64.87020773 194.48297943 69.01019035 196.05278015 73.19979858 C196.5006488 74.36552902 196.5006488 74.36552902 196.95756531 75.55480957 C197.51158108 77.00183197 198.04949414 78.4551761 198.56718445 79.91558838 C200.60147995 85.15902257 202.80379511 86.84734243 207.62675476 89.32992554 C208.75081726 89.82234741 209.87487976 90.31476929 211.03300476 90.82211304 C220.16109672 95.00205614 224.49574503 103.32120819 228.18925476 112.26742554 C229.41184587 116.45750627 229.32182238 120.55982108 229.30278015 124.89144897 C229.30292618 125.76010086 229.3030722 126.62875275 229.30322266 127.52372742 C229.30252667 130.39144397 229.29474891 133.25909535 229.28691101 136.12680054 C229.28504572 138.11648523 229.28362234 140.10617039 229.28262329 142.09585571 C229.27880688 147.33028432 229.26898405 152.56468514 229.25791931 157.79910278 C229.24768638 163.14140446 229.24312163 168.48371063 229.23808289 173.82601929 C229.22736101 184.3065022 229.20977128 194.78695721 229.18925476 205.26742554 C220.93925476 205.26742554 212.68925476 205.26742554 204.18925476 205.26742554 C204.23566101 207.24484741 204.28206726 209.22226929 204.32987976 211.25961304 C204.3577301 213.20913668 204.38542429 215.1586656 204.40898132 217.10824585 C204.43860953 219.09907032 204.48947802 221.08954262 204.54081726 223.07992554 C204.63105752 232.01371105 203.96502652 239.47959125 198.29472351 246.66976929 C191.2397278 252.31663958 185.42515363 254.9488775 176.25175476 254.67367554 C168.17696181 253.60252953 162.68932841 249.44059027 157.56425476 243.32992554 C149.88157719 231.80590918 154.18925476 220.06715661 154.18925476 205.26742554 C100.06925476 205.26742554 45.94925476 205.26742554 -9.81074524 205.26742554 C-9.81074524 214.83742554 -9.81074524 224.40742554 -9.81074524 234.26742554 C-13.96994249 244.66541866 -16.05870447 247.83832431 -25.06074524 253.20492554 C-32.35211067 255.27081241 -39.21347567 255.39134738 -46.18574524 252.20492554 C-53.16862859 248.22591496 -57.27517069 242.89320101 -59.81074524 235.26742554 C-60.15132141 231.71884155 -60.15132141 231.71884155 -60.10371399 228.02133179 C-60.09946915 227.36535507 -60.0952243 226.70937836 -60.09085083 226.03352356 C-60.07423303 223.96521643 -60.03661762 221.89793153 -59.99824524 219.82992554 C-59.98317635 218.41652828 -59.96949183 217.00311555 -59.95722961 215.58969116 C-59.9269529 212.14823791 -59.86821053 208.70895792 -59.81074524 205.26742554 C-68.06074524 205.26742554 -76.31074524 205.26742554 -84.81074524 205.26742554 C-84.90136431 193.85325703 -84.97464431 182.43933017 -85.01799393 171.02488232 C-85.03880684 165.72383878 -85.06700885 160.4230556 -85.11250305 155.12216187 C-85.15618609 149.99984007 -85.17992962 144.87776762 -85.19025421 139.75527382 C-85.19760543 137.80777376 -85.21196004 135.86028627 -85.23366547 133.9128933 C-85.3978791 118.55948755 -84.11587936 106.87337218 -72.99824524 95.39633179 C-69.47348247 92.09186669 -66.7166178 90.22921865 -62.10371399 88.82211304 C-53.43351983 84.56028969 -51.10746872 73.51258842 -47.87324524 65.07992554 C-47.09265503 63.1230049 -46.30845562 61.16752017 -45.52070618 59.21347046 C-43.96763148 55.34971923 -42.43096939 51.48019474 -40.9108429 47.60336304 C-38.21164214 40.72617737 -35.40935197 33.89650745 -32.56074524 27.07992554 C-32.15606018 26.07485962 -31.75137512 25.0697937 -31.33442688 24.03427124 C-28.27061216 16.64038498 -24.46309096 9.71290465 -17.87324524 4.89242554 C-16.96252258 4.20019897 -16.96252258 4.20019897 -16.03340149 3.49398804 C-10.94053628 0.68351409 -5.73683816 0.01667542 0 0 Z M-5.04611206 23.50492859 C-6.64570288 26.00905512 -8.02275464 28.32089979 -9.15083313 31.06674194 C-9.53795975 31.99185577 -9.92508636 32.9169696 -10.32394409 33.87011719 C-10.9226255 35.35455826 -10.9226255 35.35455826 -11.53340149 36.86898804 C-11.96076096 37.90123505 -12.38812042 38.93348206 -12.82843018 39.99700928 C-14.18842625 43.29079564 -15.5307434 46.59147595 -16.87324524 49.89242554 C-17.779053 52.08949118 -18.68594333 54.28611083 -19.59394836 56.48226929 C-21.26892188 60.54954513 -22.94277623 64.6172193 -24.60005188 68.69174194 C-24.93138626 69.50494904 -25.26272064 70.31815613 -25.60409546 71.15600586 C-27.41695071 75.83056312 -29.09732276 80.55551371 -30.81074524 85.26742554 C37.16925476 85.26742554 105.14925476 85.26742554 175.18925476 85.26742554 C172.93679286 78.38972314 172.93679286 78.38972314 170.38334656 71.67245483 C170.06258652 70.89101608 169.74182648 70.10957733 169.41134644 69.30445862 C169.07379837 68.49172989 168.73625031 67.67900116 168.38847351 66.84164429 C168.02961563 65.97280106 167.67075775 65.10395782 167.30102539 64.20878601 C166.54537121 62.38205912 165.78812092 60.55599173 165.02934265 58.7305603 C163.88505691 55.97491857 162.74878522 53.21606711 161.61308289 50.45687866 C156.14527518 34.15177229 156.14527518 34.15177229 146.18925476 21.26742554 C143.42527483 20.956231 143.42527483 20.956231 140.2434845 20.99327087 C139.0012915 20.98329575 137.75909851 20.97332062 136.47926331 20.96304321 C135.1002046 20.9621474 133.72114572 20.96148384 132.34208679 20.96102905 C130.89164299 20.95340865 129.44120323 20.94498136 127.99076843 20.93580627 C124.04857956 20.91384263 120.10646825 20.90505991 116.1642251 20.89997983 C113.70160023 20.89633849 111.23899574 20.8900996 108.77637863 20.88297844 C100.18596757 20.85847757 91.59561695 20.84543065 83.00517273 20.84188843 C74.99628596 20.83825252 66.98778227 20.80835508 58.97901261 20.76648384 C52.10418289 20.73180042 45.22948023 20.71634033 38.35456359 20.71564239 C34.24795085 20.71484891 30.14172823 20.70607813 26.03520584 20.67764473 C22.17235729 20.65149699 18.3102232 20.64923975 14.44732666 20.66530037 C13.03035806 20.66711753 11.6133487 20.66039981 10.19646835 20.64448166 C2.11004216 20.36767018 2.11004216 20.36767018 -5.04611206 23.50492859 Z M-49.72480774 116.24398804 C-54.85564098 121.22108845 -58.04285752 128.13208357 -58.56074524 135.26742554 C-58.04269448 142.40501379 -54.84573451 149.27290279 -49.75996399 154.29086304 C-43.98220708 158.49846576 -37.65079484 160.52860865 -30.49433899 160.14242554 C-24.43903624 159.13145325 -19.21773994 156.54237545 -14.81074524 152.26742554 C-10.71804367 146.42311507 -7.71001078 140.09976693 -8.23652649 132.84555054 C-9.84923743 125.60480756 -12.97827355 119.07193423 -19.06074524 114.64242554 C-29.51409703 108.71418241 -39.9778399 109.23301117 -49.72480774 116.24398804 Z M156.17753601 119.62289429 C151.63469082 126.79190639 150.82143551 133.96617768 152.18925476 142.26742554 C154.22947754 148.82235817 157.36985769 153.26730169 163.18925476 156.95492554 C170.43462994 160.35057821 178.17643328 160.82236278 185.83378601 158.44711304 C191.78498763 155.54754972 195.70419127 150.80618716 199.18925476 145.26742554 C201.23261314 139.13735041 201.31054381 131.66512469 199.28300476 125.52133179 C195.59532484 118.51237604 190.4409047 114.4191717 183.18925476 111.26742554 C172.74190165 109.65340332 163.24517056 111.34758626 156.17753601 119.62289429 Z " fill="#013893" transform="translate(87.81074523925781,136.73257446289063)"/>
<path d="M0 0 C7.63551134 6.28806817 14.07690344 12.78686096 16.05859375 22.6953125 C1.53859375 22.6953125 -12.98140625 22.6953125 -27.94140625 22.6953125 C-27.94140625 33.5853125 -27.94140625 44.4753125 -27.94140625 55.6953125 C-13.42140625 55.6953125 1.09859375 55.6953125 16.05859375 55.6953125 C12.3384547 66.85572964 5.71307462 75.40032215 -4.52734375 81.515625 C-16.95857803 87.59043528 -30.46524214 88.74716614 -43.81640625 85.1953125 C-55.13127899 81.16942145 -65.67213907 72.61297185 -70.94140625 61.6953125 C-71.72439653 61.69292415 -72.50738682 61.69053579 -73.31410408 61.68807507 C-92.36839256 61.62893204 -111.42255142 61.5533864 -130.47670174 61.45959759 C-139.69116192 61.41463725 -148.90558343 61.37522312 -158.12011719 61.34887695 C-166.1517623 61.32589882 -174.18328506 61.29250284 -182.21483314 61.24661094 C-186.46725712 61.22267622 -190.71955991 61.20394908 -194.97204971 61.19769859 C-198.97595455 61.19164885 -202.97954929 61.17165313 -206.98333931 61.14103699 C-208.45144942 61.13225498 -209.91960006 61.12853453 -211.38773537 61.13030434 C-213.39566177 61.13196037 -215.4035744 61.11347048 -217.41140747 61.09403992 C-218.53415133 61.08943095 -219.65689518 61.08482199 -220.81366158 61.08007336 C-226.97162742 60.32254854 -231.24072288 57.09087854 -235.390625 52.7109375 C-239.03844468 47.96969076 -240.27415406 42.92868091 -239.81640625 37.0078125 C-238.57818348 29.56557775 -234.79563749 24.33090785 -228.94140625 19.6953125 C-225.02867433 17.79269551 -221.88821843 17.44845748 -217.55857849 17.45721436 C-216.27012024 17.45472183 -214.98166199 17.45222931 -213.65415955 17.44966125 C-212.23355033 17.45686437 -210.81294182 17.46420857 -209.39233398 17.47167969 C-207.89071659 17.47220413 -206.38909859 17.47176776 -204.88748169 17.47044373 C-201.6583056 17.46911166 -198.42920564 17.47351149 -195.20004082 17.48204803 C-190.09474331 17.49443645 -184.98958702 17.4874782 -179.8842926 17.47662354 C-165.36854247 17.44816357 -150.85291458 17.4357727 -136.3371582 17.46533203 C-128.31680886 17.48150228 -120.29676782 17.47641356 -112.27645069 17.44753575 C-108.03290291 17.43322486 -103.78999687 17.4302585 -99.54647636 17.45375824 C-95.55790275 17.47584455 -91.57032761 17.47042325 -87.58179092 17.44377327 C-86.11764879 17.43899336 -84.65343184 17.44450052 -83.18937492 17.46100426 C-81.19210005 17.48203578 -79.19452138 17.46274008 -77.19725037 17.44134521 C-75.52011034 17.44247629 -75.52011034 17.44247629 -73.80908871 17.44363022 C-70.65132167 16.92830072 -70.65132167 16.92830072 -68.66003513 13.79297256 C-68.0928876 12.77074474 -67.52574007 11.74851692 -66.94140625 10.6953125 C-51.22302567 -9.99413722 -21.57768162 -15.75764639 0 0 Z " fill="#013893" transform="translate(269.94140625,11.3046875)"/>
</svg>
