<?xml version="1.0" encoding="UTF-8"?>
<svg version="1.1" xmlns="http://www.w3.org/2000/svg" width="320" height="320">
<path d="M0 0 C7.22271341 -0.21856904 11.4876586 0.94054659 17.58984375 4.9140625 C21.66766205 8.8816695 24.07448502 12.81573463 24.38336182 18.4985199 C24.3948342 20.13368188 24.38460062 21.76909292 24.35644531 23.40405273 C24.35702942 24.30240341 24.35761353 25.20075409 24.35821533 26.12632751 C24.35544378 29.07550621 24.32439589 32.02365561 24.29296875 34.97265625 C24.28550305 37.02530872 24.27981167 39.07796834 24.27581787 41.13063049 C24.26058749 46.51809567 24.22132785 51.90512555 24.17700195 57.29241943 C24.12877596 63.76437129 24.1105029 70.23646917 24.08718872 76.7085495 C24.0484755 86.52735604 23.97180312 96.34520856 23.90234375 106.1640625 C45.35234375 105.8340625 66.80234375 105.5040625 88.90234375 105.1640625 C89.23234375 101.8640625 89.56234375 98.5640625 89.90234375 95.1640625 C92.13844096 83.58140069 98.75152536 72.81940755 108.21484375 65.7890625 C119.35765256 58.38811816 130.00371092 51.69937161 143.90234375 54.1640625 C149.00815545 56.44344272 152.67270726 60.62994743 155.90234375 65.1640625 C157.72942655 70.64531089 158.01555625 77.02730017 156.06640625 82.51953125 C151.37234496 90.66325504 143.35053785 94.67076544 135.125 98.57421875 C132.71567044 99.94766233 132.71567044 99.94766233 132.28100586 102.3671875 C131.86648071 105.42895414 131.70618596 108.41501381 131.62109375 111.50390625 C131.56501953 113.34758789 131.56501953 113.34758789 131.5078125 115.22851562 C131.47300781 116.50662109 131.43820312 117.78472656 131.40234375 119.1015625 C130.40934602 154.573648 123.03409848 183.16535579 99.7578125 210.66796875 C97.50020723 213.35836036 95.59352715 216.07246056 93.90234375 219.1640625 C94.54300781 219.63714844 95.18367187 220.11023438 95.84375 220.59765625 C105.98760587 228.35294397 115.42330405 238.68753126 117.27734375 251.8203125 C118.82196452 266.80313393 116.55353661 278.5760614 107.03515625 290.50390625 C99.54092426 299.37163628 90.76583243 306.19190637 78.984375 307.6484375 C65.52882427 308.61268403 55.55265318 307.55855113 43.90234375 300.1640625 C43.16886719 299.69871094 42.43539062 299.23335938 41.6796875 298.75390625 C32.53559841 292.42880417 26.71391515 283.18787747 23.35205078 272.66308594 C22.32125752 266.93496441 22.72843664 260.96379398 22.90234375 255.1640625 C21.79197754 255.13900635 20.68161133 255.1139502 19.53759766 255.08813477 C15.42631056 254.99411335 11.31519452 254.89387993 7.20410156 254.79174805 C5.42321772 254.7483792 3.64229177 254.70670556 1.86132812 254.66674805 C-0.69544173 254.6090926 -3.25199923 254.5453848 -5.80859375 254.48046875 C-6.60760101 254.46375626 -7.40660828 254.44704376 -8.22982788 254.42982483 C-13.86991284 254.27793421 -13.86991284 254.27793421 -16.09765625 253.1640625 C-16.05125 254.26363281 -16.00484375 255.36320313 -15.95703125 256.49609375 C-15.51197567 271.42491637 -18.87805769 283.02766256 -29.12890625 294.421875 C-38.64148247 303.4863951 -49.93168697 308.09970765 -62.9921875 308.19140625 C-77.3187962 307.82618172 -88.26617123 303.1953303 -98.39453125 292.80859375 C-108.81814227 280.48443711 -111.12227204 267.8444789 -110.09765625 252.1640625 C-108.72342615 243.26650489 -103.84629222 235.00618901 -98.09765625 228.1640625 C-97.43765625 228.1640625 -96.77765625 228.1640625 -96.09765625 228.1640625 C-96.09765625 227.5040625 -96.09765625 226.8440625 -96.09765625 226.1640625 C-94.12890625 224.4375 -94.12890625 224.4375 -91.59765625 222.5390625 C-90.76234375 221.90742188 -89.92703125 221.27578125 -89.06640625 220.625 C-88.091875 219.90183594 -88.091875 219.90183594 -87.09765625 219.1640625 C-89.14971251 215.14203223 -91.05048429 212.04374813 -94.375 208.9765625 C-98.31177528 205.11668738 -101.20500327 200.90074827 -104.09765625 196.2265625 C-104.61457031 195.39680908 -105.13148437 194.56705566 -105.6640625 193.7121582 C-123.13571716 165.06072452 -128.59719277 130.0705187 -120.73803711 97.38891602 C-120.20947044 95.30862368 -119.65822861 93.23592535 -119.09765625 91.1640625 C-118.83339844 90.13410156 -118.56914063 89.10414062 -118.296875 88.04296875 C-113.29858135 70.96349141 -102.57623009 52.45038403 -89.375 40.3984375 C-87.96206272 39.16988257 -87.96206272 39.16988257 -87.09765625 37.1640625 C-86.43765625 37.1640625 -85.77765625 37.1640625 -85.09765625 37.1640625 C-84.88753906 36.60203125 -84.67742187 36.04 -84.4609375 35.4609375 C-82.63071356 32.37735103 -80.11395491 30.52349329 -77.28515625 28.4140625 C-76.71200684 27.98013184 -76.13885742 27.54620117 -75.54833984 27.09912109 C-69.6479373 22.70479348 -63.4537014 18.86771222 -57.09765625 15.1640625 C-56.06125 14.514375 -55.02484375 13.8646875 -53.95703125 13.1953125 C-49.0132222 10.38407362 -43.61067206 8.78634753 -38.22265625 7.0390625 C-37.18496094 6.69230469 -36.14726563 6.34554688 -35.078125 5.98828125 C-23.25547049 2.09709231 -12.4188966 0.65774736 0 0 Z M-59.22265625 68.9140625 C-66.8154777 76.75230848 -72.00557125 86.12417953 -76.09765625 96.1640625 C-76.47148438 96.99035156 -76.8453125 97.81664062 -77.23046875 98.66796875 C-78.37113674 101.51083588 -78.37113674 101.51083588 -78.09765625 106.1640625 C-57.96765625 106.1640625 -37.83765625 106.1640625 -17.09765625 106.1640625 C-17.09765625 86.3640625 -17.09765625 66.5640625 -17.09765625 46.1640625 C-33.27014626 46.1640625 -47.90961978 58.28332978 -59.22265625 68.9140625 Z M-79.09765625 148.1640625 C-75.69506626 159.22247998 -72.27006737 169.94239107 -65.09765625 179.1640625 C-64.43765625 179.1640625 -63.77765625 179.1640625 -63.09765625 179.1640625 C-62.82566406 179.751875 -62.55367187 180.3396875 -62.2734375 180.9453125 C-59.4603071 186.25381106 -55.00527875 190.75599132 -50.09765625 194.1640625 C-49.43765625 194.1640625 -48.77765625 194.1640625 -48.09765625 194.1640625 C-48.09765625 194.8240625 -48.09765625 195.4840625 -48.09765625 196.1640625 C-30.93067972 206.39822159 -12.60935421 214.91374802 7.90234375 213.1640625 C9.07023437 213.06996094 10.238125 212.97585937 11.44140625 212.87890625 C34.16173204 210.45634563 53.73804132 200.13363903 68.90234375 183.1640625 C77.03174585 172.79825861 83.72117784 161.25105794 85.90234375 148.1640625 C31.45234375 148.1640625 -22.99765625 148.1640625 -79.09765625 148.1640625 Z M-67.97265625 256.3515625 C-69.48974535 258.79576161 -69.45150574 260.33326658 -69.09765625 263.1640625 C-68.10765625 264.6490625 -68.10765625 264.6490625 -67.09765625 266.1640625 C-65.12018503 266.52704186 -65.12018503 266.52704186 -62.97265625 266.3515625 C-61.69390625 266.2896875 -60.41515625 266.2278125 -59.09765625 266.1640625 C-57.54628839 263.70012531 -57.06726496 262.48317104 -57.34765625 259.5390625 C-57.94609005 257.00806021 -57.94609005 257.00806021 -60.09765625 255.1640625 C-63.23469941 254.8303345 -65.26319791 254.63557222 -67.97265625 256.3515625 Z M63.90234375 259.1640625 C64.87010473 262.95954171 64.87010473 262.95954171 66.90234375 266.1640625 C70.36055777 266.41410214 70.36055777 266.41410214 73.90234375 266.1640625 C76.20980789 264.28632986 76.20980789 264.28632986 76.15234375 261.2265625 C76.13752129 257.99123463 76.13752129 257.99123463 73.90234375 255.1640625 C68.97660876 254.41449413 67.01001403 255.33923755 63.90234375 259.1640625 Z " fill="#FFFFFF" transform="translate(143.09765625,5.8359375)"/>
</svg>
