<?xml version="1.0" encoding="UTF-8"?>
<svg version="1.1" xmlns="http://www.w3.org/2000/svg" width="320" height="320">
<path d="M0 0 C5.41568549 2.52109497 8.82786161 6.36268862 11.25 11.8125 C11.62125 12.8953125 11.62125 12.8953125 12 14 C13.175625 13.2575 13.175625 13.2575 14.375 12.5 C19.54190432 10.36197063 24.64584449 9.85388895 30.0234375 11.69140625 C35.19846034 14.39190944 39.14890905 18.44672715 41 24 C41.1190686 25.78879802 41.17522113 27.5822856 41.1875 29.375 C41.20167969 30.31085937 41.21585938 31.24671875 41.23046875 32.2109375 C40.98668108 35.16118154 40.23112508 37.32364112 39 40 C40.23363281 41.14662109 40.23363281 41.14662109 41.4921875 42.31640625 C50.39701634 50.78871484 58.40310684 59.94295932 63.46484375 71.28125 C65.28412684 74.50318646 66.55984006 75.18604009 69.9375 76.5625 C75.58414349 79.12691451 78.57708885 82.28520112 81 88 C81.73020332 94.2778519 81.51943369 99.5742064 78 105 C78.680625 105.04125 79.36125 105.0825 80.0625 105.125 C85.60377701 106.77559315 89.06228825 110.39681539 91.9375 115.3125 C93.59460237 121.06361998 94.21302341 126.28769553 91.375 131.75 C88.08062562 136.76722742 83.7526737 140.13884086 78 142 C78.495 142.78375 78.99 143.5675 79.5 144.375 C81.86643936 150.09389511 81.85777624 155.37621384 79.9375 161.25 C76.81033903 165.68855106 73.35235226 169.47192092 67.9375 170.6875 C63.64331964 172.60617633 62.74295847 175.77127812 60.6796875 179.87109375 C56.42251636 187.80131255 50.52226617 194.55189533 44.375 201.0625 C29.09897292 217.31090141 22.9113004 236.57161002 22.82421875 258.48828125 C22.80102208 260.74414997 22.7769048 263.00000938 22.75195312 265.25585938 C22.71688346 268.78416212 22.68750144 272.31212045 22.67407227 275.84057617 C22.65851546 279.26522645 22.61826428 282.6888938 22.57421875 286.11328125 C22.57612717 287.15527176 22.57803558 288.19726227 22.58000183 289.27082825 C22.43546656 298.01527814 20.47449611 306.70049027 14 313 C6.99442392 318.19686371 2.1077724 320.20584755 -6.6875 320.3125 C-7.46544922 320.34150391 -8.24339844 320.37050781 -9.04492188 320.40039062 C-15.91555168 320.47488453 -20.72201688 318.4761743 -26.171875 314.359375 C-32.00503595 308.41070591 -36.09298197 301.72744036 -36.15771484 293.21582031 C-36.17310806 291.75719574 -36.17310806 291.75719574 -36.18881226 290.269104 C-36.19976425 288.6895694 -36.19976425 288.6895694 -36.2109375 287.078125 C-36.23904223 284.83202441 -36.26770686 282.58593078 -36.296875 280.33984375 C-36.3378452 276.81201646 -36.37474103 273.28431384 -36.40136719 269.75634766 C-36.64153644 240.45155844 -41.98989621 219.93705085 -61.57519531 197.625 C-66.34039414 192.19025645 -70.58354861 186.92817114 -73.94091797 180.52172852 C-77.04149865 174.62059885 -79.2592029 170.93719736 -85.8828125 168.8515625 C-89.59544496 167.35828966 -91.86007121 164.29396182 -94 161 C-95.87052858 155.38841426 -95.75605958 149.82714398 -93.5 144.375 C-92.7575 143.199375 -92.7575 143.199375 -92 142 C-93.19625 141.484375 -94.3925 140.96875 -95.625 140.4375 C-100.15917579 138.1824925 -103.18901204 135.19216544 -106 131 C-107.84152373 125.47542882 -107.8169855 120.08994339 -105.375 114.75 C-102.71348676 110.03827515 -99.46503089 106.69663916 -94.125 105.1875 C-93.42375 105.125625 -92.7225 105.06375 -92 105 C-92.495 104.236875 -92.99 103.47375 -93.5 102.6875 C-95.77698945 97.08990094 -96.25968302 91.45246456 -94.15625 85.6875 C-90.74591135 79.60419322 -85.52639015 76.17546338 -79 74 C-77.66532363 71.87221217 -76.4766224 69.7801503 -75.3125 67.5625 C-69.42113626 56.84647672 -61.79243812 48.46812688 -53 40 C-53.32226562 39.28585938 -53.64453125 38.57171875 -53.9765625 37.8359375 C-55.80366591 32.7730479 -56.00384197 27.05715509 -54.3125 21.90625 C-51.61552734 16.78200195 -47.50228475 12.83409492 -42 11 C-35.92416217 10.45620729 -31.29622616 10.65501506 -26 14 C-25.78085938 13.48050781 -25.56171875 12.96101562 -25.3359375 12.42578125 C-19.99899997 0.68885766 -12.3688828 -1.01430474 0 0 Z M-45.8125 64.6875 C-61.142926 82.88710665 -67.94603438 107.4332416 -66 131 C-63.60682992 153.40830655 -54.88770296 174.31224003 -37.4921875 189.1796875 C-25.35381185 198.0456484 -12.62583623 200.28452425 2 199 C16.42703561 196.2745306 28.29916776 187.07970026 36.45410156 175.15625 C50.89785386 153.18343584 55.24189189 127.73397804 49.9765625 102.109375 C45.5877881 82.71880653 35.69056998 65.26357483 19 54 C-3.56600558 40.75767337 -28.0838371 46.1972966 -45.8125 64.6875 Z M-18 222 C-16.71255078 228.47419835 -16.71255078 228.47419835 -15.38037109 234.93920898 C-13.05031545 247.60342734 -13.64115186 260.64932892 -13.61914062 273.47729492 C-13.60965586 276.76779853 -13.57597772 280.05736241 -13.5390625 283.34765625 C-13.54410797 284.35804459 -13.54915344 285.36843292 -13.55435181 286.40943909 C-13.53741899 291.88085066 -13.53741899 291.88085066 -11.16162109 296.66967773 C-8.97929345 298.28149489 -8.97929345 298.28149489 -5.875 297.9375 C-2.70825068 297.23305313 -2.70825068 297.23305313 -1 294 C-0.69363361 291.83979557 -0.69363361 291.83979557 -0.72875977 289.43115234 C-0.71857315 288.50523285 -0.70838654 287.57931335 -0.69789124 286.62533569 C-0.69575119 285.62233429 -0.69361115 284.61933289 -0.69140625 283.5859375 C-0.6662022 281.44010197 -0.64080497 279.2942687 -0.61523438 277.1484375 C-0.58676089 273.78321179 -0.56274346 270.41802666 -0.54370117 267.05273438 C-0.45325753 253.67105136 0.18166024 241.10101536 3 228 C3.33 226.02 3.66 224.04 4 222 C-3.26 222 -10.52 222 -18 222 Z " fill="#013894" transform="translate(167,0)"/>
<path d="M0 0 C2.90619135 1.39596486 4.97121766 2.73064201 7.234375 5.0390625 C7.80800781 5.61914062 8.38164062 6.19921875 8.97265625 6.796875 C9.55917969 7.40015625 10.14570313 8.0034375 10.75 8.625 C11.35199219 9.23601562 11.95398438 9.84703125 12.57421875 10.4765625 C14.05405305 11.97988624 15.52764676 13.48934856 17 15 C11.50280742 21.69529866 5.39046848 27.73696491 -0.7421875 33.83984375 C-1.87726406 34.97305199 -3.01211763 36.10648362 -4.14675903 37.24012756 C-7.11350744 40.20308335 -10.08324802 43.16302193 -13.0536499 46.12231445 C-16.0922886 49.15066856 -19.12804909 52.18190499 -22.1640625 55.21289062 C-28.1065826 61.14473089 -34.052271 67.07338261 -40 73 C-42.90619135 71.60403514 -44.97121766 70.26935799 -47.234375 67.9609375 C-47.80800781 67.38085938 -48.38164063 66.80078125 -48.97265625 66.203125 C-49.55917969 65.59984375 -50.14570312 64.9965625 -50.75 64.375 C-51.35199219 63.76398438 -51.95398438 63.15296875 -52.57421875 62.5234375 C-54.05405305 61.02011376 -55.52764676 59.51065144 -57 58 C-51.50280742 51.30470134 -45.39046848 45.26303509 -39.2578125 39.16015625 C-38.12273594 38.02694801 -36.98788237 36.89351638 -35.85324097 35.75987244 C-32.88649256 32.79691665 -29.91675198 29.83697807 -26.9463501 26.87768555 C-23.9077114 23.84933144 -20.87195091 20.81809501 -17.8359375 17.78710938 C-11.8934174 11.85526911 -5.947729 5.92661739 0 0 Z " fill="#013894" transform="translate(173,76)"/>
<path d="M0 0 C1.1078354 0.94106385 2.21444803 1.88356727 3.32055664 2.82666016 C3.93693497 3.35135895 4.55331329 3.87605774 5.18836975 4.41665649 C7.71791903 6.62745278 10.07881136 8.98400056 12.4375 11.375 C13.30246094 12.24898437 14.16742188 13.12296875 15.05859375 14.0234375 C15.69925781 14.67570313 16.33992188 15.32796875 17 16 C12.07668748 21.94135341 6.78812484 27.49580435 1.36767578 32.98242188 C0.36362363 34.00322465 -0.63500631 35.02938622 -1.62841797 36.06054688 C-3.076352 37.56295013 -4.53979691 39.04849524 -6.0078125 40.53125 C-6.87035645 41.41361328 -7.73290039 42.29597656 -8.62158203 43.20507812 C-11 45 -11 45 -13.10766602 44.9543457 C-16.60175764 43.19219835 -19.0753271 40.43661259 -21.8125 37.6875 C-22.42287109 37.10548828 -23.03324219 36.52347656 -23.66210938 35.92382812 C-24.23380859 35.35470703 -24.80550781 34.78558594 -25.39453125 34.19921875 C-25.91893799 33.68190186 -26.44334473 33.16458496 -26.98364258 32.6315918 C-28 31 -28 31 -27.7255249 29.08131409 C-26.49472274 25.55051056 -23.62246302 23.26003033 -20.99609375 20.703125 C-20.39821548 20.10949158 -19.80033722 19.51585815 -19.18434143 18.90423584 C-17.27565898 17.01232805 -15.3568046 15.13112501 -13.4375 13.25 C-12.14059164 11.96813998 -10.84435922 10.6855957 -9.54882812 9.40234375 C-6.37367043 6.26023928 -3.18935054 3.12769461 0 0 Z " fill="#023893" transform="translate(187,118)"/>
</svg>
