<?xml version="1.0" encoding="UTF-8"?>
<svg version="1.1" xmlns="http://www.w3.org/2000/svg" width="320" height="320">
<path d="M0 0 C0.77748093 -0.0065712 1.55496185 -0.0131424 2.35600281 -0.01991272 C4.93639215 -0.0396672 7.51672311 -0.05131565 10.09716797 -0.0612793 C10.97898617 -0.06535482 11.86080437 -0.06943035 12.76934433 -0.07362938 C17.44046546 -0.09450347 22.11155713 -0.108797 26.78271484 -0.11816406 C31.59790722 -0.12920599 36.4126346 -0.16357623 41.22766304 -0.20333576 C44.93727448 -0.229545 48.64677614 -0.23785992 52.35647202 -0.24144554 C54.13060506 -0.24630368 55.90473346 -0.25789561 57.67877579 -0.27648354 C60.17033331 -0.30095772 62.66070162 -0.2998948 65.15234375 -0.29296875 C65.87784927 -0.30577881 66.6033548 -0.31858887 67.35084534 -0.33178711 C73.59789815 -0.26888829 78.63302193 1.8407346 83.45263672 5.81762695 C83.88962891 6.3487207 84.32662109 6.87981445 84.77685547 7.42700195 C85.22673828 7.9477832 85.67662109 8.46856445 86.14013672 9.00512695 C90.46739973 16.10234889 90.89841511 22.5108037 90.85203552 30.6257019 C90.85742106 31.7607092 90.8628066 32.8957165 90.86835533 34.06511796 C90.88263427 37.85887137 90.87553107 41.65227583 90.8684082 45.44604492 C90.87246928 48.16989036 90.88097568 50.89371811 90.88920593 53.61755371 C90.9063763 60.24264014 90.90723758 66.86763164 90.90199303 73.49273454 C90.89794661 78.87957699 90.89940049 84.26639145 90.90474129 89.65323257 C90.90548971 90.42081185 90.90623813 91.18839113 90.90700923 91.97923038 C90.90854076 93.5387268 90.91007911 95.09822322 90.9116242 96.65771963 C90.925343 111.27293925 90.91991604 125.8881053 90.90843899 140.50332369 C90.89850846 153.86242292 90.91144522 167.22138362 90.93537318 180.58046149 C90.95977942 194.31042812 90.96936823 208.04033027 90.96272045 221.77031815 C90.95923146 229.47350539 90.96143905 237.17658613 90.97897148 244.87975693 C90.99371261 251.43766486 90.99430413 257.99539128 90.97690057 264.55329572 C90.96840336 267.89646817 90.96838729 271.2390513 90.98155212 274.58224869 C90.99475699 278.21324857 90.98321727 281.84337226 90.96556091 285.47433472 C90.97996842 287.0449821 90.97996842 287.0449821 90.99466699 288.64735973 C90.91722554 296.40674838 89.46666716 303.45246419 84.49951172 309.61450195 C83.84853516 310.13012695 83.19755859 310.64575195 82.52685547 311.17700195 C81.87845703 311.71325195 81.23005859 312.24950195 80.56201172 312.80200195 C75.67985166 316.00222605 71.27401528 316.47463267 65.54052734 316.4675293 C64.75778946 316.47424652 63.97505157 316.48096375 63.16859436 316.48788452 C60.59003292 316.50682956 58.0117321 316.51078651 55.43310547 316.51293945 C53.6361887 316.51936832 51.83927298 316.52609675 50.0423584 316.53311157 C46.27984184 316.5450745 42.51741704 316.54879326 38.75488281 316.54760742 C33.93608518 316.54740395 29.11787541 316.5747398 24.29921722 316.60915184 C20.58971456 316.63139502 16.88035416 316.63544581 13.17079163 316.63438797 C11.39419015 316.63674652 9.6175849 316.64558439 7.84104919 316.6610527 C5.35634153 316.68066689 2.87291219 316.67489404 0.38818359 316.6628418 C-0.34339462 316.67408081 -1.07497284 316.68531982 -1.82872009 316.69689941 C-6.67084782 316.63726809 -9.13847522 315.61915592 -12.53564453 312.17700195 C-14.40746072 308.43336958 -13.84992601 303.98508189 -13.91064453 299.86450195 C-13.94802734 298.91381836 -13.98541016 297.96313477 -14.02392578 296.98364258 C-14.03552734 296.06131836 -14.04712891 295.13899414 -14.05908203 294.1887207 C-14.07890137 293.34784912 -14.0987207 292.50697754 -14.11914062 291.640625 C-13.18017775 287.67615876 -11.93059173 286.47719619 -8.53564453 284.17700195 C-4.20267504 283.46292059 0.08227038 283.55174524 4.46435547 283.6105957 C5.73279297 283.60496109 7.00123047 283.59932648 8.30810547 283.59352112 C12.36059384 283.57705228 16.41195571 283.59242588 20.46435547 283.61450195 C24.51664621 283.63273822 28.5682708 283.64021105 32.62060547 283.62477112 C35.14144101 283.6154745 37.66242768 283.62470935 40.18310547 283.65440369 C41.32779297 283.65082352 42.47248047 283.64724335 43.65185547 283.64355469 C45.158125 283.65285255 45.158125 283.65285255 46.69482422 283.66233826 C50.22337775 283.04398989 51.89792075 281.62279672 54.46435547 279.17700195 C56.18806321 275.72958648 55.96742219 271.94664856 55.46435547 268.17700195 C53.58814934 265.67539378 52.22544244 264.55754544 49.46435547 263.17700195 C47.66808615 263.06763305 45.86787313 263.02060185 44.06835938 263.00341797 C42.94023834 262.98992813 41.81211731 262.97643829 40.64981079 262.96253967 C39.42587616 262.95210129 38.20194153 262.9416629 36.94091797 262.9309082 C34.36799787 262.89797243 31.79508128 262.86476073 29.22216797 262.83129883 C25.15124789 262.78279232 21.08030115 262.73900067 17.00927734 262.70019531 C13.09051009 262.66227085 9.17200973 262.60898115 5.25341797 262.5559082 C4.0335318 262.54749405 2.81364563 262.5390799 1.55679321 262.53041077 C0.42236786 262.51376877 -0.7120575 262.49712677 -1.88085938 262.47998047 C-2.8785434 262.469673 -3.87622742 262.45936554 -4.90414429 262.44874573 C-7.61330732 262.16898205 -9.24723712 261.62539724 -11.53564453 260.17700195 C-14.77568166 255.54395524 -14.1462809 249.56237326 -13.53564453 244.17700195 C-11.44348941 240.49769468 -10.52416434 239.50650856 -6.53564453 238.17700195 C-4.70623175 238.08551675 -2.87369084 238.05188177 -1.04199219 238.05102539 C0.08282562 238.04721863 1.20764343 238.04341187 2.36654663 238.03948975 C4.19000107 238.03794891 4.19000107 238.03794891 6.05029297 238.03637695 C8.61540604 238.01805309 11.18051047 237.99848318 13.74560547 237.9777832 C17.79677431 237.94741898 21.84763234 237.92468299 25.89892578 237.92651367 C29.80389262 237.92745274 33.7080225 237.88867311 37.61279297 237.84887695 C39.43017471 237.85948151 39.43017471 237.85948151 41.28427124 237.87030029 C48.07501413 237.99825306 48.07501413 237.99825306 53.72607422 234.77758789 C56.02809396 231.33361116 56.17922865 229.36212419 55.96435547 225.33325195 C55.16436294 221.88328417 53.20842552 220.26772199 50.46435547 218.17700195 C47.87053066 216.88008955 45.98865116 217.05238026 43.08422852 217.05102539 C41.95933517 217.04721863 40.83444183 217.04341187 39.67546082 217.03948975 C38.45466324 217.03846252 37.23386566 217.0374353 35.97607422 217.03637695 C33.40770596 217.0180506 30.83934634 216.99848045 28.27099609 216.9777832 C24.20884145 216.94742399 20.14699563 216.92468106 16.0847168 216.92651367 C12.17315886 216.92745287 8.26243617 216.88866486 4.35107422 216.84887695 C3.13634933 216.85594666 1.92162445 216.86301636 0.67008972 216.87030029 C-8.71434753 216.73449621 -8.71434753 216.73449621 -11.79956055 213.83227539 C-13.93701573 210.5631202 -14.20608012 208.56628864 -14.16064453 204.67700195 C-14.17353516 203.57356445 -14.18642578 202.47012695 -14.19970703 201.33325195 C-13.5340331 198.16934293 -12.77292382 196.43914749 -10.41293335 194.21917725 C-6.05160302 191.79798842 -0.59972858 192.52179763 4.24560547 192.57543945 C5.49184692 192.56743317 6.73808838 192.55942688 8.02209473 192.55117798 C11.32810126 192.53200515 14.63325402 192.5324923 17.93927002 192.54498291 C22.59513569 192.56112036 27.25077486 192.55599869 31.90661621 192.53140259 C34.38290709 192.51929608 36.85932445 192.52201042 39.33557129 192.54110718 C40.46023804 192.53745148 41.58490479 192.53379578 42.74365234 192.5300293 C43.73006714 192.53400726 44.71648193 192.53798523 45.73278809 192.54208374 C48.98760392 192.1070683 50.82955584 191.11224987 53.46435547 189.17700195 C55.47907143 186.154928 55.80154581 185.25973496 55.90185547 181.80200195 C55.96179688 180.67665039 55.96179688 180.67665039 56.02294922 179.52856445 C55.38136052 176.82761063 54.36871031 175.16366103 52.35877991 173.24523926 C47.95345209 170.76114149 42.37116245 171.54469834 37.46435547 171.6105957 C35.56169922 171.60214378 35.56169922 171.60214378 33.62060547 171.59352112 C29.56811709 171.57705228 25.51675523 171.59242588 21.46435547 171.61450195 C17.41206473 171.63273822 13.36044014 171.64021105 9.30810547 171.62477112 C6.78726993 171.6154745 4.26628326 171.62470935 1.74560547 171.65440369 C0.60091797 171.65082352 -0.54376953 171.64724335 -1.72314453 171.64355469 C-2.72732422 171.64975327 -3.73150391 171.65595184 -4.76611328 171.66233826 C-8.29466681 171.04398989 -9.96920982 169.62279672 -12.53564453 167.17700195 C-14.62104606 163.00619889 -13.98991567 157.71971331 -13.53564453 153.17700195 C-11.72761049 150.10334409 -10.67524989 148.74680463 -7.53564453 147.17700195 C-5.73937521 147.06763305 -3.93916219 147.02060185 -2.13964844 147.00341797 C-1.0115274 146.98992813 0.11659363 146.97643829 1.27890015 146.96253967 C3.11480209 146.9468821 3.11480209 146.9468821 4.98779297 146.9309082 C7.56071307 146.89797243 10.13362965 146.86476073 12.70654297 146.83129883 C16.77746305 146.78279232 20.84840979 146.73900067 24.91943359 146.70019531 C28.83820085 146.66227085 32.75670121 146.60898115 36.67529297 146.5559082 C37.89517914 146.54749405 39.11506531 146.5390799 40.37191772 146.53041077 C41.50634308 146.51376877 42.64076843 146.49712677 43.80957031 146.47998047 C45.30609634 146.46451927 45.30609634 146.46451927 46.83285522 146.44874573 C49.5736708 146.16571343 51.17413844 145.68767094 53.46435547 144.17700195 C56.14645458 140.15385329 56.15278962 136.90480276 55.46435547 132.17700195 C53.3504367 128.67810192 52.34699488 127.47121509 48.46435547 126.17700195 C46.63494268 126.08551675 44.80240178 126.05188177 42.97070312 126.05102539 C41.84588531 126.04721863 40.7210675 126.04341187 39.56216431 126.03948975 C38.34652802 126.03846252 37.13089172 126.0374353 35.87841797 126.03637695 C33.31330489 126.01805309 30.74820047 125.99848318 28.18310547 125.9777832 C24.13193662 125.94741898 20.0810786 125.92468299 16.02978516 125.92651367 C12.12481831 125.92745274 8.22068844 125.88867311 4.31591797 125.84887695 C3.10433014 125.85594666 1.89274231 125.86301636 0.6444397 125.87030029 C-8.71206303 125.73451409 -8.71206303 125.73451409 -11.79736328 122.83227539 C-13.93754975 119.56308044 -14.20609664 117.56770278 -14.16064453 113.67700195 C-14.17353516 112.57356445 -14.18642578 111.47012695 -14.19970703 110.33325195 C-13.28244138 105.97354229 -12.17053663 104.80139569 -8.53564453 102.17700195 C-4.36352532 101.44388449 -0.23468654 101.52765842 3.99169922 101.57543945 C5.82420982 101.56343002 5.82420982 101.56343002 7.69374084 101.55117798 C11.59678288 101.5280931 15.49878515 101.53757908 19.40185547 101.55200195 C23.30116063 101.55584956 27.20000506 101.55240538 31.09925842 101.53140259 C33.52439119 101.51931723 35.94965318 101.52197585 38.3747406 101.54110718 C46.36078378 101.5704256 46.36078378 101.5704256 53.46435547 98.17700195 C55.47907143 95.154928 55.80154581 94.25973496 55.90185547 90.80200195 C55.94181641 90.05176758 55.98177734 89.3015332 56.02294922 88.52856445 C55.38053665 85.82414233 54.35687812 84.16770628 52.34535217 82.24746704 C48.00509046 79.77744749 42.5288276 80.52179334 37.68310547 80.57543945 C36.43686401 80.56743317 35.19062256 80.55942688 33.90661621 80.55117798 C30.60060967 80.53200515 27.29545692 80.5324923 23.98944092 80.54498291 C19.33357525 80.56112036 14.67793607 80.55599869 10.02209473 80.53140259 C7.54580385 80.51929608 5.06938648 80.52201042 2.59313965 80.54110718 C0.90613953 80.53562363 0.90613953 80.53562363 -0.81494141 80.5300293 C-1.8013562 80.53400726 -2.787771 80.53798523 -3.80407715 80.54208374 C-7.05889298 80.1070683 -8.9008449 79.11224987 -11.53564453 77.17700195 C-13.8362045 73.726162 -13.80574709 72.30524467 -13.78564453 68.23950195 C-13.79080078 67.19922852 -13.79595703 66.15895508 -13.80126953 65.0871582 C-13.53654388 62.18685511 -13.14603979 60.57649088 -11.53564453 58.17700195 C-8.13354792 55.90893754 -6.94161009 55.92661251 -2.95019531 55.92163086 C-1.80535675 55.91467194 -0.66051819 55.90771301 0.51901245 55.90054321 C1.75652252 55.90154022 2.99403259 55.90253723 4.26904297 55.90356445 C6.87972434 55.88327595 9.4904014 55.86242518 12.10107422 55.84106445 C16.22460715 55.81631591 20.34807677 55.80114606 24.47167969 55.79614258 C28.44603185 55.79015782 32.41985527 55.75287559 36.39404297 55.71606445 C37.62750458 55.72110992 38.86096619 55.7261554 40.13180542 55.73135376 C41.2829483 55.71809052 42.43409119 55.70482727 43.62011719 55.69116211 C44.63032928 55.68831207 45.64054138 55.68546204 46.68136597 55.68252563 C50.20771075 55.04197317 51.89510757 53.62420888 54.46435547 51.17700195 C56.06522174 47.97526941 55.96352636 44.65123136 55.46435547 41.17700195 C53.67071636 38.36696735 52.44554612 36.66759728 49.46435547 35.17700195 C47.63717768 35.07767999 45.806427 35.04143617 43.9765625 35.03515625 C42.82842072 35.0281218 41.68027893 35.02108734 40.49734497 35.01383972 C39.25153656 35.00967545 38.00572815 35.00551117 36.72216797 35.0012207 C34.10367031 34.9780261 31.4851807 34.95390892 28.86669922 34.92895508 C24.72330707 34.89253127 20.58006438 34.86278879 16.43652344 34.85107422 C12.44812516 34.83905867 8.46034261 34.79545897 4.47216797 34.7512207 C3.23040802 34.75312912 1.98864807 34.75503754 0.70925903 34.75700378 C-0.44518707 34.74051285 -1.59963318 34.72402191 -2.7890625 34.70703125 C-4.31223587 34.69823189 -4.31223587 34.69823189 -5.86618042 34.68925476 C-9.23366531 34.0430563 -10.39996178 32.79983771 -12.53564453 30.17700195 C-14.46372138 26.32084826 -13.80753826 21.60650363 -13.84814453 17.36450195 C-13.87714844 16.36612305 -13.90615234 15.36774414 -13.93603516 14.33911133 C-14.00006669 6.94593184 -14.00006669 6.94593184 -11.64111328 3.0402832 C-7.9120173 -0.25986296 -4.76947673 0.01738582 0 0 Z " fill="#013994" transform="translate(24.53564453125,1.822998046875)"/>
<path d="M0 0 C6.3969224 5.21854196 7.36211532 15.14864906 8.20777225 22.87615967 C8.31637294 23.97405823 8.42497362 25.07195679 8.53686523 26.203125 C8.65995025 27.37885071 8.78303526 28.55457642 8.90985012 29.76593018 C10.30457975 43.40823218 11.36594995 57.0773028 12.41015625 70.75 C12.62426119 73.51334454 12.83988263 76.27657012 13.05552673 79.03979492 C13.61604279 86.23250097 14.17119083 93.42561315 14.72503662 100.61883545 C15.55986639 111.46066221 16.3993072 122.30213104 17.24350446 133.14323235 C17.60751762 137.82082526 17.9671275 142.49874395 18.32569885 147.17675781 C19.14016289 157.73593041 19.96247095 168.29556967 20.99072266 178.83642578 C21.09018991 179.93937485 21.09018991 179.93937485 21.1916666 181.06460571 C21.93278642 188.24829494 24.34137945 194.32511936 27.3125 200.875 C28.26816951 203.08019115 29.22260045 205.28591948 30.17578125 207.4921875 C30.64580566 208.5553418 31.11583008 209.61849609 31.60009766 210.71386719 C33.50686692 215.18982016 35.17042304 219.74613319 36.81323242 224.32470703 C37.95577428 226.90030335 38.80111054 228.28339093 41 230 C43.8441219 231.01651825 43.8441219 231.01651825 47.0625 231.8125 C58.53828651 235.20423246 66.78062917 240.8913346 73.3125 251.0390625 C78.63574384 260.86357871 79.34076972 272.08011506 76.7109375 282.828125 C75.72868099 285.82886466 74.35276988 288.52756875 72.8046875 291.2734375 C71.78878182 293.13571751 71.78878182 293.13571751 72 296 C77.23236892 301.22164685 83.28388094 305.0150582 90 308 C88.02 311.96 86.04 315.92 84 320 C78.44035356 320 77.14056464 319.96420186 72.6875 317.4375 C71.73101562 316.90253906 70.77453125 316.36757813 69.7890625 315.81640625 C67.06813255 314.04437204 64.91753259 312.09729439 62.5625 309.875 C60.4441183 308.00974825 60.4441183 308.00974825 58 307 C54.90282344 307.52923522 52.33586608 308.63146559 49.44140625 309.84765625 C40.34244717 312.89441326 29.17756752 312.11444592 20.421875 308.3203125 C9.87146654 302.56863821 2.42251159 294.23237427 -1.28125 282.75390625 C-4.4378576 270.6592956 -2.36864408 260.62962417 3.40625 249.66015625 C4.74844969 247.41986707 6.07583025 245.55855963 7.8125 243.625 C10.44552643 240.46536829 10.71939959 239.08273596 11 235 C10.55294908 231.86734837 9.77760906 228.86076623 8.9375 225.8125 C8.70708008 224.96824463 8.47666016 224.12398926 8.23925781 223.25415039 C3.90986507 208.12016239 -5.0813699 195.76231294 -19 188 C-22.61375534 186.45452342 -26.25597437 185.18495727 -30 184 C-29.36405288 167.00667911 -28.16984201 150.08294453 -26.8203125 133.1328125 C-26.6591015 131.09122849 -26.49833245 129.04960999 -26.33759296 127.00798881 C-25.83407802 120.61361592 -25.32673502 114.219555 -24.81689453 107.82568359 C-24.29728997 101.30847368 -23.78439522 94.79076023 -23.27478993 88.27276146 C-22.83117184 82.60203099 -22.38318417 76.93165634 -21.9319247 71.26152885 C-21.66506 67.90778946 -21.40016683 64.5539298 -21.13858414 61.19977188 C-20.13684946 48.38332888 -19.06424606 35.5768902 -17.59716797 22.80419922 C-17.49707994 21.85515779 -17.39699192 20.90611637 -17.29387093 19.92831612 C-16.52244391 13.61269354 -15.11314055 7.6084254 -12 2 C-7.9864787 -0.67568087 -4.71610787 -0.80456287 0 0 Z M-9.375 164.5625 C-11.34359806 167.01459258 -11.34359806 167.01459258 -10.9375 170.625 C-10.3249155 174.25516924 -10.3249155 174.25516924 -7 176 C-4.54290625 176.58350505 -4.54290625 176.58350505 -2 176 C0.50397498 173.91170257 0.50397498 173.91170257 2 171 C1.9303003 168.07261258 1.40278716 166.58404138 -0.25 164.1875 C-3.62713798 161.89587065 -6.07062371 162.38856823 -9.375 164.5625 Z M20.1953125 259.94921875 C17.28685119 264.9392259 16.43434706 270.53578236 17.5625 276.1875 C19.37100113 281.85337378 22.41915002 285.71555939 27 289.4375 C32.29148036 292.10060828 38.26858709 291.80764039 44 291 C49.93211291 288.85494797 54.10746842 284.54919148 57 279 C58.70743209 273.4508457 58.81682284 268.18272018 56.4375 262.875 C53.62230046 257.80364763 49.5922818 254.50079473 44.625 251.625 C34.77049794 249.27868999 26.50063394 251.90390424 20.1953125 259.94921875 Z " fill="#013893" transform="translate(219,0)"/>
<path d="M0 0 C9.67449654 0.50918403 16.03824211 4.47335198 23 11 C22.42751758 14.58587887 21.47176865 17.22629062 19.6875 20.375 C15.46910375 28.55427413 12.06837724 38.73731395 13 48 C14.55162968 50.84641481 14.55162968 50.84641481 16.75 53.375 C24.87513649 63.82982165 26.76794143 72.87389001 26 86 C24.03623392 98.03222775 16.4625213 106.79243626 7 114 C-3.04865605 120.01336897 -14.75850416 120.88407121 -26.05859375 118.30078125 C-28.53761725 117.38420002 -30.71482177 116.32408342 -33 115 C-33.77601563 114.57589844 -34.55203125 114.15179688 -35.3515625 113.71484375 C-44.7569744 108.06845099 -50.23570022 99.49697517 -53.58203125 89.2109375 C-55.643461 78.30655209 -54.40149401 67.34450479 -48.6796875 57.796875 C-42.7821758 49.35344295 -34.93822419 42.94019929 -24.96875 40.15234375 C-23.37546875 39.70568359 -23.37546875 39.70568359 -21.75 39.25 C-20.75484375 39.00765625 -19.7596875 38.7653125 -18.734375 38.515625 C-14.7222205 36.29174508 -13.63779358 33.08568682 -12 29 C-11.56349121 27.92411621 -11.12698242 26.84823242 -10.67724609 25.73974609 C-9.19631164 22.02359059 -7.74883871 18.29603412 -6.3125 14.5625 C-5.33257524 12.02088929 -4.34883634 9.48084875 -3.36328125 6.94140625 C-2.93313721 5.82451416 -2.50299316 4.70762207 -2.05981445 3.55688477 C-1 1 -1 1 0 0 Z M-31 67 C-34.98172681 72.4416933 -34.62451808 78.53177702 -34 85 C-32.23824458 90.83581482 -27.81436503 94.47658365 -23 98 C-17.15219658 99.94926781 -10.47788508 99.78007493 -4.625 97.9375 C0.12546693 94.43120298 4.6310222 89.88660456 6 84 C6.75285289 77.22432401 6.25259863 71.51656545 2 66 C-3.59672749 60.73586492 -8.16209602 58.65565188 -15.91796875 58.78515625 C-22.05559589 59.41849489 -26.70407986 62.80171441 -31 67 Z " fill="#013894" transform="translate(186,192)"/>
</svg>
