<?xml version="1.0" encoding="UTF-8"?>
<svg version="1.1" xmlns="http://www.w3.org/2000/svg" width="320" height="320">
<path d="M0 0 C0.7350031 0.00086648 1.47000619 0.00173296 2.22728211 0.0026257 C3.39025947 -0.00183098 3.39025947 -0.00183098 4.57673132 -0.0063777 C7.19467973 -0.01510261 9.81258261 -0.01657612 12.43054444 -0.01806521 C14.29934529 -0.02269066 16.16814519 -0.02771495 18.03694397 -0.03311038 C23.12776541 -0.04626161 28.21857365 -0.05268448 33.30940944 -0.05712104 C36.48591898 -0.06004702 39.66242487 -0.06415087 42.83893257 -0.06862521 C52.76587077 -0.0823065 62.69280067 -0.09197041 72.61974764 -0.0958271 C84.10080243 -0.1003114 95.58173838 -0.11787391 107.06275702 -0.1468277 C115.92303484 -0.1684011 124.78327912 -0.17852903 133.64358294 -0.17986822 C138.94217863 -0.18091926 144.24066271 -0.18689019 149.53923088 -0.20468783 C154.52059858 -0.22109396 159.50176986 -0.22336058 164.48315483 -0.21454883 C166.31579858 -0.21377446 168.14845257 -0.21817325 169.9810701 -0.22800708 C172.47443045 -0.24060629 174.96708237 -0.23491627 177.4604364 -0.22442508 C178.19320878 -0.23248148 178.92598115 -0.24053789 179.68095875 -0.24883842 C181.69674832 -0.2288692 181.69674832 -0.2288692 184.90735108 0.1430676 C187.0619853 3.37501893 187.52085211 5.44083972 188.23938233 9.22509885 C188.47777832 10.45526731 188.71617432 11.68543576 188.96179444 12.95288205 C189.0852121 13.6050369 189.20862976 14.25719174 189.33578736 14.92910886 C189.9875422 18.36800255 190.66265372 21.80230199 191.33703858 25.2368176 C191.47135788 25.92290601 191.60567719 26.60899442 191.74406677 27.31587338 C192.84135232 32.88798408 194.05556249 38.42521228 195.34485108 43.9555676 C197.35422041 52.64615251 199.30011959 61.34921211 201.18106323 70.06845212 C201.4934505 71.51113407 201.80852404 72.95323754 202.12655884 74.39468503 C207.23434545 97.57377099 207.23434545 97.57377099 204.47668701 102.91308713 C202.90735108 105.1430676 202.90735108 105.1430676 201.90735108 106.1430676 C200.09680082 106.23682813 198.28257906 106.2605087 196.46960694 106.25659299 C195.30847885 106.25651746 194.14735077 106.25644193 192.95103699 106.25636411 C191.05576012 106.24862218 191.05576012 106.24862218 189.12219483 106.24072385 C187.83623917 106.2393089 186.55028351 106.23789395 185.2253595 106.23643613 C181.80091665 106.23261178 178.37651599 106.22278222 174.95208985 106.21173215 C171.45996929 106.20151624 167.96784174 106.19688342 164.47571045 106.19189572 C157.61955336 106.18169007 150.76351222 106.16211837 143.90735108 106.1430676 C143.90735108 95.2530676 143.90735108 84.3630676 143.90735108 73.1430676 C141.26735108 73.1430676 138.62735108 73.1430676 135.90735108 73.1430676 C135.90735108 84.0330676 135.90735108 94.9230676 135.90735108 106.1430676 C105.54735108 106.1430676 75.18735108 106.1430676 43.90735108 106.1430676 C43.57735108 88.6530676 43.24735108 71.1630676 42.90735108 53.1430676 C40.92735108 53.1430676 38.94735108 53.1430676 36.90735108 53.1430676 C36.57735108 70.6330676 36.24735108 88.1230676 35.90735108 106.1430676 C28.42016741 106.24796276 20.93564776 106.34811921 13.4483667 106.40181851 C9.96171846 106.42820989 6.47567908 106.46346645 2.98938233 106.52026486 C-1.01197926 106.58504579 -5.01269732 106.60925972 -9.01452392 106.63134885 C-10.88657501 106.67005849 -10.88657501 106.67005849 -12.79644531 106.70955014 C-13.9573468 106.7099278 -15.11824829 106.71030545 -16.31432861 106.71069455 C-17.33580993 106.72179761 -18.35729126 106.73290067 -19.40972656 106.74434018 C-23.07607202 105.9226716 -24.10144761 104.23665925 -26.09264892 101.1430676 C-27.96110389 93.48808574 -24.90065356 84.67474172 -23.13061279 77.17321897 C-22.19550107 73.20976269 -21.29536912 69.23829473 -20.38952392 65.2680676 C-20.20029358 64.44336972 -20.01106323 63.61867185 -19.81609863 62.76898313 C-17.51977597 52.72205528 -15.43542709 42.63050658 -13.3575415 32.53650022 C-11.6728073 24.3571634 -9.92293957 16.20454143 -7.92077392 8.0961926 C-7.75285339 7.40974668 -7.58493286 6.72330075 -7.41192383 6.01605344 C-6.01185787 0.45811845 -5.76721719 0.03343288 0 0 Z " fill="#FFFFFF" transform="translate(70.09264892339706,213.8569324016571)"/>
<path d="M0 0 C0.86037872 -0.00952698 1.72075745 -0.01905396 2.60720825 -0.02886963 C4.42087833 -0.04099323 6.23467507 -0.04023634 8.04833984 -0.02734375 C10.80663583 -0.01568282 13.55878061 -0.06788795 16.31640625 -0.125 C31.019305 -0.23892801 31.019305 -0.23892801 35.98828125 3.92578125 C37.65332031 5.84521484 37.65332031 5.84521484 38.9453125 7.734375 C39.96431641 9.19423828 39.96431641 9.19423828 41.00390625 10.68359375 C41.45894531 11.58722656 41.91398437 12.49085937 42.3828125 13.421875 C42.85589844 14.33324219 43.32898438 15.24460937 43.81640625 16.18359375 C45.52127416 20.03576934 46.07082003 23.29947449 46.09248352 27.50289917 C46.09963882 28.45894043 46.10679413 29.41498169 46.11416626 30.3999939 C46.11685516 31.44217072 46.11954407 32.48434753 46.12231445 33.55810547 C46.12888565 34.66095886 46.13545685 35.76381226 46.14222717 36.90008545 C46.16194261 40.55057849 46.17361731 44.20103047 46.18359375 47.8515625 C46.18970704 49.72139486 46.18970704 49.72139486 46.19594383 51.62900162 C46.21464572 57.54393993 46.2292152 63.45886521 46.2375558 69.37382591 C46.24733136 76.19287317 46.2736657 83.01159611 46.31405669 89.83052909 C46.34788054 95.74438503 46.35970265 101.65816164 46.36375999 107.57211685 C46.36863557 110.08474048 46.38027698 112.5973604 46.39879799 115.1099205 C46.42309801 118.62416307 46.42224092 122.13755493 46.4152832 125.65185547 C46.42809326 126.68998383 46.44090332 127.72811218 46.45410156 128.79769897 C46.41092789 134.77701845 45.90059 138.16448511 41.9453125 142.734375 C37.28074091 146.99788694 31.25317304 146.1839798 25.29296875 146.16796875 C24.16007919 146.1732106 23.02718964 146.17845245 21.85997009 146.18385315 C19.46695779 146.19026928 17.07391393 146.18894168 14.6809082 146.18041992 C11.02432954 146.17191342 7.36931489 146.20067396 3.71289062 146.23242188 C1.38541713 146.23403411 -0.94205912 146.23345594 -3.26953125 146.23046875 C-4.36031479 146.24170273 -5.45109833 146.25293671 -6.57493591 146.26451111 C-12.53063878 146.20997637 -16.49073569 145.98281904 -21.0546875 141.734375 C-25.04872861 136.92609619 -24.47770948 131.7690621 -24.44287109 125.82885742 C-24.44812805 124.72907059 -24.45338501 123.62928375 -24.45880127 122.49617004 C-24.47200431 118.86058343 -24.46325991 115.22543483 -24.453125 111.58984375 C-24.45514607 109.06024593 -24.45805779 106.53064868 -24.46182251 104.00105286 C-24.46624666 98.69749878 -24.46010017 93.39410131 -24.44580078 88.09057617 C-24.42950005 81.97447154 -24.43474517 75.85866736 -24.45128 69.7425701 C-24.46658348 63.84417123 -24.46490018 57.94586497 -24.4561348 52.04744911 C-24.45413691 49.54487376 -24.45657757 47.04229072 -24.46357346 44.53972435 C-24.47121726 41.03563722 -24.45954067 37.53212095 -24.44287109 34.02807617 C-24.44894379 32.99870941 -24.45501648 31.96934265 -24.46127319 30.90878296 C-24.39125082 22.93777719 -22.74807514 16.76226126 -18.2421875 10.046875 C-17.78199219 9.34175781 -17.32179687 8.63664063 -16.84765625 7.91015625 C-11.61268541 1.55747922 -8.0613827 -0.03787154 0 0 Z " fill="#FFFFFF" transform="translate(149.0546875,-0.734375)"/>
<path d="M0 0 C1.03527832 -0.00335861 2.07055664 -0.00671722 3.13720703 -0.01017761 C6.54233009 -0.01963646 9.9474037 -0.02162822 13.35253906 -0.02270508 C15.7337445 -0.02592134 18.11494975 -0.02928569 20.49615479 -0.03279114 C25.48246722 -0.03876986 30.46876236 -0.04063234 35.45507812 -0.04003906 C41.82100836 -0.03993755 48.18682679 -0.05358407 54.55273056 -0.07081127 C59.47032168 -0.08197098 64.38788611 -0.08395704 69.30548859 -0.08342934 C71.65125158 -0.08460368 73.99701538 -0.0889946 76.34276581 -0.0967617 C79.63483848 -0.10664128 82.92667287 -0.1036522 86.21875 -0.09765625 C87.17291809 -0.10327576 88.12708618 -0.10889526 89.11016846 -0.11468506 C102.38816815 -0.05372779 113.53760363 1.92426485 123.48144531 11.10620117 C129.69089573 17.81703578 132.44260831 25.36062767 134.36816406 34.14526367 C134.65820312 35.35569336 134.94824219 36.56612305 135.24707031 37.81323242 C137.50666029 47.59127875 137.50666029 47.59127875 136.36816406 52.14526367 C74.98816406 52.14526367 13.60816406 52.14526367 -49.63183594 52.14526367 C-51.1236261 46.17810304 -49.15493935 41.36332574 -47.56933594 35.52026367 C-47.13717773 33.81290039 -47.13717773 33.81290039 -46.69628906 32.07104492 C-43.79074827 21.23281783 -39.33347608 11.42377778 -29.63183594 5.14526367 C-20.00432397 0.53530174 -10.48842116 -0.0049396 0 0 Z " fill="#FFFFFF" transform="translate(116.6318359375,153.854736328125)"/>
</svg>
