<?xml version="1.0" encoding="UTF-8"?>
<svg version="1.1" xmlns="http://www.w3.org/2000/svg" width="320" height="320">
<path d="M0 0 C1.01657181 -0.00687332 2.03314362 -0.01374664 3.08052063 -0.02082825 C4.736689 0.00613632 4.736689 0.00613632 6.42631531 0.03364563 C7.59747391 0.0329155 8.76863251 0.03218536 9.97528076 0.03143311 C13.84444061 0.03491513 17.71239517 0.07380893 21.5813446 0.11299133 C24.26464884 0.12231727 26.9478864 0.12968033 29.63119507 0.13442993 C35.97069418 0.14995655 42.30976101 0.19096835 48.64906996 0.24117738 C55.86785074 0.29710819 63.0866524 0.32456663 70.30559599 0.34965456 C85.15165207 0.40188573 99.99732915 0.48980447 114.84306335 0.60127258 C114.87193847 4.24708945 114.8898192 7.89287722 114.90556335 11.53877258 C114.91394226 12.57969055 114.92232117 13.62060852 114.93095398 14.69306946 C114.93417664 15.68242493 114.93739929 16.6717804 114.9407196 17.69111633 C114.94595642 18.6075592 114.95119324 19.52400208 114.95658875 20.46821594 C114.84306335 22.60127258 114.84306335 22.60127258 113.84306335 23.60127258 C80.51306335 23.60127258 47.18306335 23.60127258 12.84306335 23.60127258 C12.84306335 90.92127258 12.84306335 158.24127258 12.84306335 227.60127258 C80.16306335 227.60127258 147.48306335 227.60127258 216.84306335 227.60127258 C216.84306335 194.27127258 216.84306335 160.94127258 216.84306335 126.60127258 C217.84306335 125.60127258 217.84306335 125.60127258 219.97612 125.48774719 C221.3507843 125.49560242 221.3507843 125.49560242 222.7532196 125.50361633 C223.74257507 125.50683899 224.73193054 125.51006165 225.75126648 125.51338196 C226.79218445 125.52176086 227.83310242 125.53013977 228.90556335 125.53877258 C230.47274109 125.54554016 230.47274109 125.54554016 232.07157898 125.55244446 C234.66212995 125.56427346 237.25256894 125.58075569 239.84306335 125.60127258 C239.95989162 141.1608913 240.04804886 156.72043041 240.10212421 172.28038311 C240.12790038 179.50525262 240.1630391 186.72984953 240.22026062 193.95454407 C240.27011428 200.25198973 240.30235866 206.54923797 240.31350583 212.84687549 C240.32002156 216.18123569 240.33794674 219.51489975 240.37171364 222.84911156 C240.40792682 226.57242415 240.41301162 230.29456072 240.41069031 234.01802063 C240.43765488 235.674189 240.43765488 235.674189 240.46516418 237.36381531 C240.45829086 238.38038712 240.45141754 239.39695892 240.44433594 240.44433594 C240.45124938 241.76480439 240.45124938 241.76480439 240.4583025 243.11194897 C239.51498202 246.92872488 238.01751817 248.30647699 234.84306335 250.60127258 C231.61334823 251.32054251 228.46224917 251.27635683 225.16410828 251.2361908 C224.18331141 251.24399075 223.20251455 251.2517907 222.19199657 251.25982702 C218.90212749 251.27978703 215.61340999 251.26396609 212.3235321 251.24824524 C209.96639835 251.25501954 207.60926989 251.2639216 205.25215149 251.27479553 C198.8472258 251.29761737 192.44270216 251.28874027 186.03776932 251.2729001 C182.03840135 251.26401616 178.03906098 251.26568567 174.03968811 251.27035141 C173.37572248 251.27111758 172.71175684 251.27188374 172.02767104 251.27267312 C170.67882734 251.27427175 169.32998366 251.27589282 167.98114002 251.27753608 C155.33369364 251.29179303 142.68642849 251.27540181 130.03901184 251.24853425 C119.18747211 251.22619543 108.33619982 251.23007557 97.48466492 251.25312805 C84.88241962 251.27988713 72.28033314 251.29041974 59.67806339 251.27506673 C58.33418849 251.27347399 56.99031355 251.27190214 55.6464386 251.27035141 C54.98523063 251.26958003 54.32402267 251.26880865 53.6427781 251.2680139 C48.98376299 251.26369718 44.32490401 251.27122692 39.66590881 251.28274918 C33.39491276 251.2971743 27.12442259 251.28720718 20.85348129 251.25827789 C18.54962886 251.25165672 16.24573399 251.25358222 13.94189835 251.26459122 C10.80136026 251.27821678 7.66245211 251.26116563 4.52201843 251.2361908 C3.60616565 251.2473444 2.69031286 251.25849801 1.74670696 251.26998961 C-2.42575076 251.20544526 -4.63020686 250.93373763 -8.22218895 248.66652489 C-10.94034375 244.36010794 -10.85276368 240.92370459 -10.79185486 235.9223175 C-10.79965481 234.94152064 -10.80745476 233.96072378 -10.81549108 232.9502058 C-10.83545109 229.66033671 -10.81963016 226.37161922 -10.8039093 223.08174133 C-10.8106836 220.72460758 -10.81958567 218.36747912 -10.83045959 216.01036072 C-10.85328143 209.60543503 -10.84440433 203.20091139 -10.82856417 196.79597855 C-10.81968022 192.79661058 -10.82134973 188.79727021 -10.82601547 184.79789734 C-10.82678164 184.13393171 -10.8275478 183.46996607 -10.82833719 182.78588027 C-10.82993582 181.43703657 -10.83155688 180.08819289 -10.83320014 178.73934925 C-10.84745709 166.09190287 -10.83106587 153.44463772 -10.80419831 140.79722106 C-10.78185949 129.94568134 -10.78573964 119.09440905 -10.80879211 108.24287415 C-10.83555119 95.64062884 -10.8460838 83.03854236 -10.8307308 70.43627262 C-10.82913805 69.09239771 -10.8275662 67.74852278 -10.82601547 66.40464783 C-10.82524409 65.74343986 -10.82447272 65.0822319 -10.82367796 64.40098733 C-10.81936124 59.74197222 -10.82689099 55.08311324 -10.83841324 50.42411804 C-10.85283836 44.15312199 -10.84287125 37.88263182 -10.81394196 31.61169052 C-10.80732079 29.30783809 -10.80924628 27.00394321 -10.82025528 24.70010757 C-10.83388084 21.55956949 -10.81682969 18.42066134 -10.79185486 15.28022766 C-10.80300847 14.36437488 -10.81416208 13.44852209 -10.82565367 12.50491619 C-10.75810307 8.13812021 -10.56307748 6.16309854 -7.9395628 2.53391743 C-4.92797605 0.44225032 -3.61171585 -0.01890951 0 0 Z " fill="#013893" transform="translate(45.15693664550781,34.39872741699219)"/>
<path d="M0 0 C2.98895008 0.98408112 4.40508702 2.16479815 6.63876343 4.36761475 C7.40240204 5.11218933 8.16604065 5.85676392 8.95281982 6.62390137 C10.16562119 7.83943695 10.16562119 7.83943695 11.40292358 9.07952881 C12.66104355 10.3247934 12.66104355 10.3247934 13.94458008 11.59521484 C15.71297041 13.35212547 17.47615081 15.11429339 19.23446655 16.88128662 C21.93540256 19.58855485 24.66190704 22.26807948 27.39120483 24.94671631 C29.10506432 26.65603113 30.8173589 28.36691678 32.52792358 30.07952881 C33.34860321 30.88178894 34.16928284 31.68404907 35.01483154 32.51062012 C35.75955719 33.26780334 36.50428284 34.02498657 37.27157593 34.80511475 C37.93378143 35.4660614 38.59598694 36.12700806 39.27825928 36.8079834 C40.56698608 38.84515381 40.56698608 38.84515381 40.45509243 41.12686157 C39.29790944 44.66873642 37.2190415 46.79508638 34.64601135 49.375 C34.12840644 49.90942837 33.61080152 50.44385673 33.07751161 50.99447989 C31.34031484 52.78275428 29.58902599 54.55651889 27.83724976 56.33050537 C26.58805246 57.60968146 25.33960154 58.8895868 24.09184265 60.17016602 C19.98798227 64.37364934 15.86246786 68.55553859 11.73495483 72.73577881 C10.312318 74.17854946 8.88973941 75.62137755 7.4672184 77.06426239 C1.54392671 83.06931671 -4.38489831 89.06881278 -10.32858753 95.05368423 C-18.82955347 103.61383716 -27.29662674 112.20453678 -35.71869069 120.84235406 C-41.65146722 126.92182187 -47.62063493 132.96401073 -53.61763018 138.98013282 C-57.1938336 142.56959852 -60.75269289 146.17289971 -64.27350807 149.81678009 C-67.59350222 153.25107859 -70.95677065 156.63647328 -74.35696602 159.99132538 C-75.58926281 161.22247299 -76.80575724 162.46970266 -78.00355911 163.73443604 C-85.08725962 171.19134054 -90.42478966 174.75911987 -100.93305969 175.07824707 C-103.38942947 175.08015326 -105.83169619 175.02901128 -108.28574789 174.92475653 C-111.0734684 174.8214111 -113.83580911 174.94026414 -116.62051392 175.08343506 C-118.22460913 175.11243992 -119.82878351 175.13746635 -121.43301392 175.15765381 C-122.26317017 175.18665771 -123.09332642 175.21566162 -123.94863892 175.24554443 C-127.56802948 175.28348966 -129.79868181 175.20957809 -132.97598267 173.38421631 C-135.16102943 169.57649407 -134.89700292 166.22004071 -134.74551392 161.90765381 C-134.73584595 161.14775146 -134.72617798 160.38784912 -134.71621704 159.60491943 C-134.68467288 157.86724756 -134.59844165 156.13012495 -134.47218323 154.39675903 C-134.44081946 151.55290672 -134.66153986 149.43409499 -135.1750946 146.69161987 C-136.15273415 139.35451039 -135.62443169 132.66860388 -131.2176075 126.50302696 C-124.20767276 117.57104932 -115.75368222 109.78150363 -107.58349085 101.93482041 C-103.97233473 98.44590174 -100.41823697 94.89975427 -96.8572998 91.35972595 C-90.11838084 84.67757941 -83.32977877 78.04840012 -76.52164829 71.43686551 C-68.77751148 63.91099654 -61.09390015 56.32454046 -53.41339326 48.73383486 C-42.10051736 37.55700677 -30.76552222 26.40270881 -19.37342834 15.30659294 C-18.14194065 14.10683264 -16.91119043 12.90631485 -15.68122482 11.7049942 C-14.00531125 10.06879883 -12.32638793 8.43576056 -10.64642334 6.8037262 C-9.70657152 5.88892896 -8.7667197 4.97413172 -7.79838753 4.03161335 C-3.21548321 -0.20464549 -3.21548321 -0.20464549 0 0 Z M-5.80522156 32.0096283 C-6.26343385 32.4578138 -6.72164614 32.90599931 -7.19374365 33.3677662 C-8.74094131 34.8826688 -10.28440025 36.40132297 -11.82778931 37.92010498 C-12.93124405 39.00257598 -14.03482882 40.08491443 -15.13853455 41.16712952 C-25.23217746 51.07264355 -35.2834318 61.02138474 -45.32410526 70.98055553 C-52.74693606 78.34185674 -60.18995154 85.68144777 -67.66053396 92.99428958 C-72.91034124 98.13694053 -78.1349671 103.30435381 -83.34199327 108.4903124 C-86.45246452 111.58672577 -89.57307738 114.67100271 -92.72163582 117.72871971 C-95.68802302 120.61039775 -98.6219126 123.52162625 -101.53434563 126.45779228 C-102.60502315 127.52649928 -103.68678905 128.58423643 -104.78042603 129.62943649 C-111.04869129 135.56023652 -111.04869129 135.56023652 -114.05923271 143.46569252 C-114.07283992 146.66596659 -113.90263749 149.68249205 -113.43301392 152.84515381 C-106.94508699 153.6568878 -101.09030103 154.33781248 -95.27606392 151.07182312 C-92.16346295 148.41639637 -89.34996372 145.62291368 -86.54067993 142.65570068 C-85.44811261 141.55889416 -84.3522156 140.46539606 -83.2532959 139.37495422 C-80.30033035 136.42626622 -77.39568922 133.43389259 -74.49797559 130.43102455 C-71.45425271 127.29307634 -68.36755033 124.19798309 -65.28529358 121.09796143 C-59.46464504 115.23082225 -53.68326582 109.32653622 -47.91526026 103.40768576 C-41.34281196 96.66716035 -34.7273529 89.96954049 -28.10806382 83.27505779 C-14.50154969 69.51205381 -0.94956373 55.69649294 12.56698608 41.84515381 C11.61102821 40.72406107 10.65424433 39.60367264 9.69711304 38.48358154 C9.16439285 37.85958969 8.63167267 37.23559784 8.08280945 36.59269714 C6.37492699 34.62373514 4.60160964 32.7464382 2.75448608 30.90765381 C2.17054077 30.32113037 1.58659546 29.73460693 0.98495483 29.13031006 C-1.99364657 26.43069612 -3.38861397 29.63977916 -5.80522156 32.0096283 Z " fill="#013893" transform="translate(244.43301391601563,35.15484619140625)"/>
</svg>
