<?xml version="1.0" encoding="UTF-8"?>
<svg version="1.1" xmlns="http://www.w3.org/2000/svg" width="320" height="320">
<path d="M0 0 C1.20819317 -0.00551503 1.20819317 -0.00551503 2.44079429 -0.01114148 C5.14907861 -0.02218479 7.85732457 -0.02602326 10.56562805 -0.02983093 C12.50380577 -0.03609512 14.44198228 -0.04274188 16.38015747 -0.04974365 C21.6530719 -0.06715797 26.92597727 -0.07770672 32.19891334 -0.08594918 C35.49307205 -0.09109871 38.78722794 -0.09717448 42.08138466 -0.10346031 C52.38742075 -0.12251409 62.69344966 -0.13674452 72.99949998 -0.14507228 C84.89707053 -0.15484466 96.79445504 -0.1811635 108.69196004 -0.22157317 C117.88697553 -0.25173234 127.08193768 -0.26654099 136.27700168 -0.26985329 C141.76918049 -0.27220409 147.26116059 -0.2811685 152.75328636 -0.30631447 C157.92187335 -0.32959644 163.0901308 -0.33382781 168.25875664 -0.32355309 C170.15338995 -0.32305764 172.0480395 -0.32938062 173.94262314 -0.34310913 C176.53465183 -0.360837 179.12549904 -0.35371785 181.7175293 -0.34057617 C182.46258797 -0.35154542 183.20764664 -0.36251466 183.97528285 -0.37381631 C193.38213765 -0.25912423 199.79198707 4.89188247 206.30122375 11.20967102 C211.71937318 19.69810512 212.76180359 28.85686998 212.66397095 38.70690918 C212.66809421 39.91293755 212.67221748 41.11896593 212.67646569 42.36154062 C212.68379605 45.6735115 212.67339575 48.98452742 212.65514529 52.29639542 C212.63982015 55.88111081 212.6478174 59.4657877 212.65283203 63.05052185 C212.65903346 70.05577131 212.64413027 77.06082196 212.62210641 84.06603327 C212.59734856 92.22369026 212.59449908 100.38131154 212.59270265 108.53900055 C212.58883316 123.08624974 212.56640802 137.63340958 212.53291321 152.18061829 C212.50042305 166.30301793 212.47921934 180.42537038 212.47138977 194.54780579 C212.47090428 195.41927741 212.47041879 196.29074902 212.46991859 197.18862887 C212.46798996 200.69136336 212.46607782 204.19409786 212.46420248 207.69683237 C212.45668051 221.15565056 212.44105498 234.61446099 212.42370588 248.07326969 C212.41846577 252.1407567 212.41353275 256.20824356 212.40934396 260.2757318 C212.40043903 268.822361 212.38869757 277.36896759 212.36777792 285.91557684 C212.35915955 289.44987616 212.35208508 292.98415972 212.34926224 296.51846886 C212.34611997 300.34041767 212.33521446 304.16232053 212.32339478 307.98425293 C212.32357914 309.1132025 212.3237635 310.24215207 212.32395345 311.40531224 C212.31726668 312.92815059 212.31726668 312.92815059 212.31044483 314.48175335 C212.30776198 315.80652314 212.30776198 315.80652314 212.30502492 317.15805596 C212.17622375 319.14717102 212.17622375 319.14717102 211.17622375 320.14717102 C208.09399096 320.24743711 205.03408559 320.28154709 201.95137024 320.27415466 C200.97116881 320.27571465 199.99096739 320.27727464 198.98106289 320.27888191 C195.6697995 320.28289648 192.3585813 320.2797005 189.0473175 320.27656555 C186.68429029 320.27791939 184.32126329 320.27969922 181.95823669 320.28187561 C176.1901539 320.28597593 170.42208568 320.28535668 164.65400243 320.28246297 C159.96820166 320.28020908 155.28240455 320.27989635 150.59660339 320.28098679 C149.93094091 320.28114002 149.26527842 320.28129325 148.57944435 320.28145113 C147.22737161 320.28177084 145.87529888 320.28209505 144.52322614 320.28242372 C131.83020443 320.28527862 119.13718993 320.28199133 106.4441694 320.27662335 C95.54137401 320.27215531 84.63858927 320.27293123 73.73579407 320.27754211 C61.08971131 320.2828877 48.44363488 320.28500393 35.79755116 320.28192985 C34.45031548 320.28161128 33.1030798 320.28129691 31.75584412 320.28098679 C31.09289335 320.28083251 30.42994259 320.28067823 29.74690241 320.28051928 C25.06407008 320.27965408 20.38124174 320.28111707 15.69841003 320.28346634 C9.40139405 320.28634376 3.10439828 320.28437174 -3.19261551 320.27857208 C-5.51105338 320.27724379 -7.82949293 320.27763976 -10.14793015 320.27983475 C-13.29828439 320.28254355 -16.44857275 320.27916845 -19.59892273 320.27415466 C-20.52915536 320.27638538 -21.45938799 320.27861611 -22.41780949 320.28091443 C-28.70962644 320.26132083 -28.70962644 320.26132083 -29.82377625 319.14717102 C-29.92521699 317.58945724 -29.95668538 316.02714386 -29.96079063 314.46613598 C-29.96586518 313.44742702 -29.97093972 312.42871806 -29.97616804 311.37913913 C-29.97666579 310.2462986 -29.97716355 309.11345808 -29.97767639 307.94628906 C-29.98205865 306.75333703 -29.9864409 305.560385 -29.99095595 304.33128291 C-30.00205022 301.0046351 -30.00857766 297.67803453 -30.0131371 294.35137498 C-30.01908112 290.76897942 -30.03069445 287.18660134 -30.04142761 283.60421753 C-30.06598711 274.94154656 -30.08058802 266.27886977 -30.09348768 257.61617467 C-30.09719833 255.16905435 -30.10117171 252.7219346 -30.10524035 250.27481484 C-30.13048579 235.07930424 -30.15253967 219.88379276 -30.16496849 204.6882658 C-30.16789824 201.16569706 -30.17085988 197.64312836 -30.1738739 194.12055969 C-30.17461995 193.24503218 -30.175366 192.36950466 -30.17613466 191.46744601 C-30.18877401 177.3009288 -30.22197475 163.13453752 -30.26367573 148.96807911 C-30.30614127 134.42246905 -30.32966924 119.87692332 -30.33488905 105.33125144 C-30.33829896 97.16507106 -30.35000352 88.99908707 -30.38299179 80.83296776 C-30.41105767 73.87383561 -30.42196336 66.91494007 -30.41079633 59.95575573 C-30.40562535 56.40783118 -30.40839303 52.86040156 -30.43326187 49.31254959 C-30.46006402 45.45645929 -30.44763994 41.60103558 -30.43177795 37.74487305 C-30.44566004 36.63657046 -30.45954213 35.52826788 -30.47384489 34.38638037 C-30.37359194 24.45401763 -27.44204691 14.96403683 -20.50346375 7.61201477 C-14.07966114 2.00986134 -8.46684414 -0.00206419 0 0 Z M-4.82377625 22.14717102 C-8.97864652 26.66994285 -8.23583321 32.29798846 -8.19126892 38.06788635 C-8.19453776 39.18217915 -8.1978066 40.29647195 -8.2011745 41.4445312 C-8.20846896 45.18571806 -8.19428458 48.92651576 -8.18022156 52.66767883 C-8.18101222 55.34657253 -8.18298445 58.02544131 -8.18641663 60.70433044 C-8.19204924 67.22856849 -8.18173753 73.75268899 -8.16612867 80.276907 C-8.14859733 87.86968627 -8.1471696 95.46244269 -8.14651307 103.05523905 C-8.14482516 116.59697618 -8.12901007 130.1386597 -8.10502625 143.68037415 C-8.08174999 156.83207138 -8.06759895 169.98373461 -8.06401062 183.13545227 C-8.06378785 183.94603605 -8.06356509 184.75661982 -8.06333557 185.59176674 C-8.06289298 187.22461585 -8.06245096 188.85746495 -8.0620095 190.49031405 C-8.06178993 191.29571138 -8.06157037 192.10110871 -8.06134415 192.93091202 C-8.06112816 193.73422796 -8.06091217 194.53754389 -8.06068964 195.36520274 C-8.05699295 207.8857662 -8.04563465 220.40632414 -8.03321375 232.92688157 C-8.02877299 237.47078839 -8.02533702 242.01469469 -8.02259162 246.55860284 C-8.01816721 253.76221923 -8.01042152 260.96581529 -7.99581721 268.16941884 C-7.98919263 271.46266566 -7.98466587 274.75589088 -7.98335648 278.04914474 C-7.98162188 281.61092021 -7.97376861 285.17262847 -7.96421814 288.73439026 C-7.96508462 289.78640476 -7.9659511 290.83841925 -7.96684384 291.92231297 C-7.9630027 292.86870413 -7.95916155 293.81509528 -7.95520401 294.79016495 C-7.95395751 295.6133463 -7.95271101 296.43652766 -7.95142674 297.2846539 C-8.0276745 299.16230698 -8.0276745 299.16230698 -6.82377625 300.14717102 C-5.07995089 300.24604894 -3.33212081 300.27516134 -1.585495 300.27656555 C-0.46763611 300.27971771 0.65022278 300.28286987 1.80195618 300.28611755 C3.01858948 300.28409332 4.23522278 300.28206909 5.48872375 300.27998352 C6.72791565 300.28094025 7.96710754 300.28189697 9.24385071 300.28288269 C11.87010656 300.28356476 14.49627009 300.2822064 17.12251282 300.27754211 C20.49551089 300.27184483 23.86842941 300.27512404 27.24142456 300.28111458 C30.44886052 300.28558872 33.65628676 300.28245984 36.86372375 300.27998352 C38.68867371 300.28301987 38.68867371 300.28301987 40.55049133 300.28611755 C41.66835022 300.28296539 42.78620911 300.27981323 43.9379425 300.27656555 C45.42233826 300.27537216 45.42233826 300.27537216 46.9367218 300.27415466 C49.14719625 300.3981795 49.14719625 300.3981795 50.17622375 299.14717102 C50.28965476 297.03198826 50.33309409 294.91303222 50.34980774 292.7948761 C50.35649475 292.13137146 50.36318176 291.46786682 50.37007141 290.78425598 C50.3841542 289.3382942 50.39603789 287.89230977 50.40601921 286.44631386 C50.42239998 284.15516661 50.44563965 281.86418542 50.47091675 279.57312012 C50.54175019 273.05711634 50.6016557 266.5410421 50.6530304 260.02485657 C50.68491099 256.04247674 50.72621777 252.06028299 50.77322578 248.07805443 C50.78920173 246.56190547 50.80154357 245.04571357 50.81013298 243.52950478 C50.82235441 241.40162536 50.84653454 239.27417867 50.87324524 237.1464386 C50.8835527 235.93700089 50.89386017 234.72756317 50.90447998 233.48147583 C51.24284328 229.32974734 52.00323801 225.6933795 54.55122375 222.33467102 C58.05679023 219.77291091 62.02262456 220.01682147 66.22651672 220.00190735 C68.05894424 219.99233757 68.05894424 219.99233757 69.9283905 219.98257446 C71.24509735 219.98146164 72.5618042 219.98034882 73.91841125 219.97920227 C75.28837621 219.97598692 76.65834082 219.97262264 78.02830505 219.96911621 C80.89809464 219.96313441 83.76785416 219.96127532 86.63764954 219.96186829 C90.30494484 219.96196983 93.9720462 219.94832169 97.63929558 219.93109608 C100.46868262 219.91994693 103.29802321 219.91794998 106.12742996 219.91847801 C108.13368922 219.91673248 110.13993398 219.90591012 112.14616394 219.89492798 C113.37408661 219.89800461 114.60200928 219.90108124 115.86714172 219.9042511 C116.94317657 219.90282608 118.01921143 219.90140106 119.12785339 219.89993286 C122.46846113 220.17087294 125.0973725 220.82538008 128.17622375 222.14717102 C131.37604837 226.94690794 131.30700416 231.35835521 131.36567688 237.03291321 C131.37811684 238.04109352 131.37811684 238.04109352 131.39080811 239.06964111 C131.40813335 240.52099579 131.4233203 241.97237725 131.43658447 243.42377472 C131.45769471 245.71805951 131.48470581 248.01220828 131.51325989 250.30641174 C131.58291792 255.99892865 131.642631 261.69154147 131.70228577 267.38417053 C131.75313848 272.20498438 131.80790713 277.02572138 131.86810303 281.84642792 C131.89473909 284.11159002 131.91550841 286.37675917 131.93611145 288.64198303 C131.95270478 290.02099457 131.96957575 291.40000279 131.98677063 292.77900696 C131.99929871 293.98748291 132.01182678 295.19595886 132.0247345 296.4410553 C131.8699797 299.06308671 131.8699797 299.06308671 133.17622375 300.14717102 C134.95614299 300.24087726 136.73979115 300.26461373 138.52217102 300.26069641 C140.23383202 300.26058311 140.23383202 300.26058311 141.98007202 300.26046753 C143.84253822 300.2527256 143.84253822 300.2527256 145.74263 300.24482727 C147.00638962 300.24341232 148.27014923 300.24199738 149.57220459 300.24053955 C152.93747265 300.23587684 156.30267365 300.22688582 159.66792297 300.21583557 C163.09972045 300.20561948 166.53152484 300.20104151 169.96333313 300.19599915 C176.700982 300.18494482 183.438599 300.16818812 190.17622375 300.14717102 C190.26773084 265.3092997 190.33823781 230.47145577 190.38048507 195.63349028 C190.38548804 191.52281595 190.39066532 187.41214187 190.39595032 183.3014679 C190.39752418 182.07389909 190.39752418 182.07389909 190.39912984 180.82153091 C190.41654658 167.56135065 190.44809123 154.30123959 190.48483494 141.04110041 C190.52220909 127.44025616 190.54445213 113.83944821 190.55257773 100.23855472 C190.55807285 91.84251326 190.57544359 83.44666737 190.60788962 75.05068609 C190.62899403 69.29732013 190.63543308 63.54405562 190.63022926 57.79065374 C190.62766106 54.46856768 190.63383402 51.1468973 190.65304565 47.8248558 C190.67284189 44.22639012 190.66820005 40.62877254 190.65724182 37.0302887 C190.67471887 35.448586 190.67471887 35.448586 190.69254899 33.8349297 C190.72929528 28.32668768 190.72929528 28.32668768 188.33366013 23.52947617 C184.25878592 20.91863691 180.52472125 21.00540695 175.85702515 21.02018738 C175.1059105 21.01862739 174.35479586 21.0170674 173.58092016 21.01546013 C171.05676004 21.01146228 168.53265975 21.01463511 166.00849915 21.01777649 C164.20176152 21.0164219 162.39502418 21.01464164 160.58828735 21.01246643 C155.67512311 21.00789865 150.76197982 21.00967907 145.8488152 21.01284552 C140.71238094 21.01537287 135.57594849 21.01303049 130.43951416 21.01145935 C121.81178973 21.00963859 113.18407384 21.01204134 104.55635071 21.01679993 C94.5765146 21.02224064 84.59669892 21.02048089 74.61686331 21.01497352 C66.05545059 21.01043768 57.49404402 21.00979421 48.93263048 21.01241219 C43.81624958 21.01397258 38.69987829 21.01417524 33.583498 21.0108757 C28.7728689 21.00799023 23.96226618 21.0099852 19.15163994 21.01576996 C17.38434264 21.01709399 15.61704313 21.01670948 13.8497467 21.01450729 C11.44060301 21.01178177 9.03154426 21.01519421 6.62240601 21.02018738 C5.92016924 21.01795666 5.21793248 21.01572593 4.49441582 21.01342762 C-0.30013205 20.90240106 -0.30013205 20.90240106 -4.82377625 22.14717102 Z M72.17622375 241.14717102 C72.17622375 260.61717102 72.17622375 280.08717102 72.17622375 300.14717102 C84.71622375 300.14717102 97.25622375 300.14717102 110.17622375 300.14717102 C111.46957889 297.56046074 111.30328452 295.69170318 111.30561829 292.79536438 C111.31034653 291.11868935 111.31034653 291.11868935 111.31517029 289.40814209 C111.31314606 288.19667007 111.31112183 286.98519806 111.30903625 285.73701477 C111.30999298 284.49923782 111.31094971 283.26146088 111.31193542 281.98617554 C111.31279174 278.69365192 111.30875691 275.40117522 111.30317688 272.10865784 C111.30122433 270.08526614 111.30317149 268.06191776 111.30659485 266.03852844 C111.31274625 262.16716983 111.3120309 258.295876 111.30903625 254.42451477 C111.31106049 253.21101852 111.31308472 251.99752228 111.31517029 250.74725342 C111.31201813 249.63262222 111.30886597 248.51799103 111.30561829 247.36958313 C111.30482269 246.38300217 111.3040271 245.3964212 111.3032074 244.37994385 C111.42640039 242.17540904 111.42640039 242.17540904 110.17622375 241.14717102 C107.36482225 241.05855842 104.57742951 241.03187518 101.7660675 241.04951477 C101.02006287 241.05052185 100.27405823 241.05152893 99.50544739 241.05256653 C96.70819063 241.05781413 93.91095571 241.07177529 91.11372375 241.08467102 C81.73966125 241.11560852 81.73966125 241.11560852 72.17622375 241.14717102 Z " fill="#013893" transform="translate(68.82377624511719,-0.1471710205078125)"/>
<path d="M0 0 C1.63984529 0.00031732 3.27971127 0.01165397 4.91943359 0.03173828 C6.21365738 0.03598312 6.21365738 0.03598312 7.5340271 0.04031372 C10.29544829 0.05152746 13.05654759 0.07663394 15.81787109 0.10205078 C17.68765808 0.11207905 19.55745015 0.12120517 21.42724609 0.12939453 C26.01591218 0.15147066 30.60433702 0.18600844 35.19287109 0.22705078 C36.85414885 3.54960629 36.33448833 7.26639507 36.32568359 10.91845703 C36.32664032 11.77890121 36.32759705 12.6393454 36.32858276 13.52586365 C36.32926374 15.34577508 36.32741518 17.16568893 36.32324219 18.9855957 C36.31788627 21.78163057 36.32319329 24.57750527 36.32958984 27.37353516 C36.32892918 29.13850947 36.32764825 30.90348369 36.32568359 32.66845703 C36.32770782 33.51009903 36.32973206 34.35174103 36.33181763 35.21888733 C36.30782582 41.11209606 36.30782582 41.11209606 35.19287109 42.22705078 C32.24751539 42.32815431 29.3260955 42.36674358 26.38037109 42.35986328 C25.05428833 42.36129837 25.05428833 42.36129837 23.70141602 42.36276245 C21.8284498 42.3634443 19.95548123 42.36158971 18.08251953 42.35742188 C15.20518722 42.35207367 12.32801102 42.35736671 9.45068359 42.36376953 C7.63557908 42.36310875 5.82047466 42.36182759 4.00537109 42.35986328 C3.13871826 42.36188751 2.27206543 42.36391174 1.37915039 42.36599731 C-4.69217881 42.34200087 -4.69217881 42.34200087 -5.80712891 41.22705078 C-5.92062051 38.36610861 -5.97131382 35.53021623 -5.97509766 32.66845703 C-5.97842606 31.80896957 -5.98175446 30.94948212 -5.98518372 30.06394958 C-5.99025661 28.24226417 -5.99259193 26.42056943 -5.99243164 24.59887695 C-5.99461693 21.80485788 -6.01276535 19.01123421 -6.03173828 16.21728516 C-6.03467231 14.45101047 -6.03665704 12.6847339 -6.03759766 10.91845703 C-6.04478317 10.07883926 -6.05196869 9.2392215 -6.05937195 8.37416077 C-6.02765438 0.3594792 -6.02765438 0.3594792 0 0 Z " fill="#013993" transform="translate(104.80712890625,58.77294921875)"/>
<path d="M0 0 C2.88493931 -0.29159149 5.55187937 -0.39590537 8.4375 -0.36328125 C9.27337646 -0.36377975 10.10925293 -0.36427826 10.97045898 -0.36479187 C12.73911921 -0.36244959 14.50778266 -0.35271197 16.27636719 -0.33618164 C18.98923432 -0.31259361 21.70111895 -0.31561867 24.4140625 -0.32226562 C26.13021421 -0.31668889 27.84636178 -0.30957904 29.5625 -0.30078125 C30.37710693 -0.30169266 31.19171387 -0.30260406 32.03100586 -0.30354309 C37.76897842 -0.23102158 37.76897842 -0.23102158 40 2 C40.18768653 4.9292303 40.25553641 7.76228397 40.23046875 10.69140625 C40.23001053 11.55185043 40.22955231 12.41229462 40.2290802 13.29881287 C40.22605705 15.11873757 40.21816888 16.93865967 40.20581055 18.75854492 C40.18755148 21.55461724 40.18530085 24.35035866 40.18554688 27.14648438 C40.1806319 28.91146122 40.17480367 30.6764358 40.16796875 32.44140625 C40.16685593 33.28304825 40.1657431 34.12469025 40.16459656 34.99183655 C40.11604705 40.88395295 40.11604705 40.88395295 39 42 C36.04294679 42.08868299 33.10934944 42.11520296 30.15234375 42.09765625 C28.82270348 42.09553383 28.82270348 42.09553383 27.46620178 42.09336853 C24.62326746 42.08775215 21.78041069 42.07519691 18.9375 42.0625 C17.01497509 42.05748711 15.09244896 42.05292384 13.16992188 42.04882812 C8.44658451 42.03777741 3.72330542 42.02050183 -1 42 C-2.24000784 38.27997648 -2.16231369 34.81262536 -2.16796875 30.9375 C-2.17129715 30.14980225 -2.17462555 29.36210449 -2.17805481 28.55053711 C-2.18311407 26.8862364 -2.18546344 25.22192557 -2.18530273 23.55761719 C-2.18749176 21.00959639 -2.20566464 18.46200685 -2.22460938 15.9140625 C-2.22754298 14.29687648 -2.229528 12.67968841 -2.23046875 11.0625 C-2.23765427 10.29993896 -2.24483978 9.53737793 -2.25224304 8.75170898 C-2.23582402 4.95818889 -2.15690285 3.23535427 0 0 Z " fill="#013993" transform="translate(181,59)"/>
<path d="M0 0 C1.29997925 0.00303635 1.29997925 0.00303635 2.6262207 0.00613403 C3.51027588 0.00517731 4.39433105 0.00422058 5.30517578 0.00323486 C7.178142 0.00255302 9.05111056 0.0044076 10.92407227 0.00857544 C13.80140458 0.01392364 16.67858078 0.0086306 19.5559082 0.00222778 C21.37101272 0.00288856 23.18611713 0.00416972 25.0012207 0.00613403 C25.86787354 0.0041098 26.73452637 0.00208557 27.62744141 0 C33.69877061 0.02399644 33.69877061 0.02399644 34.8137207 1.13894653 C34.91478944 4.0115871 34.95341742 6.85968282 34.9465332 9.73269653 C34.94748993 10.59455566 34.94844666 11.45641479 34.94943237 12.34439087 C34.9501142 14.17027865 34.94825975 15.99616885 34.9440918 17.822052 C34.93874356 20.62695732 34.9440367 23.43170249 34.95043945 26.23660278 C34.94977867 28.00613439 34.94849751 29.77566589 34.9465332 31.54519653 C34.94855743 32.38997559 34.95058167 33.23475464 34.95266724 34.10513306 C34.92867102 40.02399622 34.92867102 40.02399622 33.8137207 41.13894653 C30.868365 41.24005006 27.94694511 41.27863933 25.0012207 41.27175903 C23.67513794 41.27319412 23.67513794 41.27319412 22.32226562 41.2746582 C20.44929941 41.27534005 18.57633084 41.27348546 16.70336914 41.26931763 C13.82603683 41.26396943 10.94886062 41.26926247 8.0715332 41.27566528 C6.25642869 41.2750045 4.44132427 41.27372334 2.6262207 41.27175903 C1.75956787 41.27378326 0.89291504 41.2758075 0 41.27789307 C-6.0713292 41.25389663 -6.0713292 41.25389663 -7.1862793 40.13894653 C-7.28734804 37.26630597 -7.32597602 34.41821025 -7.3190918 31.54519653 C-7.32004852 30.6833374 -7.32100525 29.82147827 -7.32199097 28.9335022 C-7.32267279 27.10761441 -7.32081834 25.28172422 -7.31665039 23.45584106 C-7.31130216 20.65093575 -7.31659529 17.84619058 -7.32299805 15.04129028 C-7.32233727 13.27175868 -7.3210561 11.50222717 -7.3190918 9.73269653 C-7.32111603 8.88791748 -7.32314026 8.04313843 -7.32522583 7.17276001 C-7.2964955 0.08618937 -7.07318213 0.02795618 0 0 Z " fill="#013893" transform="translate(106.186279296875,139.86105346679688)"/>
<path d="M0 0 C1.29997925 0.00303635 1.29997925 0.00303635 2.6262207 0.00613403 C3.51027588 0.00517731 4.39433105 0.00422058 5.30517578 0.00323486 C7.178142 0.00255302 9.05111056 0.0044076 10.92407227 0.00857544 C13.80140458 0.01392364 16.67858078 0.0086306 19.5559082 0.00222778 C21.37101272 0.00288856 23.18611713 0.00416972 25.0012207 0.00613403 C25.86787354 0.0041098 26.73452637 0.00208557 27.62744141 0 C33.69877061 0.02399644 33.69877061 0.02399644 34.8137207 1.13894653 C34.91477892 3.92720001 34.9534191 6.69015527 34.9465332 9.47879028 C34.94748993 10.3160817 34.94844666 11.15337311 34.94943237 12.01603699 C34.95011425 13.79065018 34.94825943 15.56526584 34.9440918 17.33987427 C34.9387503 20.06136674 34.94403305 22.78269366 34.95043945 25.50418091 C34.94977854 27.2248844 34.94849711 28.94558779 34.9465332 30.66629028 C34.94855743 31.48403427 34.95058167 32.30177826 34.95266724 33.14430237 C34.92867578 38.90903639 34.92867578 38.90903639 33.8137207 41.13894653 C20.6137207 41.13894653 7.4137207 41.13894653 -6.1862793 41.13894653 C-7.82111561 37.8692739 -7.32798418 34.25861538 -7.3190918 30.66629028 C-7.32004852 29.82804214 -7.32100525 28.98979401 -7.32199097 28.12614441 C-7.3226719 26.35331141 -7.32082364 24.58047592 -7.31665039 22.80764771 C-7.31129423 20.08403977 -7.31660173 17.36059624 -7.32299805 14.63699341 C-7.32233738 12.917592 -7.32105646 11.1981907 -7.3190918 9.47879028 C-7.32111603 8.65902206 -7.32314026 7.83925385 -7.32522583 6.99464417 C-7.29601462 0.00490616 -6.96007102 0.02750912 0 0 Z " fill="#013893" transform="translate(186.186279296875,139.86105346679688)"/>
</svg>
