<?xml version="1.0" encoding="UTF-8"?>
<svg version="1.1" xmlns="http://www.w3.org/2000/svg" width="320" height="320">
<path d="M0 0 C1.25039063 0.00322266 2.50078125 0.00644531 3.7890625 0.00976562 C5.74199219 0.02233398 5.74199219 0.02233398 7.734375 0.03515625 C9.71050781 0.04192383 9.71050781 0.04192383 11.7265625 0.04882812 C14.97921241 0.06061309 18.23177084 0.07706614 21.484375 0.09765625 C21.24654297 1.21720703 21.24654297 1.21720703 21.00390625 2.359375 C19.56483002 9.94428052 20.59737379 14.57304707 24.484375 21.09765625 C23.89269531 21.25621094 23.30101562 21.41476563 22.69140625 21.578125 C16.69163313 23.34967302 12.80391525 25.38618821 9.37207031 30.87744141 C8.22588213 33.74417279 8.22524215 36.09843221 8.21875 39.18359375 C8.21617188 40.36179688 8.21359375 41.54 8.2109375 42.75390625 C8.21867187 43.98109375 8.22640625 45.20828125 8.234375 46.47265625 C8.22664063 47.69210938 8.21890625 48.9115625 8.2109375 50.16796875 C8.21480469 51.93914062 8.21480469 51.93914062 8.21875 53.74609375 C8.22100586 54.82036621 8.22326172 55.89463867 8.22558594 57.00146484 C8.33212152 60.06737777 8.33212152 60.06737777 9.48161316 62.62620544 C10.85109591 67.36720356 10.78443956 71.82585186 10.78735352 76.73706055 C10.79579285 77.79625702 10.80423218 78.85545349 10.81292725 79.94674683 C10.83866237 83.4384609 10.85083434 86.93009053 10.86328125 90.421875 C10.87945792 92.84992643 10.89663809 95.27797137 10.91477966 97.70600891 C10.96043636 104.09165448 10.99526035 110.47730873 11.02697754 116.86303711 C11.0788859 127.09503495 11.14392126 137.3269375 11.21519279 147.55881691 C11.23805732 151.13683346 11.25430622 154.71483781 11.26991272 158.29289246 C11.28331624 160.4774082 11.29693077 162.66192266 11.31079102 164.84643555 C11.31340439 165.84545395 11.31601776 166.84447235 11.31871033 167.87376404 C11.32560883 168.78635986 11.33250732 169.69895569 11.33961487 170.63920593 C11.34346978 171.43245112 11.3473247 172.22569632 11.35129642 173.04297924 C11.40992179 175.29804686 11.40992179 175.29804686 12.484375 178.09765625 C96.304375 178.09765625 180.124375 178.09765625 266.484375 178.09765625 C267.39297087 175.37186865 267.61433527 173.76709457 267.62913513 170.96310425 C267.63603363 170.12215714 267.64293213 169.28121002 267.65003967 168.41477966 C267.65265305 167.4952803 267.65526642 166.57578094 267.65795898 165.62841797 C267.664646 164.6573259 267.67133301 163.68623383 267.67822266 162.68571472 C267.69228227 160.5740777 267.70417341 158.46242539 267.71417046 156.35076523 C267.73058173 153.00430548 267.75382223 149.65795801 267.77906799 146.31155396 C267.849823 136.79565028 267.90983181 127.27969962 267.96118164 117.76367188 C267.99306486 111.94407719 268.0343693 106.12460976 268.08137703 100.30511856 C268.09734725 98.09087552 268.10969168 95.87660315 268.11828423 93.66231918 C268.1305081 90.5558362 268.1546894 87.4496493 268.18139648 84.34326172 C268.18198563 83.43590775 268.18257477 82.52855377 268.18318176 81.59370422 C268.24061026 76.5243155 268.78382328 71.93314053 270.05638218 67.02015877 C270.65791155 64.31814677 270.49752417 61.89482457 270.171875 59.16015625 C270.07261719 58.24363281 269.97335937 57.32710937 269.87109375 56.3828125 C269.59493784 54.07569738 269.59493784 54.07569738 268.484375 52.09765625 C268.25264673 49.55150616 268.06542971 47.023694 267.921875 44.47265625 C267.87869141 43.76625 267.83550781 43.05984375 267.79101562 42.33203125 C267.68492749 40.58747088 267.58414611 38.84258928 267.484375 37.09765625 C263.94936042 36.30991708 260.58187712 35.92269823 256.96484375 35.78125 C255.94326172 35.73935547 254.92167969 35.69746094 253.86914062 35.65429688 C252.81404297 35.61498047 251.75894531 35.57566406 250.671875 35.53515625 C249.06022461 35.47038086 249.06022461 35.47038086 247.41601562 35.40429688 C244.77225418 35.29854642 242.1284039 35.19645392 239.484375 35.09765625 C241.98781268 33.13342053 244.13148668 31.79112967 247.046875 30.41015625 C250.62631421 28.37357877 251.99882384 26.22684436 253.1796875 22.3125 C253.92236137 16.91383224 252.27908692 12.47515692 249.609375 7.84765625 C247.59525811 5.24115204 245.54522562 2.66725242 243.484375 0.09765625 C249.33761852 0.02323606 255.1905837 -0.03107357 261.04418945 -0.06713867 C263.0334961 -0.08218099 265.02276983 -0.10261998 267.01196289 -0.12866211 C269.87915189 -0.16524621 272.74590059 -0.18211593 275.61328125 -0.1953125 C276.49585098 -0.21079636 277.37842072 -0.22628021 278.28773499 -0.24223328 C284.54484422 -0.24392047 289.60532991 0.52257408 294.4453125 4.8515625 C294.91195313 5.44839844 295.37859375 6.04523437 295.859375 6.66015625 C296.58253906 7.55927734 296.58253906 7.55927734 297.3203125 8.4765625 C299.9019651 12.07181696 299.62983364 15.32172581 299.62481689 19.59358215 C299.62927358 20.76691676 299.62927358 20.76691676 299.6338203 21.9639551 C299.64252985 24.59943452 299.64401744 27.23486864 299.64550781 29.87036133 C299.6501344 31.7541463 299.65515884 33.63793033 299.66055298 35.52171326 C299.67369455 40.64986581 299.68012539 45.77800527 299.68456364 50.90617204 C299.6874916 54.10800431 299.69159588 57.30983297 299.69606781 60.51166344 C299.70974752 70.52350022 299.71941179 80.53532879 299.7232697 90.54717427 C299.72775142 102.11534943 299.74530266 113.68340649 299.7742703 125.25154573 C299.79586791 134.18577531 299.80597296 143.11997163 299.80731082 152.05422705 C299.80836025 157.39370392 299.8142973 162.73306985 299.83213043 168.0725193 C299.84857786 173.09494784 299.85078282 178.11718163 299.84199142 183.13962746 C299.84121926 184.98391236 299.84558736 186.82820758 299.85544968 188.67246628 C299.86811764 191.18880408 299.86232067 193.70444683 299.85186768 196.22077942 C299.86395228 197.31747986 299.86395228 197.31747986 299.87628102 198.43633586 C299.82382435 203.82966053 298.48844427 206.99594091 294.80078125 210.86328125 C294.22199219 211.353125 293.64320313 211.84296875 293.046875 212.34765625 C292.47066406 212.8478125 291.89445312 213.34796875 291.30078125 213.86328125 C287.95909137 216.13419309 284.59308392 216.22222908 280.63751221 216.21791077 C279.17782265 216.21997276 279.17782265 216.21997276 277.68864441 216.22207642 C276.62769058 216.21848114 275.56673676 216.21488586 274.47363281 216.21118164 C273.35138809 216.21132767 272.22914337 216.21147369 271.07289124 216.21162415 C267.36107454 216.21092712 263.64930794 216.20314447 259.9375 216.1953125 C257.36488879 216.19344758 254.79227722 216.19202402 252.21966553 216.19102478 C246.13886766 216.1875959 240.05809048 216.17971325 233.97730041 216.16967529 C227.05352084 216.15849409 220.12974042 216.15299864 213.20595407 216.14797986 C198.96541805 216.1375301 184.72489717 216.11994316 170.484375 216.09765625 C170.90847656 217.11714355 171.33257812 218.13663086 171.76953125 219.18701172 C173.33851279 222.96126019 174.90287022 226.73741048 176.46582031 230.51416016 C177.14359081 232.15010189 177.82262294 233.7855215 178.50292969 235.42041016 C179.47921708 237.76720011 180.45098742 240.11581562 181.421875 242.46484375 C181.72810791 243.19822968 182.03434082 243.9316156 182.34985352 244.68722534 C184.484375 249.86991284 184.484375 249.86991284 184.484375 252.09765625 C185.19722656 252.02804687 185.91007813 251.9584375 186.64453125 251.88671875 C191.59799254 251.60671152 195.55052518 251.4537251 199.671875 254.47265625 C202.97097169 257.8355036 203.27973097 260.95808117 203.31640625 265.53515625 C202.05760596 269.41202474 199.84135485 271.90345234 196.484375 274.09765625 C192.80060064 274.97477096 189.20674746 274.91830075 185.43359375 274.87402344 C183.77887558 274.88979431 183.77887558 274.88979431 182.09072876 274.90588379 C178.45053174 274.93225447 174.81208926 274.91482084 171.171875 274.89453125 C168.6389126 274.89857364 166.10595248 274.90439727 163.57299805 274.91192627 C158.26684234 274.92076893 152.96131327 274.90849858 147.65527344 274.87988281 C141.53028104 274.84723078 135.40648708 274.85780898 129.2815237 274.89084125 C123.37716685 274.92140301 117.47318071 274.91810125 111.5687561 274.90055084 C109.06173535 274.89654986 106.55468398 274.90145489 104.04769897 274.91542816 C100.54269538 274.93067704 97.03998884 274.90742748 93.53515625 274.87402344 C92.50016998 274.88616882 91.46518372 274.89831421 90.39883423 274.91082764 C85.56246286 274.82548439 82.42831419 274.65583431 78.84570312 271.20928955 C75.8580379 267.27230235 75.5191069 265.29618851 75.8515625 260.51171875 C76.77968324 256.97111001 78.26906398 255.2255384 81.1953125 253.08203125 C85.53290887 251.21671677 89.87799915 251.7269952 94.484375 252.09765625 C94.63495361 251.53385254 94.78553223 250.97004883 94.94067383 250.38916016 C97.07786725 242.81232046 100.05330571 235.69164116 103.171875 228.47265625 C103.93854492 226.68021484 103.93854492 226.68021484 104.72070312 224.8515625 C105.9704875 221.93150555 107.22512694 219.01364148 108.484375 216.09765625 C107.89814834 216.10042163 107.31192167 216.10318701 106.70793056 216.10603619 C92.42687104 216.17236314 78.14582529 216.22196944 63.86464596 216.25309277 C56.95829159 216.26854483 50.05204021 216.2896024 43.14575195 216.32397461 C36.4803024 216.35713229 29.81498191 216.37451191 23.14944649 216.38228798 C20.60695271 216.3878293 18.06446475 216.39865009 15.52201653 216.41484642 C11.9597803 216.43663584 8.39798554 216.43962246 4.83569336 216.43823242 C3.78552536 216.44901825 2.73535736 216.45980408 1.65336609 216.47091675 C-5.03780208 216.44268004 -10.01996437 215.77162772 -15.4765625 211.59765625 C-20.22670745 206.55882846 -20.66447038 203.15640544 -20.66279602 196.48820496 C-20.66647271 195.70583302 -20.6701494 194.92346109 -20.6739375 194.11738092 C-20.68497889 191.48734566 -20.68881893 188.8573499 -20.69262695 186.22729492 C-20.69889119 184.34498468 -20.70553795 182.46267568 -20.71253967 180.58036804 C-20.72995131 175.4604757 -20.74050159 170.3405927 -20.7487452 165.22067809 C-20.75389434 162.02302052 -20.75997007 158.82536586 -20.76625633 155.62771034 C-20.7853077 145.62602196 -20.79953973 135.62434097 -20.8078683 125.62263793 C-20.81764567 114.07142803 -20.84397853 102.52040951 -20.88436919 90.96926707 C-20.91450776 82.04434424 -20.92933497 73.11947635 -20.93264931 64.19450361 C-20.93500209 58.86223541 -20.9439924 53.53017168 -20.96911049 48.19795799 C-20.99235709 43.18203853 -20.99663816 38.16645867 -20.98634911 33.15049934 C-20.98585283 31.30985257 -20.99220029 29.46918927 -21.00590515 27.62859344 C-21.02357583 25.11467358 -21.0165423 22.60197886 -21.00337219 20.08805847 C-21.01434144 19.36051981 -21.02531068 18.63298114 -21.03661233 17.88339585 C-20.96296901 12.05683966 -18.89554965 8.60252694 -14.953125 4.453125 C-9.83040545 0.29091536 -6.49553894 -0.02952518 0 0 Z M220.484375 192.09765625 C219.33227151 195.63077363 219.22902918 197.42174083 220.546875 200.91015625 C222.36075294 203.3174349 222.36075294 203.3174349 225.359375 204.09765625 C229.03365379 204.09765625 230.60295025 203.32046963 233.484375 201.09765625 C234.90479321 198.25681984 234.79889772 196.24288347 234.484375 193.09765625 C232.984375 190.59765625 232.984375 190.59765625 230.484375 189.09765625 C226.17346363 188.46898167 223.45445636 188.79756585 220.484375 192.09765625 Z M246.484375 192.09765625 C245.33227151 195.63077363 245.22902918 197.42174083 246.546875 200.91015625 C248.36075294 203.3174349 248.36075294 203.3174349 251.359375 204.09765625 C255.03365379 204.09765625 256.60295025 203.32046963 259.484375 201.09765625 C260.90479321 198.25681984 260.79889772 196.24288347 260.484375 193.09765625 C258.984375 190.59765625 258.984375 190.59765625 256.484375 189.09765625 C252.17346363 188.46898167 249.45445636 188.79756585 246.484375 192.09765625 Z " fill="#013893" transform="translate(20.515625,34.90234375)"/>
<path d="M0 0 C6.53455647 5.92812982 6.53455647 5.92812982 7.5625 10.50390625 C7 13 7 13 4.60546875 15.0546875 C0.3848677 17.52135302 -4.16176688 19.30362615 -8.6875 21.125 C-10.38006919 21.81224696 -12.07152636 22.50224068 -13.76171875 23.1953125 C-14.50381592 23.49453613 -15.24591309 23.79375977 -16.01049805 24.10205078 C-18.24502684 25.04541436 -18.24502684 25.04541436 -21 27 C-21.76608503 32.96939525 -19.99838594 37.4514306 -17.6875 42.8125 C-17.37876953 43.57498047 -17.07003906 44.33746094 -16.75195312 45.12304688 C-14.8587304 49.7823831 -14.8587304 49.7823831 -11 53 C-4.41054197 52.77723751 0.74709784 50.6521747 6.6875 47.9375 C8.33342854 47.18818623 9.98308529 46.44699692 11.63671875 45.71484375 C12.35561279 45.38605225 13.07450684 45.05726074 13.81518555 44.71850586 C16.36141459 43.88114391 18.33590272 43.74462236 21 44 C23.89629974 46.99617215 24.23441929 49.86539357 24.375 53.875 C24.14547515 60.89637373 21.73623031 65.77517355 17 71 C14.66484268 72.72685977 12.20361804 74.17866852 9.6875 75.625 C9.04876953 76.0065625 8.41003906 76.388125 7.75195312 76.78125 C-2.6264133 82.8799861 -10.9270979 85.32623297 -22.875 82.3125 C-28.84799272 80.74125156 -34.6747696 78.83378639 -40.44921875 76.63671875 C-46.18642987 75.20461245 -51.64222198 78.3630727 -56.86328125 80.55078125 C-58.18848785 81.09969528 -58.18848785 81.09969528 -59.54046631 81.65969849 C-62.46631207 82.87293212 -65.38939274 84.0926848 -68.3125 85.3125 C-70.36824973 86.16647859 -72.42416068 87.02006917 -74.48022461 87.87329102 C-79.89534807 90.12193668 -85.30804765 92.37635453 -90.7199707 94.63269043 C-93.94642061 95.97766495 -97.1733178 97.3215599 -100.40039062 98.66503906 C-109.63327719 102.50886741 -118.86526693 106.35483789 -128.0958252 110.20425415 C-137.87456206 114.28220288 -147.65449447 118.35719934 -157.44259644 122.41262817 C-159.25180612 123.16234898 -161.06060272 123.91306642 -162.86938477 124.66381836 C-163.91924561 125.09831299 -164.96910645 125.53280762 -166.05078125 125.98046875 C-167.39136597 126.53577271 -167.39136597 126.53577271 -168.7590332 127.10229492 C-174.51851917 129.40947761 -180.16217767 130.05894219 -186.22265625 128.38671875 C-191.66569912 126.00604297 -195.10185221 122.13443484 -198 117 C-199.94746194 111.21662817 -199.78156847 104.43665465 -197.9375 98.6875 C-193.24189263 92.17423816 -187.23543895 88.80802954 -179.9375 85.8125 C-178.97255615 85.40435059 -178.0076123 84.99620117 -177.01342773 84.57568359 C-174.05681367 83.33160642 -171.09461562 82.10194659 -168.12927246 80.87884521 C-165.81855467 79.92510946 -163.50928098 78.96793421 -161.20019531 78.01025391 C-152.68218256 74.47863955 -144.15973786 70.95791303 -135.63294983 67.44754028 C-119.60473192 60.84835073 -103.60592204 54.17932155 -87.61157227 47.49853516 C-86.63996658 47.09300919 -85.6683609 46.68748322 -84.66731262 46.26966858 C-82.87015122 45.51954675 -81.07324178 44.76882079 -79.2766571 44.01731873 C-76.85335898 43.00598494 -74.42757673 42.00101769 -72 41 C-70.63155945 40.43404617 -70.63155945 40.43404617 -69.23547363 39.85665894 C-68.33566772 39.48944733 -67.43586182 39.12223572 -66.50878906 38.74389648 C-65.28485443 38.2424839 -65.28485443 38.2424839 -64.03619385 37.73094177 C-62 37 -62 37 -60 37 C-59.67 35.824375 -59.34 34.64875 -59 33.4375 C-54.81491682 21.09637101 -48.20051066 8.40492045 -36.6328125 1.609375 C-25.50285473 -3.28050808 -10.62234765 -7.44809142 0 0 Z " fill="#013893" transform="translate(258,43)"/>
<path d="M0 0 C1.25361328 0.00966797 2.50722656 0.01933594 3.79882812 0.02929688 C5.10916016 0.05443359 6.41949219 0.07957031 7.76953125 0.10546875 C9.10480288 0.12051908 10.44009062 0.13420688 11.77539062 0.14648438 C15.04467701 0.18189181 18.31315218 0.23127985 21.58203125 0.29296875 C23.93620405 4.74064469 24.93821495 7.60745782 24.76953125 12.66796875 C24.72892578 14.25738281 24.72892578 14.25738281 24.6875 15.87890625 C24.65269531 16.67554687 24.61789063 17.4721875 24.58203125 18.29296875 C27.95163725 19.56347593 30.96299691 20.4013849 34.58203125 20.29296875 C37.08800762 18.51161206 38.78806866 16.61464395 40.6953125 14.2109375 C43.00288457 11.86514478 44.30922567 11.38530496 47.58203125 11.29296875 C49.3984375 12.3046875 49.3984375 12.3046875 51.14453125 13.98046875 C51.81484375 14.62242188 52.48515625 15.264375 53.17578125 15.92578125 C53.96984375 16.70695312 54.76390625 17.488125 55.58203125 18.29296875 C56.65306187 19.27159937 57.72610868 20.24802639 58.80078125 21.22265625 C59.91678979 22.26540383 61.03137447 23.3096774 62.14453125 24.35546875 C62.96836304 25.09639771 62.96836304 25.09639771 63.80883789 25.85229492 C66.43787545 28.39306743 67.5705078 29.68145787 67.640625 33.40234375 C66.51462838 36.47702088 65.35363743 38.14834847 63.08203125 40.48046875 C60.75902121 42.89392385 59.6583429 44.06403379 58.58203125 47.29296875 C59.23132715 48.63484693 59.89934987 49.96776372 60.58203125 51.29296875 C60.58203125 52.61296875 60.58203125 53.93296875 60.58203125 55.29296875 C61.71382813 55.26976562 62.845625 55.2465625 64.01171875 55.22265625 C65.493483 55.20389974 66.97525437 55.18569941 68.45703125 55.16796875 C69.20339844 55.15121094 69.94976562 55.13445312 70.71875 55.1171875 C72.67397586 55.09957285 74.62945146 55.18976686 76.58203125 55.29296875 C78.58203125 57.29296875 78.58203125 57.29296875 78.77734375 59.23828125 C78.71223958 61.25651042 78.64713542 63.27473958 78.58203125 65.29296875 C67.12613512 70.84734263 55.44081079 75.66722938 43.58203125 80.29296875 C43.61683594 79.39835937 43.65164062 78.50375 43.6875 77.58203125 C43.97939261 64.5441613 41.7239053 55.06455643 32.765625 45.31640625 C26.08927481 38.97724546 17.67279333 35.46785955 8.453125 35.203125 C-0.43616889 35.59753053 -6.87290384 37.58595578 -14.41796875 42.29296875 C-15.03414062 42.67453125 -15.6503125 43.05609375 -16.28515625 43.44921875 C-23.03122719 48.34274171 -27.2008524 57.31373697 -28.8203125 65.26953125 C-30.41502928 75.41121322 -27.78788008 84.66589808 -22.41796875 93.29296875 C-19.7284014 96.94213047 -17.2013653 99.77070438 -13.41796875 102.29296875 C-13.41796875 102.95296875 -13.41796875 103.61296875 -13.41796875 104.29296875 C-14.02680908 104.52894775 -14.63564941 104.76492676 -15.26293945 105.00805664 C-31.56441399 111.25602346 -31.56441399 111.25602346 -46.41796875 120.29296875 C-52.13854427 115.05925072 -52.13854427 115.05925072 -53.3125 111.83984375 C-53.41796875 109.29296875 -53.41796875 109.29296875 -52.08984375 107.1953125 C-51.455625 106.54691406 -50.82140625 105.89851563 -50.16796875 105.23046875 C-46.45783185 101.52014698 -46.45783185 101.52014698 -43.41796875 97.29296875 C-43.69966447 94.87967092 -43.69966447 94.87967092 -44.73046875 92.54296875 C-45.03597656 91.74375 -45.34148438 90.94453125 -45.65625 90.12109375 C-45.90761719 89.5178125 -46.15898438 88.91453125 -46.41796875 88.29296875 C-47.46597656 88.339375 -48.51398437 88.38578125 -49.59375 88.43359375 C-50.97262776 88.47111423 -52.35153633 88.50751411 -53.73046875 88.54296875 C-54.42076172 88.57648438 -55.11105469 88.61 -55.82226562 88.64453125 C-57.84375 88.68359375 -57.84375 88.68359375 -61.41796875 88.29296875 C-63.7064182 86.06833404 -64.36510288 84.67337029 -64.80615234 81.49975586 C-64.80953613 80.45053955 -64.81291992 79.40132324 -64.81640625 78.3203125 C-64.82027344 77.17369141 -64.82414062 76.02707031 -64.828125 74.84570312 C-64.81652344 73.65267578 -64.80492187 72.45964844 -64.79296875 71.23046875 C-64.80457031 70.03357422 -64.81617188 68.83667969 -64.828125 67.60351562 C-64.82425781 66.45818359 -64.82039063 65.31285156 -64.81640625 64.1328125 C-64.81302246 63.08472412 -64.80963867 62.03663574 -64.80615234 60.95678711 C-64.41796875 58.29296875 -64.41796875 58.29296875 -63.08056641 56.49047852 C-59.72951464 54.0768355 -56.22722719 54.03130003 -52.23046875 53.73046875 C-51.14378906 53.64667969 -50.05710937 53.56289062 -48.9375 53.4765625 C-48.10605469 53.41597656 -47.27460937 53.35539062 -46.41796875 53.29296875 C-45.42796875 50.65296875 -44.43796875 48.01296875 -43.41796875 45.29296875 C-44.06765625 44.71289062 -44.71734375 44.1328125 -45.38671875 43.53515625 C-46.22203125 42.75398438 -47.05734375 41.9728125 -47.91796875 41.16796875 C-49.1709375 40.01941406 -49.1709375 40.01941406 -50.44921875 38.84765625 C-52.41796875 36.29296875 -52.41796875 36.29296875 -52.87890625 33.22265625 C-52.36923431 29.98321598 -51.78308904 28.87599725 -49.54296875 26.54296875 C-48.90875 25.87652344 -48.27453125 25.21007812 -47.62109375 24.5234375 C-46.8940625 23.78738281 -46.16703125 23.05132812 -45.41796875 22.29296875 C-44.5878125 21.40222656 -43.75765625 20.51148437 -42.90234375 19.59375 C-35.21763308 11.52940542 -35.21763308 11.52940542 -30.41796875 11.29296875 C-25.61651833 13.84693174 -22.13440419 17.3995602 -18.41796875 21.29296875 C-17.48984375 20.79796875 -16.56171875 20.30296875 -15.60546875 19.79296875 C-12.41796875 18.29296875 -12.41796875 18.29296875 -9.41796875 18.29296875 C-9.47017578 16.72095703 -9.47017578 16.72095703 -9.5234375 15.1171875 C-9.55157812 13.73829728 -9.57887799 12.35938973 -9.60546875 10.98046875 C-9.63060547 10.29017578 -9.65574219 9.59988281 -9.68164062 8.88867188 C-9.75527679 3.8077763 -9.75527679 3.8077763 -8.30078125 1.58789062 C-5.52813235 -0.31902454 -3.33691734 -0.04529752 0 0 Z " fill="#013994" transform="translate(102.41796875,10.70703125)"/>
<path d="M0 0 C6.26972562 4.14038484 9.65709394 9.97128183 12 17 C12.14615307 19.07987055 12.22090982 21.16520361 12.25 23.25 C12.27578125 24.34828125 12.3015625 25.4465625 12.328125 26.578125 C11.93519495 30.67582411 10.94583796 33.36698993 9 37 C6.16845703 38.88037109 6.16845703 38.88037109 2.7578125 40.2734375 C2.15242645 40.52751373 1.54704041 40.78158997 0.92330933 41.04336548 C-1.00084686 41.84375771 -2.93695339 42.60895269 -4.875 43.375 C-6.16885559 43.91062316 -7.46183611 44.44836533 -8.75390625 44.98828125 C-22.03212084 50.4634925 -22.03212084 50.4634925 -25.95703125 49.5390625 C-33.24808876 45.94725733 -39.12588166 40.20479613 -42 32.5 C-44.06007219 24.79479492 -43.74423761 17.13074552 -40 10 C-30.08276679 -4.18540953 -15.45671032 -8.27260552 0 0 Z " fill="#013993" transform="translate(125,59)"/>
<path d="M0 0 C13.2 0 26.4 0 40 0 C40 0.66 40 1.32 40 2 C38.52138826 3.10077735 36.9895273 4.13040725 35.4375 5.125 C24.60769342 12.60851803 19.77166241 22.48285052 14 34 C12.24147082 31.67371711 10.53820472 29.33447151 8.875 26.9375 C5.74172861 23.12937015 1.64716606 22.15419811 -3 21 C-2.71125 20.34 -2.4225 19.68 -2.125 19 C0.690101 11.49306401 1.03237738 8.25901906 0 0 Z " fill="#023894" transform="translate(178,35)"/>
</svg>
