<?xml version="1.0" encoding="UTF-8"?>
<svg version="1.1" xmlns="http://www.w3.org/2000/svg" width="320" height="320">
<path d="M0 0 C0.93266693 -0.0004985 1.86533386 -0.00099701 2.82626343 -0.00151062 C4.78784325 0.00081949 6.74942666 0.01048484 8.7109375 0.02709961 C11.70860552 0.05076284 14.70538679 0.04764344 17.703125 0.04101562 C19.61458862 0.04659089 21.52604851 0.05369981 23.4375 0.0625 C24.77671005 0.06113289 24.77671005 0.06113289 26.14297485 0.05973816 C35.93192229 0.17109519 35.93192229 0.17109519 39.78051758 4.08789062 C41.40983647 6.92784799 42.16456931 9.59317412 42.97265625 12.76953125 C43.13835617 13.41764771 43.30405609 14.06576416 43.47477722 14.73352051 C45.57840728 23.09952873 47.4158897 31.53046804 49.2616272 39.95626831 C50.13320877 43.93500247 51.01199662 47.91213528 51.89030457 51.88938904 C52.3317622 53.8887893 52.77285556 55.88827003 53.21357727 57.88783264 C55.87699949 69.96797502 58.60778578 82.03262471 61.34521484 94.09619141 C62.0487053 97.19906197 62.74940955 100.30254741 63.44921875 103.40625 C65.65638076 113.17890491 67.9336374 122.93087816 70.27954102 132.67114258 C71.66899733 138.48712718 72.94237657 144.31921602 74.1484375 150.17578125 C75.56653999 157.06119913 77.1928148 163.86453024 78.9375 170.67578125 C81.56310706 181.17820949 83.76968263 191.78927606 86.0859375 202.36328125 C88.50486635 198.51053008 90.9206724 194.65583007 93.3359375 190.80078125 C94.01785156 189.71474609 94.69976562 188.62871094 95.40234375 187.50976562 C98.73771939 182.18287929 102.02879541 176.85510609 105.0859375 171.36328125 C104.1990625 171.59015625 103.3121875 171.81703125 102.3984375 172.05078125 C97.85028252 172.47985247 95.98355079 170.87920799 92.54443359 168.13183594 C90.51931324 165.67619954 90.13297514 163.41480498 89.4375 160.31640625 C89.15680664 159.08978271 88.87611328 157.86315918 88.58691406 156.59936523 C88.29463919 155.27073273 88.00265329 153.94203662 87.7109375 152.61328125 C87.40420114 151.25378859 87.0965763 149.89449611 86.78808594 148.53540039 C85.87186642 144.48139955 84.97657573 140.42296755 84.0859375 136.36328125 C83.83489258 135.22294434 83.58384766 134.08260742 83.32519531 132.90771484 C82.27930418 128.14431526 81.24516889 123.37867799 80.2265625 118.609375 C78.42827716 110.25996492 76.48105448 101.94684526 74.4453125 93.65234375 C73.90885417 91.43098958 73.37239583 89.20963542 72.8359375 86.98828125 C72.55492188 85.86550781 72.27390625 84.74273437 71.984375 83.5859375 C70.35753959 76.76450389 69.43460989 71.72750422 71.9609375 65.05078125 C73.59272209 62.60310437 75.48601254 61.53652161 78.27734375 60.73046875 C81.172466 60.35196876 83.94602331 60.41422965 86.85913086 60.48022461 C97.4691337 60.51972039 102.99660192 56.82612988 110.58251953 49.74853516 C112.61713268 47.87383639 114.77709633 46.18520942 116.9609375 44.48828125 C119.97328369 42.0784043 122.96372777 39.64386634 125.94140625 37.19140625 C146.53211564 20.25435401 146.53211564 20.25435401 152.9765625 20.6796875 C156.76950611 21.90888219 159.67533433 24.48390346 162.69140625 27.02734375 C164.99422296 28.64838298 164.99422296 28.64838298 167.49609375 27.90234375 C170.75315685 25.96677382 173.51932442 23.6231138 176.3359375 21.11328125 C189.20509157 10.01379485 189.20509157 10.01379485 195.9609375 8.48828125 C202.037766 9.0483027 206.55709694 13.64407332 211.0859375 17.36328125 C212.34187641 18.37701055 213.59841867 19.38999266 214.85546875 20.40234375 C217.59327332 22.61459957 220.32065597 24.83902951 223.04296875 27.0703125 C226.68687513 30.04996061 230.37434665 32.96862357 234.0859375 35.86328125 C239.95885808 40.44436234 245.74471909 45.1261752 251.49414062 49.86132812 C253.34587179 51.378111 255.20964069 52.87701385 257.0859375 54.36328125 C257.99073853 55.08173218 257.99073853 55.08173218 258.91381836 55.81469727 C262.49610262 58.53183715 265.209604 59.99739202 269.7734375 60.55078125 C273.2895756 61.00335348 276.05489502 61.46223268 279.0859375 63.36328125 C281.3032393 66.6510046 282.14589502 68.55185616 281.8515625 72.53515625 C280.98119352 76.88700117 279.61867243 80.7966558 278.0234375 84.92578125 C277.38210344 86.62343022 276.74150703 88.321358 276.1015625 90.01953125 C275.76833984 90.89867187 275.43511719 91.7778125 275.09179688 92.68359375 C273.77569623 96.1897881 272.50800167 99.71249944 271.24072266 103.23657227 C267.42408599 113.84743871 263.4221405 124.38006061 259.32299805 134.88500977 C258.91605713 135.93229248 258.50911621 136.9795752 258.08984375 138.05859375 C257.72705322 138.98687988 257.3642627 139.91516602 256.99047852 140.87158203 C256.20786856 143.02740315 255.5879783 145.12813675 255.0859375 147.36328125 C255.81039063 147.61207031 256.53484375 147.86085937 257.28125 148.1171875 C268.1468038 152.94464107 275.21994185 164.1545028 279.5234375 174.80078125 C283.66628784 188.55647915 282.13667621 203.58333626 275.61328125 216.21484375 C268.4699897 228.47496117 258.09606782 235.87053794 244.828125 240.5 C230.40976597 243.82615589 216.09307042 241.63474093 203.3984375 234.23828125 C191.82699833 226.38504228 184.16651457 215.02003305 181.0859375 201.36328125 C180.86570442 198.04452485 180.89521492 194.74982729 180.9609375 191.42578125 C180.96996094 190.55115234 180.97898438 189.67652344 180.98828125 188.77539062 C181.0116418 186.63790061 181.04750503 184.50055339 181.0859375 182.36328125 C180.42980469 182.26273438 179.77367187 182.1621875 179.09765625 182.05859375 C175.1953108 181.15766315 171.61203187 179.72147295 167.8984375 178.23828125 C167.11831299 177.93132324 166.33818848 177.62436523 165.53442383 177.30810547 C162.21027444 175.99999266 158.89000121 174.682161 155.56933594 173.36523438 C153.13868373 172.40288285 150.70612339 171.4454777 148.2734375 170.48828125 C147.52747314 170.19034668 146.78150879 169.89241211 146.01293945 169.58544922 C142.38727061 168.15940535 138.96040139 166.95701049 135.0859375 166.36328125 C129.55914276 174.87065093 124.14348199 183.44370804 118.7734375 192.05078125 C113.14413447 201.07315636 107.50592677 210.08926308 101.8046875 219.06640625 C100.03342496 221.85589457 98.28465027 224.65738665 96.5546875 227.47265625 C95.77345737 228.72787695 94.99220855 229.98308602 94.2109375 231.23828125 C93.55351563 232.30820312 92.89609375 233.378125 92.21875 234.48046875 C89.21657218 238.53835745 86.1929332 242.01928195 81.0234375 242.86328125 C77.60806024 242.28194044 75.78143352 241.54881857 73.0859375 239.36328125 C70.29120715 234.6165614 69.138994 229.99407224 68.0234375 224.67578125 C67.5929307 222.70533836 67.16045196 220.7353258 66.7265625 218.765625 C66.47583984 217.62335449 66.22511719 216.48108398 65.96679688 215.30419922 C64.35290526 208.03068101 62.62567903 200.7826083 60.92654419 193.52865601 C57.39414694 178.43661625 53.93983206 163.33052336 50.60827637 148.19293213 C47.84395574 135.6431975 44.95175802 123.12568403 42.0234375 110.61328125 C37.87895008 92.89705271 33.91218716 75.15098 30.0859375 57.36328125 C29.38289311 54.0977694 28.67942566 50.83235454 27.97387695 47.56738281 C27.57061227 45.69998799 27.16916918 43.83219805 26.77026367 41.96386719 C25.35391438 35.39282054 23.74590804 28.87676973 22.0859375 22.36328125 C21.02157471 22.36440918 19.95721191 22.36553711 18.8605957 22.36669922 C14.89977115 22.3630195 10.94016038 22.3201523 6.97973633 22.265625 C5.26790194 22.2474915 3.55592145 22.23989172 1.84399414 22.24316406 C-0.62207463 22.24602909 -3.08513074 22.21064024 -5.55078125 22.16796875 C-6.69325569 22.18160965 -6.69325569 22.18160965 -7.85881042 22.19552612 C-10.77076983 22.11642788 -13.17421608 21.94965906 -15.50869751 20.09942627 C-18.75984515 16.37637652 -19.9140625 13.28502517 -19.9140625 8.36328125 C-18.57152652 4.67130731 -17.37302624 3.61036108 -13.90869141 1.74536133 C-9.3198712 -0.11777924 -4.8935357 -0.05070921 0 0 Z M189.5234375 37.73828125 C188.53214844 38.55039063 187.54085937 39.3625 186.51953125 40.19921875 C184.05017762 42.12546293 184.05017762 42.12546293 183.0859375 44.36328125 C185.08544777 45.90558643 187.08553583 47.44713294 189.0859375 48.98828125 C189.63894531 49.41496094 190.19195312 49.84164062 190.76171875 50.28125 C191.9208373 51.17390451 193.0872251 52.05717942 194.25976562 52.93212891 C196.0859375 54.36328125 196.0859375 54.36328125 197.83398438 56.02490234 C203.91370229 61.46287226 209.72320389 61.07525555 217.5859375 60.73828125 C218.78992188 60.71121094 219.99390625 60.68414062 221.234375 60.65625 C224.1867786 60.58595468 227.13539789 60.48760174 230.0859375 60.36328125 C226.50932104 56.64679711 222.73754017 53.38592056 218.6484375 50.23828125 C217.41514343 49.28153501 216.18207765 48.32449443 214.94921875 47.3671875 C214.31709473 46.87750488 213.6849707 46.38782227 213.03369141 45.88330078 C211.05336676 44.33786317 209.0893382 42.77370108 207.12890625 41.203125 C206.49331787 40.69604004 205.85772949 40.18895508 205.20288086 39.66650391 C203.97565069 38.6865814 202.75111377 37.70327466 201.52954102 36.71630859 C195.87899283 32.22579583 194.943965 33.25768877 189.5234375 37.73828125 Z M146.4609375 48.13671875 C145.40132812 49.00296875 145.40132812 49.00296875 144.3203125 49.88671875 C143.21429688 50.80324219 143.21429688 50.80324219 142.0859375 51.73828125 C141.34859375 52.3415625 140.61125 52.94484375 139.8515625 53.56640625 C135.8555497 56.83870503 135.8555497 56.83870503 132.0859375 60.36328125 C144.6259375 60.36328125 157.1659375 60.36328125 170.0859375 60.36328125 C166.2609803 56.53832405 162.64591999 53.29772426 158.3984375 50.05078125 C157.81771484 49.59638672 157.23699219 49.14199219 156.63867188 48.67382812 C152.06240548 45.15565801 150.91193871 44.47816422 146.4609375 48.13671875 Z M95.0859375 82.36328125 C95.9204329 90.84858232 95.9204329 90.84858232 97.46875 99.06640625 C97.7457373 100.27989746 98.02272461 101.49338867 98.30810547 102.74365234 C98.60604004 104.02062988 98.90397461 105.29760742 99.2109375 106.61328125 C99.52154512 107.96683376 99.83159344 109.32051473 100.14111328 110.67431641 C101.59484885 117.01441263 103.07857418 123.34731158 104.57949829 129.6763916 C105.064401 131.72116567 105.54766588 133.76632183 106.03076172 135.81152344 C106.63491118 138.3686358 107.2470746 140.92337476 107.86376953 143.47753906 C109.36164692 149.78448294 110.54625843 155.90097032 111.0859375 162.36328125 C114.5930184 158.1255585 117.44414526 153.67176353 120.3046875 148.984375 C123.02597052 144.98003091 124.61717859 142.76636821 129.40234375 141.453125 C133.6604206 141.34926947 136.1382818 142.21287835 140.0234375 143.92578125 C141.35336247 144.49537096 142.68411976 145.06302053 144.015625 145.62890625 C144.69206055 145.92087891 145.36849609 146.21285156 146.06542969 146.51367188 C149.22110929 147.84061303 152.43261715 149.00408128 155.6484375 150.17578125 C160.42440662 151.92376189 165.13164279 153.78716759 169.8125 155.77734375 C170.79919678 156.19395264 171.78589355 156.61056152 172.80249023 157.03979492 C174.75211027 157.86728999 176.69715695 158.70566161 178.63696289 159.5559082 C179.5314917 159.93448975 180.42602051 160.31307129 181.34765625 160.703125 C182.14131592 161.04722412 182.93497559 161.39132324 183.75268555 161.74584961 C186.57189937 162.49187784 188.31507121 162.20906288 191.0859375 161.36328125 C192.79164932 159.77509236 192.79164932 159.77509236 194.2109375 157.73828125 C201.83479459 148.55013383 213.00110405 143.3847056 224.734375 141.90234375 C227.85366095 141.65198891 230.95859147 141.46416338 234.0859375 141.36328125 C239.07711553 128.17806096 243.99449685 114.96614778 248.8314209 101.72360229 C249.37645509 100.23241302 249.92259942 98.74162903 250.46984863 97.25125122 C251.24223475 95.14652541 252.01037257 93.04029782 252.77734375 90.93359375 C253.22279541 89.71430176 253.66824707 88.49500977 254.12719727 87.23876953 C255.19137092 84.55224621 255.19137092 84.55224621 255.0859375 82.36328125 C202.2859375 82.36328125 149.4859375 82.36328125 95.0859375 82.36328125 Z M213.0859375 167.36328125 C212.0657822 168.68125733 211.06300417 170.0130522 210.0859375 171.36328125 C213.73318324 172.91300857 217.38106559 174.46122646 221.02954102 176.00805664 C222.27027637 176.53433589 223.51083788 177.06102518 224.7512207 177.58813477 C226.53551055 178.34629717 228.32048119 179.10285673 230.10546875 179.859375 C231.17901611 180.31497803 232.25256348 180.77058105 233.35864258 181.23999023 C235.24128317 182.01539345 237.1543508 182.71941902 239.0859375 183.36328125 C240.73621598 187.25954849 241.38164799 191.12667375 240.3984375 195.23828125 C238.33573973 198.57788717 237.28268655 200.04852933 233.3828125 201.07421875 C229.47650135 201.41671522 227.22659996 200.65882011 223.5859375 199.23828125 C222.37679687 198.77808594 221.16765625 198.31789062 219.921875 197.84375 C219.29635742 197.60060059 218.67083984 197.35745117 218.02636719 197.10693359 C214.77612828 195.86130857 211.49247394 194.71080945 208.2109375 193.55078125 C205.1484375 192.45703125 205.1484375 192.45703125 202.0859375 191.36328125 C201.42523362 198.49888316 203.03806626 203.43704748 207.0859375 209.36328125 C212.66878151 215.53049772 218.46401253 219.79790816 226.91796875 220.83203125 C236.68801721 220.90873428 243.92147597 220.1025384 251.36328125 213.2734375 C258.2271204 206.01241416 260.66694689 199.45875427 260.56420898 189.4296875 C260.24420678 180.50666797 257.09640529 174.9619585 250.7109375 168.92578125 C243.54500857 162.6849086 236.27831907 161.64666012 227.0546875 161.94140625 C221.66565949 162.51425568 217.38168281 164.03867185 213.0859375 167.36328125 Z " fill="#013893" transform="translate(28.9140625,48.63671875)"/>
</svg>
