<?xml version="1.0" encoding="UTF-8"?>
<svg version="1.1" xmlns="http://www.w3.org/2000/svg" width="320" height="320">
<path d="M0 0 C1.31895523 -0.00467997 1.31895523 -0.00467997 2.66455603 -0.00945449 C5.58686535 -0.01737958 8.50896384 -0.01113238 11.43127441 -0.00482178 C13.53620016 -0.00753408 15.64112496 -0.01109635 17.74604797 -0.01544189 C23.44637453 -0.02453969 29.14662847 -0.02103238 34.84695625 -0.01468372 C40.82049883 -0.00961024 46.7940353 -0.01431893 52.76757812 -0.01745605 C62.79790357 -0.02109176 72.82819954 -0.01630696 82.85852051 -0.0067749 C94.44480868 0.00410887 106.03102645 0.00058301 117.61731291 -0.01042771 C127.57594514 -0.01951183 137.53455621 -0.02078035 147.49319124 -0.01555037 C153.43628372 -0.01243687 159.37934314 -0.01200432 165.32243347 -0.01862335 C170.91045607 -0.02441252 176.49838814 -0.02037111 182.08640099 -0.00883484 C184.13379962 -0.00619667 186.1812059 -0.00693891 188.22860146 -0.01136017 C191.02986288 -0.01685036 193.83083682 -0.00993949 196.63208008 0 C197.83837893 -0.00669217 197.83837893 -0.00669217 199.06904745 -0.01351953 C208.72298969 0.05261753 215.52002435 1.86995356 222.81604004 8.25396729 C223.72354004 8.99646729 224.63104004 9.73896729 225.56604004 10.50396729 C232.66178635 19.1765461 232.39252188 29.15712296 232.33361816 39.83599854 C232.33904698 41.49611014 232.34617389 43.15621693 232.3548584 44.8163147 C232.37300446 49.29984355 232.3660605 53.78300186 232.35334206 58.26653671 C232.34316898 62.97304993 232.35261965 67.67953281 232.35888672 72.38604736 C232.36615063 80.28771624 232.35660848 88.18923526 232.33752441 96.09088135 C232.31575809 105.20801079 232.32281035 114.32478234 232.34483004 123.44190311 C232.36301992 131.28936086 232.36552485 139.13671128 232.35507536 146.98418331 C232.34886012 151.66251931 232.34795031 156.34068744 232.36122131 161.01901245 C232.37283159 165.41870383 232.36466024 169.8179367 232.34164429 174.21757889 C232.33638471 175.82593655 232.33782348 177.43433323 232.34669495 179.04267502 C232.40329353 190.3519342 231.52652441 200.15887728 223.53088379 208.78521729 C217.12032147 214.2758128 210.12794915 215.40288536 201.93600464 215.40113831 C201.01690862 215.40481499 200.09781261 215.40849168 199.1508652 215.41227978 C196.05796867 215.42333029 192.96510572 215.4271628 189.87219238 215.43096924 C187.65977878 215.4372329 185.44736623 215.44387961 183.23495483 215.45088196 C177.21406271 215.4683017 171.19317853 215.4788466 165.17226744 215.48708749 C161.41108404 215.49223607 157.64990312 215.4983119 153.88872147 215.50459862 C143.47106185 215.52147005 133.05340382 215.53610429 122.63573265 215.54334736 C119.93265151 215.54525719 117.22957037 215.54717753 114.52648926 215.5491333 C113.5187568 215.54985891 113.5187568 215.54985891 112.49066611 215.55059918 C101.61372016 215.558895 90.73688435 215.5842241 79.85998647 215.61671398 C68.68741979 215.64981428 57.51489291 215.6674663 46.34227335 215.6709916 C40.07150652 215.6733426 33.80091371 215.68230966 27.53019333 215.70745277 C21.62866244 215.73073272 15.72742016 215.73496683 9.82585526 215.72469139 C7.6623463 215.72419589 5.49882313 215.73052041 3.33535767 215.74424744 C0.37588624 215.76197101 -2.58254997 215.75485747 -5.54202271 215.74171448 C-6.39311509 215.75268372 -7.24420747 215.76365297 -8.12109053 215.77495462 C-14.24730087 215.70951548 -18.78168378 214.08228159 -24.18395996 211.25396729 C-24.84395996 210.92396729 -25.50395996 210.59396729 -26.18395996 210.25396729 C-26.18395996 209.59396729 -26.18395996 208.93396729 -26.18395996 208.25396729 C-27.17395996 207.92396729 -28.16395996 207.59396729 -29.18395996 207.25396729 C-30.75427246 205.07427979 -30.75427246 205.07427979 -32.30895996 202.37896729 C-32.82716309 201.49467041 -33.34536621 200.61037354 -33.87927246 199.69927979 C-36.14309076 195.45631495 -36.31482441 192.21850743 -36.33113098 187.46194458 C-36.33480767 186.76744394 -36.33848436 186.07294331 -36.34227246 185.3573972 C-36.35330671 183.02457326 -36.35715272 180.69179388 -36.36096191 178.35894775 C-36.36722687 176.68839883 -36.3738737 175.0178513 -36.38087463 173.3473053 C-36.40191736 167.855265 -36.41227867 162.36322442 -36.42224121 156.87115479 C-36.42628898 154.97965607 -36.43040591 153.0881575 -36.43459129 151.19665909 C-36.4536451 142.30822133 -36.46787454 133.41979188 -36.47620326 124.53133762 C-36.4859704 114.27738829 -36.51227547 104.02365513 -36.55270416 93.76978195 C-36.58289051 85.84098214 -36.59767462 77.91224421 -36.60098428 69.98338807 C-36.60333231 65.24960944 -36.61226031 60.5160617 -36.63744545 55.78234482 C-36.66077463 51.32535198 -36.66493999 46.86874124 -36.65468407 42.41170311 C-36.65418974 40.78033488 -36.66047977 39.14894753 -36.67424011 37.51763725 C-36.74173678 29.03782535 -36.68297316 21.74632578 -32.18395996 14.25396729 C-31.64770996 13.20209229 -31.11145996 12.15021729 -30.55895996 11.06646729 C-22.6959373 1.75499308 -11.56445577 -0.06415595 0 0 Z M199.40588379 31.35162354 C198.67562988 31.81568604 197.94537598 32.27974854 197.19299316 32.75787354 C196.38797363 33.27220947 195.5829541 33.78654541 194.75354004 34.31646729 C193.01301143 35.42249774 191.27210829 36.52793895 189.53088379 37.63287354 C188.13845459 38.51676758 188.13845459 38.51676758 186.71789551 39.41851807 C181.76406431 42.55186006 176.78948725 45.65189172 171.81604004 48.75396729 C164.50901279 53.31339932 157.21529631 57.89244616 149.94104004 62.50396729 C143.76729936 66.41613763 137.55900419 70.26574966 131.31604004 74.06646729 C119.81750205 81.01662215 119.81750205 81.01662215 108.65979004 88.49224854 C107.59760254 89.23861572 106.53541504 89.98498291 105.44104004 90.75396729 C104.48455566 91.44490479 103.52807129 92.13584229 102.54260254 92.84771729 C99.21800701 94.56240839 98.33718785 94.29073186 94.81604004 93.25396729 C92.13146973 91.84625244 92.13146973 91.84625244 89.23791504 90.04302979 C87.63375732 89.05000854 87.63375732 89.05000854 85.99719238 88.03692627 C84.8533104 87.31786828 83.70959663 86.59854264 82.56604004 85.87896729 C81.38226602 85.1415748 80.19818139 84.40468073 79.01379395 83.66827393 C72.03347466 79.31827974 65.09980085 74.89770814 58.21374512 70.39996338 C49.22607004 64.53810663 40.0947209 58.90389906 30.98596191 53.23297119 C27.76273003 51.22068548 24.54636668 49.1978174 21.33166504 47.17193604 C20.2714917 46.50516846 19.21131836 45.83840088 18.11901855 45.15142822 C16.11013343 43.88762995 14.10269629 42.62152565 12.0970459 41.3526001 C5.79870545 37.3971259 -0.61498854 33.7412187 -7.18395996 30.25396729 C-9.71080913 32.78081646 -8.75397766 38.99877475 -8.87145996 42.37896729 C-8.99037598 43.92970947 -8.99037598 43.92970947 -9.11169434 45.51177979 C-9.28836948 51.46415617 -9.28836948 51.46415617 -6.24743652 56.34674072 C-3.6419655 58.19240967 -0.9918257 59.73595032 1.81604004 61.25396729 C3.39685911 62.24557052 4.97257729 63.24536101 6.54260254 64.25396729 C8.17369468 65.2567709 9.80657919 66.25666373 11.44104004 67.25396729 C13.29161427 68.39147774 15.1418619 69.52951967 16.99182129 70.66802979 C18.42388916 71.54829834 18.42388916 71.54829834 19.8848877 72.4463501 C24.81302091 75.48548872 29.72067279 78.55724616 34.62854004 81.62896729 C36.12925049 82.56772705 36.12925049 82.56772705 37.66027832 83.52545166 C39.6961765 84.79906941 41.73198359 86.07283277 43.7677002 87.34674072 C46.78719848 89.23592225 49.80733588 91.12407695 52.82775879 93.01177979 C53.81767822 93.63052979 54.80759766 94.24927979 55.82751465 94.88677979 C57.80839397 96.12440458 59.78967204 97.3613914 61.7713623 98.59771729 C66.46542961 101.52750137 71.15469588 104.46418684 75.82885742 107.42565918 C77.49799558 108.48274787 79.16872699 109.53731948 80.83947754 110.59185791 C82.94642832 111.92209378 85.05072377 113.25654736 87.15197754 114.59576416 C88.09814941 115.19195557 89.04432129 115.78814697 90.01916504 116.40240479 C90.85093262 116.93011475 91.6827002 117.45782471 92.53967285 118.00152588 C94.76611588 119.22649936 96.2856768 120.04766582 98.81604004 120.25396729 C101.18105305 119.29646869 101.18105305 119.29646869 103.56994629 117.71099854 C104.49670166 117.13809082 105.42345703 116.56518311 106.3782959 115.97491455 C107.86341675 115.03023315 107.86341675 115.03023315 109.37854004 114.06646729 C110.40922607 113.42443359 111.43991211 112.7823999 112.50183105 112.12091064 C115.61458142 110.17769215 118.7162649 108.21779998 121.81604004 106.25396729 C123.44849306 105.22735378 125.08127482 104.2012627 126.71447754 103.17584229 C129.77485555 101.25040211 132.83015239 99.31719462 135.88244629 97.37896729 C141.47012682 93.83383746 147.07930271 90.32335689 152.69104004 86.81646729 C153.7029541 86.18394043 154.71486816 85.55141357 155.75744629 84.89971924 C161.5327252 81.29340097 167.31882582 77.70528095 173.11437988 74.13165283 C180.64210617 69.48897465 188.13841838 64.80556631 195.56604004 60.00396729 C196.64873169 59.30448975 196.64873169 59.30448975 197.7532959 58.59088135 C200.94474424 56.6285676 200.94474424 56.6285676 203.81604004 54.25396729 C203.90341649 52.40027117 203.92302157 50.54329188 203.91369629 48.68756104 C203.91047363 47.562854 203.90725098 46.43814697 203.90393066 45.27935791 C203.89555176 44.095354 203.88717285 42.9113501 203.87854004 41.69146729 C203.87177246 39.90966064 203.87177246 39.90966064 203.86486816 38.09185791 C203.85303679 35.14584503 203.83655291 32.19993048 203.81604004 29.25396729 C202.08623647 29.25396729 200.83543962 30.43908348 199.40588379 31.35162354 Z " fill="#013894" transform="translate(62.1839599609375,51.74603271484375)"/>
</svg>
