<?xml version="1.0" encoding="UTF-8"?>
<svg version="1.1" xmlns="http://www.w3.org/2000/svg" width="320" height="320">
<path d="M0 0 C1.58113462 1.39438507 1.58113462 1.39438507 3.6015625 2.3125 C3.6015625 2.9725 3.6015625 3.6325 3.6015625 4.3125 C4.19582031 4.58320312 4.79007813 4.85390625 5.40234375 5.1328125 C21.78627376 13.92135044 33.10018812 39.31239236 38.41796875 56.26953125 C38.81666432 57.61596139 39.21142453 58.96356537 39.6015625 60.3125 C39.94058594 61.45074219 40.27960938 62.58898437 40.62890625 63.76171875 C47.01823906 89.58404536 42.88698357 119.50572113 29.7890625 142.625 C12.959578 170.51477071 -11.2918701 191.559907 -43.23828125 199.5703125 C-56.52925031 202.70352459 -56.52925031 202.70352459 -61.3984375 202.3125 C-63.21840656 200.49253094 -62.52484341 197.97360356 -62.53396606 195.5511322 C-62.53092972 194.31055809 -62.53092972 194.31055809 -62.52783203 193.04492188 C-62.53046051 191.7450106 -62.53046051 191.7450106 -62.53314209 190.4188385 C-62.53756175 187.53962227 -62.53462222 184.66046691 -62.53125 181.78125 C-62.53192301 179.78967273 -62.532893 177.79809554 -62.53414917 175.80651855 C-62.5356263 171.62670105 -62.53347111 167.44690487 -62.52880859 163.26708984 C-62.5231113 157.89647474 -62.52639023 152.5259096 -62.53238106 147.15529633 C-62.53598627 143.0410728 -62.53484827 138.92686121 -62.53225327 134.81263733 C-62.53158389 132.83179214 -62.5324128 130.85094588 -62.53473282 128.87010193 C-62.53725869 126.10673124 -62.53341968 123.34344266 -62.52783203 120.58007812 C-62.52985626 119.75302872 -62.53188049 118.92597931 -62.53396606 118.0738678 C-62.51269994 112.42676244 -62.51269994 112.42676244 -61.3984375 111.3125 C-59.54474139 111.22512355 -57.68776209 111.20551847 -55.83203125 111.21484375 C-54.70732422 111.21806641 -53.58261719 111.22128906 -52.42382812 111.22460938 C-51.23982422 111.23298828 -50.05582031 111.24136719 -48.8359375 111.25 C-47.64806641 111.25451172 -46.46019531 111.25902344 -45.23632812 111.26367188 C-42.29034338 111.27550314 -39.34438434 111.29343924 -36.3984375 111.3125 C-36.0684375 106.3625 -35.7384375 101.4125 -35.3984375 96.3125 C-44.3084375 95.9825 -53.2184375 95.6525 -62.3984375 95.3125 C-62.46776178 90.91939451 -62.52735183 86.52822888 -62.56323242 82.13500977 C-62.57820792 80.64438402 -62.59859569 79.15380149 -62.62475586 77.66333008 C-62.93566401 59.47825158 -62.93566401 59.47825158 -57.8203125 52.0078125 C-50.12890784 44.7836427 -44.66711295 43.97814944 -34.21484375 44.20703125 C-32.82072266 44.25923828 -32.82072266 44.25923828 -31.3984375 44.3125 C-31.7284375 40.3525 -32.0584375 36.3925 -32.3984375 32.3125 C-42.73237721 28.86785343 -54.8596421 29.62050434 -64.7109375 34.125 C-71.0036012 37.57459275 -75.25671955 42.93239585 -78.3984375 49.3125 C-79.64521457 54.00296902 -79.60234881 58.6959556 -79.6796875 63.515625 C-79.69809692 64.39402039 -79.71650635 65.27241577 -79.73547363 66.1774292 C-79.81399342 69.9254569 -79.8821966 73.67365246 -79.95068359 77.421875 C-80.00224177 80.16155335 -80.05952062 82.90106955 -80.1171875 85.640625 C-80.13076294 86.49472961 -80.14433838 87.34883423 -80.1583252 88.2288208 C-80.28554252 94.19960502 -80.28554252 94.19960502 -81.3984375 95.3125 C-83.32511257 95.39998207 -85.25495611 95.41947334 -87.18359375 95.41015625 C-88.93833008 95.40532227 -88.93833008 95.40532227 -90.72851562 95.40039062 C-91.96021484 95.39201172 -93.19191406 95.38363281 -94.4609375 95.375 C-96.31428711 95.36823242 -96.31428711 95.36823242 -98.20507812 95.36132812 C-101.26955163 95.34949618 -104.33400043 95.33156008 -107.3984375 95.3125 C-107.3984375 100.5925 -107.3984375 105.8725 -107.3984375 111.3125 C-98.8184375 111.3125 -90.2384375 111.3125 -81.3984375 111.3125 C-79.78797374 114.53342752 -80.26022909 118.04801962 -80.26904297 121.5859375 C-80.26641449 122.86902802 -80.26641449 122.86902802 -80.26373291 124.17803955 C-80.25932021 127.01454681 -80.26225035 129.85099207 -80.265625 132.6875 C-80.26495179 134.65283215 -80.26398163 136.61816423 -80.26272583 138.58349609 C-80.26124965 142.70606274 -80.26340088 146.82860774 -80.26806641 150.95117188 C-80.27376364 156.24431073 -80.27048422 161.53739889 -80.26449394 166.83053589 C-80.2608862 170.88989649 -80.2620279 174.949245 -80.26462173 179.00860596 C-80.26529041 180.96071376 -80.26446464 182.91282266 -80.26214218 184.8649292 C-80.25961218 187.58967001 -80.26346121 190.31432789 -80.26904297 193.0390625 C-80.26701874 193.85159485 -80.26499451 194.6641272 -80.26290894 195.50128174 C-80.28417343 201.08397187 -80.28417343 201.08397187 -81.3984375 203.3125 C-115.22248117 197.32857258 -143.42631162 183.99640759 -164.7109375 155.9375 C-182.65342717 129.81868592 -188.86149419 98.6524178 -183.80957031 67.44433594 C-179.77813988 46.54026792 -168.97416824 22.34195885 -152.3984375 8.3125 C-151.7384375 8.3125 -151.0784375 8.3125 -150.3984375 8.3125 C-150.13595215 7.70962158 -149.8734668 7.10674316 -149.60302734 6.4855957 C-148.32252691 4.17555631 -147.22138411 3.11395419 -145.125 1.54296875 C-144.47176758 1.05014404 -143.81853516 0.55731934 -143.14550781 0.04956055 C-142.44522461 -0.46179443 -141.74494141 -0.97314941 -141.0234375 -1.5 C-140.29737305 -2.03262451 -139.57130859 -2.56524902 -138.82324219 -3.11401367 C-97.80042987 -32.84967152 -39.51821682 -32.95727735 0 0 Z " fill="#454545" transform="translate(231.3984375,72.6875)"/>
</svg>
