<?xml version="1.0" encoding="UTF-8"?>
<svg version="1.1" xmlns="http://www.w3.org/2000/svg" width="320" height="320">
<path d="M0 0 C1.66376418 1.33695336 3.32950205 2.67146993 5 4 C4.50186092 8.2406475 2.13341139 10.19702943 -0.83984375 13.09765625 C-1.56307579 13.81096352 -1.56307579 13.81096352 -2.30091858 14.53868103 C-3.83949621 16.05390046 -5.38787552 17.55858716 -6.9375 19.0625 C-8.48178688 20.57166212 -10.02389266 22.08296244 -11.56336975 23.59703064 C-12.96112983 24.97011142 -14.36506064 26.33690212 -15.76928711 27.70336914 C-18.12269403 29.98706977 -18.12269403 29.98706977 -20 33 C-20.66 33 -21.32 33 -22 33 C-22.23460937 33.56203125 -22.46921875 34.1240625 -22.7109375 34.703125 C-24.30663 37.54635891 -26.28924543 39.48098127 -28.625 41.75 C-29.44226563 42.54921875 -30.25953125 43.3484375 -31.1015625 44.171875 C-31.72804687 44.77515625 -32.35453125 45.3784375 -33 46 C-36.10473291 44.58685924 -38.50805516 42.86506849 -41.125 40.6875 C-54.06494841 30.47175125 -68.53903017 27.83341134 -84.75 29.6875 C-98.97492259 31.89862786 -111.30924387 38.6066966 -120.0625 50.125 C-130.57663417 65.04180221 -133.20868147 81.24544675 -130.6953125 99.17333984 C-129.11383045 106.89718524 -125.4075031 113.55485728 -121 120 C-120.54882812 120.70898438 -120.09765625 121.41796875 -119.6328125 122.1484375 C-112.56513826 132.57026223 -99.940622 138.81583413 -88 142 C-72.25056749 144.91656158 -57.83053181 143.37692957 -44 135 C-43.34 135 -42.68 135 -42 135 C-42 134.34 -42 133.68 -42 133 C-40.85079284 131.97616089 -39.65340952 131.00615653 -38.4375 130.0625 C-32.93550746 125.37857432 -32.93550746 125.37857432 -27 115 C-45.15 114.67 -63.3 114.34 -82 114 C-82.02094604 106.72241539 -82.04098406 99.44493937 -82.05175018 92.16735077 C-82.05703969 88.77862769 -82.0641128 85.38992944 -82.07543945 82.0012207 C-82.08834267 78.11670223 -82.09322924 74.23219403 -82.09765625 70.34765625 C-82.10281754 69.12788589 -82.10797882 67.90811554 -82.11329651 66.65138245 C-82.11337204 65.53029587 -82.11344757 64.40920929 -82.11352539 63.25415039 C-82.115746 62.26153702 -82.11796661 61.26892365 -82.12025452 60.24623108 C-82 58 -82 58 -81 57 C-79.57053529 56.90445601 -78.13637335 56.87811562 -76.70372009 56.87974548 C-75.77678848 56.87837082 -74.84985687 56.87699615 -73.89483643 56.87557983 C-72.35735748 56.88097275 -72.35735748 56.88097275 -70.78881836 56.88647461 C-69.17926018 56.88625557 -69.17926018 56.88625557 -67.53718567 56.8860321 C-63.97138484 56.88673176 -60.40563551 56.89452662 -56.83984375 56.90234375 C-54.37504607 56.90420774 -51.91024801 56.90563173 -49.44544983 56.90663147 C-42.94346095 56.91045813 -36.44149425 56.92028968 -29.93951416 56.93133545 C-23.31059183 56.94208252 -16.68166307 56.94612841 -10.05273438 56.95117188 C2.96485324 56.96191181 15.98242544 56.97879903 29 57 C34.7830449 68.04477117 34.59447061 81.74409374 34 94 C33.94634277 95.12897705 33.94634277 95.12897705 33.89160156 96.28076172 C32.57143315 119.99079362 25.1606444 144.04755707 9 162 C8.24074219 162.88816406 7.48148438 163.77632812 6.69921875 164.69140625 C1.29140524 170.87296601 -4.37150755 176.15692406 -11 181 C-11.71671875 181.53238281 -12.4334375 182.06476563 -13.171875 182.61328125 C-21.84220535 188.73630652 -31.44074035 192.72052005 -41.5625 195.75 C-42.22185547 195.94859619 -42.88121094 196.14719238 -43.56054688 196.35180664 C-73.64900616 204.90299365 -106.14611545 200.05820141 -133.375 185.1875 C-140.57620762 181.1218198 -146.83634551 176.52671086 -153 171 C-153.54366211 170.55696533 -154.08732422 170.11393066 -154.64746094 169.6574707 C-159.023997 166.06519363 -162.51257608 162.23529587 -165.875 157.6875 C-166.38748291 156.99672363 -166.89996582 156.30594727 -167.42797852 155.59423828 C-178.94518793 139.66774691 -185.69279892 122.30690359 -189 103 C-189.185625 102.08863281 -189.37125 101.17726562 -189.5625 100.23828125 C-193.50526832 71.05475505 -185.50725284 41.05232616 -168.26586914 17.29980469 C-158.80435199 4.91906549 -147.63334534 -5.4641371 -134 -13 C-132.9171875 -13.62132812 -131.834375 -14.24265625 -130.71875 -14.8828125 C-88.13532916 -37.86592048 -36.44303324 -30.78997236 0 0 Z " fill="#454545" transform="translate(238,74)"/>
</svg>
