<?xml version="1.0" encoding="UTF-8"?>
<svg version="1.1" xmlns="http://www.w3.org/2000/svg" width="320" height="320">
<path d="M0 0 C0.95011963 -0.0038269 1.90023926 -0.00765381 2.87915039 -0.01159668 C4.87940537 -0.0143075 6.8796963 -0.00700472 8.87988281 0.00976562 C11.92854405 0.03118707 14.97484891 0.00993556 18.0234375 -0.015625 C19.9739635 -0.01298158 21.92448803 -0.0078563 23.875 0 C24.77935791 -0.00809692 25.68371582 -0.01619385 26.61547852 -0.02453613 C32.55940656 0.06283352 36.07181854 1.05980974 40.9375 4.53125 C45.33310067 10.08358769 46.08439293 13.93250923 45.9206543 20.86938477 C45.89541183 22.15494766 45.87016937 23.44051056 45.84416199 24.76502991 C45.8297576 25.45006151 45.8153532 26.13509312 45.80051231 26.84088326 C45.72005674 31.26205542 45.70820834 35.68405708 45.68541241 40.10583591 C45.66159661 43.97977359 45.61283975 47.85022007 45.5090332 51.72290039 C44.13301632 69.25546306 44.13301632 69.25546306 49.84643555 84.83422852 C53.19965075 87.81046944 56.90174026 89.62429676 60.9375 91.53125 C62.51844588 92.71456358 64.06699209 93.94416171 65.55859375 95.23828125 C66.20376953 95.76228516 66.84894531 96.28628906 67.51367188 96.82617188 C68.12791016 97.32697266 68.74214844 97.82777344 69.375 98.34375 C70.01630859 98.86388672 70.65761719 99.38402344 71.31835938 99.91992188 C73.19804029 101.44918609 75.07001289 102.98712444 76.9375 104.53125 C77.90647217 105.33054932 77.90647217 105.33054932 78.89501953 106.14599609 C79.51876465 106.66887207 80.14250977 107.19174805 80.78515625 107.73046875 C81.34340088 108.19670654 81.90164551 108.66294434 82.47680664 109.14331055 C85.11490903 111.65001489 85.91448648 113.28270393 86.25 116.90625 C85.91882511 120.74787869 85.26782399 122.51045964 82.9375 125.53125 C78.3891906 128.56345627 76.46759496 128.22251187 70.9375 127.53125 C65.4925 123.57125 65.4925 123.57125 59.9375 119.53125 C59.6075 163.75125 59.2775 207.97125 58.9375 253.53125 C65.5375 253.53125 72.1375 253.53125 78.9375 253.53125 C85.75628698 259.21357249 85.75628698 259.21357249 86.0625 262.46875 C86.301029 266.81984794 84.81872399 269.26067142 81.9375 272.53125 C78.95283614 274.38400734 76.70134922 274.78253844 73.21414375 274.78851891 C71.78652236 274.79819224 71.78652236 274.79819224 70.33006012 274.808061 C68.76616935 274.8034152 68.76616935 274.8034152 67.17068481 274.79867554 C66.06077427 274.80320665 64.95086372 274.80773776 63.80731952 274.81240618 C60.07479222 274.82510289 56.34240984 274.8234264 52.60986328 274.82177734 C49.93923394 274.82775928 47.2686161 274.8345071 44.59799194 274.84213257 C38.08868997 274.85874926 31.57942423 274.86424241 25.07010283 274.86535732 C19.7794354 274.86630745 14.48877994 274.87041599 9.1981163 274.87675858 C-5.79967092 274.89437258 -20.79742951 274.90359716 -35.79522716 274.90209763 C-36.603852 274.90201772 -37.41247684 274.9019378 -38.24560547 274.90185547 C-39.46002249 274.90173283 -39.46002249 274.90173283 -40.69897319 274.90160771 C-53.82176352 274.90079469 -66.9444391 274.91993575 -80.06719624 274.9481322 C-93.53936787 274.97685119 -107.01148353 274.99067305 -120.48368657 274.98894465 C-128.04820356 274.98828042 -135.61260025 274.99378711 -143.17708969 275.01530075 C-149.6173558 275.0334996 -156.05744707 275.03787065 -162.49772774 275.0242819 C-165.78362258 275.0177456 -169.06911171 275.01982631 -172.3549881 275.0349884 C-175.91753317 275.05036451 -179.4791923 275.04118217 -183.04171753 275.02572632 C-184.07984994 275.03601344 -185.11798235 275.04630057 -186.18757331 275.05689943 C-192.13293293 274.99975721 -195.51723618 274.46586853 -200.0625 270.53125 C-202.57071271 267.47777365 -202.18234892 264.47762517 -201.9375 260.62890625 C-201.0625 258.53125 -201.0625 258.53125 -195.0625 253.53125 C-188.4625 253.53125 -181.8625 253.53125 -175.0625 253.53125 C-175.3925 209.31125 -175.7225 165.09125 -176.0625 119.53125 C-179.6925 122.17125 -183.3225 124.81125 -187.0625 127.53125 C-192.93640701 128.42348904 -192.93640701 128.42348904 -196.0625 127.53125 C-199.67352994 124.84612517 -201.8353805 121.81826049 -202.625 117.34375 C-201.18779861 107.60271835 -190.28350428 101.5488446 -182.91650391 95.94580078 C-179.98561509 93.7096183 -177.08586696 91.43433583 -174.1875 89.15625 C-173.61572021 88.70789795 -173.04394043 88.2595459 -172.45483398 87.79760742 C-167.26650574 83.71792709 -162.15086761 79.55115844 -157.03710938 75.37866211 C-150.94524353 70.41609584 -144.76976704 65.56515854 -138.58203125 60.72314453 C-132.79292957 56.18227139 -127.07978875 51.54789048 -121.37646484 46.90014648 C-114.33409963 41.16312623 -107.26293458 35.46872112 -100.09375 29.890625 C-98.35548743 28.53764744 -96.62266198 27.17746725 -94.90625 25.796875 C-80.35442844 14.32806648 -67.30613143 10.29269951 -49.0625 11.53125 C-40.27908417 12.72683625 -29.3486234 18.2451266 -23.0625 24.53125 C-22.91554687 23.11972656 -22.91554687 23.11972656 -22.765625 21.6796875 C-21.21900731 8.80009534 -21.21900731 8.80009534 -17.0625 4.53125 C-11.29738088 0.48745207 -6.94974864 -0.06222269 0 0 Z M-1.0625 20.53125 C-2.41541489 33.22212844 -2.41541489 33.22212844 0.484375 45.421875 C2.84167758 47.46945899 5.24055079 48.95741389 7.9375 50.53125 C9.66230114 51.82819349 11.34108088 53.17452086 13.0246582 54.52441406 C16.85352505 57.59097503 20.52132919 60.3231646 24.9375 62.53125 C24.9375 48.67125 24.9375 34.81125 24.9375 20.53125 C16.3575 20.53125 7.7775 20.53125 -1.0625 20.53125 Z M-87.16796875 46.95166016 C-89.83496713 49.17530442 -92.53707676 51.3546519 -95.23681641 53.53833008 C-97.28391526 55.19560853 -99.32617908 56.85866677 -101.3671875 58.5234375 C-106.65611739 62.83363303 -111.99151201 67.08504922 -117.328125 71.3359375 C-122.59592617 75.5397126 -127.83440116 79.77829336 -133.0625 84.03125 C-150.12410192 97.90565128 -150.12410192 97.90565128 -154.0625 100.53125 C-154.51164482 103.28666488 -154.51164482 103.28666488 -154.42326355 106.58023071 C-154.42738754 107.87034561 -154.43151154 109.16046051 -154.4357605 110.4896698 C-154.42514231 111.92752282 -154.41423787 113.36537375 -154.40307617 114.80322266 C-154.40223034 116.31088748 -154.40270418 117.81855355 -154.40440369 119.32621765 C-154.4052668 123.42731561 -154.38759018 127.52815201 -154.36668181 131.62918901 C-154.34796747 135.91198951 -154.34616872 140.19479555 -154.34260559 144.47763062 C-154.33326967 152.59142015 -154.30863503 160.70508887 -154.27855712 168.81882513 C-154.24506116 178.05447078 -154.22853921 187.2901221 -154.21347082 196.52581334 C-154.18208674 215.52770804 -154.12705545 234.52943705 -154.0625 253.53125 C-138.8825 253.53125 -123.7025 253.53125 -108.0625 253.53125 C-108.02382812 244.96929687 -108.02382812 244.96929687 -107.984375 236.234375 C-107.95918015 232.59761264 -107.93282698 228.96093128 -107.90234375 225.32421875 C-107.85416979 219.56396276 -107.81006495 213.8038945 -107.79150391 208.04345703 C-107.77625333 203.39423929 -107.7416607 198.74551588 -107.69419098 194.09651947 C-107.67946324 192.33135041 -107.67146398 190.56611073 -107.67061615 188.80088043 C-107.64685888 164.11766766 -107.64685888 164.11766766 -98.83984375 154.9296875 C-83.20721984 142.62973286 -53.2016618 146.25744613 -34.75 148.0625 C-27.16726342 149.38507033 -20.35788488 151.84839793 -15.0625 157.53125 C-10.49902289 164.71758937 -8.768632 172.29407058 -8.74365234 180.76147461 C-8.72858391 181.94806671 -8.72858391 181.94806671 -8.71321106 183.15863037 C-8.68253909 185.75027804 -8.6653888 188.34182317 -8.6484375 190.93359375 C-8.62971296 192.73963798 -8.6101386 194.54567359 -8.5897522 196.35169983 C-8.53856081 201.08788959 -8.49886576 205.82410767 -8.46160889 210.5604248 C-8.41442415 216.25245706 -8.35288225 221.94435022 -8.29376221 227.63626862 C-8.20570844 236.26787252 -8.13583072 244.89945191 -8.0625 253.53125 C7.1175 253.53125 22.2975 253.53125 37.9375 253.53125 C38.05031842 233.65160338 38.14244396 213.77221547 38.19656086 193.89233017 C38.22235488 184.66199035 38.25752816 175.43186337 38.31469727 166.20166016 C38.36449572 158.15765406 38.3967823 150.11380208 38.40794247 142.06964612 C38.41446733 137.8092855 38.42982695 133.54936586 38.46615028 129.28914642 C38.50005389 125.28030034 38.5105646 121.27207741 38.50303841 117.26310158 C38.50441551 115.79086993 38.51438222 114.31861774 38.53352737 112.84650993 C38.55836936 110.83807274 38.54945081 108.82930219 38.53877258 106.82073975 C38.54338155 105.69615231 38.54799051 104.57156487 38.55273914 103.41289902 C38.16791096 100.32322303 38.16791096 100.32322303 35.52492046 98.13815689 C33.16196507 96.35538956 33.16196507 96.35538956 30.9375 96.53125 C30.9375 95.87125 30.9375 95.21125 30.9375 94.53125 C29.03333238 92.92981173 27.12501801 91.44205104 25.125 89.96875 C23.91820334 89.06131375 22.71249013 88.15243501 21.5078125 87.2421875 C20.90227539 86.78553711 20.29673828 86.32888672 19.67285156 85.85839844 C17.23433672 83.99349035 14.86570586 82.04987096 12.5 80.09375 C8.48457632 76.77943204 4.41841938 73.54417267 0.3125 70.34375 C-5.07513445 66.14040822 -10.36478007 61.83026554 -15.625 57.46875 C-21.76191128 52.38235716 -27.97941691 47.43628457 -34.328125 42.6171875 C-36.11708974 41.25246297 -37.87585574 39.84697846 -39.59765625 38.3984375 C-45.50107619 33.92643317 -53.09280636 31.70600262 -60.48046875 32.1015625 C-71.24572876 33.89305811 -79.05432159 40.16495048 -87.16796875 46.95166016 Z M-86.0625 171.53125 C-87.3638184 175.4352052 -87.43618539 179.24665868 -87.62109375 183.32421875 C-87.66334579 184.23898483 -87.70559784 185.15375092 -87.74913025 186.09623718 C-88.29262125 199.33916235 -88.16752571 212.59266194 -88.125 225.84375 C-88.104375 234.980625 -88.08375 244.1175 -88.0625 253.53125 C-68.2625 253.53125 -48.4625 253.53125 -28.0625 253.53125 C-28.041875 244.559375 -28.02125 235.5875 -28 226.34375 C-27.98634399 222.16682495 -27.98634399 222.16682495 -27.97241211 217.90551758 C-27.95022683 206.75861133 -27.97775167 195.61925196 -28.44140625 184.48046875 C-28.47201645 183.63555374 -28.50262665 182.79063873 -28.53416443 181.92012024 C-28.73892375 177.7800547 -29.00524546 174.23081018 -31.0625 170.53125 C-38.35038018 165.67266322 -49.6212268 167.37919464 -58.0625 167.40625 C-59.2690625 167.40238281 -60.475625 167.39851562 -61.71875 167.39453125 C-74.74245526 166.6017184 -74.74245526 166.6017184 -86.0625 171.53125 Z " fill="#013893" transform="translate(218.0625,29.46875)"/>
<path d="M0 0 C7.96868214 6.44479074 13.87366814 14.07927482 15.875 24.3125 C16.75933445 36.86324669 14.84208336 45.79792199 7.12109375 55.828125 C0.90149454 62.70754256 -7.87414868 67.36853558 -17.125 68.3125 C-28.64021579 68.87882209 -36.95840844 65.66538816 -46.3125 59.0625 C-54.44487594 51.11084352 -58.14761021 42.18409279 -58.5625 30.875 C-58.27677631 19.33720524 -53.37438269 9.95917191 -45.19140625 1.98828125 C-32.69990993 -8.14187361 -13.2118411 -9.21814769 0 0 Z M-34.44140625 20.8203125 C-37.48591153 25.3817664 -38.05470367 29.95247372 -37.125 35.3125 C-35.28038437 40.58727165 -32.12015533 43.86204644 -27.125 46.3125 C-22.29446522 47.69265279 -18.42210101 47.7991608 -13.8125 45.6875 C-9.39595268 43.14490602 -6.74860417 40.18331252 -5.125 35.3125 C-4.48739528 29.91899122 -4.74419781 25.41156774 -7.80859375 20.8203125 C-10.89503777 17.28509769 -14.02394075 15.64015715 -18.5546875 14.93359375 C-25.07469845 14.62641998 -29.97868966 15.70871427 -34.44140625 20.8203125 Z " fill="#013893" transform="translate(181.125,95.6875)"/>
</svg>
