<?xml version="1.0" encoding="UTF-8"?>
<svg version="1.1" xmlns="http://www.w3.org/2000/svg" width="320" height="320">
<path d="M0 0 C5.72057254 6.02552953 8.97168408 12.66052195 10.4375 20.80078125 C16.66132419 16.43128186 22.86431343 12.04861756 28.87109375 7.3828125 C29.61045166 6.80877686 30.34980957 6.23474121 31.11157227 5.64331055 C32.54520844 4.52454954 33.97433861 3.39998251 35.39819336 2.26879883 C45.0344196 -5.25049176 55.00840489 -9.50754455 67.4375 -8.19921875 C77.2837518 -6.01116279 85.77156031 -1.78791719 91.40625 6.81640625 C94.7987776 13.34445178 96.76384376 20.68354009 94.88671875 27.92578125 C87.52323921 49.14376968 69.37166426 67.72486531 50.4375 78.80078125 C49.83631348 79.1555957 49.23512695 79.51041016 48.61572266 79.87597656 C11.57530623 101.46046458 -33.91444948 102.70818568 -75.1171875 94.74609375 C-92.73503767 91.4758659 -110.14004554 91.26505886 -128.01928711 91.21630859 C-129.59729599 91.20469948 -129.59729599 91.20469948 -131.20718384 91.19285583 C-133.20117603 91.17919454 -135.19530457 91.17795651 -137.18930054 91.1910553 C-143.28404551 91.14315644 -146.80254911 90.3703907 -151.375 86.11328125 C-153.1189679 82.71713324 -153.24331506 79.49035965 -152.5625 75.80078125 C-150.76886089 72.99074665 -149.54369065 71.29137657 -146.5625 69.80078125 C-144.97474837 69.69032986 -143.38250399 69.64165492 -141.79101562 69.6237793 C-140.79396606 69.61094406 -139.7969165 69.59810883 -138.76965332 69.58488464 C-137.68035522 69.57749771 -136.59105713 69.57011078 -135.46875 69.5625 C-134.33465698 69.55442825 -133.20056396 69.54635651 -132.03210449 69.53804016 C-129.61093684 69.52416738 -127.18974937 69.51345962 -124.76855469 69.50561523 C-122.34076025 69.49425994 -119.91298733 69.47408102 -117.48535156 69.4440918 C-101.16236819 69.24258738 -85.66003108 70.37565456 -69.59130859 73.26821899 C-29.68585311 80.28488536 12.49901266 78.23961297 46.9921875 55.0859375 C55.54680254 48.79577938 62.01253795 40.73116372 68 32.05078125 C68.44206787 31.42494141 68.88413574 30.79910156 69.33959961 30.15429688 C71.94868747 26.24559769 73.14714795 23.50219892 72.4375 18.80078125 C69.84308546 15.89189222 67.86931706 14.92299362 64.125 13.86328125 C55.65048287 13.71964537 50.9929 17.74728278 44.8203125 23 C22.75609271 41.5635811 2.4674231 53.19173622 -26.9375 53.11328125 C-28.16855469 53.12939453 -29.39960938 53.14550781 -30.66796875 53.16210938 C-32.45267578 53.16307617 -32.45267578 53.16307617 -34.2734375 53.1640625 C-35.33868652 53.16704346 -36.40393555 53.17002441 -37.50146484 53.1730957 C-42.12026502 52.61130991 -45.493196 51.11958951 -48.4375 47.48828125 C-49.78137328 44.27791731 -49.994066 42.25330929 -49.5625 38.80078125 C-47.89487678 35.30671356 -46.82243978 33.97407444 -43.5625 31.80078125 C-40.80688477 31.54541016 -40.80688477 31.54541016 -37.50390625 31.52734375 C-36.31345703 31.50671875 -35.12300781 31.48609375 -33.89648438 31.46484375 C-31.38613617 31.43884325 -28.87569555 31.42058934 -26.36523438 31.41015625 C-25.17349609 31.38695312 -23.98175781 31.36375 -22.75390625 31.33984375 C-21.66279541 31.33162598 -20.57168457 31.3234082 -19.44750977 31.31494141 C-15.89588373 30.68197835 -14.71617177 29.65086325 -12.5625 26.80078125 C-11.87731872 22.61356231 -11.95175618 20.6558226 -14.4375 17.17578125 C-26.00493311 8.38453209 -39.44206045 6.23236991 -53.6875 6.36328125 C-54.86111084 6.37085449 -56.03472168 6.37842773 -57.24389648 6.38623047 C-67.4213494 6.57680124 -76.80320042 7.97246991 -86.5625 10.80078125 C-87.30226074 11.00977051 -88.04202148 11.21875977 -88.80419922 11.43408203 C-104.23295124 15.89528713 -118.94610996 22.48182859 -132.34375 31.3515625 C-136.75035171 34.22981819 -139.81021196 36.03837963 -145.25 35.30078125 C-149.06213533 33.57453129 -150.56493339 32.47630381 -152.5625 28.80078125 C-153.29359711 23.68310151 -153.48223837 22.1003375 -150.453125 17.8203125 C-147.65400064 14.66081143 -144.39886081 12.50000202 -140.75 10.42578125 C-140.09547852 10.04566895 -139.44095703 9.66555664 -138.76660156 9.27392578 C-100.72989515 -12.53245826 -38.12669667 -32.72153998 0 0 Z " fill="#013893" transform="translate(195.5625,205.19921875)"/>
<path d="M0 0 C2.67343068 1.29597366 4.73115594 2.07585236 7.69140625 2.3046875 C9.57290136 1.49622333 9.57290136 1.49622333 11.25390625 0.1171875 C21.32189438 -6.75431011 33.75825671 -8.6284112 45.69140625 -7.6953125 C58.51889089 -5.13274422 67.93672015 0.79014587 75.69140625 11.3046875 C82.97270229 23.22457569 84.65542334 36.77281063 82.109375 50.42578125 C74.56384887 73.61363095 52.69979729 91.63453135 33.43847656 105.08398438 C31.85434931 106.19083684 30.28376378 107.31700781 28.71484375 108.4453125 C19.59741295 114.69876648 10.52479643 117.25775241 -0.51953125 115.859375 C-18.66125276 112.25135756 -35.30887529 95.36628194 -48.30859375 83.3046875 C-49.24832031 82.44617188 -49.24832031 82.44617188 -50.20703125 81.5703125 C-60.19628366 72.0782627 -70.67488977 57.59978 -71.546875 43.43359375 C-71.92960282 27.82241791 -69.06395908 15.86824039 -58.27734375 4.0859375 C-41.89754316 -11.81908626 -18.85255847 -10.31119524 0 0 Z M-44.80078125 20.453125 C-49.57272617 26.31297446 -51.01674938 33.22921995 -50.68359375 40.65234375 C-48.18385026 58.33282118 -30.39955402 72.50633654 -16.9296875 82.64453125 C-15.72438223 83.53359468 -14.51734112 84.42030955 -13.30859375 85.3046875 C-12.40391357 85.97588623 -12.40391357 85.97588623 -11.48095703 86.66064453 C-2.50588951 93.4499037 -2.50588951 93.4499037 8.27734375 95.046875 C13.39816833 93.47251146 17.4398411 90.48481264 21.69140625 87.3046875 C22.73554688 86.54414062 23.7796875 85.78359375 24.85546875 85 C48.24744662 67.84279805 48.24744662 67.84279805 61.69140625 43.3046875 C62.47929919 35.65606522 61.7317216 28.95932455 57.69140625 22.3046875 C53.51700222 17.41493006 49.17321491 14.16892866 42.69140625 13.3046875 C30.71298876 12.8862275 21.38707981 17.73284862 12.21484375 25.10546875 C9.03931064 27.60518328 6.68135449 27.68833637 2.69140625 27.3046875 C-0.12109375 25.6796875 -0.12109375 25.6796875 -3.30859375 23.3046875 C-16.24685127 14.22895008 -31.68033454 8.06498229 -44.80078125 20.453125 Z " fill="#013894" transform="translate(154.30859375,23.6953125)"/>
</svg>
