<?xml version="1.0" encoding="UTF-8"?>
<svg version="1.1" xmlns="http://www.w3.org/2000/svg" width="320" height="320">
<path d="M0 0 C1.85682404 -0.00503792 1.85682404 -0.00503792 3.75115967 -0.01017761 C7.10282536 -0.01797176 10.45442904 -0.02135057 13.80609941 -0.0219934 C15.91327069 -0.02271096 18.02043573 -0.02485843 20.12760544 -0.02749062 C27.5163895 -0.03670488 34.90515569 -0.04083055 42.29394531 -0.04003906 C49.12054407 -0.0394397 55.94706346 -0.04997389 62.77364218 -0.06578273 C68.68501987 -0.07897156 74.59637198 -0.08421825 80.50776422 -0.08358365 C84.01596343 -0.08333192 87.52409195 -0.08599897 91.03227615 -0.0967617 C123.90974448 -0.19048536 152.11941331 0.39199218 177.19677734 24.44995117 C196.20133235 44.26666665 198.95011958 69.13138452 198.93969727 95.45849609 C198.94473518 97.33235992 198.94473518 97.33235992 198.94987488 99.24407959 C198.95766961 102.62666871 198.96104785 106.00919639 198.96169066 109.39179015 C198.96240807 111.5177147 198.96455525 113.64363306 198.96718788 115.76955605 C198.97640174 123.22202581 198.98052778 130.67447785 198.97973633 138.12695312 C198.97913668 145.01605555 198.98967666 151.9050794 199.00547999 158.79416198 C199.01865987 164.75732824 199.02391589 170.72046916 199.02328092 176.68364984 C199.02302897 180.22367496 199.02570879 183.76363008 199.03645897 187.30364037 C199.12826114 219.83441819 198.27087386 247.75880475 174.48974609 272.54760742 C155.00851643 291.23042604 130.53189264 294.30077089 104.6105957 294.29052734 C103.36310547 294.29388596 102.11561523 294.29724457 100.83032227 294.30070496 C97.44760679 294.30850831 94.06495276 294.31187851 90.68223262 294.31252074 C88.55613815 294.3132377 86.43004989 294.31538408 84.30395699 294.31801796 C76.850339 294.32723726 69.39673874 294.33135735 61.94311523 294.33056641 C55.05462155 294.32996728 48.16620659 294.34049548 41.27773279 294.35631007 C35.3154203 294.36949818 29.35313317 294.3747456 23.39080626 294.374111 C19.85129327 294.37385919 16.31185034 294.37653022 12.77235222 294.38728905 C-20.1801078 294.48035778 -48.46912063 293.95746368 -73.60791016 269.84057617 C-92.58139287 250.05626086 -95.36133775 225.22919302 -95.35083008 198.93969727 C-95.35418869 197.70181458 -95.3575473 196.46393188 -95.36100769 195.1885376 C-95.36880184 191.8368719 -95.37218065 188.48526822 -95.37282348 185.13359785 C-95.37354104 183.02642657 -95.37568851 180.91926154 -95.37832069 178.81209183 C-95.38753496 171.42330776 -95.39166063 164.03454157 -95.39086914 156.64575195 C-95.39026978 149.81915319 -95.40080396 142.9926338 -95.4166128 136.16605508 C-95.42980164 130.2546774 -95.43504832 124.34332528 -95.43441373 118.43193305 C-95.434162 114.92373384 -95.43682905 111.41560531 -95.44759178 107.90742111 C-95.54131544 75.02995279 -94.9588379 46.82028395 -70.90087891 21.74291992 C-51.11656359 2.76943721 -26.28949575 -0.01050767 0 0 Z M-50.20556641 41.14526367 C-50.83333984 41.69182617 -51.46111328 42.23838867 -52.10791016 42.80151367 C-63.08383088 52.98486244 -66.15464817 65.69445374 -67.20556641 80.14526367 C-67.34601462 84.58084771 -67.35249982 89.01336521 -67.35083008 93.45092773 C-67.35418869 94.74663193 -67.3575473 96.04233612 -67.36100769 97.37730408 C-67.36977476 100.90440374 -67.37218271 104.43147909 -67.37282348 107.9585886 C-67.37353817 110.17021748 -67.37568037 112.38184034 -67.37832069 114.59346771 C-67.3875502 122.33192838 -67.39165862 130.07037191 -67.39086914 137.80883789 C-67.39026909 144.98538183 -67.40081275 152.16185043 -67.4166128 159.33837533 C-67.42975283 165.53068014 -67.43505034 171.72296053 -67.43441373 177.91527915 C-67.43416063 181.59996178 -67.43690698 185.28457736 -67.44759178 188.96924591 C-67.4592081 193.08688891 -67.45448668 197.20436642 -67.44848633 201.32202148 C-67.45410583 202.51832687 -67.45972534 203.71463226 -67.46551514 204.94718933 C-67.40465629 221.49794564 -65.53283208 236.49808357 -54.20556641 249.14526367 C-53.65900391 249.77303711 -53.11244141 250.40081055 -52.54931641 251.04760742 C-42.36492053 262.02465675 -29.65708263 265.09192962 -15.20556641 266.14526367 C-10.80585822 266.28544816 -6.40926439 266.29219875 -2.00756836 266.29052734 C-0.72322403 266.29388596 0.5611203 266.29724457 1.88438416 266.30070496 C5.38056026 266.30947168 8.87671183 266.31187999 12.37289786 266.31252074 C14.56577348 266.31323556 16.75864301 266.31537801 18.95151711 266.31801796 C26.62629206 266.32724799 34.30104975 266.3313559 41.97583008 266.33056641 C49.08987033 266.32996663 56.20383451 266.34050476 63.31785554 266.35631007 C69.45837177 266.36945833 75.59886336 266.37474725 81.73939353 266.374111 C85.39225022 266.37385809 89.04503924 266.3765929 92.6978817 266.38728905 C96.78179354 266.39892277 100.86553883 266.394179 104.94946289 266.38818359 C106.13282227 266.3938031 107.31618164 266.39942261 108.53540039 266.4052124 C125.2794403 266.34326052 140.89394049 264.69940551 153.79443359 253.14526367 C154.73609375 252.32541992 154.73609375 252.32541992 155.69677734 251.48901367 C166.67382668 241.30461779 169.74109954 228.5967799 170.79443359 214.14526367 C170.93461808 209.74555549 170.94136867 205.34896166 170.93969727 200.94726562 C170.94305588 199.6629213 170.94641449 198.37857697 170.94987488 197.05531311 C170.9586416 193.55913701 170.96104991 190.06298544 170.96169066 186.5667994 C170.96240548 184.37392379 170.96454793 182.18105425 170.96718788 179.98818016 C170.97641791 172.3134052 170.98052582 164.63864751 170.97973633 156.96386719 C170.97913656 149.84982694 170.98967469 142.73586276 171.00547999 135.62184173 C171.01862825 129.4813255 171.02391717 123.3408339 171.02328092 117.20030373 C171.02302801 113.54744704 171.02576282 109.89465803 171.03645897 106.24181557 C171.04809269 102.15790373 171.04334893 98.07415844 171.03735352 93.99023438 C171.04297302 92.806875 171.04859253 91.62351563 171.05438232 90.40429688 C170.99243044 73.66025697 169.34857543 58.04575678 157.79443359 45.14526367 C156.97458984 44.20360352 156.97458984 44.20360352 156.13818359 43.24291992 C146.25358298 32.58899897 133.91688375 29.25886479 119.79443359 28.14526367 C115.4020994 28.00169179 111.01257673 27.99834927 106.61816406 28 C105.32421219 27.99664139 104.03026031 27.99328278 102.69709778 27.98982239 C99.16987176 27.98104374 95.64267006 27.97864681 92.11543417 27.9780066 C89.90363537 27.97729234 87.69184261 27.9751509 85.48004532 27.97250938 C77.74043643 27.96327462 70.00084468 27.95917195 62.26123047 27.95996094 C55.08529528 27.96056048 47.90943556 27.95002813 40.73351943 27.93421727 C34.5420684 27.92106937 28.3506418 27.9157801 22.15917695 27.91641635 C18.47500646 27.91666931 14.79090306 27.9139313 11.10674667 27.9032383 C6.98680355 27.89160568 2.86702555 27.89634812 -1.25292969 27.90234375 C-2.44721085 27.89672424 -3.641492 27.89110474 -4.8719635 27.88531494 C-21.64200006 27.94682804 -37.28234413 29.57076478 -50.20556641 41.14526367 Z " fill="#454545" transform="translate(108.20556640625,12.854736328125)"/>
<path d="M0 0 C1.54045755 1.33180026 3.06205555 2.68577641 4.5625 4.0625 C5.31789062 4.72636719 6.07328125 5.39023438 6.8515625 6.07421875 C21.19548133 19.40765533 30.07046574 38.94198916 30.8984375 58.5078125 C31.26224371 81.17254367 26.22321893 100.99441245 10.5625 118.0625 C9.89863281 118.81789062 9.23476562 119.57328125 8.55078125 120.3515625 C-0.41954718 130.00171249 -12.00028256 136.8618504 -24.4375 141.0625 C-25.35917969 141.38089844 -26.28085938 141.69929687 -27.23046875 142.02734375 C-48.28709676 148.06339167 -70.88206569 144.39115158 -89.85546875 134.15625 C-94.42420473 131.56678012 -98.46004828 128.4779205 -102.4375 125.0625 C-103.17484375 124.54300781 -103.9121875 124.02351562 -104.671875 123.48828125 C-105.25453125 123.01777344 -105.8371875 122.54726562 -106.4375 122.0625 C-106.4375 121.4025 -106.4375 120.7425 -106.4375 120.0625 C-107.4275 119.7325 -108.4175 119.4025 -109.4375 119.0625 C-111.15862384 117.0125556 -112.7156955 114.99557797 -114.25 112.8125 C-114.69359863 112.18206787 -115.13719727 111.55163574 -115.59423828 110.90209961 C-128.21772562 92.49610705 -132.98035008 70.25666469 -129.16015625 48.296875 C-126.22080235 35.14128025 -120.90338312 23.42630391 -112.171875 13.12109375 C-110.29917352 10.97622354 -110.29917352 10.97622354 -108.4375 8.0625 C-107.7775 8.0625 -107.1175 8.0625 -106.4375 8.0625 C-106.1075 7.0725 -105.7775 6.0825 -105.4375 5.0625 C-76.56193652 -21.41111787 -31.12853216 -24.10416478 0 0 Z M-89.4375 29.0625 C-99.45392817 40.80050176 -103.43853481 54.82452573 -102.4375 70.0625 C-100.11151678 85.31937298 -92.53251437 97.73521384 -80.5625 107.375 C-69.46986054 115.14424946 -56.87417979 118.33071709 -43.4375 117.0625 C-28.22300086 114.36237103 -15.86832468 107.94992175 -6.53515625 95.53125 C2.29370905 82.53993869 5.32149615 68.54053835 2.4375 53.1875 C-1.0063887 38.48719729 -9.00198193 26.96165618 -21.6171875 18.59765625 C-44.88051679 5.93492992 -71.2172721 9.57697849 -89.4375 29.0625 Z " fill="#454545" transform="translate(209.4375,95.9375)"/>
<path d="M0 0 C3.27593689 2.5452745 5.32676302 4.93301158 6.15625 8.98828125 C6.29617873 13.70213031 5.8558839 17.62940702 2.90625 21.42578125 C-0.4146601 24.52026566 -2.37273805 25.91493025 -6.94921875 26.05078125 C-12.83256183 25.73542618 -15.83183236 24.29375384 -19.84375 19.98828125 C-22.28732377 16.16355708 -22.0671983 12.56923986 -21.44921875 8.20703125 C-20.21983073 3.70191903 -17.51674716 1.05714055 -13.59375 -1.44921875 C-8.91871806 -2.40547528 -4.26301752 -2.33924055 0 0 Z " fill="#464646" transform="translate(247.84375,68.01171875)"/>
</svg>
