<?xml version="1.0" encoding="UTF-8"?>
<svg version="1.1" xmlns="http://www.w3.org/2000/svg" width="320" height="320">
<path d="M0 0 C4.4102287 1.55174714 5.23075318 3.07047683 7.375 7.1875 C7.88665462 10.1691895 7.84348504 13.06796859 7.765625 16.0859375 C7.75996521 16.92089752 7.75430542 17.75585754 7.74847412 18.61611938 C7.72620223 21.26551266 7.67602523 23.91352016 7.625 26.5625 C7.60492302 28.36586579 7.58667435 30.16925292 7.5703125 31.97265625 C7.52636786 36.37813269 7.45740601 40.78258194 7.375 45.1875 C8.11024902 45.1560791 8.84549805 45.1246582 9.60302734 45.09228516 C12.98502931 44.96635672 16.3665365 44.88914804 19.75 44.8125 C20.90628906 44.76222656 22.06257812 44.71195313 23.25390625 44.66015625 C31.45480127 44.52115803 36.97062896 45.93269137 43.375 51.1875 C48.18144637 56.23681603 49.4880353 61.16183133 49.52026367 67.97436523 C49.52664352 68.89559677 49.53302338 69.81682831 49.53959656 70.76597595 C49.54126579 72.24113426 49.54126579 72.24113426 49.54296875 73.74609375 C49.54629715 74.76800308 49.54962555 75.78991241 49.55305481 76.8427887 C49.55810919 79.00041251 49.5604636 81.1580441 49.56030273 83.31567383 C49.56248982 86.60966906 49.58066315 89.90332957 49.59960938 93.19726562 C49.60254351 95.29687386 49.60452817 97.39648368 49.60546875 99.49609375 C49.61265427 100.47750839 49.61983978 101.45892303 49.62724304 102.47007751 C49.60108287 110.32998934 48.24806968 115.82543681 43.375 122.1875 C38.18581141 127.25410933 34.40823943 128.31170641 27.22111511 128.32794189 C26.12106116 128.33239858 26.12106116 128.33239858 24.99878389 128.3369453 C22.53457817 128.34563605 20.07042101 128.34714086 17.60620117 128.34863281 C15.84211625 128.35326072 14.07803233 128.35828534 12.31394958 128.36367798 C7.51635709 128.37680655 2.7187786 128.38324782 -2.07882905 128.38768864 C-5.07547523 128.39061859 -8.07211757 128.39472325 -11.06876183 128.39919281 C-20.44254375 128.41286887 -29.81631691 128.42253503 -39.19010812 128.4263947 C-50.01456008 128.43087604 -60.83888581 128.44842701 -71.66329938 128.4773953 C-80.02771826 128.49900393 -88.39210161 128.50909854 -96.75654811 128.51043582 C-101.75343118 128.51148442 -106.75019561 128.51740402 -111.74704933 128.53525543 C-116.44775412 128.55172197 -121.14825089 128.5538985 -125.84897423 128.54511642 C-127.57351106 128.54434529 -129.29805902 128.54869878 -131.02256775 128.55857468 C-133.37868119 128.57127546 -135.73405579 128.56542794 -138.09016418 128.55499268 C-139.40811887 128.55645924 -140.72607355 128.5579258 -142.08396626 128.5594368 C-147.72831465 127.96657578 -151.64904859 125.71305974 -155.375 121.5 C-155.94734375 120.87738281 -156.5196875 120.25476563 -157.109375 119.61328125 C-161.01067294 113.36919357 -160.92282876 106.19026613 -160.890625 99.0625 C-160.89253845 98.11616699 -160.8944519 97.16983398 -160.89642334 96.19482422 C-160.8977773 94.20474988 -160.89413633 92.21466647 -160.88574219 90.22460938 C-160.87503152 87.19641079 -160.88566451 84.16880536 -160.8984375 81.140625 C-160.89711577 79.19791537 -160.89455308 77.25520611 -160.890625 75.3125 C-160.89467346 74.41644043 -160.89872192 73.52038086 -160.90289307 72.59716797 C-160.84052461 64.14375154 -159.77493707 56.41046091 -153.625 50.1875 C-146.16047438 45.01384875 -139.14731385 44.4647492 -130.28076172 44.52807617 C-128.98207657 44.51759247 -127.68339142 44.50710876 -126.34535217 44.49630737 C-122.81488697 44.4683603 -119.28503343 44.47059669 -115.75449133 44.47860122 C-112.05353336 44.48174316 -108.35276453 44.45664288 -104.65188599 44.43464661 C-97.65753063 44.39731118 -90.66336965 44.38506487 -83.66892445 44.3820222 C-75.70019006 44.37731991 -67.731649 44.34435924 -59.76300025 44.30912435 C-43.3836783 44.23732799 -27.00447628 44.20069525 -10.625 44.1875 C-10.62669189 42.45463745 -10.62669189 42.45463745 -10.62841797 40.68676758 C-10.62474015 36.39053529 -10.58188958 32.09542338 -10.52734375 27.79956055 C-10.50920274 25.94221217 -10.50161182 24.08472901 -10.50488281 22.22729492 C-10.50774551 19.5528169 -10.47237711 16.88112304 -10.4296875 14.20703125 C-10.43878143 13.37976028 -10.44787537 12.55248932 -10.45724487 11.70014954 C-10.31682533 6.09966455 -10.31682533 6.09966455 -8.36334229 3.52401733 C-5.50308155 0.98154472 -3.84938195 0.19910596 0 0 Z M-142.625 64.1875 C-142.7334013 65.58855502 -142.77400561 66.99495648 -142.78613281 68.40014648 C-142.79574036 69.29454941 -142.8053479 70.18895233 -142.81524658 71.11045837 C-142.81949646 72.08334305 -142.82374634 73.05622772 -142.828125 74.05859375 C-142.83382507 75.05125748 -142.83952515 76.0439212 -142.84539795 77.06666565 C-142.85486312 79.17081633 -142.86138792 81.27498194 -142.86523438 83.37915039 C-142.87494839 86.60784577 -142.90596112 89.83590711 -142.9375 93.06445312 C-142.94402877 95.10416287 -142.94927974 97.14387718 -142.953125 99.18359375 C-142.9654718 100.15445419 -142.9778186 101.12531464 -142.99053955 102.12559509 C-142.98753845 103.02315018 -142.98453735 103.92070526 -142.98144531 104.84545898 C-142.98509094 105.63742172 -142.98873657 106.42938446 -142.99249268 107.24534607 C-142.87122009 107.88625687 -142.74994751 108.52716766 -142.625 109.1875 C-138.96463596 111.62774269 -137.22586817 111.4388154 -132.86180115 111.44146729 C-132.17052866 111.44458727 -131.47925616 111.44770725 -130.76703602 111.45092177 C-128.44543461 111.45891363 -126.1240937 111.45257364 -123.80249023 111.44628906 C-122.14028775 111.44899838 -120.47808646 111.45255897 -118.81588745 111.45690918 C-114.29745003 111.46604185 -109.77910375 111.4624855 -105.2606647 111.45615101 C-100.53836234 111.4510964 -95.81606792 111.45578088 -91.09376526 111.45892334 C-83.16381424 111.4625642 -75.23390045 111.45776036 -67.30395508 111.44824219 C-58.1261244 111.43735366 -48.94838254 111.44088562 -39.77055401 111.451895 C-31.89960672 111.46095998 -24.02868623 111.46225714 -16.15773541 111.45701766 C-11.45276721 111.45389409 -6.74784082 111.45349927 -2.04287529 111.46009064 C2.37873256 111.46585216 6.80022545 111.46188922 11.22182083 111.45030212 C12.84805167 111.44764928 14.47429212 111.44843121 16.10051918 111.45282745 C18.31340667 111.4582598 20.52592132 111.45147739 22.73878479 111.44146729 C23.97930886 111.44071323 25.21983294 111.43995918 26.49794865 111.43918228 C29.50425242 111.48677742 29.50425242 111.48677742 31.375 109.1875 C31.67333576 107.1748704 31.67333576 107.1748704 31.61791992 104.84545898 C31.62099655 103.9479039 31.62407318 103.05034882 31.62724304 102.12559509 C31.62005753 101.15473465 31.61287201 100.18387421 31.60546875 99.18359375 C31.60501053 98.1899733 31.60455231 97.19635284 31.6040802 96.17262268 C31.60105609 94.07022916 31.5931651 91.96783791 31.58081055 89.86547852 C31.56255565 86.63484831 31.5603008 83.40450451 31.56054688 80.17382812 C31.5556318 78.13541417 31.54980353 76.09700217 31.54296875 74.05859375 C31.54129951 72.59926674 31.54129951 72.59926674 31.53959656 71.11045837 C31.53321671 70.21605545 31.52683685 69.32165253 31.52026367 68.40014648 C31.51645187 67.60897934 31.51264008 66.81781219 31.50871277 66.00267029 C31.57218363 64.16693415 31.57218363 64.16693415 30.375 63.1875 C28.16238192 63.08828599 25.94653071 63.06117587 23.73168945 63.06051636 C22.67790966 63.05817637 22.67790966 63.05817637 21.60284138 63.05578911 C19.23130046 63.0517768 16.85982273 63.05496964 14.48828125 63.05810547 C12.79519615 63.05675153 11.10211134 63.05497164 9.4090271 63.05279541 C4.79758869 63.04822019 0.18617255 63.050011 -4.42526627 63.0531745 C-9.24013583 63.05569764 -14.05500342 63.05336069 -18.86987305 63.05178833 C-26.95719751 63.0499665 -35.04451286 63.05237329 -43.13183594 63.05712891 C-52.4959381 63.06257155 -61.8600185 63.0608089 -71.22412014 63.0553025 C-79.24871985 63.05077175 -87.27331298 63.05012064 -95.29791355 63.05274117 C-100.09732482 63.05430415 -104.89672585 63.05449713 -109.69613647 63.05120468 C-114.20714721 63.04832651 -118.71812975 63.05030065 -123.22913742 63.05609894 C-124.88965177 63.05742683 -126.55016848 63.05703193 -128.21068192 63.05483627 C-130.46771702 63.0521259 -132.72466029 63.05550448 -134.98168945 63.06051636 C-136.24785599 63.06089338 -137.51402252 63.06127041 -138.81855774 63.06165886 C-141.52939094 62.86698358 -141.52939094 62.86698358 -142.625 64.1875 Z " fill="#FFFFFF" transform="translate(215.625,123.8125)"/>
<path d="M0 0 C3.58443832 2.78592484 6.84654193 5.73826869 10 9 C10.99 9.99 10.99 9.99 12 11 C12.56429954 15.91746739 12.76634041 17.91810765 9.875 22 C7 24 7 24 4.1875 24.6875 C0.25606358 23.83954313 -1.84321747 22.14300677 -4.9375 19.65234375 C-17.12714364 9.88677697 -30.61883685 6.52187055 -46 8 C-56.16805106 9.78805118 -64.13561771 14.52981973 -72 21 C-74.81457902 23.30858729 -75.72229602 23.95960669 -79.4375 24.5 C-83 24 -83 24 -85.9375 21.9375 C-88 19 -88 19 -88.75 15.6875 C-87.31455432 8.62989207 -81.5887045 4.1730091 -76 0 C-52.34181604 -14.27001572 -23.47859392 -15.24818572 0 0 Z " fill="#FFFFFF" transform="translate(252,78)"/>
<path d="M0 0 C3.77310556 3.15777831 5.47025262 5.64122825 5.9375 10.6875 C5.23453373 14.12422398 4.37952366 15.31914695 1.6875 17.5625 C-1.93185402 19.04314483 -3.3279557 18.90840871 -7.0625 17.6875 C-9.42324677 16.23568186 -11.67550948 14.69625098 -13.9140625 13.0625 C-18.18115793 10.33155892 -23.09884332 9.91669325 -28.0625 10.6875 C-32.41386249 12.37969652 -36.49689042 14.42262898 -40.13671875 17.36328125 C-42.0625 18.6875 -42.0625 18.6875 -45.625 18.5625 C-50.30403499 17.37147291 -50.30403499 17.37147291 -52.0625 14.6875 C-53.5 11.875 -53.5 11.875 -54.0625 8.6875 C-50.96990179 1.76597067 -43.92903819 -3.43590786 -37 -6.25 C-24.13328241 -9.85538496 -10.8424478 -7.64134417 0 0 Z " fill="#FFFFFF" transform="translate(238.0625,101.3125)"/>
<path d="M0 0 C2.42783365 1.82087524 2.8286623 3.42590548 3.75 6.3125 C4.05078125 9.65234375 4.05078125 9.65234375 4.0625 13.25 C4.07925781 14.43464844 4.09601563 15.61929688 4.11328125 16.83984375 C3.71478923 20.64908467 2.74162243 23.06097043 0.75 26.3125 C-2.45986848 27.91743424 -5.77780314 27.93130736 -9.25 27.3125 C-12.92854966 23.9169157 -14.07157038 20.82711282 -14.41796875 15.9453125 C-14.50532384 4.7289184 -14.50532384 4.7289184 -10.5 0.4375 C-6.8861058 -1.3694471 -3.81313276 -1.1651239 0 0 Z " fill="#FFFFFF" transform="translate(100.25,196.6875)"/>
<path d="M0 0 C2.36497439 1.86708505 3.66030715 3.32061431 5 6 C5.1501182 8.41343878 5.2215537 10.8320643 5.25 13.25 C5.27578125 14.55453125 5.3015625 15.8590625 5.328125 17.203125 C4.98152326 21.21380226 4.11928849 23.60502329 2 27 C-1.12942465 28.56471233 -4.61082223 28.69701958 -8 28 C-10.22265625 26.60546875 -10.22265625 26.60546875 -12 24 C-12.61642826 20.6573262 -12.60367514 17.39089369 -12.5625 14 C-12.58634766 13.09765625 -12.61019531 12.1953125 -12.63476562 11.265625 C-12.6201872 4.69561537 -12.6201872 4.69561537 -9.6875 1.40625 C-6.15869939 -0.44021544 -3.92941015 -0.57155057 0 0 Z " fill="#FFFFFF" transform="translate(136,196)"/>
</svg>
