<?xml version="1.0" encoding="UTF-8"?>
<svg version="1.1" xmlns="http://www.w3.org/2000/svg" width="640" height="640">
<path d="M0 0 C0.94997102 -0.00350607 1.89994203 -0.00701215 2.87870005 -0.01062447 C6.06827667 -0.01994309 9.25767089 -0.01501389 12.44725513 -0.01015663 C14.75463393 -0.01389265 17.06201146 -0.01849398 19.36938697 -0.02388728 C25.71529996 -0.03613864 32.06116032 -0.03585428 38.40708244 -0.03349853 C44.54657304 -0.03216193 50.68605092 -0.04211046 56.82553394 -0.0507243 C70.93516303 -0.07006733 85.04477759 -0.07569265 99.15441837 -0.07683842 C110.05136799 -0.07775752 120.9483119 -0.08187427 131.84525967 -0.08823967 C134.98200235 -0.09003476 138.11874504 -0.09181439 141.25548774 -0.09358943 C142.03529565 -0.09403152 142.81510356 -0.09447362 143.61854201 -0.09492911 C165.55383775 -0.10723788 187.4891315 -0.11513021 209.42443085 -0.11424255 C210.25146786 -0.1142114 211.07850487 -0.11418024 211.93060361 -0.11414814 C216.12235987 -0.11398192 220.31411613 -0.11378384 224.50587239 -0.11357872 C225.75461559 -0.11351889 225.75461559 -0.11351889 227.02858592 -0.11345784 C228.71209517 -0.11337697 230.39560441 -0.11329337 232.07911365 -0.11320706 C258.26872896 -0.11198169 284.45829247 -0.12699195 310.64789295 -0.15435219 C340.07314527 -0.18508005 369.49836355 -0.20228424 398.92363292 -0.20042574 C402.06194739 -0.20027648 405.20026185 -0.20017907 408.33857632 -0.20011711 C409.11130601 -0.2000938 409.8840357 -0.20007049 410.68018144 -0.20004648 C423.11024505 -0.19998496 435.54026367 -0.21275152 447.9703139 -0.22998164 C460.46560159 -0.2469438 472.96082351 -0.24890742 485.45611634 -0.235763 C492.22412922 -0.22902705 498.99196943 -0.22914281 505.75996876 -0.2464695 C511.95748362 -0.26217252 518.15470599 -0.25936447 524.3522136 -0.24190123 C526.5924466 -0.23882527 528.83270128 -0.24248606 531.07290872 -0.25362138 C549.94788227 -0.34121738 562.97838706 2.14207835 577.11395741 15.38226891 C586.6464233 25.18175065 590.74672072 36.39693536 590.68372631 49.8308115 C590.68723239 50.78078252 590.69073846 51.73075353 590.69435078 52.70951155 C590.7036694 55.89908817 590.6987402 59.08848239 590.69388294 62.27806664 C590.69761897 64.58544543 590.70222029 66.89282296 590.70761359 69.20019847 C590.71986495 75.54611146 590.71958059 81.89197182 590.71722484 88.23789394 C590.71588824 94.37738454 590.72583677 100.51686242 590.73445061 106.65634544 C590.75379364 120.76597453 590.75941896 134.87558909 590.76056473 148.98522987 C590.76148383 159.88217949 590.76560058 170.7791234 590.77196598 181.67607117 C590.77376107 184.81281385 590.7755407 187.94955654 590.77731574 191.08629924 C590.77797888 192.2560111 590.77797888 192.2560111 590.77865542 193.44935351 C590.79096419 215.38464925 590.79885652 237.31994301 590.79796886 259.25524235 C590.79793771 260.08227936 590.79790655 260.90931637 590.79787445 261.76141511 C590.79770823 265.95317137 590.79751015 270.14492763 590.79730503 274.33668389 C590.7972452 275.58542709 590.7972452 275.58542709 590.79718415 276.85939743 C590.79710328 278.54290667 590.79701968 280.22641591 590.79693337 281.90992515 C590.795708 308.09954046 590.81071826 334.28910397 590.8380785 360.47870445 C590.86880636 389.90395677 590.88601055 419.32917505 590.88415205 448.75444442 C590.88400279 451.89275889 590.88390538 455.03107335 590.88384342 458.16938782 C590.88380846 459.32848235 590.88380846 459.32848235 590.88377279 460.51099294 C590.88371127 472.94105655 590.89647783 485.37107517 590.91370795 497.8011254 C590.93067011 510.29641309 590.93263373 522.79163501 590.91948931 535.28692784 C590.91275336 542.05494072 590.91286912 548.82278093 590.93019581 555.59078026 C590.94589883 561.78829512 590.94309078 567.98551749 590.92562754 574.1830251 C590.92255159 576.4232581 590.92621237 578.66351278 590.9373477 580.90372022 C591.02494369 599.77869377 588.54164796 612.80919856 575.30145741 626.94476891 C565.50197566 636.4772348 554.28679096 640.57753222 540.85291481 640.51453781 C539.90294379 640.51804389 538.95297278 640.52154996 537.97421476 640.52516228 C534.78463814 640.5344809 531.59524392 640.5295517 528.40565968 640.52469444 C526.09828088 640.52843047 523.79090335 640.53303179 521.48352784 640.53842509 C515.13761485 640.55067645 508.79175449 640.55039209 502.44583237 640.54803634 C496.30634177 640.54669975 490.16686389 640.55664827 484.02738087 640.56526211 C469.91775178 640.58460514 455.80813722 640.59023046 441.69849644 640.59137623 C430.80154682 640.59229533 419.90460291 640.59641208 409.00765514 640.60277748 C405.87091246 640.60457257 402.73416977 640.6063522 399.59742707 640.60812724 C398.81761916 640.60856933 398.03781125 640.60901143 397.2343728 640.60946692 C375.29907706 640.62177569 353.36378331 640.62966802 331.42848396 640.62878036 C330.60144695 640.62874921 329.77440994 640.62871805 328.9223112 640.62868595 C324.73055494 640.62851973 320.53879868 640.62832165 316.34704242 640.62811653 C315.09829922 640.6280567 315.09829922 640.6280567 313.82432889 640.62799565 C312.14081964 640.62791478 310.4573104 640.62783118 308.77380116 640.62774487 C282.58418585 640.6265195 256.39462234 640.64152976 230.20502186 640.66889 C200.77976954 640.69961786 171.35455126 640.71682205 141.92928189 640.71496356 C138.79096742 640.71481429 135.65265296 640.71471688 132.51433849 640.71465492 C131.7416088 640.71463161 130.96887911 640.71460831 130.17273337 640.71458429 C117.74266976 640.71452277 105.31265114 640.72728933 92.88260091 640.74451945 C80.38731322 640.76148161 67.8920913 640.76344523 55.39679847 640.75030081 C48.62878559 640.74356486 41.86094538 640.74368062 35.09294605 640.76100731 C28.89543119 640.77671033 22.69820882 640.77390228 16.50070121 640.75643905 C14.26046821 640.75336309 12.02021353 640.75702387 9.78000609 640.7681592 C-9.09496746 640.85575519 -22.12547225 638.37245946 -36.26104259 625.13226891 C-45.79350849 615.33278716 -49.89380591 604.11760246 -49.8308115 590.68372631 C-49.83431758 589.73375529 -49.83782365 588.78378428 -49.84143597 587.80502626 C-49.85075459 584.61544964 -49.84582539 581.42605542 -49.84096813 578.23647118 C-49.84470416 575.92909238 -49.84930548 573.62171485 -49.85469878 571.31433934 C-49.86695014 564.96842635 -49.86666578 558.622566 -49.86431003 552.27664387 C-49.86297343 546.13715327 -49.87292196 539.99767539 -49.8815358 533.85819237 C-49.90087883 519.74856328 -49.90650415 505.63894873 -49.90764992 491.52930794 C-49.90856902 480.63235832 -49.91268577 469.73541441 -49.91905117 458.83846664 C-49.92084626 455.70172396 -49.92262589 452.56498127 -49.92440093 449.42823857 C-49.92484302 448.64843066 -49.92528512 447.86862275 -49.92574061 447.0651843 C-49.93804938 425.12988856 -49.94594171 403.19459481 -49.94505405 381.25929546 C-49.9450229 380.43225845 -49.94499174 379.60522144 -49.94495964 378.7531227 C-49.94479342 374.56136644 -49.94459534 370.36961018 -49.94439022 366.17785392 C-49.94435033 365.34535845 -49.94431044 364.51286299 -49.94426934 363.65514039 C-49.94418847 361.97163114 -49.94410487 360.2881219 -49.94401856 358.60461266 C-49.94279319 332.41499736 -49.95780345 306.22543385 -49.98516369 280.03583336 C-50.01589155 250.61058104 -50.03309574 221.18536276 -50.03123724 191.76009339 C-50.03108798 188.62177893 -50.03099057 185.48346446 -50.03092861 182.34514999 C-50.0309053 181.5724203 -50.03088199 180.79969061 -50.03085798 180.00354487 C-50.03079646 167.57348126 -50.04356302 155.14346264 -50.06079314 142.71341241 C-50.0777553 130.21812472 -50.07971892 117.7229028 -50.0665745 105.22760997 C-50.05983855 98.4595971 -50.05995431 91.69175688 -50.077281 84.92375755 C-50.09298402 78.72624269 -50.09017597 72.52902032 -50.07271273 66.33151271 C-50.06963677 64.09127971 -50.07329756 61.85102503 -50.08443289 59.61081759 C-50.17202888 40.73584404 -47.68873315 27.70533925 -34.44854259 13.56976891 C-24.64906085 4.03730302 -13.43387615 -0.06299441 0 0 Z M128.42645741 165.25726891 C127.21216053 165.89342125 127.21216053 165.89342125 125.97333241 166.54242516 C119.12715128 170.61159573 115.27417248 176.03392016 112.11395741 183.25726891 C109.79292202 193.38542331 110.03154641 203.14855011 115.25458241 212.42133141 C115.83466053 213.33012047 115.83466053 213.33012047 116.42645741 214.25726891 C117.00653553 215.16605797 117.00653553 215.16605797 117.59833241 216.09320641 C123.12765648 223.54153119 132.72779998 227.68343699 141.73895741 229.06976891 C152.30941386 229.80724261 161.00956068 228.05945361 170.42645741 223.25726891 C171.51958241 222.72101891 172.61270741 222.18476891 173.73895741 221.63226891 C180.14727701 215.96910275 184.81973014 207.75308914 185.76239491 199.21430016 C185.89060142 188.89367535 183.80616832 180.15783154 177.18426991 172.03851891 C169.03937301 163.78502339 159.83880074 160.98647428 148.55145741 160.81976891 C141.2011471 160.86785926 135.02169767 161.79800073 128.42645741 165.25726891 Z M323.42645741 257.25726891 C322.48544178 257.54601891 321.54442616 257.83476891 320.57489491 258.13226891 C306.74353777 263.05008478 295.92264464 272.26489444 289.42645741 285.25726891 C289.09645741 275.35726891 288.76645741 265.45726891 288.42645741 255.25726891 C265.65645741 255.25726891 242.88645741 255.25726891 219.42645741 255.25726891 C219.42645741 320.92726891 219.42645741 386.59726891 219.42645741 454.25726891 C242.19645741 454.25726891 264.96645741 454.25726891 288.42645741 454.25726891 C288.46384022 445.77137047 288.50122303 437.28547203 288.53973866 428.54242516 C288.57387418 422.47550112 288.60986627 416.4086103 288.64853477 410.34171581 C288.69834944 402.4873311 288.74381781 394.63300095 288.77289295 386.77850914 C288.79593146 380.5585749 288.82939426 374.33879707 288.87515897 368.11898702 C288.89901287 364.82834167 288.91623735 361.53788228 288.92407131 358.24715424 C288.9337217 354.56547857 288.96179409 350.8843628 288.99408436 347.20282555 C288.99193172 345.58225494 288.99193172 345.58225494 288.9897356 343.92894554 C289.1341464 332.25394139 292.74527457 323.06542592 300.73895741 314.50726891 C308.75737793 306.83899775 317.64122925 305.77580364 328.30536366 305.98773766 C336.07975156 306.3496273 342.15265874 308.68370978 347.86395741 314.00726891 C358.58337778 325.88613679 359.54184135 341.91770867 359.63177967 357.19305992 C359.64167927 358.24775978 359.65157887 359.30245964 359.66177845 360.3891201 C359.69315639 363.8464496 359.71805637 367.3037928 359.74286366 370.76117516 C359.76345369 373.16970218 359.78445068 375.57822575 359.80583668 377.98674583 C359.86084571 384.30445108 359.91034778 390.62218778 359.95868397 396.93994713 C360.01792114 404.5317406 360.08403189 412.12347699 360.14898396 419.71522331 C360.24672685 431.22920344 360.33576523 442.74322136 360.42645741 454.25726891 C383.52645741 454.25726891 406.62645741 454.25726891 430.42645741 454.25726891 C430.45559169 434.94379379 430.45559169 434.94379379 430.47528553 415.63031578 C430.48123997 407.7415556 430.4882485 399.85280713 430.50189686 391.96405602 C430.51284262 385.59683098 430.51875877 379.22961852 430.52133465 372.8623848 C430.52316799 370.44539695 430.52674757 368.02840972 430.53218746 365.61142731 C430.8624909 340.77437321 430.8624909 340.77437321 427.80145741 316.19476891 C427.63105946 315.36533775 427.46066151 314.5359066 427.28509998 313.68134117 C422.79409897 293.44373153 411.67678918 275.34133136 394.17645741 263.88226891 C387.22393451 259.8527782 380.13897956 257.36456202 372.42645741 255.25726891 C371.54989491 255.01105797 370.67333241 254.76484703 369.77020741 254.51117516 C354.47900816 251.00290951 338.25451425 252.70451798 323.42645741 257.25726891 Z M119.42645741 255.25726891 C119.42645741 320.92726891 119.42645741 386.59726891 119.42645741 454.25726891 C139.55645741 454.25726891 159.68645741 454.25726891 180.42645741 454.25726891 C180.42645741 388.58726891 180.42645741 322.91726891 180.42645741 255.25726891 C160.29645741 255.25726891 140.16645741 255.25726891 119.42645741 255.25726891 Z " fill="#454545" transform="translate(49.57354259490967,-0.25726890563964844)"/>
</svg>
