<?xml version="1.0" encoding="UTF-8"?>
<svg version="1.1" xmlns="http://www.w3.org/2000/svg" width="320" height="320">
<path d="M0 0 C1.16402344 0.38542969 2.32804688 0.77085938 3.52734375 1.16796875 C32.44549297 11.59469933 53.89630781 32.61810766 67.13183594 60.05761719 C69.57820959 65.53099985 71.31548565 71.25436966 73 77 C73.350625 78.12921875 73.70125 79.2584375 74.0625 80.421875 C75.09609726 84.36677121 75.67842429 88.20417105 76.125 92.25 C76.2084668 92.99942871 76.29193359 93.74885742 76.37792969 94.52099609 C79.0198365 119.56519439 72.2580704 143.2479339 60 165 C59.65743164 165.61891113 59.31486328 166.23782227 58.96191406 166.87548828 C47.87372101 186.75259856 32.95218091 203.8923673 17.33862305 220.3203125 C14.44989455 223.36182351 11.61874649 226.42320408 8.89453125 229.61328125 C3.95094559 235.30182868 -1.3698742 240.62991236 -6.67919922 245.97436523 C-7.89755018 247.20431487 -9.11140033 248.43873855 -10.32080078 249.67749023 C-12.08950996 251.48894839 -13.87117815 253.28671209 -15.65625 255.08203125 C-16.18875366 255.632043 -16.72125732 256.18205475 -17.26989746 256.74873352 C-21.93954896 261.39198304 -26.19728521 264 -33 264 C-39.24858012 262.85623293 -43.22508971 259.0379839 -47.21484375 254.31640625 C-50.94541535 249.99817226 -54.92791365 245.99407704 -59 242 C-63.65294051 237.43619628 -68.10293295 232.80095158 -72.35644531 227.86181641 C-74.73488574 225.16752249 -77.29232029 222.68364102 -79.875 220.1875 C-84.59954948 215.54516168 -88.87282313 210.69281309 -92.99609375 205.5 C-94.72598084 203.34185626 -96.51269594 201.29281108 -98.375 199.25 C-112.96673866 182.69463989 -124.87229563 163.0958808 -132.3125 142.3125 C-132.54275879 141.67280273 -132.77301758 141.03310547 -133.01025391 140.37402344 C-136.94001733 128.87016718 -138.53145851 117.90146628 -138.4375 105.75 C-138.43479095 105.07157043 -138.43208191 104.39314087 -138.42929077 103.69415283 C-138.36446076 92.97148941 -137.47471979 83.16468354 -134 73 C-133.60296875 71.82824219 -133.2059375 70.65648438 -132.796875 69.44921875 C-127.02563631 53.61483918 -118.64894073 40.18882034 -107 28 C-106.11634766 27.00419922 -106.11634766 27.00419922 -105.21484375 25.98828125 C-79.7782863 -1.57264803 -35.07844133 -11.61713213 0 0 Z M-92.5625 53.0625 C-101.48995002 64.39349425 -106.11842002 75.98282283 -109 90 C-109.17362061 90.64179199 -109.34724121 91.28358398 -109.52612305 91.94482422 C-114.68083041 114.30047931 -105.78551625 138.63410115 -94.14355469 157.37841797 C-83.30177642 174.37045518 -70.16563299 190.4179611 -55.609375 204.36328125 C-54 206 -54 206 -53 208 C-52.34 208 -51.68 208 -51 208 C-50.75072754 208.57524414 -50.50145508 209.15048828 -50.24462891 209.74316406 C-48.82126077 212.32410072 -47.18451214 214.04212237 -45.0859375 216.109375 C-44.32539063 216.86347656 -43.56484375 217.61757812 -42.78125 218.39453125 C-41.9871875 219.17183594 -41.193125 219.94914063 -40.375 220.75 C-39.57320313 221.54277344 -38.77140625 222.33554688 -37.9453125 223.15234375 C-35.96797154 225.10614493 -33.98611091 227.05512103 -32 229 C-28.36120325 227.46347997 -26.01785354 225.27579241 -23.234375 222.5 C-22.34492188 221.613125 -21.45546875 220.72625 -20.5390625 219.8125 C-19.15847656 218.4203125 -19.15847656 218.4203125 -17.75 217 C-16.81414062 216.071875 -15.87828125 215.14375 -14.9140625 214.1875 C-13.58761719 212.8571875 -13.58761719 212.8571875 -12.234375 211.5 C-11.42194336 210.6853125 -10.60951172 209.870625 -9.77246094 209.03125 C-7.78084061 207.19815007 -7.78084061 207.19815007 -8 205 C-7.34 205 -6.68 205 -6 205 C-4.25724224 203.35412025 -4.25724224 203.35412025 -2.5 201.25 C-1.8915625 200.55390625 -1.283125 199.8578125 -0.65625 199.140625 C0.87976963 197.15539208 1.9723966 195.28127955 3 193 C3.66 193 4.32 193 5 193 C6.41706502 191.45111498 7.75809496 189.83238466 9.0625 188.1875 C13.82486979 182.20052083 13.82486979 182.20052083 16.1015625 179.59375 C36.71460414 155.81540984 49.43614953 128.74646329 48 97 C46.52878854 79.68173942 39.84336652 65.30085847 29 52 C28.2575 51.01 27.515 50.02 26.75 49 C14.45692336 34.49013905 -3.51204844 26.57450789 -22 24 C-49.48445368 21.79626351 -74.45666721 32.21148983 -92.5625 53.0625 Z " fill="#013893" transform="translate(191,30)"/>
<path d="M0 0 C11.57365649 9.85225822 17.46205032 23.4624594 18.75390625 38.3984375 C19.19461998 54.41742337 13.673162 68.42023039 2.70898438 80.00585938 C-7.73838934 90.56602525 -20.27107085 95.28514586 -35.03125 95.4140625 C-50.48288372 95.4562929 -62.97926223 90.07984789 -74.17578125 79.54296875 C-85.06634416 68.25507187 -89.98232086 54.36537007 -89.8046875 38.8046875 C-88.94540131 27.16749737 -85.61865223 17.45952837 -78.53125 8.1015625 C-77.78875 7.0496875 -77.04625 5.9978125 -76.28125 4.9140625 C-55.30110638 -16.54290257 -23.59650369 -17.69737777 0 0 Z M-55.53125 24.1015625 C-61.09346447 31.26481141 -62.59247679 38.08709671 -61.53125 47.1015625 C-58.55481593 55.84560947 -53.36580543 61.33270267 -45.53125 66.1015625 C-38.9689012 68.2890121 -30.29273032 68.4185589 -23.96875 65.4140625 C-17.12735207 61.23644291 -12.06207496 54.69403737 -9.53125 47.1015625 C-8.7972629 38.36429304 -9.72707854 31.4267423 -15.15625 24.4140625 C-20.89843179 18.24862406 -27.44095822 15.35885626 -35.83203125 14.97265625 C-43.58729507 15.34302341 -50.01000909 18.72466776 -55.53125 24.1015625 Z " fill="#013894" transform="translate(195.53125,91.8984375)"/>
</svg>
