<?xml version="1.0" encoding="UTF-8"?>
<svg version="1.1" xmlns="http://www.w3.org/2000/svg" width="320" height="320">
<path d="M0 0 C2.81404079 1.41845545 5.52592748 2.94302021 8.23876953 4.54638672 C9.20008789 5.09415771 10.16140625 5.64192871 11.15185547 6.20629883 C13.88384943 7.77402239 16.59556768 9.37130736 19.30126953 10.98388672 C20.31374756 11.58136719 20.31374756 11.58136719 21.34667969 12.19091797 C29.77963012 17.2014276 29.77963012 17.2014276 32.30126953 20.98388672 C32.30126953 22.98388672 32.30126953 22.98388672 31.30126953 24.98388672 C28.28796306 27.01611667 26.30248648 28.03820494 22.63720703 27.83935547 C18.22003245 26.70661398 14.57969811 24.69440429 10.61376953 22.48388672 C9.1109194 21.65904289 7.60705311 20.83604708 6.10205078 20.01513672 C5.44374268 19.6496875 4.78543457 19.28423828 4.10717773 18.90771484 C-1.45016133 16.06480948 -8.00500628 16.19547836 -14.02294922 17.47998047 C-22.04754049 20.1854141 -26.46944422 27.05740155 -31.44873047 33.54638672 C-32.06055176 34.33835449 -32.67237305 35.13032227 -33.30273438 35.94628906 C-38.1607834 42.24782885 -42.96085402 48.59151374 -47.69873047 54.98388672 C-43.2876817 51.27459571 -39.00020315 47.45065124 -34.76123047 43.54638672 C-13.92150033 24.38545746 -13.92150033 24.38545746 -4.48535156 24.50195312 C1.0193308 25.4539632 5.7933281 28.4084164 10.61352539 31.11791992 C12.48544713 32.16952027 14.37068939 33.1929061 16.26025391 34.21240234 C24.97895164 38.9841914 31.70834847 42.97469541 36.30126953 51.98388672 C36.77693359 51.11376953 36.77693359 51.11376953 37.26220703 50.22607422 C37.72884766 49.44490234 38.19548828 48.66373047 38.67626953 47.85888672 C39.33755859 46.71033203 39.33755859 46.71033203 40.01220703 45.53857422 C43.48539744 41.66235148 47.79429037 39.5125575 52.30126953 36.98388672 C53.20167969 36.45553223 54.10208984 35.92717773 55.02978516 35.3828125 C57.79205199 33.76231539 60.57490452 32.18308927 63.36376953 30.60888672 C64.29253906 30.06361328 65.22130859 29.51833984 66.17822266 28.95654297 C71.95890166 25.71936272 76.63624959 23.71552211 83.30126953 24.98388672 C87.70922114 26.65404584 90.75823753 29.0287813 94.17626953 32.23388672 C95.04123047 33.03439453 95.90619141 33.83490234 96.79736328 34.65966797 C98.03679687 35.81015625 98.03679687 35.81015625 99.30126953 36.98388672 C100.60858628 38.13563027 101.92070879 39.28195433 103.23876953 40.42138672 C107.56242116 44.17916165 111.76981421 48.06212708 115.98095703 51.94482422 C118.12073835 53.99966 118.12073835 53.99966 120.30126953 54.98388672 C119.73021484 54.24267578 119.15916016 53.50146484 118.57080078 52.73779297 C118.18625732 52.23828125 117.80171387 51.73876953 117.40551758 51.22412109 C116.53108153 50.08839542 115.65623219 48.95298786 114.78100586 47.81787109 C112.14425134 44.39415519 109.52302912 40.95950583 106.91845703 37.51123047 C106.34893311 36.75962646 105.77940918 36.00802246 105.19262695 35.23364258 C104.0777203 33.76153127 102.96578009 32.28716744 101.85717773 30.81030273 C96.04000698 23.14332035 91.49249934 18.3659146 81.90283203 16.52294922 C72.54839806 15.70829881 65.19695216 20.61769925 57.30126953 24.98388672 C52.33957391 27.66700989 49.8782348 28.60627662 44.30126953 26.98388672 C41.36376953 24.42138672 41.36376953 24.42138672 39.30126953 21.98388672 C42.27405279 17.79797224 45.21367255 15.56687424 49.67626953 13.06591797 C50.2826123 12.72259933 50.88895508 12.3792807 51.51367188 12.02555847 C53.43756259 10.93939279 55.3691716 9.8678711 57.30126953 8.79638672 C58.59866749 8.06619534 59.89554801 7.33508377 61.19189453 6.60302734 C76.5628101 -2.05040742 76.5628101 -2.05040742 85.30126953 -1.01611328 C95.83474348 2.16608344 105.92850342 10.97665241 111.23632812 20.43041992 C111.85789053 21.69004649 112.47029696 22.95422184 113.07470703 24.22216797 C113.41247162 24.91409744 113.75023621 25.60602692 114.09823608 26.31892395 C115.1761321 28.53581462 116.24031076 30.75884557 117.30126953 32.98388672 C117.64855103 33.70896423 117.99583252 34.43404175 118.3536377 35.18109131 C120.51862243 39.70596728 122.66338209 44.24017337 124.79980469 48.77859497 C126.74668495 52.91408048 128.69925518 57.04687367 130.65283203 61.17919922 C131.23874115 62.41861015 131.23874115 62.41861015 131.83648682 63.68305969 C136.18584195 72.87131292 140.61149505 82.02249645 145.06152344 91.16235352 C145.86082275 92.80844604 145.86082275 92.80844604 146.67626953 94.48779297 C147.36849609 95.90813843 147.36849609 95.90813843 148.07470703 97.35717773 C150.26488756 102.04749468 151.55155081 105.54545749 151.52832031 110.78393555 C151.52809372 112.49514336 151.52809372 112.49514336 151.52786255 114.24092102 C151.51753998 115.46192001 151.50721741 116.68291901 151.49658203 117.94091797 C151.49375214 119.19901779 151.49092224 120.45711761 151.48800659 121.75334167 C151.47872074 125.08576054 151.46077429 128.41790219 151.43859863 131.75024414 C151.4180797 135.15557425 151.40888214 138.56093392 151.39892578 141.96630859 C151.37858844 148.63899008 151.33943559 155.31118807 151.30126953 161.98388672 C133.15126953 161.98388672 115.00126953 161.98388672 96.30126953 161.98388672 C96.30126953 160.00388672 96.30126953 158.02388672 96.30126953 155.98388672 C97.3009375 155.87173828 97.3009375 155.87173828 98.32080078 155.75732422 C106.46576073 154.59538588 114.35754755 151.9276087 120.30126953 145.98388672 C120.75938628 144.01153339 120.75938628 144.01153339 120.92626953 141.85888672 C121.11189453 139.94076172 121.11189453 139.94076172 121.30126953 137.98388672 C120.16947266 138.54978516 119.03767578 139.11568359 117.87158203 139.69873047 C103.04809044 147.11047626 103.04809044 147.11047626 95.58251953 147.08935547 C93.99396441 147.10282675 92.40542186 147.11785264 90.81689453 147.13427734 C88.31971013 147.15697458 85.82393222 147.17150075 83.32666016 147.15893555 C70.49685225 147.02670965 70.49685225 147.02670965 59.16186523 152.60229492 C56.58959673 154.51234183 54.48049089 154.98388672 51.30126953 154.98388672 C46.8519066 154.09401413 44.23483842 151.42620775 41.48876953 147.97216797 C39.84537709 145.22056681 39.39111299 143.20050945 39.66064453 140.01513672 C40.70810582 136.693918 42.69620693 134.58414604 45.14160156 132.16040039 C47.29489079 130.04667282 47.29489079 130.04667282 49.08886719 127.87768555 C55.76910914 120.34369824 63.61091239 117.26327612 72.73876953 113.60888672 C74.94355273 112.70924073 77.14532517 111.80326615 79.34327698 110.88705444 C80.70000298 110.323175 82.06101351 109.76946511 83.42662048 109.22744751 C86.84942776 107.8223357 88.18843557 107.15313766 90.30126953 103.98388672 C90.68824327 99.73577496 90.63041986 95.47840942 90.61694336 91.21484375 C90.6137908 89.12300152 90.63722172 87.03258462 90.66259766 84.94091797 C90.66487163 83.60368016 90.66557369 82.26643857 90.66455078 80.92919922 C90.66753174 79.7176416 90.6705127 78.50608398 90.67358398 77.2578125 C90.02548416 71.55878389 86.83945275 68.2138478 82.92626953 64.23388672 C82.17603516 63.45529297 81.42580078 62.67669922 80.65283203 61.87451172 C78.03330916 59.76845014 76.63293217 59.18440345 73.30126953 58.98388672 C69.5405803 59.60685804 66.42158546 60.78163222 63.30126953 62.98388672 C62.07138464 65.53241107 61.5239756 67.75522157 61.09423828 70.54638672 C59.96398803 74.02065349 58.40591551 75.11601649 55.30126953 76.98388672 C50.17823459 77.84365531 43.94951323 78.46138176 39.27783203 75.85498047 C37.92626953 74.48388672 37.92626953 74.48388672 36.30126953 71.98388672 C35.60001953 72.80888672 34.89876953 73.63388672 34.17626953 74.48388672 C29.8572601 78.10895459 24.92455287 77.67816549 19.53173828 77.45654297 C16.30126953 76.98388672 16.30126953 76.98388672 13.05126953 75.04638672 C11.37191916 72.10752356 11.04669414 70.66030417 10.61376953 67.42138672 C10.30934149 65.06824728 10.30934149 65.06824728 9.30126953 62.98388672 C5.48324518 60.33056655 1.50052143 58.91417984 -3.16357422 59.06201172 C-6.70357038 60.34928305 -8.90761014 62.68762815 -11.44873047 65.35888672 C-11.94244141 65.85388672 -12.43615234 66.34888672 -12.94482422 66.85888672 C-18.76186624 72.81936265 -17.94903535 78.96448694 -17.99389648 86.80786133 C-18.00543863 88.21518998 -18.0259261 89.62247411 -18.05541992 91.02954102 C-18.09808704 93.06540596 -18.11426002 95.09997405 -18.12451172 97.13623047 C-18.13909424 98.3530249 -18.15367676 99.56981934 -18.16870117 100.82348633 C-17.9415059 104.01032266 -17.9415059 104.01032266 -16.07373047 106.24267578 C-13.24765991 108.31458524 -10.55505501 109.4585342 -7.27294922 110.69091797 C-5.9935766 111.19063656 -4.71520876 111.69293358 -3.43774414 112.19750977 C-2.77471283 112.4576889 -2.11168152 112.71786804 -1.42855835 112.9859314 C11.77181092 118.22422326 25.56939813 124.52014393 32.30126953 137.98388672 C32.87397874 142.1360285 33.10937053 144.59069182 30.98486328 148.25341797 C28.18543915 151.72921303 26.09841454 153.69401581 21.86376953 155.23388672 C16.46383415 154.85494388 12.49118611 152.58335395 8.16430664 149.4230957 C4.54387244 147.60315372 1.4492376 147.6495925 -2.49951172 147.75341797 C-4.05094272 147.75552112 -5.60237635 147.75612045 -7.15380859 147.75537109 C-9.56522452 147.76970018 -11.97463593 147.79556264 -14.38549805 147.84985352 C-27.14093711 148.09985642 -35.7607087 145.53263724 -46.69873047 138.98388672 C-47.35873047 138.65388672 -48.01873047 138.32388672 -48.69873047 137.98388672 C-48.548907 143.56708933 -48.548907 143.56708933 -45.82373047 148.17138672 C-39.03630985 152.10809068 -32.56963907 155.29945988 -24.69873047 155.98388672 C-23.69873047 156.98388672 -23.69873047 156.98388672 -23.69873047 161.98388672 C-41.84873047 161.98388672 -59.99873047 161.98388672 -78.69873047 161.98388672 C-81.00978115 101.02992493 -81.00978115 101.02992493 -64.88818359 74.67919922 C-61.56719691 69.19254169 -58.90975287 63.38438504 -56.19415283 57.58200073 C-54.78935392 54.59927801 -53.33734235 51.63953101 -51.89404297 48.67529297 C-48.45337312 41.5355427 -45.18832051 34.31748769 -42.06835938 27.03173828 C-38.84446115 19.70456538 -34.85939424 13.11917206 -28.32373047 8.29638672 C-27.56060547 7.73306641 -26.79748047 7.16974609 -26.01123047 6.58935547 C-17.79847242 0.8875927 -10.22195471 -3.84872223 0 0 Z " fill="#000000" transform="translate(123.69873046875,93.01611328125)"/>
<path d="M0 0 C0.99 -0.33 1.98 -0.66 3 -1 C6.80585475 -1.5074473 10.44834189 -1.86096143 13.88671875 0.046875 C16.73953449 2.39544001 18.65799409 4.35127338 19.4140625 7.99609375 C19.92923979 13.95879382 18.72461471 17.03237088 14.9375 21.6875 C13.31532405 23.48002985 11.67034818 25.25227147 10 27 C9.35804688 27.73089844 8.71609375 28.46179688 8.0546875 29.21484375 C5.52825888 31.98485181 3.47656529 33.77692689 0.0625 35.375 C-8.19808648 34.36349961 -14.97854035 24.01036855 -20 18 C-21.86233425 14.27533151 -21.57130829 10.05504687 -21 6 C-16.32164407 -2.74573255 -8.54254217 -1.75875868 0 0 Z " fill="#000000" transform="translate(161,46)"/>
<path d="M0 0 C18.15 0 36.3 0 55 0 C55 5 55 5 52.62719727 7.77099609 C48.3974898 10.92650317 44.06846378 10.72046663 38.96484375 10.6640625 C38.00856583 10.66884613 37.0522879 10.67362976 36.06703186 10.67855835 C34.05240222 10.68195017 32.037717 10.67279814 30.02319336 10.65185547 C26.94324998 10.62505004 23.86694091 10.65164274 20.78710938 10.68359375 C18.82551281 10.6802901 16.8639185 10.6738848 14.90234375 10.6640625 C13.98452621 10.67418365 13.06670868 10.68430481 12.12107849 10.69473267 C7.67780975 10.6134136 5.58401015 10.41737868 1.88110352 7.77099609 C0 5 0 5 0 0 Z " fill="#000000" transform="translate(220,265)"/>
<path d="M0 0 C18.15 0 36.3 0 55 0 C55 5 55 5 52.62719727 7.77099609 C48.3974898 10.92650317 44.06846378 10.72046663 38.96484375 10.6640625 C38.00856583 10.66884613 37.0522879 10.67362976 36.06703186 10.67855835 C34.05240222 10.68195017 32.037717 10.67279814 30.02319336 10.65185547 C26.94324998 10.62505004 23.86694091 10.65164274 20.78710938 10.68359375 C18.82551281 10.6802901 16.8639185 10.6738848 14.90234375 10.6640625 C13.98452621 10.67418365 13.06670868 10.68430481 12.12107849 10.69473267 C7.67780975 10.6134136 5.58401015 10.41737868 1.88110352 7.77099609 C0 5 0 5 0 0 Z " fill="#000000" transform="translate(45,265)"/>
</svg>
