<?xml version="1.0" encoding="UTF-8"?>
<svg version="1.1" xmlns="http://www.w3.org/2000/svg" width="320" height="320">
<path d="M0 0 C0.82053405 -0.00367669 1.6410681 -0.00735338 2.48646683 -0.01114148 C5.23992119 -0.02216705 7.99333779 -0.02602028 10.74681091 -0.02983093 C12.71967692 -0.03609653 14.69254174 -0.04274341 16.66540527 -0.04974365 C23.14883097 -0.07077827 29.63225687 -0.08114674 36.1157074 -0.09111023 C38.34922231 -0.09515827 40.5827371 -0.0992752 42.81625175 -0.10346031 C53.31183792 -0.1225121 63.80741706 -0.13674214 74.3030172 -0.14507228 C86.4088282 -0.15483951 98.5144561 -0.18114576 110.6202026 -0.22157317 C119.98258732 -0.25176331 129.34491966 -0.26654399 138.7073521 -0.26985329 C144.29630243 -0.27220082 149.88505715 -0.28112246 155.47395515 -0.30631447 C160.73613138 -0.32965022 165.99798397 -0.33380621 171.26019859 -0.32355309 C173.1858236 -0.32305893 175.11146484 -0.32934383 177.03704071 -0.34310913 C191.91907823 -0.44349596 204.23801338 1.16694524 215.6391449 11.73701477 C225.61235917 22.52229738 227.22467028 34.98094656 227.21482849 49.06782532 C227.22082184 50.46661739 227.22762923 51.86540617 227.23518372 53.26419067 C227.25277185 57.04547884 227.25753613 60.82667635 227.25881529 64.60800147 C227.26024187 66.97674281 227.2645211 69.34546148 227.26980972 71.71419716 C227.28828834 79.99615046 227.29648332 88.27803959 227.29490662 96.56001282 C227.29370677 104.25012661 227.31478376 111.93995905 227.34639394 119.63000172 C227.37264947 126.25622699 227.38327 132.88236091 227.3819958 139.50863773 C227.38148875 143.45552247 227.38702755 147.40215709 227.4083519 151.34898949 C227.42789087 155.06658522 227.42775358 158.78369629 227.41331863 162.50131035 C227.41027136 164.49428059 227.42679789 166.48725171 227.44419861 168.48014832 C227.35673039 181.17915736 224.52517435 192.51147875 215.92430115 202.14717102 C207.17070594 210.46868749 197.80467426 214.29721659 185.84860229 214.29434204 C185.02806824 214.29801873 184.20753419 214.30169542 183.36213547 214.30548352 C180.60868111 214.31650909 177.8552645 214.32036232 175.10179138 214.32417297 C173.12892538 214.33043857 171.15606055 214.33708545 169.18319702 214.34408569 C162.69977133 214.36512031 156.21634542 214.37548878 149.7328949 214.38545227 C147.49937999 214.38950031 145.2658652 214.39361724 143.03235054 214.39780235 C132.53676437 214.41685415 122.04118523 214.43108418 111.5455851 214.43941432 C99.4397741 214.44918155 87.3341462 214.4754878 75.22839969 214.51591522 C65.86601497 214.54610535 56.50368264 214.56088603 47.14125019 214.56419533 C41.55229987 214.56654286 35.96354515 214.5754645 30.37464714 214.60065651 C25.11247092 214.62399226 19.85061832 214.62814825 14.5884037 214.61789513 C12.66277869 214.61740097 10.73713746 214.62368587 8.81156158 214.63745117 C-6.07047594 214.737838 -18.38941109 213.1273968 -29.7905426 202.55732727 C-39.76375688 191.77204466 -41.37606798 179.31339548 -41.3662262 165.22651672 C-41.37221955 163.82772466 -41.37902694 162.42893588 -41.38658142 161.03015137 C-41.40416955 157.2488632 -41.40893383 153.4676657 -41.41021299 149.68634057 C-41.41163958 147.31759923 -41.4159188 144.94888056 -41.42120743 142.58014488 C-41.43968605 134.29819158 -41.44788103 126.01630245 -41.44630432 117.73432922 C-41.44510447 110.04421543 -41.46618146 102.35438299 -41.49779165 94.66434032 C-41.52404718 88.03811505 -41.5346677 81.41198113 -41.5333935 74.78570431 C-41.53288646 70.83881957 -41.53842526 66.89218495 -41.5597496 62.94535255 C-41.57928858 59.22775682 -41.57915129 55.51064575 -41.56471634 51.79303169 C-41.56166907 49.80006145 -41.5781956 47.80709033 -41.59559631 45.81419373 C-41.5081281 33.11518468 -38.67657206 21.78286329 -30.07569885 12.14717102 C-21.32210364 3.82565455 -11.95607196 -0.00287455 0 0 Z M-5.07569885 28.14717102 C-5.07569885 28.80717102 -5.07569885 29.46717102 -5.07569885 30.14717102 C-2.77945484 32.02202983 -0.47175207 33.7824388 1.92430115 35.52217102 C3.40751705 36.61572711 4.8905861 37.70948241 6.3735199 38.80342102 C7.13455017 39.36158508 7.89558044 39.91974915 8.67967224 40.49482727 C12.05210939 42.97738705 15.39287162 45.50143416 18.73680115 48.02217102 C24.49991407 52.35319472 30.29941006 56.63259282 36.11180115 60.89717102 C43.04730008 65.98651972 49.90673503 71.16733404 56.73680115 76.39717102 C65.72501073 83.26700423 65.72501073 83.26700423 74.79930115 90.02217102 C76.34230896 91.16299133 76.34230896 91.16299133 77.91648865 92.32685852 C82.61807015 95.17223122 87.37961849 96.43230572 92.86180115 96.45967102 C93.63394958 96.47642883 94.40609802 96.49318665 95.2016449 96.51045227 C101.69388446 95.64419936 106.87407359 92.81660348 112.11180115 88.95967102 C112.69220154 88.53532776 113.27260193 88.1109845 113.87059021 87.67378235 C120.27867163 82.95695191 126.57819925 78.09141335 132.89280701 73.25068665 C138.58891825 68.89306181 144.34166678 64.63250357 150.17430115 60.45967102 C158.24537926 54.6842909 166.12867672 48.6865838 173.9907074 42.63105774 C176.91287327 40.38851681 179.85286386 38.17018463 182.79930115 35.95967102 C183.72484802 35.26486633 184.6503949 34.57006165 185.60398865 33.85420227 C187.34505475 32.57331694 189.12584442 31.34614217 190.92430115 30.14717102 C190.92430115 29.48717102 190.92430115 28.82717102 190.92430115 28.14717102 C187.10262479 26.91449042 183.30276635 27.00783871 179.33299255 27.02018738 C178.56468927 27.01862739 177.79638599 27.0170674 177.0048008 27.01546013 C174.42846895 27.01146918 171.85219595 27.01463243 169.27586365 27.01777649 C167.42957016 27.01642161 165.58327695 27.01464118 163.73698425 27.01246643 C158.72057687 27.00790247 153.70419003 27.00967741 148.68778229 27.01284552 C143.44191431 27.01537445 138.1960481 27.01303008 132.95018005 27.01145935 C124.14011824 27.00963922 115.33006481 27.01203987 106.52000427 27.01679993 C96.32940563 27.02224224 86.13882699 27.02047948 75.94822884 27.01497352 C67.20420727 27.01043795 58.46019172 27.00979403 49.71616936 27.01241219 C44.49137418 27.01397251 39.2665884 27.01417541 34.04179382 27.0108757 C29.13019625 27.00799056 24.21862451 27.00998459 19.30702972 27.01576996 C17.50264275 27.01709409 15.69825361 27.0167093 13.89386749 27.01450729 C11.43441872 27.01178223 8.97505318 27.01519364 6.51560974 27.02018738 C5.79849131 27.01795666 5.08137287 27.01572593 4.34252357 27.01342762 C1.05789982 27.02639821 -1.93445849 27.13396485 -5.07569885 28.14717102 Z M-13.07569885 59.14717102 C-13.1692001 74.55915477 -13.23970639 89.97111726 -13.28294754 105.38331795 C-13.30356016 112.53972488 -13.3316556 119.69595543 -13.37745667 126.85224915 C-13.41736461 133.09074011 -13.44314113 139.32910332 -13.45205283 145.56771839 C-13.45726103 148.87015293 -13.47158144 152.17213744 -13.49861908 155.47447586 C-13.52762673 159.16393515 -13.53165577 162.8526357 -13.52980042 166.54219055 C-13.54418152 167.63335678 -13.55856262 168.72452301 -13.57337952 169.84875488 C-13.54156742 175.68933256 -13.42874163 179.81073634 -9.07569885 184.14717102 C-3.61041004 186.58685521 0.9662999 187.58529231 6.9697113 187.52812195 C7.73861002 187.53280192 8.50750874 187.53748189 9.29970741 187.54230368 C11.85443939 187.554189 14.40862849 187.54482211 16.96336365 187.53535461 C18.80375988 187.5394232 20.64415366 187.54476668 22.48454285 187.55128479 C27.46797964 187.56493007 32.45122955 187.55967124 37.43466949 187.55014753 C42.65729261 187.5425365 47.87990004 187.54960056 53.1025238 187.55430603 C61.87192143 187.55975937 70.64124318 187.55258301 79.41062927 187.5382843 C89.53993879 187.52195862 99.66906714 187.52724743 109.79837227 187.54376352 C118.50518402 187.55739037 127.21194133 187.55929217 135.9187603 187.55144751 C141.11458683 187.5467776 146.31032828 187.5461274 151.50614929 187.55605698 C156.39162399 187.56474179 161.27686576 187.558677 166.16231537 187.54137421 C167.95212162 187.53741746 169.74194757 187.53852946 171.53174591 187.5451622 C173.98105627 187.55340011 176.42962731 187.54302961 178.87889099 187.52812195 C179.58162958 187.53481411 180.28436817 187.54150628 181.00840187 187.54840124 C187.26012642 187.47495068 192.87402039 186.18962937 197.3959198 181.6849823 C199.59415231 176.59663718 199.45072045 172.029299 199.37840271 166.54219055 C199.37898682 165.3806395 199.37957092 164.21908844 199.38017273 163.02233887 C199.37739082 159.19124751 199.3462918 155.36093861 199.31492615 151.52998352 C199.30746414 148.87053612 199.30157423 146.21113179 199.29777527 143.55168152 C199.28536238 137.27249603 199.252564 130.99359043 199.21237731 124.71452796 C199.16760675 117.56341577 199.14565934 110.41228994 199.12559557 103.2610724 C199.08382961 88.55629573 199.01351065 73.85173826 198.92430115 59.14717102 C196.00289714 60.5730647 193.45035265 62.11729932 190.8344574 64.05342102 C189.66862122 64.91374939 189.66862122 64.91374939 188.47923279 65.79145813 C187.65673035 66.40384338 186.83422791 67.01622864 185.98680115 67.64717102 C185.13142761 68.28082581 184.27605408 68.91448059 183.39476013 69.56733704 C177.68352963 73.80872212 172.02928742 78.1157748 166.4047699 82.47138977 C159.50377064 87.79700526 152.50387517 92.99303093 145.51609802 98.20381165 C142.96921355 100.11349518 140.43780885 102.04218831 137.90867615 103.97529602 C120.49566275 117.19210986 105.33116412 125.16545235 82.92430115 123.14717102 C72.36518322 121.49537221 64.13547834 116.07939369 55.8993988 109.66719055 C52.91934886 107.37376769 49.8745911 105.17087106 46.83665466 102.95503235 C39.52524691 97.6141056 32.30310971 92.16945277 25.14305115 86.62763977 C15.55076083 79.21568659 5.79887673 72.01466286 -4.01319885 64.89717102 C-4.80105774 64.32377991 -5.58891663 63.75038879 -6.40065002 63.15962219 C-7.12743958 62.63473206 -7.85422913 62.10984192 -8.6030426 61.56904602 C-9.25007141 61.10079407 -9.89710022 60.63254211 -10.56373596 60.15010071 C-11.91219423 59.05504211 -11.91219423 59.05504211 -13.07569885 59.14717102 Z " fill="#878787" transform="translate(67.07569885253906,52.85282897949219)"/>
</svg>
