<?xml version="1.0" encoding="UTF-8"?>
<svg version="1.1" xmlns="http://www.w3.org/2000/svg" width="98" height="92">
<path d="M0 0 C32.34 0 64.68 0 98 0 C98 30.36 98 60.72 98 92 C65.66 92 33.32 92 0 92 C0 61.64 0 31.28 0 0 Z " fill="#FCFCFD" transform="translate(0,0)"/>
<path d="M0 0 C3 2.125 3 2.125 5 4.125 C5 5.445 5 6.765 5 8.125 C0.13391073 12.21693871 0.13391073 12.21693871 -3.3125 11.9375 C-5 11.125 -5 11.125 -6 10.125 C-11.87646031 9.66168563 -11.87646031 9.66168563 -17 12.125 C-17.5 15.125 -17.5 15.125 -17 18.125 C-13.25418982 20.62220679 -10.33638643 20.69408463 -6 20.125 C-2.32865141 18.96247751 1.08737077 17.26957783 4.55664062 15.61328125 C10.64878563 12.87209571 16.17802864 11.9627631 22.671875 13.9375 C28.03280259 17.00088719 32.01383928 20.10894795 34 26.125 C34.84834069 32.93643444 35.02097175 38.36089422 31 44.125 C28.03181094 42.74691222 25.40170863 41.36524922 23 39.125 C22.75 36.78515625 22.75 36.78515625 23 34.1875 C23.18871143 30.11774697 23.18871143 30.11774697 21.375 26.5 C18.37817286 24.76499481 16.40932922 24.74618564 13 25.125 C11.63840869 26.29774837 11.63840869 26.29774837 11.375 29.5 C11.41528835 35.13029693 15.04412204 38.33841424 18.6015625 42.3671875 C24.64655296 49.317942 28.43267665 54.96324509 28.34765625 64.23046875 C27.6582166 69.97063486 24.5840947 73.62011004 20.5 77.5 C15.05326052 81.04038066 10.41992725 81.69536544 4 81.125 C3.67 80.795 3.34 80.465 3 80.125 C3.70588235 72.71323529 3.70588235 72.71323529 5 70.125 C7.27399754 69.52423744 9.55130576 69.1686846 11.87109375 68.78515625 C14.36790025 68.25611321 14.36790025 68.25611321 16 65.125 C16.24055468 63.06790404 16.24055468 63.06790404 16.125 60.9375 C16.08375 59.679375 16.0425 58.42125 16 57.125 C12.71000718 56.70668596 12.71000718 56.70668596 9 57.125 C4.90728933 60.5885618 2.33596632 64.52985657 -0.375 69.0625 C-4.17013797 75.18802772 -7.82455759 80.73318586 -15 83.125 C-20.51156333 83.61014482 -25.37671062 83.89237316 -30.4375 81.5 C-35.22725236 77.06071732 -39.86283165 72.69137706 -40.125 65.875 C-40.08375 64.9675 -40.0425 64.06 -40 63.125 C-36.55408093 62.64324044 -33.42146852 62.40469084 -30 63.125 C-28.39368221 65.08350511 -27.46454439 67.06964198 -26.35546875 69.33984375 C-25.12738915 71.34373581 -25.12738915 71.34373581 -22.73828125 71.69140625 C-18.53233654 71.90117891 -18.53233654 71.90117891 -15 70.125 C-14.58219121 67.75194422 -14.58219121 67.75194422 -15 65.125 C-18.84761223 60.13735452 -23.77113057 59.11131241 -29.72387695 57.83227539 C-37.98658807 56.02326804 -44.46349847 53.9286789 -49.66796875 46.859375 C-52.23627807 41.58718577 -51.68958585 35.8350286 -51 30.125 C-49.37940762 25.71005286 -47.11725208 22.99700162 -43.4375 20.125 C-41 19.125 -41 19.125 -37 19.125 C-35.41350024 22.59546822 -34.33259786 25.31127347 -35 29.125 C-35.825 29.929375 -36.65 30.73375 -37.5 31.5625 C-40.28453084 33.91053479 -40.28453084 33.91053479 -40.4375 37.25 C-40.17844932 40.31580542 -40.17844932 40.31580542 -38 43.125 C-34.56206661 42.94370185 -34.56206661 42.94370185 -31 42.125 C-28.57859997 38.85296843 -28.81777004 35.77412884 -28.9453125 31.8203125 C-28.96980469 30.59699219 -28.99429687 29.37367187 -29.01953125 28.11328125 C-29.08963679 25.54534145 -29.16771514 22.97760648 -29.25390625 20.41015625 C-29.46091004 8.83012045 -29.46091004 8.83012045 -25 4.125 C-18.38250175 -2.14420887 -8.27206898 -4.62821396 0 0 Z " fill="#5A3C98" transform="translate(58,6.875)"/>
<path d="M0 0 C0.14695312 0.96099609 0.14695312 0.96099609 0.296875 1.94140625 C1.30703809 7.78467725 2.75974825 12.03161399 6 17 C5.48050781 17.29132812 4.96101563 17.58265625 4.42578125 17.8828125 C-0.44488081 20.74578946 -3.51189295 23.5885705 -7 28 C-7.66 28 -8.32 28 -9 28 C-9.7734375 27.13375 -9.7734375 27.13375 -10.5625 26.25 C-13.93944068 23.13282398 -17.77201072 21.69842305 -22 20 C-21.86722656 19.45472656 -21.73445313 18.90945312 -21.59765625 18.34765625 C-20.32210753 12.90097013 -19.53036157 7.56879648 -19 2 C-18.01257812 1.93941406 -17.02515625 1.87882812 -16.0078125 1.81640625 C-14.72648437 1.73261719 -13.44515625 1.64882813 -12.125 1.5625 C-10.84882812 1.48128906 -9.57265625 1.40007813 -8.2578125 1.31640625 C-5.09392461 1.00912217 -3.1589095 0 0 0 Z " fill="#F9F9FB" transform="translate(59,36)"/>
</svg>
