<?xml version="1.0" encoding="UTF-8"?>
<svg version="1.1" xmlns="http://www.w3.org/2000/svg" width="320" height="320">
<path d="M0 0 C1.06321626 -0.00644889 2.12643251 -0.01289778 3.22186744 -0.0195421 C4.38897164 -0.01644489 5.55607584 -0.01334769 6.75854683 -0.01015663 C8.61942316 -0.0169533 8.61942316 -0.0169533 10.51789296 -0.02388728 C13.96341937 -0.03437177 17.40873736 -0.0358547 20.85426497 -0.03349853 C24.56942416 -0.03309082 28.28455207 -0.04412506 31.99969673 -0.05361366 C39.27902908 -0.07023443 46.55832904 -0.07572369 53.83767878 -0.07683842 C59.75382248 -0.07778835 65.66995549 -0.0818959 71.58609581 -0.08823967 C88.3546833 -0.10585475 105.12324518 -0.11507808 121.89184199 -0.11357872 C122.79605069 -0.11349881 123.7002594 -0.1134189 124.63186836 -0.11333656 C125.53717938 -0.1132548 126.44249041 -0.11317304 127.3752351 -0.1130888 C142.04998655 -0.11227575 156.72463541 -0.13141757 171.39935718 -0.1596133 C186.46258542 -0.18832743 201.52576359 -0.20215441 216.58901989 -0.20042574 C225.04779335 -0.19976135 233.50645923 -0.20527528 241.96520805 -0.22678185 C249.1667028 -0.24497429 256.3680412 -0.24935697 263.56954895 -0.235763 C267.24426306 -0.22922356 270.91867707 -0.22915089 274.59336281 -0.2464695 C278.5761355 -0.26504716 282.55846778 -0.25267109 286.54126167 -0.23720741 C288.2852258 -0.2526381 288.2852258 -0.2526381 290.06442153 -0.26838052 C296.25838643 -0.21505979 300.12072339 0.00290484 304.77688789 4.25726891 C307.21037178 7.90749474 307.0368421 9.64852872 307.05777168 14.00028038 C307.06371393 14.68943617 307.06965617 15.37859197 307.07577848 16.08863127 C307.09315367 18.40319353 307.09616893 20.71754891 307.09915352 23.03217125 C307.10840973 24.68950913 307.11845904 26.34684274 307.12924385 28.00417137 C307.15549541 32.51038244 307.1683821 37.01653391 307.17726517 41.52280951 C307.18312539 44.33720358 307.19133471 47.15158132 307.20027351 49.96596718 C307.22762286 58.7689689 307.24695706 67.57193335 307.2546773 76.37497461 C307.26364239 86.54193937 307.29875549 96.70836685 307.35667849 106.8751682 C307.39988354 114.73087939 307.42008425 122.58643925 307.42275953 130.44226801 C307.4248575 135.13578982 307.43671093 139.82880656 307.47239876 144.52220345 C307.5053127 148.93666025 307.50969611 153.35023105 307.49212074 157.76476669 C307.4905774 159.38492579 307.49930023 161.00513205 307.51903725 162.62517166 C307.54441464 164.83793645 307.53276983 167.04754798 307.51187325 169.26029015 C307.51480637 170.49804884 307.51773949 171.73580753 307.52076149 173.01107407 C306.46677742 177.61056202 304.64503478 178.64056459 300.77688789 181.25726891 C297.78877772 182.25330563 295.8278136 182.3844374 292.70805836 182.38869667 C291.65379994 182.39253782 290.59954152 182.39637896 289.51333588 182.4003365 C288.35110074 182.39947002 287.1888656 182.39860354 285.99141121 182.3977108 C284.75984852 182.40068192 283.52828582 182.40365304 282.25940305 182.4067142 C278.83447411 182.41390287 275.40959531 182.41657417 271.98466241 182.41731167 C268.29335363 182.41916098 264.60205574 182.42670768 260.91075325 182.43344688 C252.83640688 182.44703564 244.76206547 182.45305572 236.68770957 182.45745754 C231.64744572 182.46021896 226.60718379 182.46445612 221.56692123 182.46896172 C207.6158272 182.48115492 193.6647347 182.49145424 179.71363544 182.49483681 C178.82053158 182.49505637 177.92742772 182.49527594 177.0072601 182.49550216 C175.66437425 182.49582958 175.66437425 182.49582958 174.29435939 182.49616361 C172.48018595 182.49660707 170.6660125 182.49705364 168.85183907 182.49750328 C167.95194377 182.49772471 167.05204848 182.49794614 166.12488363 182.49817428 C151.54062098 182.502123 136.95640828 182.51957904 122.37216493 182.5428628 C107.40389473 182.56656708 92.4356496 182.57903823 77.46736032 182.58020473 C69.06112627 182.58112199 60.65495729 182.58688723 52.24874115 182.60502434 C45.09116338 182.62041284 37.93367079 182.62555319 30.77607962 182.61728624 C27.12369566 182.61337531 23.47148332 182.61433071 19.81912041 182.62834358 C15.86044436 182.64339289 11.90201078 182.63522906 7.94331551 182.62476158 C6.78777253 182.63281799 5.63222955 182.64087439 4.44167012 182.64917493 C-1.17365358 182.61433381 -5.43414236 182.54159903 -10.22311211 179.25726891 C-10.83386621 178.83946852 -11.4446203 178.42166813 -12.0738821 177.99120712 C-13.89584527 175.24226082 -13.60438249 172.77727334 -13.61079216 169.51425743 C-13.6161777 168.82510164 -13.62156324 168.13594584 -13.62711197 167.42590654 C-13.64144639 165.11121281 -13.63427462 162.79708655 -13.62716484 160.48236656 C-13.63286563 158.82502849 -13.63982876 157.16769435 -13.64796257 155.51036644 C-13.66594308 151.00409737 -13.66471624 146.49802251 -13.65902019 141.99172831 C-13.65593485 138.23173309 -13.66201359 134.47177554 -13.66805893 130.71178567 C-13.68211911 121.84149838 -13.68053097 112.97130735 -13.66915703 104.10101891 C-13.65767874 94.94702524 -13.67174318 85.79332464 -13.6985535 76.63936961 C-13.72070094 68.78364865 -13.72734991 60.92801976 -13.72147709 53.0722698 C-13.71810347 48.37888665 -13.72054916 43.6856913 -13.73772812 38.99233437 C-13.75317959 34.57799608 -13.74926186 30.16409213 -13.73042297 25.74977112 C-13.72673184 24.12963698 -13.72986085 22.5094708 -13.74030876 20.88936615 C-13.75348567 18.67715761 -13.74200255 16.46639392 -13.72431755 14.25424767 C-13.72410827 13.01648897 -13.72389898 11.77873028 -13.72368336 10.50346375 C-13.12273539 6.60632787 -12.009884 5.00512097 -9.22311211 2.25726891 C-6.07356914 0.30963889 -3.67627231 0.00563761 0 0 Z M7.77688789 22.25726891 C7.77688789 30.50726891 7.77688789 38.75726891 7.77688789 47.25726891 C18.46923691 45.72979047 23.39926849 41.69620131 29.77688789 33.25726891 C31.98915862 29.67549725 33.77688789 26.56362382 33.77688789 22.25726891 C25.19688789 22.25726891 16.61688789 22.25726891 7.77688789 22.25726891 Z M55.77688789 22.25726891 C54.45688789 26.54726891 53.13688789 30.83726891 51.77688789 35.25726891 C45.60543983 49.04323995 35.32758122 59.66083496 21.77688789 66.25726891 C18.29597166 67.52708352 14.84040492 68.61113937 11.26126289 69.56586266 C8.85372867 70.01655024 8.85372867 70.01655024 7.77688789 71.25726891 C7.6882049 74.21432211 7.66168493 77.14791947 7.67923164 80.10492516 C7.68064659 80.99135201 7.68206154 81.87777885 7.68351936 82.79106712 C7.68913574 85.63400145 7.70169098 88.47685822 7.71438789 91.31976891 C7.71940079 93.24229381 7.72396406 95.16481995 7.72805977 97.08734703 C7.73911049 101.8106844 7.75638607 106.53396348 7.77688789 111.25726891 C8.60139946 111.56545807 8.60139946 111.56545807 9.44256783 111.87987328 C10.16342567 112.14967506 10.88428352 112.41947685 11.62698555 112.69745445 C12.34165993 112.96478889 13.0563343 113.23212334 13.79266548 113.50755882 C29.21249392 119.33372064 41.41818785 127.73631554 49.77688789 142.25726891 C52.4422414 148.16650226 54.50476936 153.89667625 55.77688789 160.25726891 C115.50688789 160.25726891 175.23688789 160.25726891 236.77688789 160.25726891 C237.76688789 157.28726891 238.75688789 154.31726891 239.77688789 151.25726891 C245.60948396 136.76513607 255.37981541 124.07399404 269.77688789 117.25726891 C273.72267308 115.72140631 277.73141084 114.42190235 281.78470039 113.20258141 C284.63182832 112.55607578 284.63182832 112.55607578 285.77688789 111.25726891 C285.86557088 108.3002157 285.89209085 105.36661834 285.87454414 102.40961266 C285.8731292 101.52318581 285.87171425 100.63675896 285.87025642 99.72347069 C285.86464005 96.88053636 285.85208481 94.03767959 285.83938789 91.19476891 C285.834375 89.272244 285.82981173 87.34971786 285.82571602 85.42719078 C285.8146653 80.70385341 285.79738972 75.98057433 285.77688789 71.25726891 C284.49751569 70.77529388 283.21793431 70.29387407 281.93826485 69.81268883 C281.22572044 69.54453865 280.51317604 69.27638847 279.77903938 69.00011253 C278.25858315 68.43598877 276.7286652 67.89728925 275.19485664 67.37055016 C258.14192807 61.24822028 248.07096693 48.26434755 240.59549141 32.47553062 C239.37223828 29.16074448 238.63383718 25.68506605 237.77688789 22.25726891 C177.71688789 22.25726891 117.65688789 22.25726891 55.77688789 22.25726891 Z M259.77688789 22.25726891 C262.13776435 31.70077475 266.86554052 39.4969799 275.33938789 44.75726891 C279.23823555 46.64020734 279.23823555 46.64020734 285.77688789 47.25726891 C285.77688789 39.00726891 285.77688789 30.75726891 285.77688789 22.25726891 C277.19688789 22.25726891 268.61688789 22.25726891 259.77688789 22.25726891 Z M7.77688789 135.25726891 C7.77688789 143.50726891 7.77688789 151.75726891 7.77688789 160.25726891 C16.35688789 160.25726891 24.93688789 160.25726891 33.77688789 160.25726891 C30.20827304 149.55142435 25.41811151 141.25981461 15.15188789 135.88226891 C12.3803025 135.04519116 12.3803025 135.04519116 7.77688789 135.25726891 Z M267.86282539 143.89789391 C263.90126267 148.37876261 259.77688789 154.12341473 259.77688789 160.25726891 C268.35688789 160.25726891 276.93688789 160.25726891 285.77688789 160.25726891 C285.77688789 151.67726891 285.77688789 143.09726891 285.77688789 134.25726891 C278.9501504 134.25726891 272.59589726 139.48036016 267.86282539 143.89789391 Z " fill="#000000" transform="translate(13.223112106323242,68.74273109436035)"/>
<path d="M0 0 C13.10279109 10.02543832 23.19060986 23.38143304 26 40 C27.57026841 57.85829809 25.19848041 74.18082046 13.9296875 88.66015625 C6.55403139 97.17942454 -1.57348148 103.64764594 -12 108 C-12.76054687 108.32097656 -13.52109375 108.64195312 -14.3046875 108.97265625 C-27.81672425 113.61337175 -44.98043592 112.60899908 -58 107 C-59.27810547 106.50886719 -59.27810547 106.50886719 -60.58203125 106.0078125 C-74.84636987 99.85280655 -84.40698003 87.01924768 -90.703125 73.34375 C-96.26191354 59.01145183 -96.04467911 41.8204194 -90.5390625 27.48046875 C-84.08271708 12.87995156 -72.78945392 0.73889814 -57.8125 -5.28125 C-38.68287515 -11.84533696 -17.35008355 -11.07356754 0 0 Z M-66.4609375 27.84765625 C-73.18411467 37.24986595 -73.98491161 47.80282056 -73 59 C-70.8037787 69.76942251 -64.2234248 78.13422662 -55.42578125 84.4921875 C-45.44984101 90.69301348 -34.2279757 91.72308289 -22.84765625 89.33984375 C-10.77247634 85.42768869 -2.793184 76.83039603 3.1640625 65.85546875 C6.66764321 57.29297944 6.26724438 45.73469076 3.4375 37.0625 C-1.14611845 26.31359195 -9.19301782 18.26332998 -19.88671875 13.76171875 C-37.46037914 7.42740493 -54.83554292 14.01927594 -66.4609375 27.84765625 Z " fill="#000000" transform="translate(194,109)"/>
<path d="M0 0 C2.04972541 1.16133179 4.09234276 2.3352699 6.12890625 3.51953125 C7.76424316 4.45369873 7.76424316 4.45369873 9.43261719 5.40673828 C12.85947585 7.36951914 16.27613207 9.34917328 19.69140625 11.33203125 C21.86454663 12.58600111 24.03772281 13.83990893 26.2109375 15.09375 C31.20034482 17.98072697 36.17325122 20.8945092 41.13623047 23.82666016 C43.41015697 25.16633441 45.69185766 26.49133743 47.9765625 27.8125 C49.15289572 28.50557443 50.32873445 29.19948934 51.50390625 29.89453125 C52.93669922 30.73177734 52.93669922 30.73177734 54.3984375 31.5859375 C57.04197616 33.59898993 58.29709549 35.32569343 59.69140625 38.33203125 C59.69140625 43.16046839 59.36450532 45.32238265 56.69140625 49.33203125 C52.65305642 52.02426447 49.34963257 52.14911304 44.69140625 51.33203125 C40.46407585 49.5824353 36.61238182 47.30335892 32.69140625 44.95703125 C31.5943335 44.321604 30.49726074 43.68617676 29.36694336 43.03149414 C26.12989684 41.15105513 22.90896675 39.24557646 19.69140625 37.33203125 C18.00563117 36.33782436 16.3194762 35.3442611 14.6328125 34.3515625 C12.48881541 33.08850437 10.34573494 31.82417058 8.20727539 30.55175781 C3.15633511 27.55757512 -1.98565213 24.81694257 -7.30859375 22.33203125 C-7.58928711 23.06486328 -7.86998047 23.79769531 -8.15917969 24.55273438 C-9.93616027 28.84949457 -12.25516057 32.79947934 -14.55859375 36.83203125 C-15.25662109 38.09466797 -15.25662109 38.09466797 -15.96875 39.3828125 C-19.04328652 44.76113396 -22.15662243 50.12322947 -28.46875 51.9609375 C-33.35416843 51.79039928 -35.91186373 50.83169249 -39.30859375 47.33203125 C-40.92838837 44.09244201 -40.77469738 40.84169896 -40.30859375 37.33203125 C-39.21424108 34.38042209 -37.68206432 31.77231047 -36.05859375 29.08203125 C-35.61547852 28.32204834 -35.17236328 27.56206543 -34.71582031 26.77905273 C-33.76200422 25.14958934 -32.80048124 23.52461725 -31.83203125 21.90380859 C-30.24716034 19.22832299 -28.7130659 16.52780161 -27.18359375 13.8203125 C-26.14330811 12.01092404 -25.10167073 10.20231199 -24.05859375 8.39453125 C-23.57616211 7.53633789 -23.09373047 6.67814453 -22.59667969 5.79394531 C-16.69817714 -4.22504227 -10.25138154 -5.4486746 0 0 Z " fill="#000000" transform="translate(80.30859375,8.66796875)"/>
<path d="M0 0 C3.4849301 1.41129035 6.68486374 3.24747863 9.9375 5.125 C10.88246338 5.65544922 11.82742676 6.18589844 12.80102539 6.73242188 C15.87875951 8.46908384 18.94092114 10.23070005 22 12 C23.07378906 12.6197168 24.14757812 13.23943359 25.25390625 13.87792969 C31.36026265 17.40964535 37.44811079 20.97180019 43.52685547 24.55078125 C46.67035466 26.39281592 49.83122118 28.20186125 53 30 C53.21140625 29.21882813 53.4228125 28.43765625 53.640625 27.6328125 C55.48337973 22.70820934 58.06093025 18.3808315 60.75 13.875 C61.26304687 12.98167969 61.77609375 12.08835937 62.3046875 11.16796875 C65.3105127 6.11546358 67.6919456 2.65768793 73 0 C76.5625 -0.5625 76.5625 -0.5625 80 0 C82.875 2.4375 82.875 2.4375 85 5 C85.495 5.495 85.495 5.495 86 6 C87.19544106 14.9148395 83.50626275 20.42546225 78.9375 27.875 C78.28072266 28.98230469 77.62394531 30.08960938 76.94726562 31.23046875 C74.99404933 34.50571421 73.00022203 37.75330603 71 41 C70.37883301 42.04446289 69.75766602 43.08892578 69.11767578 44.16503906 C68.52325684 45.1444043 67.92883789 46.12376953 67.31640625 47.1328125 C66.7963501 48.0005127 66.27629395 48.86821289 65.74047852 49.76220703 C63.73153703 52.34517205 61.9423827 53.5924007 59 55 C51.1015392 55.23590536 45.16656908 51.17189188 38.5 47.3125 C37.3112072 46.63643214 36.12182578 45.96139836 34.93188477 45.28735352 C31.27688059 43.2105273 27.63781213 41.10674725 24 39 C22.86546387 38.34547852 21.73092773 37.69095703 20.56201172 37.01660156 C14.56911501 33.55552943 8.58591238 30.07847285 2.62963867 26.5546875 C0.82122535 25.48552251 -0.9913673 24.42340512 -2.80737305 23.3671875 C-3.70109619 22.84253906 -4.59481934 22.31789063 -5.515625 21.77734375 C-6.71300293 21.07919556 -6.71300293 21.07919556 -7.93457031 20.36694336 C-11.03717172 18.31357867 -12.56200135 16.42380631 -14 13 C-14.31785965 10.06991191 -14.06272684 7.75291473 -13 5 C-8.87166405 0.28190178 -6.14208621 -0.69949833 0 0 Z " fill="#000000" transform="translate(194,260)"/>
</svg>
