<?xml version="1.0" encoding="UTF-8"?>
<svg version="1.1" xmlns="http://www.w3.org/2000/svg" width="320" height="416">
<path d="M0 0 C37.29 0 74.58 0 113 0 C113 49.5 113 99 113 150 C13.01 150 -86.98 150 -190 150 C-190 132.51 -190 115.02 -190 97 C-158.32 97 -126.64 97 -94 97 C-94 81.49 -94 65.98 -94 50 C-62.98 50 -31.96 50 0 50 C0 33.5 0 17 0 0 Z " fill="#013893" transform="translate(204,263)"/>
<path d="M0 0 C6.48744277 5.16074247 10.28192672 10.93393848 11.37109375 19.21875 C11.87403122 32.34806514 6.47896643 40.38607769 -1.41796875 50.40625 C-2.84001222 52.24205702 -4.26188199 54.07799859 -5.68359375 55.9140625 C-6.41126953 56.84766602 -7.13894531 57.78126953 -7.88867188 58.74316406 C-11.51056152 63.40056313 -15.0894031 68.09053596 -18.66796875 72.78125 C-19.30968018 73.61696533 -19.9513916 74.45268066 -20.61254883 75.3137207 C-24.93557707 80.96743195 -29.06697108 86.73361889 -33.10546875 92.59375 C-32.27515137 92.70243408 -31.44483398 92.81111816 -30.58935547 92.9230957 C-26.67698388 93.67623409 -23.07576515 94.91849219 -19.36328125 96.32421875 C-18.6360788 96.59712234 -17.90887634 96.87002594 -17.15963745 97.15119934 C-15.62725486 97.72904439 -14.09603067 98.30996973 -12.56591797 98.89379883 C-10.24929504 99.77409617 -7.92588054 100.634404 -5.6015625 101.49414062 C4.39649058 105.25546584 13.52393088 108.71184532 18.89453125 118.59375 C21.63069884 127.6884829 19.08956758 137.14924484 17.296875 146.19140625 C17.02218092 147.59427383 16.74748712 148.99714147 16.47279358 150.40000916 C15.89684519 153.32704668 15.31295722 156.25238427 14.72485352 159.17700195 C13.97735901 162.90338921 13.26219356 166.63521269 12.55441952 170.36931705 C11.99963294 173.26501109 11.42147014 176.15568836 10.83703804 179.04553032 C10.56338091 180.41879968 10.29821975 181.79379338 10.04218864 183.17045784 C8.47734153 191.52954776 6.74459485 198.11945474 -0.10546875 203.59375 C-4.9346323 206.36208106 -9.65625067 206.23436925 -15.10546875 205.59375 C-20.10777073 203.13807448 -23.6039841 199.5967193 -26.10546875 194.59375 C-26.73069577 186.76065006 -25.56238345 179.43159985 -23.91796875 171.80078125 C-23.6960083 170.72873947 -23.47404785 169.65669769 -23.24536133 168.5521698 C-22.54226041 165.16797145 -21.82414654 161.7871708 -21.10546875 158.40625 C-20.62269706 156.09591204 -20.14091674 153.78536669 -19.66015625 151.47460938 C-18.48670396 145.84520919 -17.30094853 140.21851118 -16.10546875 134.59375 C-17.04185684 134.32349251 -17.04185684 134.32349251 -17.99716187 134.04777527 C-23.60361083 132.40220057 -29.07447446 130.57240527 -34.51953125 128.45703125 C-35.2600473 128.17272751 -36.00056335 127.88842377 -36.76351929 127.59550476 C-39.08716945 126.7025061 -41.4088386 125.80448537 -43.73046875 124.90625 C-45.32278728 124.29328356 -46.91523423 123.68065065 -48.5078125 123.06835938 C-52.37518924 121.58066368 -56.24080035 120.0884664 -60.10546875 118.59375 C-60.09507568 119.84188477 -60.08468262 121.09001953 -60.07397461 122.37597656 C-59.99741609 132.62144464 -60.15916671 142.85301505 -60.48046875 153.09375 C-60.51132568 154.24907227 -60.54218262 155.40439453 -60.57397461 156.59472656 C-60.68916412 159.93498286 -60.87064454 163.25985094 -61.10546875 166.59375 C-61.20649902 168.05361328 -61.20649902 168.05361328 -61.30957031 169.54296875 C-62.30389544 178.13532929 -65.93313298 184.96238257 -69.96905518 192.46484375 C-71.48787166 195.31012647 -72.94347914 198.18569118 -74.3999939 201.06323242 C-75.89090341 204.00619851 -77.39816139 206.94066979 -78.9050293 209.87548828 C-79.66328296 211.35360301 -80.42012098 212.83244481 -81.17553711 214.31201172 C-85.29149235 222.37334949 -89.47362935 230.39408547 -93.859375 238.3125 C-94.21168686 238.95779663 -94.56399872 239.60309326 -94.92698669 240.26794434 C-98.4201955 246.49863863 -101.93116138 251.95350304 -108.9921875 254.1875 C-113.97148315 255.14470286 -117.86083106 254.26393953 -122.35546875 251.84375 C-126.00778614 248.85549031 -129.49143551 245.54364166 -130.484375 240.7734375 C-130.96078043 234.79302892 -129.35770113 230.46811381 -126.59765625 225.25390625 C-126.23997665 224.55925766 -125.88229706 223.86460907 -125.51377869 223.14891052 C-124.76105817 221.68891023 -124.00424897 220.23101135 -123.24356079 218.77514648 C-122.15100759 216.68103492 -121.07215956 214.58055536 -119.9987793 212.4765625 C-118.25201849 209.05379614 -116.49496268 205.6364781 -114.7331543 202.22143555 C-113.67027868 200.1607285 -112.60945925 198.09897237 -111.54882812 196.03710938 C-111.05141349 195.07338189 -111.05141349 195.07338189 -110.54395008 194.09018517 C-109.83717812 192.7170299 -109.1338517 191.3420904 -108.43545818 189.96465492 C-106.65005539 186.46860374 -104.80779636 183.05262583 -102.75007629 179.70870972 C-96.32639623 169.02136061 -94.8455305 160.54642369 -95.11328125 148.22265625 C-95.11525361 146.52212982 -95.11278853 144.82159319 -95.10617065 143.12107849 C-95.098632 138.69704556 -95.14155101 134.27511515 -95.1987915 129.85150146 C-95.28223733 122.75153173 -95.28813028 115.65114159 -95.29183578 108.55076408 C-95.30057064 106.09438196 -95.33187572 103.63912771 -95.36697388 101.18299866 C-95.45818713 91.41554016 -95.30545639 82.00224859 -89.1015625 73.91796875 C-88.53002441 73.15846924 -87.95848633 72.39896973 -87.36962891 71.61645508 C-86.76683105 70.8458374 -86.1640332 70.07521973 -85.54296875 69.28125 C-84.61556885 68.0605481 -84.61556885 68.0605481 -83.66943359 66.81518555 C-81.82810267 64.39745662 -79.96828723 61.99494072 -78.10546875 59.59375 C-77.05601521 58.22233001 -76.00774091 56.8500064 -74.9609375 55.4765625 C-72.69093541 52.50374418 -70.4044313 49.54426184 -68.10546875 46.59375 C-70.12735801 47.3408987 -72.14783381 48.0918709 -74.16796875 48.84375 C-74.844646 49.09463379 -75.52132324 49.34551758 -76.21850586 49.60400391 C-80.75982384 51.3010151 -85.27679454 53.05145944 -89.77955627 54.84851074 C-92.54238274 55.9505156 -95.30866259 57.04372777 -98.07492065 58.13708496 C-99.46442653 58.68920006 -100.85225139 59.24556568 -102.23831177 59.80627441 C-104.22241177 60.60836688 -106.21198655 61.39526044 -108.203125 62.1796875 C-109.36336182 62.6442334 -110.52359863 63.1087793 -111.71899414 63.58740234 C-116.58875751 65.0345341 -120.49731272 65.16133448 -125.29296875 63.46875 C-128.83799328 61.10540031 -130.29974945 59.48299158 -132.10546875 55.59375 C-132.87179673 51.21378924 -133.48314716 46.96503207 -131.16531372 42.97554016 C-126.48359813 36.87442767 -120.52192696 34.76292587 -113.49609375 32.0703125 C-112.2164594 31.56309244 -110.93760838 31.0538924 -109.65948486 30.5428772 C-106.91790701 29.44973872 -104.17236021 28.36750716 -101.42358398 27.29260254 C-97.04133985 25.57483128 -92.67840864 23.81131519 -88.31835938 22.03808594 C-81.48961257 19.26252216 -74.65407759 16.50455735 -67.81244659 13.76090622 C-63.90612806 12.1942627 -60.00098957 10.62482962 -56.09863281 9.04833984 C-52.22918272 7.48515437 -48.3570484 5.92880983 -44.48288727 4.37733841 C-43.03242826 3.79522561 -41.58288914 3.21081453 -40.13436127 2.62391281 C-12.70109288 -8.4831047 -12.70109288 -8.4831047 0 0 Z " fill="#013893" transform="translate(166.10546875,101.40625)"/>
<path d="M0 0 C1.03256226 1.75842285 1.03256226 1.75842285 1.97021484 4.08789062 C2.32886627 4.96340073 2.6875177 5.83891083 3.05703735 6.74095154 C3.4378244 7.70300003 3.81861145 8.66504852 4.2109375 9.65625 C4.61597504 10.65443253 5.02101257 11.65261505 5.43832397 12.68104553 C6.76138058 15.94977641 8.06835625 19.22467768 9.375 22.5 C10.27552791 24.73463202 11.17689775 26.96892493 12.07910156 29.20288086 C14.736551 35.7951168 17.37235133 42.39583609 20 49 C20.3755603 49.94369446 20.75112061 50.88738892 21.13806152 51.85968018 C25.12775653 61.89252954 29.08544601 71.93758878 33 82 C30.00028096 84.45190585 27.12507438 85.91165366 23.5234375 87.3203125 C22.39953613 87.76431396 21.27563477 88.20831543 20.11767578 88.66577148 C19.20843353 89.02020828 19.20843353 89.02020828 18.28082275 89.38180542 C15.63115338 90.4150704 12.9870845 91.46233295 10.34262085 92.50883484 C8.89464801 93.08182165 7.44641857 93.65416039 5.99795532 94.22590637 C-3.31609728 97.90587459 -12.59420153 101.6746581 -21.875 105.4375 C-23.66404074 106.16224447 -25.45310321 106.88693531 -27.2421875 107.61157227 C-43.16628225 114.06249523 -59.08468388 120.52745207 -75 127 C-77.5631139 124.4368861 -78.5350792 121.56820585 -79.84375 118.2578125 C-80.12532455 117.55810837 -80.40689911 116.85840424 -80.69700623 116.13749695 C-81.63595712 113.801823 -82.5679162 111.46342189 -83.5 109.125 C-84.84287438 105.77646784 -86.18914198 102.42930227 -87.53515625 99.08203125 C-88.06587486 97.76004982 -88.06587486 97.76004982 -88.60731506 96.41136169 C-91.37117187 89.53554771 -94.17596878 82.67712583 -96.99609375 75.82421875 C-97.40892609 74.82011963 -97.82175842 73.81602051 -98.24710083 72.78149414 C-99.88329037 68.80259788 -101.5197958 64.82384631 -103.16210938 60.84747314 C-104.3077661 58.07274816 -105.44919581 55.29631822 -106.58984375 52.51953125 C-106.93599228 51.68475754 -107.28214081 50.84998383 -107.63877869 49.98991394 C-110 44.2273194 -110 44.2273194 -110 42 C-98.96693951 37.54093599 -87.93371386 33.08229054 -76.89599609 28.63476562 C-76.24970057 28.37433472 -75.60340504 28.11390381 -74.9375248 27.84558105 C-72.28930045 26.77847494 -69.64107073 25.71138225 -66.99275589 24.64450073 C-58.58186315 21.2558938 -50.17569949 17.85600269 -41.77529907 14.44146729 C-37.1561927 12.56553608 -32.53409352 10.69706357 -27.91131592 8.8302002 C-25.72151486 7.94383569 -23.53307247 7.05410706 -21.3460083 6.16101074 C-18.30961414 4.92159745 -15.26876204 3.69383006 -12.2265625 2.46875 C-11.32921387 2.09909119 -10.43186523 1.72943237 -9.50732422 1.34857178 C-8.68844727 1.02149231 -7.86957031 0.69441284 -7.02587891 0.35742188 C-6.31621979 0.06927612 -5.60656067 -0.21886963 -4.87539673 -0.51574707 C-3 -1 -3 -1 0 0 Z " fill="#013893" transform="translate(113,4)"/>
<path d="M0 0 C6.09685756 5.55790883 9.34761099 11.30843088 10.2109375 19.5546875 C10.5200217 30.24900067 8.36715294 36.51161159 1.06640625 44.32421875 C-5.59358543 50.3442824 -12.995383 51.6846007 -21.70703125 51.578125 C-30.19855978 50.90927173 -35.83287514 47.46520734 -41.5078125 41.2421875 C-46.75573052 34.98262263 -48.63327135 27.84477798 -47.94140625 19.68359375 C-46.58407562 10.92264152 -43.27581282 4.41308886 -36.27734375 -1.16796875 C-24.93487377 -8.89530886 -10.74372699 -8.53584181 0 0 Z " fill="#013894" transform="translate(214.12890625,55.69140625)"/>
</svg>
