<?xml version="1.0" encoding="UTF-8"?>
<svg version="1.1" xmlns="http://www.w3.org/2000/svg" width="320" height="320">
<path d="M0 0 C0.92236513 -0.00583219 1.84473026 -0.01166439 2.79504585 -0.01767331 C4.32507649 -0.01200433 4.32507649 -0.01200433 5.88601685 -0.00622082 C6.96437239 -0.01004636 8.04272793 -0.01387191 9.15376091 -0.01781338 C12.79128679 -0.02818723 16.42865611 -0.02414294 20.06619263 -0.02018261 C22.66419624 -0.02452663 25.26219857 -0.02970873 27.86019897 -0.03567028 C34.1986566 -0.04844339 40.53707192 -0.05020776 46.87554026 -0.04787002 C52.02517577 -0.04608975 57.1747984 -0.04783022 62.32443237 -0.05209446 C63.42220279 -0.05298724 63.42220279 -0.05298724 64.54215038 -0.05389806 C66.02870385 -0.05510976 67.51525732 -0.0563239 69.00181079 -0.05754044 C82.95386954 -0.06842587 96.90590415 -0.06624864 110.85796428 -0.06015559 C123.6343727 -0.0549845 136.41070492 -0.06624514 149.18709826 -0.08525381 C162.29306229 -0.10460398 175.39899022 -0.11289325 188.50496864 -0.10913056 C195.86815523 -0.10721435 203.23127693 -0.10974683 210.5944519 -0.1238451 C217.51531846 -0.13696194 224.4360295 -0.13453737 231.35689545 -0.12143421 C233.90389811 -0.11905563 236.45091137 -0.12184851 238.99790192 -0.13005733 C242.46111379 -0.14041836 245.92380123 -0.13251021 249.38699341 -0.11974621 C250.40701384 -0.12712049 251.42703426 -0.13449478 252.4779644 -0.14209253 C253.8615121 -0.13128271 253.8615121 -0.13128271 255.27301025 -0.12025452 C256.07313601 -0.12030953 256.87326176 -0.12036455 257.69763374 -0.12042123 C258.65737508 0.0651527 258.65737508 0.0651527 259.63650513 0.25447559 C262.0309561 3.84615206 261.93897769 6.45012279 261.94290161 10.59993458 C261.95122513 11.34497242 261.95954865 12.09001026 261.96812439 12.85762501 C261.99223222 15.32199283 262.00099677 17.78609609 262.00759888 20.25056934 C262.01656371 21.96305897 262.02568552 23.67554778 262.03495789 25.38803577 C262.0514519 28.97838209 262.0591489 32.5686351 262.06204224 36.15901661 C262.06743054 40.7606278 262.10512653 45.361363 262.1507864 49.96272659 C262.18052006 53.49977292 262.18776496 57.03660721 262.18876839 60.57376766 C262.19297707 62.27027435 262.20543737 63.9667813 262.22628593 65.66316509 C262.25312931 68.03597437 262.24839813 70.40673876 262.23587036 72.77962208 C262.2581218 73.83099102 262.2581218 73.83099102 262.28082275 74.90359974 C262.23126646 78.19793037 261.92592669 79.92061672 259.74614906 82.43507385 C255.25730643 85.06142216 251.38205534 84.80228241 246.26747131 84.74895191 C245.21246494 84.75378074 244.15745857 84.75860957 243.07048231 84.76358473 C239.52965788 84.77487081 235.98955318 84.75752433 232.44876099 84.74031544 C229.91267196 84.7424609 227.37658389 84.746338 224.84049988 84.75182056 C218.66412227 84.76051768 212.48801259 84.75062783 206.31166404 84.73211996 C199.12043996 84.71134586 191.92926214 84.7114925 184.73801369 84.71246512 C171.90847796 84.71346624 159.07904197 84.69514611 146.24954224 84.66609669 C133.79737532 84.6379162 121.34529617 84.62375541 108.89309692 84.62508106 C107.74249248 84.62520093 107.74249248 84.62520093 106.5686435 84.62532322 C105.80290608 84.62540393 105.03716865 84.62548464 104.24822706 84.62556779 C90.0752758 84.62694718 75.90236187 84.61516983 61.7294227 84.59726136 C56.71532964 84.59122668 51.70124343 84.58910201 46.68714714 84.58819675 C39.94106806 84.58669071 33.19509425 84.57401042 26.44904137 84.55386448 C23.96899736 84.54801048 21.4889427 84.54556455 19.00889206 84.54671955 C15.63201389 84.5476973 12.25539714 84.5364257 8.8785553 84.52190113 C7.39535125 84.52654694 7.39535125 84.52654694 5.88218349 84.5312866 C4.97858673 84.5248377 4.07498998 84.51838881 3.1440115 84.5117445 C2.36449798 84.51033565 1.58498446 84.5089268 0.78184932 84.50747526 C-1.67133 84.21817271 -3.27229276 83.55670057 -5.36349487 82.25447559 C-6.86118985 79.25908565 -6.51082901 76.18400783 -6.50875854 72.89900684 C-6.51211716 72.14114887 -6.51547577 71.3832909 -6.51893616 70.60246754 C-6.52845614 68.09062035 -6.53038967 65.57883972 -6.53146362 63.06697559 C-6.53467503 61.32584575 -6.53803902 59.58471619 -6.54154968 57.84358692 C-6.54754326 54.19180646 -6.5493893 50.54004969 -6.54879761 46.88826466 C-6.54869587 42.2004226 -6.56235894 37.51273162 -6.57956982 32.82492542 C-6.59066656 29.22879299 -6.59271755 25.63269738 -6.59218788 22.03654957 C-6.5933711 20.30772346 -6.59781189 18.57889649 -6.60552025 16.85008717 C-6.61527515 14.43659722 -6.61246032 12.02343919 -6.60641479 9.60994434 C-6.6120343 8.89091938 -6.61765381 8.17189442 -6.6234436 7.43108082 C-6.58771798 1.8423579 -5.68004118 0.0061532 0 0 Z " fill="#FFFFFF" transform="translate(45.363494873046875,-0.25447559356689453)"/>
<path d="M0 0 C1.69746399 1.1521759 1.69746399 1.1521759 3 3 C3.36076355 5.67655945 3.36076355 5.67655945 3.34057617 8.94018555 C3.34034958 10.16122482 3.34012299 11.3822641 3.33988953 12.64030457 C3.32440567 13.95912125 3.30892181 15.27793793 3.29296875 16.63671875 C3.28737243 18.00006138 3.2831025 19.36341004 3.28010559 20.72676086 C3.26865949 24.31243592 3.23919486 27.89774554 3.20599365 31.48327637 C3.17528739 35.1430975 3.1615991 38.80297777 3.14648438 42.46289062 C3.11432449 49.64209356 3.06313153 56.82099554 3 64 C3.97969757 64.09204208 4.95939514 64.18408417 5.96878052 64.27891541 C34.01875497 66.91794499 62.06037643 69.63981152 90.09119797 72.47535133 C96.15678032 73.08875485 102.22280373 73.69684881 108.29003906 74.29370117 C114.28533866 74.88360664 120.27927373 75.48587732 126.27243423 76.09712029 C128.529462 76.32518169 130.7869395 76.54883866 133.04485703 76.76791573 C136.1612896 77.07109301 139.2757062 77.39012681 142.39013672 77.71313477 C143.31030075 77.79892288 144.23046478 77.884711 145.17851257 77.97309875 C153.11324171 78.8265425 153.11324171 78.8265425 156 82 C157.10135545 85.30406635 157.12036063 87.73643693 157.11352539 91.21557617 C157.11344986 92.4966777 157.11337433 93.77777924 157.11329651 95.09770203 C157.10818987 96.49612466 157.10297387 97.8945469 157.09765625 99.29296875 C157.09579089 100.72357636 157.09436754 102.15418461 157.09336853 103.58479309 C157.08955267 107.34786751 157.07973032 111.11090325 157.06866455 114.8739624 C157.05843043 118.71479774 157.05386662 122.55563933 157.04882812 126.39648438 C157.03810722 133.9310072 157.02104196 141.46549818 157 149 C157.76666992 148.97905273 158.53333984 148.95810547 159.32324219 148.93652344 C162.7986946 148.85334842 166.27393763 148.80133425 169.75 148.75 C170.9565625 148.71648437 172.163125 148.68296875 173.40625 148.6484375 C174.56640625 148.63554687 175.7265625 148.62265625 176.921875 148.609375 C177.99018555 148.58842773 179.05849609 148.56748047 180.15917969 148.54589844 C183 149 183 149 185.34753418 150.42945862 C187.86459399 154.34494438 187.55820934 157.95471923 187.51757812 162.51928711 C187.5245874 163.48410004 187.53159668 164.44891296 187.53881836 165.44296265 C187.55644406 168.63804802 187.54475075 171.83224903 187.53125 175.02734375 C187.53394557 177.25493031 187.53782853 179.48251573 187.54284668 181.71009827 C187.54874959 186.38667974 187.54016036 191.06295595 187.52148438 195.73950195 C187.49881364 201.70433408 187.51173755 207.66844152 187.53577423 213.63324642 C187.55031256 218.23954095 187.5455875 222.84566731 187.53526306 227.45196724 C187.53261172 229.64897308 187.53580888 231.84599465 187.54518127 234.0429821 C187.64289509 263.41478811 187.64289509 263.41478811 177.91796875 273.22265625 C177.28503906 273.80917969 176.65210938 274.39570313 176 275 C175.35675781 275.63808594 174.71351563 276.27617187 174.05078125 276.93359375 C166.83065311 283.75654392 159.94125109 285.55697135 150.125 285.4375 C149.24094482 285.42847656 148.35688965 285.41945313 147.44604492 285.41015625 C137.21269152 285.13814833 130.5079535 282.37238235 123.04296875 275.27734375 C115.02209859 266.33629728 112.69463397 257.3896329 112.7253418 245.70605469 C112.72023087 244.69548004 112.71511993 243.6849054 112.70985413 242.64370728 C112.69600818 239.31970218 112.69691029 235.99590541 112.69921875 232.671875 C112.69533083 230.35736006 112.69099596 228.04284583 112.68623352 225.72833252 C112.67878338 220.88657309 112.67905516 216.04488662 112.68432617 211.203125 C112.69013798 204.98978733 112.67314259 198.7767461 112.6499815 192.56345749 C112.6352785 187.78861742 112.63436745 183.01384947 112.63749123 178.23899078 C112.6369769 175.94719096 112.63171845 173.65538721 112.62167931 171.36360931 C112.60939057 168.16766284 112.6160597 164.97230372 112.62768555 161.77636719 C112.62004181 160.82567352 112.61239807 159.87497986 112.60452271 158.89547729 C112.61153702 158.0263974 112.61855133 157.1573175 112.6257782 156.26190186 C112.62561046 155.5068272 112.62544271 154.75175255 112.62526989 153.97379684 C113 152 113 152 116 149 C124.91 149 133.82 149 143 149 C143 130.19 143 111.38 143 92 C137.39 91.67 131.78 91.34 126 91 C121.40019812 90.60690515 116.80927518 90.19441589 112.21582031 89.74072266 C110.32219757 89.55753731 110.32219757 89.55753731 108.39031982 89.37065125 C104.98993137 89.0413071 101.5899853 88.707617 98.19017887 88.37232256 C96.05954186 88.1622301 93.92883861 87.95282104 91.79811859 87.74357224 C85.11028463 87.08643838 78.42275554 86.42630984 71.73561788 85.76212752 C64.05069106 84.99891742 56.3648242 84.24624428 48.67801213 83.50226748 C42.70224587 82.92322988 36.72746046 82.33470903 30.75333095 81.73902357 C27.19761178 81.38470368 23.6416061 81.03442393 20.0845108 80.69417191 C16.1320829 80.31581946 12.18176712 79.91783836 8.23144531 79.51806641 C6.47507751 79.35426231 6.47507751 79.35426231 4.68322754 79.18714905 C3.60708191 79.07508621 2.53093628 78.96302338 1.42218018 78.8475647 C0.49020435 78.75576242 -0.44177147 78.66396015 -1.40198898 78.56937599 C-4.43014759 77.90572953 -6.47696263 76.78371059 -9 75 C-10.44139596 72.11720808 -10.14325114 69.61612758 -10.16113281 66.39477539 C-10.16609772 65.71655228 -10.17106262 65.03832916 -10.17617798 64.33955383 C-10.19080303 62.09224439 -10.19760161 59.8450055 -10.203125 57.59765625 C-10.20887553 56.03828428 -10.21463327 54.47891233 -10.22039795 52.91954041 C-10.23090847 49.64858673 -10.23675101 46.37765764 -10.24023438 43.10668945 C-10.24572373 38.91210772 -10.26976068 34.71784984 -10.29820633 30.52336979 C-10.3168135 27.30206853 -10.32203724 24.08084564 -10.32357025 20.85949516 C-10.32660094 19.31290348 -10.33464346 17.76631331 -10.34775543 16.21977425 C-10.36477887 14.05780368 -10.36294548 11.89662922 -10.35644531 9.73461914 C-10.36009094 8.5037709 -10.36373657 7.27292267 -10.36749268 6.004776 C-10 3 -10 3 -8.69647217 1.1025238 C-5.82939657 -0.76076589 -3.30223258 -0.35381063 0 0 Z " fill="#FFFFFF" transform="translate(23,35)"/>
</svg>
