<?xml version="1.0" encoding="UTF-8"?>
<svg version="1.1" xmlns="http://www.w3.org/2000/svg" width="320" height="320">
<path d="M0 0 C18.02092957 -0.82162293 36.39904362 5.93802978 49.6953125 18.0078125 C60.12781745 28.03265016 66.48384811 39.8705186 67.10327148 54.50708008 C67.28439747 67.92387534 63.59947966 80.48670787 54.46875 90.58984375 C52.5647667 92.51064669 50.63420361 94.37678962 48.6328125 96.1953125 C49.56418842 97.49140197 50.5031691 98.78202882 51.4453125 100.0703125 C51.96738281 100.78960937 52.48945313 101.50890625 53.02734375 102.25 C54.66554027 104.42559905 54.66554027 104.42559905 57.6328125 106.1953125 C58.22707031 105.20273438 58.82132813 104.21015625 59.43359375 103.1875 C75.68626065 76.38555605 97.09019386 51.23442514 128.5078125 42.8828125 C141.584786 39.69326921 154.80405414 40.10681327 166.7578125 46.8203125 C186.41057531 59.64963606 197.57179474 79.73333184 202.6328125 102.1953125 C204.38756048 110.62247274 204.98797122 118.78429816 204.9453125 127.3828125 C204.94039795 128.56391602 204.9354834 129.74501953 204.93041992 130.96191406 C204.57649272 157.52641921 196.15837775 181.92123956 177.6328125 201.1953125 C175.22735612 202.39804069 173.68284297 202.29602722 171.0078125 202.2578125 C170.19054687 202.24878906 169.37328125 202.23976563 168.53125 202.23046875 C167.59152344 202.21306641 167.59152344 202.21306641 166.6328125 202.1953125 C166.0140625 203.835 166.0140625 203.835 165.3828125 205.5078125 C163.9700376 208.75196227 162.84704924 210.49890978 159.6328125 212.1953125 C147.77863688 216.21646413 133.91174498 215.64974632 122.6328125 210.1953125 C103.74412252 200.12644267 92.44404091 181.95062515 86.2265625 161.82421875 C85.42000214 158.25306663 85.47413324 155.67135028 86.6328125 152.1953125 C88.80684288 149.01788348 90.24834804 148.31137724 93.9453125 147.1953125 C100.09879118 147.1953125 103.61433907 150.18423049 107.8203125 154.2578125 C115.55511131 161.00228387 126.99206392 160.88355013 136.76953125 160.5390625 C141.66114543 160.1038127 144.77863773 159.18408229 148.6328125 156.1953125 C149.2928125 155.73253906 149.9528125 155.26976562 150.6328125 154.79296875 C160.51128765 147.14089235 165.49366893 135.2327417 167.6328125 123.1953125 C168.92663746 111.57919917 167.56806635 100.07868059 160.09765625 90.6328125 C156.00953903 86.6210068 151.42409597 84.97083255 145.7578125 84.6328125 C137.93727929 84.95816596 131.3740841 89.12184632 125.6328125 94.1953125 C123.80895812 96.5239743 123.80895812 96.5239743 122.2578125 99.1328125 C121.65839844 100.09960938 121.05898437 101.06640625 120.44140625 102.0625 C118.60671444 105.24051908 116.96732669 108.47928544 115.3203125 111.7578125 C108.39456674 124.6746348 98.02068314 131.79343674 84.29296875 136.2890625 C81.74876956 136.99633023 79.2143502 137.64212585 76.6328125 138.1953125 C75.26418529 141.95447525 76.02409281 144.63678306 77.0078125 148.4453125 C78.20994227 153.38557181 79.31440851 158.11957831 79.6328125 163.1953125 C79.69726562 164.10023438 79.76171875 165.00515625 79.828125 165.9375 C80.49735132 183.82815025 74.9989403 202.17017393 63.1328125 215.7578125 C61.65452974 217.25868362 60.15586391 218.73989214 58.6328125 220.1953125 C58.02050781 220.82695312 57.40820312 221.45859375 56.77734375 222.109375 C44.97257701 233.53659057 28.59191015 237.79678727 12.5703125 237.6953125 C10.9462146 237.68564453 10.9462146 237.68564453 9.28930664 237.67578125 C-7.08627745 237.30890251 -21.3173142 232.41545747 -35.3671875 224.1953125 C-36.45128906 223.56238281 -37.53539062 222.92945313 -38.65234375 222.27734375 C-63.96440912 206.06131178 -80.48456537 180.51818494 -86.984375 151.43359375 C-89.05165647 133.94608007 -88.81523132 114.14883247 -78.3671875 99.1953125 C-77.3671875 98.1953125 -77.3671875 98.1953125 -74.4921875 97.9453125 C-71.3671875 98.1953125 -71.3671875 98.1953125 -69.77270508 99.3449707 C-67.89580219 101.81588385 -67.43957885 104.02722125 -66.75390625 107.05078125 C-66.47877197 108.22294189 -66.2036377 109.39510254 -65.92016602 110.6027832 C-65.63455811 111.85019287 -65.3489502 113.09760254 -65.0546875 114.3828125 C-59.32740747 138.20847863 -51.06669444 164.10353388 -29.4921875 178.2578125 C-16.30325028 186.29836599 -2.39445018 188.03746286 12.71875 185.72265625 C20.61032013 183.64396191 29.32563554 179.35835237 33.7265625 172.23828125 C36.28651327 166.46735774 37.39295856 160.58486958 35.6328125 154.4453125 C31.66578393 144.89379736 24.90197837 141.18118758 15.6328125 137.1953125 C12.86642278 136.27318259 11.1793033 136.07297174 8.32421875 136.0546875 C7.49470703 136.03535156 6.66519531 136.01601562 5.81054688 135.99609375 C4.0711959 135.96231994 2.33147376 135.94401642 0.59179688 135.94140625 C-5.74449503 135.75461099 -5.74449503 135.75461099 -8.74609375 133.05859375 C-9.28105469 132.11371094 -9.81601563 131.16882813 -10.3671875 130.1953125 C-10.955 129.16277344 -11.5428125 128.13023437 -12.1484375 127.06640625 C-17.86506445 115.64614468 -23.00723481 104.20960789 -22.3671875 91.1953125 C-20.10279762 88.93092262 -19.3171183 88.81612202 -16.25390625 88.30078125 C-15.00963867 88.07902222 -15.00963867 88.07902222 -13.74023438 87.8527832 C-12.85400391 87.69769287 -11.96777344 87.54260254 -11.0546875 87.3828125 C2.45015473 84.81040438 17.51877338 80.99389468 26.08203125 69.19921875 C27.21128718 66.82318251 27.62042906 64.62873303 27.6953125 62.0078125 C25.25140545 57.83879459 20.74344799 56.15094358 16.3828125 54.5703125 C12.6328125 53.1953125 12.6328125 53.1953125 10.6328125 51.1953125 C10.6328125 50.2053125 10.6328125 49.2153125 10.6328125 48.1953125 C8.6528125 48.1953125 6.6728125 48.1953125 4.6328125 48.1953125 C4.4471875 49.1234375 4.4471875 49.1234375 4.2578125 50.0703125 C3.6328125 52.1953125 3.6328125 52.1953125 1.6328125 54.1953125 C-0.13208008 54.77026367 -0.13208008 54.77026367 -2.26171875 55.23828125 C-3.04643555 55.42181152 -3.83115234 55.6053418 -4.63964844 55.79443359 C-5.47786133 55.98859863 -6.31607422 56.18276367 -7.1796875 56.3828125 C-14.82876817 58.23525665 -20.86636636 60.64748479 -27.5078125 64.9375 C-31.54204531 66.71212154 -33.21924257 66.7997923 -37.3671875 65.1953125 C-40.09876662 61.85015203 -42.00934807 58.1436823 -43.9921875 54.3203125 C-44.53875 53.32 -45.0853125 52.3196875 -45.6484375 51.2890625 C-47.27268154 48.281491 -48.82875999 45.24756055 -50.3671875 42.1953125 C-50.88893555 41.19338867 -51.41068359 40.19146484 -51.94824219 39.15917969 C-52.42422852 38.19915039 -52.90021484 37.23912109 -53.390625 36.25 C-53.82036621 35.39647949 -54.25010742 34.54295898 -54.69287109 33.66357422 C-55.56516554 30.47063546 -54.8837778 29.077169 -53.3671875 26.1953125 C-51.26332843 23.31430232 -48.83375164 20.76889698 -46.3671875 18.1953125 C-45.64789063 17.41994141 -45.64789063 17.41994141 -44.9140625 16.62890625 C-33.05969994 5.18008767 -15.8215726 1.30541028 0 0 Z " fill="#013894" transform="translate(101.3671875,82.8046875)"/>
<path d="M0 0 C4.24250466 0.75759012 5.52589898 1.50219393 8.5 4.625 C9.57814374 6.17674694 10.63881493 7.74069463 11.6875 9.3125 C19.38281461 20.58241237 32.21983573 30.84943579 45.640625 34.2265625 C57.11471937 35.82541172 67.57439984 35.04741825 78.25 30.4375 C81.79412871 29.15767574 85.07871357 29.21891816 88.6875 30.25 C89.285625 30.37375 89.88375 30.4975 90.5 30.625 C91.49 29.965 92.48 29.305 93.5 28.625 C93.61214844 27.52542969 93.72429687 26.42585938 93.83984375 25.29296875 C94.69083837 20.56466135 96.18271862 19.64217864 100.0625 16.9375 C100.87787231 16.36733154 100.87787231 16.36733154 101.7097168 15.78564453 C111.93652004 8.75992 111.93652004 8.75992 118.0625 8.4375 C125.67799391 11.06830699 130.55872032 19.0023193 135.25 25.25 C136.09498047 26.35601562 136.09498047 26.35601562 136.95703125 27.484375 C145.34206816 38.54548752 145.34206816 38.54548752 145.0078125 45.30859375 C143.10517475 53.98754904 132.70258833 59.47711488 125.74609375 64.01171875 C103.14148699 78.21842442 74.75924274 84.42264359 48.40576172 79.23754883 C30.04343262 74.97217559 13.71572338 62.01012606 3.4140625 46.48046875 C-3.44340295 35.37707609 -10.80247503 19.96347601 -8.5 6.625 C-6.60422034 2.61240807 -4.45479751 0.79549956 0 0 Z " fill="#013994" transform="translate(147.5,37.375)"/>
<path d="M0 0 C1.83544922 1.21923828 1.83544922 1.21923828 3.6171875 2.8828125 C4.30482178 3.51856201 4.99245605 4.15431152 5.70092773 4.80932617 C6.45962158 5.53224854 7.21831543 6.2551709 8 7 C9.2840271 8.19556519 9.2840271 8.19556519 10.59399414 9.4152832 C13.40637389 12.0586251 16.1741078 14.74304898 18.9375 17.4375 C20.37319336 18.79198242 20.37319336 18.79198242 21.83789062 20.17382812 C29.50644119 27.68998734 29.50644119 27.68998734 30.37890625 32.22265625 C29.67354694 39.25443407 25.58085093 43.79823301 20.71875 48.64453125 C19.97570618 49.38832283 19.97570618 49.38832283 19.21765137 50.1471405 C18.17913456 51.18333609 17.13697067 52.21588846 16.09130859 53.24487305 C14.49519765 54.81723088 12.91299449 56.40266135 11.33203125 57.99023438 C1.48510327 67.78315744 1.48510327 67.78315744 -3.12207031 68.18516541 C-9.44576323 67.64248849 -12.48037308 65.63714043 -16.75 61.06640625 C-17.33418701 60.47327133 -17.91837402 59.88013641 -18.52026367 59.26902771 C-20.36651195 57.38489393 -22.18271063 55.47453529 -24 53.5625 C-25.24948565 52.28142896 -26.50077262 51.00211222 -27.75390625 49.72460938 C-38.13541483 39.07717958 -38.13541483 39.07717958 -38.625 34 C-38.47795046 27.80431283 -34.94576726 24.76338945 -30.67529297 20.6328125 C-28.66090215 18.66950067 -26.69281997 16.66392833 -24.72265625 14.65625 C-21.72400612 11.61442852 -18.72127887 8.57717162 -15.6953125 5.5625 C-15.05609863 4.92441406 -14.41688477 4.28632812 -13.75830078 3.62890625 C-9.33883285 -0.46533008 -5.78122711 -1.08698613 0 0 Z " fill="#013894" transform="translate(210,0)"/>
</svg>
