<?xml version="1.0" encoding="UTF-8"?>
<svg version="1.1" xmlns="http://www.w3.org/2000/svg" width="320" height="320">
<path d="M0 0 C0.66914429 -0.00241196 1.33828857 -0.00482391 2.02770996 -0.00730896 C3.43633985 -0.00633354 4.84500951 0.00698777 6.25341797 0.03198242 C8.40074807 0.06631827 10.54396249 0.05262699 12.69140625 0.03320312 C14.06512155 0.04010214 15.43882631 0.04977506 16.8125 0.0625 C18.05322266 0.07337646 19.29394531 0.08425293 20.57226562 0.09545898 C24.48946414 0.72222222 26.18162556 1.77971117 28.90625 4.62890625 C29.46427097 8.53505307 29.49017818 10.68002296 27.40625 14.06640625 C26.91125 14.58203125 26.41625 15.09765625 25.90625 15.62890625 C29.29889219 18.0791535 29.29889219 18.0791535 33.34375 18.50390625 C36.03162478 17.65008878 36.03162478 17.65008878 38.90625 16.12890625 C44.69639032 13.23383609 50.39501287 13.46868144 56.73828125 13.4609375 C57.6888591 13.4576091 58.63943695 13.4542807 59.61882019 13.45085144 C61.62681598 13.44579782 63.63482013 13.44344263 65.64282227 13.44360352 C68.69757102 13.44142138 71.7519559 13.42326089 74.80664062 13.40429688 C76.76301961 13.40136167 78.71940029 13.39937773 80.67578125 13.3984375 C82.03398735 13.38765923 82.03398735 13.38765923 83.41963196 13.37666321 C93.24401817 13.4116401 101.23109869 15.4918054 108.63671875 22.1953125 C115.63359215 29.6413679 116.35084041 38.18139783 116.19921875 48.0078125 C116.19497391 49.06048813 116.19072906 50.11316376 116.18635559 51.19773865 C116.16968768 54.52923167 116.1320575 57.86009893 116.09375 61.19140625 C116.07868781 63.46288183 116.0650021 65.73436698 116.05273438 68.00585938 C116.01982326 73.54708515 115.96974386 79.08795097 115.90625 84.62890625 C116.61910156 84.82226562 117.33195313 85.015625 118.06640625 85.21484375 C119.02417969 85.47523438 119.98195312 85.735625 120.96875 86.00390625 C121.97766296 86.27187515 122.98657593 86.53984406 124.02606201 86.81593323 C126.90625 87.62890625 126.90625 87.62890625 130.55175781 89.01147461 C135.29824799 89.88511898 138.26473257 88.43675918 142.578125 86.5078125 C143.38235901 86.16967026 144.18659302 85.83152802 145.01519775 85.48313904 C147.57104771 84.40539923 150.11381565 83.30038135 152.65625 82.19140625 C155.21440405 81.0900789 157.77481697 79.99489072 160.34014893 78.91038513 C161.93290517 78.23560102 163.52129732 77.55040285 165.10467529 76.85389709 C170.57165534 74.5173747 170.57165534 74.5173747 173.90625 75.62890625 C174.89625 77.11390625 174.89625 77.11390625 175.90625 78.62890625 C187.12625 67.40890625 198.34625 56.18890625 209.90625 44.62890625 C213.10517281 46.22836765 215.05978735 47.45703544 217.65625 49.75390625 C218.57664062 50.56214844 218.57664062 50.56214844 219.515625 51.38671875 C219.97453125 51.79664063 220.4334375 52.2065625 220.90625 52.62890625 C219.3806594 56.28031981 217.18144091 58.53008737 214.34375 61.25390625 C211.21582946 64.13961306 211.21582946 64.13961306 208.90625 67.62890625 C210.72962891 67.61150391 210.72962891 67.61150391 212.58984375 67.59375 C214.17447764 67.58437347 215.75911318 67.57527312 217.34375 67.56640625 C218.14619141 67.55802734 218.94863281 67.54964844 219.77539062 67.54101562 C221.81920221 67.53239195 223.86308902 67.57662475 225.90625 67.62890625 C229.44963194 71.17228819 226.90625 77.61780746 226.90625 82.62890625 C210.40625 82.62890625 193.90625 82.62890625 176.90625 82.62890625 C177.23625 84.27890625 177.56625 85.92890625 177.90625 87.62890625 C158.67220745 97.62890625 158.67220745 97.62890625 152.90625 97.62890625 C153.64875 99.14484375 153.64875 99.14484375 154.40625 100.69140625 C156.23929471 105.05036902 156.9331326 108.95680313 155.1796875 113.51953125 C153.11502559 117.51456812 151.10294383 120.00745636 146.90625 121.62890625 C144.1850013 121.85187635 141.6461394 121.76822266 138.90625 121.62890625 C138.73609375 122.69238281 138.73609375 122.69238281 138.5625 123.77734375 C135.36015555 137.69229283 124.60017413 149.95819297 112.90625 157.62890625 C96.23873481 167.63033041 77.96345173 171.61452135 58.84375 167.12890625 C42.24346449 162.73244656 27.81591924 152.77267607 18.4296875 138.28125 C13.14157697 129.07451397 9.85304529 120.06304593 7.90625 109.62890625 C6.93945312 109.55414063 5.97265625 109.479375 4.9765625 109.40234375 C-4.54133857 108.44112998 -12.07556658 106.88804628 -18.96484375 99.66796875 C-24.94209592 92.18565309 -25.41934584 85.10764575 -25.46484375 75.80078125 C-25.47387222 74.65659729 -25.4829007 73.51241333 -25.49220276 72.33355713 C-25.50668489 69.9162456 -25.51558692 67.49889505 -25.51928711 65.08154297 C-25.53116491 61.40524319 -25.58035886 57.73063254 -25.63085938 54.0546875 C-25.64032666 51.69922689 -25.64756023 49.34375603 -25.65234375 46.98828125 C-25.67187607 45.89940613 -25.69140839 44.81053101 -25.71153259 43.68865967 C-25.65688391 34.32856776 -22.97525878 27.45805116 -16.53125 20.62890625 C-14.70943978 18.87862207 -13.21211511 17.68733694 -10.94140625 16.56640625 C-8.91583593 15.76913467 -8.91583593 15.76913467 -8.09375 13.62890625 C-9.08375 13.29890625 -10.07375 12.96890625 -11.09375 12.62890625 C-11.90625 9.44140625 -11.90625 9.44140625 -12.09375 5.62890625 C-8.46741938 0.84272131 -5.90066712 -0.00344844 0 0 Z M44.30628967 29.81721497 C42.46592856 32.19869476 42.52260738 33.62350965 42.50561523 36.6159668 C42.49227646 37.63099777 42.47893768 38.64602875 42.4651947 39.69181824 C42.46507889 40.78867447 42.46496307 41.8855307 42.46484375 43.015625 C42.45163589 44.1466011 42.43842804 45.27757721 42.42481995 46.44282532 C42.38384948 50.06737683 42.3622472 53.69167535 42.34375 57.31640625 C42.31991175 60.92320537 42.29165519 64.52976783 42.25196838 68.13642883 C42.22775369 70.38128956 42.21277969 72.62627463 42.20835876 74.8712616 C42.11633557 84.18316265 40.99621687 92.24157801 34.90625 99.62890625 C31.22923596 102.93310177 27.36444422 105.50406535 22.90625 107.62890625 C24.4215433 122.78183924 31.37604002 134.06298412 42.90625 143.62890625 C46.10531652 146.01574872 49.30260536 147.91786276 52.90625 149.62890625 C54.18822266 150.24572266 54.18822266 150.24572266 55.49609375 150.875 C67.54809271 155.76003184 82.88245263 155.38639952 95.015625 150.953125 C107.72025714 145.13303001 116.35836726 136.89054654 122.90625 124.62890625 C123.29039062 123.9534375 123.67453125 123.27796875 124.0703125 122.58203125 C125.16856696 120.37009905 125.16856696 120.37009905 124.90625 116.62890625 C121.28651598 115.31263933 118.81057869 114.62890625 114.90625 114.62890625 C114.48666016 115.60730469 114.48666016 115.60730469 114.05859375 116.60546875 C110.21477669 124.98523712 105.57798291 130.12331209 96.90625 133.62890625 C91.93010427 134.69363877 87.09460937 134.81217974 82.03125 134.81640625 C81.26683594 134.82865234 80.50242188 134.84089844 79.71484375 134.85351562 C71.1343925 134.87536737 63.66088479 133.15542562 56.90625 127.62890625 C50.2403313 120.60904497 48.61412937 113.53008322 48.58740234 104.12329102 C48.57735672 103.3029689 48.5673111 102.48264679 48.55696106 101.63746643 C48.52627505 98.94842171 48.50913478 96.25947588 48.4921875 93.5703125 C48.4734641 91.69700783 48.45388982 89.82371149 48.4335022 87.95042419 C48.3822988 83.03668135 48.34261011 78.12291119 48.30535889 73.20904541 C48.26524513 68.18812368 48.21418649 63.16731439 48.1640625 58.14648438 C48.06744292 48.30737079 47.98299362 38.46819354 47.90625 28.62890625 C45.8416874 28.43015672 45.8416874 28.43015672 44.30628967 29.81721497 Z M62.90625 28.62890625 C62.76706301 39.4600847 62.66053405 50.29104946 62.59537697 61.12294102 C62.56410019 66.15300204 62.5216942 71.18245 62.45361328 76.2121582 C62.38829028 81.06865884 62.35251647 85.92457083 62.33698654 90.78147697 C62.32592338 92.63185833 62.30431887 94.48220844 62.27186966 96.33233833 C62.22813239 98.93002355 62.22232282 101.52529523 62.22509766 104.12329102 C62.203526 104.88358612 62.18195435 105.64388123 62.159729 106.42721558 C62.22062015 111.71615802 63.76294509 114.42373141 67.32472801 118.29902554 C71.35042173 121.68417761 76.82447882 120.85070272 81.78125 120.87890625 C82.67972656 120.89953125 83.57820313 120.92015625 84.50390625 120.94140625 C89.46911933 120.97074281 92.89400838 120.89323487 96.90625 117.62890625 C100.10097087 114.26149777 100.90625 113.39036993 100.90625 108.62890625 C100.14481689 108.38245361 99.38338379 108.13600098 98.59887695 107.88208008 C95.13353682 106.75072903 91.67629142 105.59636053 88.21875 104.44140625 C87.02056641 104.05404297 85.82238281 103.66667969 84.58789062 103.26757812 C82.85249023 102.68266602 82.85249023 102.68266602 81.08203125 102.0859375 C80.01895752 101.7350708 78.95588379 101.3842041 77.8605957 101.02270508 C74.40985462 99.39471724 72.38305261 97.51244346 69.90625 94.62890625 C68.96196807 91.79606045 68.76987816 90.0071567 68.74511719 87.0690918 C68.73550964 86.1477092 68.7259021 85.2263266 68.71600342 84.27702332 C68.71175354 83.28326187 68.70750366 82.28950043 68.703125 81.265625 C68.69742493 80.24088577 68.69172485 79.21614655 68.68585205 78.16035461 C68.67640285 75.99078402 68.66986839 73.82119908 68.66601562 71.65161133 C68.65631835 68.33975029 68.62529719 65.02851203 68.59375 61.71679688 C68.58721894 59.6080766 68.58196887 57.49935189 68.578125 55.390625 C68.5657782 54.40293625 68.5534314 53.4152475 68.54071045 52.39762878 C68.56078901 46.16993929 69.16919858 41.56870222 73.59375 36.81640625 C78.5729281 34.25953101 82.5260638 34.19901219 87.71875 35.81640625 C91.94362982 38.2187889 93.38922475 40.0778305 94.90625 44.62890625 C95.0592147 47.1394553 95.16320178 49.6277915 95.22265625 52.140625 C95.24343735 52.86884964 95.26421844 53.59707428 95.28562927 54.34736633 C95.35093746 56.670285 95.40992237 58.99331531 95.46875 61.31640625 C95.51195305 62.8925896 95.55556792 64.46876173 95.59960938 66.04492188 C95.7065996 69.906136 95.80791961 73.76746228 95.90625 77.62890625 C97.55625 78.28890625 99.20625 78.94890625 100.90625 79.62890625 C101.05506151 73.63332887 101.16368547 67.6388365 101.23583984 61.6418457 C101.26593105 59.60389469 101.30681507 57.56607233 101.35888672 55.52856445 C101.43204097 52.59163623 101.46578276 49.65642606 101.4921875 46.71875 C101.52315521 45.81430649 101.55412292 44.90986298 101.58602905 43.97801208 C101.58908086 38.18421699 100.48816408 35.13416362 96.49111938 30.90309143 C93.05256389 28.13860087 89.48337207 28.51284895 85.26953125 28.53125 C83.97080078 28.53447266 82.67207031 28.53769531 81.33398438 28.54101562 C79.96223892 28.54937094 78.59049413 28.55783588 77.21875 28.56640625 C75.83528805 28.5714229 74.45182437 28.57598552 73.06835938 28.58007812 C69.68094605 28.59188096 66.29361967 28.60834606 62.90625 28.62890625 Z M-0.09375 37.62890625 C-4.05375 41.09390625 -4.05375 41.09390625 -8.09375 44.62890625 C-6.60506714 47.60627197 -5.55496178 49.46329261 -3.46875 51.87890625 C-2.685 52.78640625 -1.90125 53.69390625 -1.09375 54.62890625 C-1.51527344 55.11101562 -1.93679687 55.593125 -2.37109375 56.08984375 C-3.19287109 57.03730469 -3.19287109 57.03730469 -4.03125 58.00390625 C-4.57652344 58.63039063 -5.12179688 59.256875 -5.68359375 59.90234375 C-7.16333624 61.58522959 -7.16333624 61.58522959 -8.09375 63.62890625 C-7.16413578 64.78114653 -6.2247375 65.92549801 -5.28125 67.06640625 C-4.75917969 67.70449219 -4.23710938 68.34257812 -3.69921875 69 C-2.08540589 70.88373375 -2.08540589 70.88373375 0.90625 71.62890625 C4.37125 68.16390625 4.37125 68.16390625 7.90625 64.62890625 C11.94369506 66.64762878 14.52635675 68.70990753 17.90625 71.62890625 C19.10830464 70.56174553 20.29257333 69.47452288 21.46875 68.37890625 C22.13003906 67.775625 22.79132813 67.17234375 23.47265625 66.55078125 C25.13633406 64.75174282 25.13633406 64.75174282 24.78125 62.56640625 C23.45494977 59.62959861 21.24762317 57.79017379 18.90625 55.62890625 C20.02216737 53.02509906 20.97296367 51.56791089 23.09375 49.62890625 C23.691875 48.96890625 24.29 48.30890625 24.90625 47.62890625 C24.68060053 44.98558392 24.1184123 43.85073542 22.27734375 41.92578125 C21.63925781 41.4153125 21.00117187 40.90484375 20.34375 40.37890625 C19.209375 39.47140625 18.075 38.56390625 16.90625 37.62890625 C14.59625 39.93890625 12.28625 42.24890625 9.90625 44.62890625 C5.86880494 42.61018372 3.28614325 40.54790497 -0.09375 37.62890625 Z " fill="#013894" transform="translate(58.09375,105.37109375)"/>
<path d="M0 0 C5.53712204 3.92957048 11.49300935 8.7852173 12.80859375 15.7109375 C13.95199219 15.69933594 15.09539062 15.68773438 16.2734375 15.67578125 C17.76432129 15.66640462 19.25520684 15.65730429 20.74609375 15.6484375 C21.50083984 15.64005859 22.25558594 15.63167969 23.03320312 15.62304688 C24.95853688 15.61441309 26.88394956 15.65869417 28.80859375 15.7109375 C29.80859375 16.7109375 29.80859375 16.7109375 29.94140625 19.6171875 C29.93882812 20.803125 29.93625 21.9890625 29.93359375 23.2109375 C29.93746094 24.98984375 29.93746094 24.98984375 29.94140625 26.8046875 C29.80859375 29.7109375 29.80859375 29.7109375 28.80859375 30.7109375 C26.82859375 30.7109375 24.84859375 30.7109375 22.80859375 30.7109375 C22.80859375 43.9109375 22.80859375 57.1109375 22.80859375 70.7109375 C19.36421875 70.7728125 15.91984375 70.8346875 12.37109375 70.8984375 C11.3044751 70.92574951 10.23785645 70.95306152 9.13891602 70.98120117 C2.13504274 71.04146209 -4.59907235 70.47782703 -10.31640625 66.07421875 C-13.12102246 64.03502905 -15.77133026 64.16563094 -19.19140625 63.8984375 C-28.87585826 62.85201176 -36.83053506 59.59978137 -43.69140625 52.4609375 C-51.22549785 42.99623492 -52.33829031 33.45455244 -51.19140625 21.7109375 C-49.53994433 13.9593881 -45.20686007 7.79496622 -39.19140625 2.7109375 C-26.89948339 -4.79028722 -13.0870345 -7.69825559 0 0 Z M-29.19140625 13.7109375 C-29.19140625 14.3709375 -29.19140625 15.0309375 -29.19140625 15.7109375 C-21.27140625 15.7109375 -13.35140625 15.7109375 -5.19140625 15.7109375 C-9.6807324 11.22161135 -11.49020414 10.56074998 -17.50390625 10.4609375 C-22.12843188 10.48547079 -25.23348504 11.14363725 -29.19140625 13.7109375 Z M-3.19140625 30.7109375 C-3.27217351 34.31555045 -3.33179576 37.91836313 -3.37890625 41.5234375 C-3.40404297 42.54759766 -3.42917969 43.57175781 -3.45507812 44.62695312 C-3.46474609 45.60986328 -3.47441406 46.59277344 -3.484375 47.60546875 C-3.50008545 48.51143799 -3.5157959 49.41740723 -3.53198242 50.35083008 C-3.38058923 52.77196645 -3.38058923 52.77196645 -1.79858398 54.50952148 C1.17381222 56.73148134 4.22291148 55.94227184 7.80859375 55.7109375 C9.0704047 54.67300978 9.0704047 54.67300978 8.92211914 52.39428711 C8.91688232 51.39405518 8.91164551 50.39382324 8.90625 49.36328125 C8.90302734 48.28369141 8.89980469 47.20410156 8.89648438 46.09179688 C8.88810547 44.95548828 8.87972656 43.81917969 8.87109375 42.6484375 C8.86658203 41.50826172 8.86207031 40.36808594 8.85742188 39.19335938 C8.84559135 36.36586332 8.82765525 33.53839405 8.80859375 30.7109375 C4.84859375 30.7109375 0.88859375 30.7109375 -3.19140625 30.7109375 Z " fill="#013894" transform="translate(164.19140625,50.2890625)"/>
</svg>
