<?xml version="1.0" encoding="UTF-8"?>
<svg version="1.1" xmlns="http://www.w3.org/2000/svg" width="320" height="320">
<path d="M0 0 C12.12480767 10.29067681 22.58341083 21.65576703 31.3359375 34.8984375 C32.74251608 36.84327358 34.15869248 38.7812167 35.5859375 40.7109375 C36.83865751 42.43813463 38.0888719 44.16715337 39.3359375 45.8984375 C39.85800781 46.6203125 40.38007813 47.3421875 40.91796875 48.0859375 C45.478495 54.63191713 48.90369022 61.72074111 52.3359375 68.8984375 C52.79516602 69.84807373 52.79516602 69.84807373 53.26367188 70.81689453 C67.78365242 100.88421274 67.78365242 100.88421274 63.078125 116.90234375 C59.9054958 125.43504651 54.48048732 133.04079257 46.01196289 136.97924805 C34.83728255 140.81764523 18.7788879 138.88589701 8.3359375 133.8984375 C6.64597656 133.09986328 6.64597656 133.09986328 4.921875 132.28515625 C3.05812162 131.40159357 1.19560869 130.51604779 -0.66235352 129.62036133 C-5.69763565 127.23495805 -10.82222012 125.29922622 -16.1015625 123.5234375 C-16.83455566 123.27287598 -17.56754883 123.02231445 -18.32275391 122.76416016 C-40.99594468 115.3643475 -64.72786249 122.25193097 -85.7890625 131.5234375 C-98.32637345 136.85956572 -113.62524798 141.06737204 -127.0546875 136.828125 C-137.21745312 132.15529558 -143.39004576 125.73350722 -147.75390625 115.51171875 C-154.58750483 95.89078548 -142.83567708 70.48844829 -134.6640625 52.8984375 C-119.80209926 23.03537035 -100.98250084 -1.86471858 -68.6015625 -13.4140625 C-43.75955981 -21.10089733 -20.39468481 -16.02048968 0 0 Z " fill="#013893" transform="translate(208.6640625,182.1015625)"/>
<path d="M0 0 C11.91998488 7.05710548 18.91903194 18.89752834 22.5625 32 C27.28350544 54.21018471 23.63292391 77.611373 11.5625 97 C4.40483668 107.59629333 -5.04908657 116.01531214 -17.4375 120 C-27.46839547 121.2046341 -35.19044478 120.1478048 -43.4375 114 C-53.57305769 105.9425257 -59.91897044 92.69569642 -62.12109375 80.078125 C-64.51469587 56.79221791 -59.85200483 33.79752665 -45.4375 15 C-34.75372764 2.03935812 -16.71514095 -7.75874144 0 0 Z " fill="#013893" transform="translate(229.4375,2)"/>
<path d="M0 0 C4.90353992 3.30351002 4.90353992 3.30351002 7.15234375 5.24609375 C7.15234375 5.90609375 7.15234375 6.56609375 7.15234375 7.24609375 C7.75304687 7.50390625 8.35375 7.76171875 8.97265625 8.02734375 C17.92440518 13.03262272 24.2029297 27.8580035 27.15234375 37.24609375 C28.29131574 41.88842156 29.25253755 46.55220026 30.15234375 51.24609375 C30.32507813 52.03790039 30.4978125 52.82970703 30.67578125 53.64550781 C33.42404291 68.64268157 31.75990364 84.89763216 23.96484375 98.05859375 C16.99762142 108.08784373 10.15648167 114.43349733 -2.08984375 116.65234375 C-11.86627138 117.36856555 -21.63968441 112.21472423 -28.87109375 106.03515625 C-29.84949219 105.14957031 -29.84949219 105.14957031 -30.84765625 104.24609375 C-31.43804687 103.75882812 -32.0284375 103.2715625 -32.63671875 102.76953125 C-46.90399639 90.06579089 -53.41958579 68.86312189 -54.68359375 50.41796875 C-55.53848512 33.89006893 -53.25645756 18.85899737 -42.671875 5.5 C-30.44199039 -7.36355739 -15.06244056 -9.27714103 0 0 Z " fill="#013894" transform="translate(118.84765625,6.75390625)"/>
<path d="M0 0 C8.96801109 6.48525634 13.86835103 14.94380136 16.703125 25.55859375 C17.23852035 30.01262016 17.27626508 34.38928499 17.203125 38.87109375 C17.19031494 40.06371826 17.17750488 41.25634277 17.16430664 42.48510742 C16.96504797 51.13955581 16.17138217 58.54466225 12.703125 66.55859375 C12.20554687 67.72003906 11.70796875 68.88148438 11.1953125 70.078125 C7.39382816 78.23805533 2.73625686 85.84965282 -3.296875 92.55859375 C-3.956875 92.55859375 -4.616875 92.55859375 -5.296875 92.55859375 C-5.296875 93.21859375 -5.296875 93.87859375 -5.296875 94.55859375 C-14.84504823 103.09100387 -26.32840795 108.07557305 -39.234375 107.7578125 C-48.59921752 106.85325385 -55.07256416 100.58459862 -60.90234375 93.6484375 C-68.92822318 82.01708608 -70.08594965 67.07493353 -67.96728516 53.43701172 C-64.24341893 34.790466 -54.96254651 16.12239991 -39.359375 4.74609375 C-27.23873457 -3.27246163 -13.2239245 -8.29868732 0 0 Z " fill="#013893" transform="translate(303.296875,99.44140625)"/>
<path d="M0 0 C15.14361145 10.40197185 24.21878632 27.87203333 28.2421875 45.4140625 C30.00559137 55.59315935 30.57164445 65.6346415 27.80859375 75.68359375 C27.61265625 76.39902344 27.41671875 77.11445313 27.21484375 77.8515625 C24.40793478 86.48949071 18.12631887 93.46671842 10.80859375 98.68359375 C4.1575806 101.96011578 -3.81800775 101.68776303 -10.81640625 99.49609375 C-12.28745328 98.92357815 -13.74598976 98.31804205 -15.19140625 97.68359375 C-15.99191406 97.34328125 -16.79242188 97.00296875 -17.6171875 96.65234375 C-34.02816882 89.09767739 -44.91014791 75.26138945 -51.45092773 58.73168945 C-54.78434412 49.51176526 -55.73859693 41.03895799 -55.75390625 31.24609375 C-55.79064453 30.01310547 -55.82738281 28.78011719 -55.86523438 27.50976562 C-55.91127828 17.8251967 -53.74422063 9.83103618 -47.21557617 2.44970703 C-45.31433911 0.62150699 -43.38280222 -0.85139479 -41.19140625 -2.31640625 C-40.26134766 -2.96416016 -40.26134766 -2.96416016 -39.3125 -3.625 C-27.1522096 -10.50234623 -11.17390201 -6.71230834 0 0 Z " fill="#013893" transform="translate(55.19140625,111.31640625)"/>
</svg>
