<?xml version="1.0" encoding="UTF-8"?>
<svg version="1.1" xmlns="http://www.w3.org/2000/svg" width="320" height="320">
<path d="M0 0 C4.60530996 3.66196421 7.9681909 8.20926832 11.421875 12.92578125 C11.95312988 13.64008301 12.48438477 14.35438477 13.03173828 15.09033203 C14.79650535 17.46599909 16.54956413 19.84974872 18.296875 22.23828125 C18.85673096 23.00301758 19.41658691 23.76775391 19.9934082 24.55566406 C26.46420538 33.54228203 29.48390202 40.75932568 28.421875 51.92578125 C26.77436726 58.11882241 23.39451398 62.53287996 19.0078125 67.1015625 C15.60642985 71.01399033 14.97245532 74.31355043 15.11328125 79.375 C16.91192781 94.24229371 27.74410646 106.25791947 37.421875 116.92578125 C37.90897949 117.46493164 38.39608398 118.00408203 38.89794922 118.55957031 C50.95090391 131.70752942 67.62295642 147.22942235 86.171875 148.67578125 C91.36270445 148.41586847 93.80337914 146.56507294 97.37890625 142.9453125 C99.65648235 140.69386538 102.05572756 138.89545163 104.671875 137.05078125 C105.48140625 136.47585937 106.2909375 135.9009375 107.125 135.30859375 C111.06976367 132.93368501 114.55049051 132.74729316 119.109375 132.67578125 C120.56923828 132.63710938 120.56923828 132.63710938 122.05859375 132.59765625 C130.27840311 133.39958887 137.20692403 137.16553201 144.296875 141.17578125 C145.17166504 141.66667236 146.04645508 142.15756348 146.94775391 142.66333008 C149.44538292 144.07349133 151.93445135 145.49771856 154.421875 146.92578125 C155.35773438 147.45341064 155.35773438 147.45341064 156.3125 147.99169922 C165.19693504 153.02885658 171.07210053 158.64278413 173.953125 168.640625 C175.42272594 175.80492958 174.61189262 182.3418307 171.421875 188.92578125 C166.33586274 195.69888779 159.97611027 201.65337228 154.046875 207.67578125 C152.70496094 209.07376953 152.70496094 209.07376953 151.3359375 210.5 C141.02730651 220.94348226 132.41523275 223.17312106 118.109375 223.30078125 C81.0742871 223.40233546 43.4549711 206.95319959 16.04614258 182.3112793 C14.19259613 180.73020668 12.25696188 179.29328145 10.3046875 177.8359375 C4.75504778 173.55626347 -0.14609517 168.65859122 -5.0715332 163.69311523 C-6.63472189 162.11922477 -8.20829714 160.55629632 -9.78320312 158.99414062 C-15.8304917 152.95565763 -21.42484004 146.76232656 -26.578125 139.92578125 C-27.26612183 139.01880493 -27.26612183 139.01880493 -27.96801758 138.09350586 C-46.81437802 112.84380672 -63.06172531 83.89845743 -66.890625 52.23828125 C-66.99165527 51.45380615 -67.09268555 50.66933105 -67.19677734 49.86108398 C-67.88341624 43.34349664 -67.44421522 37.23692183 -64.17578125 31.4375 C-63.66917969 30.83550781 -63.16257812 30.23351563 -62.640625 29.61328125 C-61.88458984 28.69095703 -61.88458984 28.69095703 -61.11328125 27.75 C-60.60667969 27.14800781 -60.10007812 26.54601563 -59.578125 25.92578125 C-59.06121094 25.18972656 -58.54429688 24.45367187 -58.01171875 23.6953125 C-57.53863281 23.11136719 -57.06554688 22.52742188 -56.578125 21.92578125 C-55.918125 21.92578125 -55.258125 21.92578125 -54.578125 21.92578125 C-54.248125 20.93578125 -53.918125 19.94578125 -53.578125 18.92578125 C-52.918125 18.92578125 -52.258125 18.92578125 -51.578125 18.92578125 C-51.248125 17.93578125 -50.918125 16.94578125 -50.578125 15.92578125 C-49.918125 15.92578125 -49.258125 15.92578125 -48.578125 15.92578125 C-48.248125 14.93578125 -47.918125 13.94578125 -47.578125 12.92578125 C-46.918125 12.92578125 -46.258125 12.92578125 -45.578125 12.92578125 C-45.248125 11.93578125 -44.918125 10.94578125 -44.578125 9.92578125 C-43.918125 9.92578125 -43.258125 9.92578125 -42.578125 9.92578125 C-42.578125 9.26578125 -42.578125 8.60578125 -42.578125 7.92578125 C-40.70367665 6.03737919 -38.68330703 4.37699471 -36.64453125 2.66796875 C-34.49119915 0.90247146 -34.49119915 0.90247146 -32.328125 -1.32421875 C-21.58677237 -8.15962497 -10.27095864 -6.68250259 0 0 Z " fill="#013894" transform="translate(119.578125,31.07421875)"/>
</svg>
