<?xml version="1.0" encoding="UTF-8"?>
<svg version="1.1" xmlns="http://www.w3.org/2000/svg" width="320" height="320">
<path d="M0 0 C2.86050566 2.45013116 5.64995649 4.97012523 8.41186523 7.53051758 C9.31678711 8.36454102 10.22170898 9.19856445 11.15405273 10.05786133 C37.98858352 35.84743375 52.93024637 72.50101588 53.765625 109.46875 C54.05488579 151.16552691 38.21939553 186.92160261 9.53686523 216.71801758 C-18.11726886 243.63180477 -55.36913955 257.17740318 -93.65576172 256.88183594 C-129.9366796 256.0460848 -163.06620562 242.11733439 -189.58813477 217.53051758 C-190.49305664 216.69649414 -191.39797852 215.8624707 -192.33032227 215.00317383 C-219.16485306 189.2136014 -234.1065159 152.56001928 -234.94189453 115.59228516 C-235.23115532 73.89550825 -219.39566507 38.13943255 -190.71313477 8.34301758 C-139.81459531 -41.19288381 -54.93698172 -45.61069289 0 0 Z M-179.58813477 27.53051758 C-180.37833008 28.30782227 -181.16852539 29.08512695 -181.98266602 29.88598633 C-203.6397345 52.52919103 -214.32295523 84.76103366 -213.77172852 115.69458008 C-212.28476204 146.76268818 -200.97687398 174.72530557 -179.58813477 197.53051758 C-178.92813477 197.20051758 -178.26813477 196.87051758 -177.58813477 196.53051758 C-176.76630691 194.0561011 -176.0353635 191.60224999 -175.33813477 189.09301758 C-170.82313439 173.92784917 -161.55910803 161.38436581 -147.58813477 153.53051758 C-132.05474818 145.8195661 -114.80957734 142.9750666 -97.58813477 142.53051758 C-96.51176758 142.49055664 -95.43540039 142.4505957 -94.32641602 142.40942383 C-70.12435072 141.92251837 -42.39007911 144.4844799 -23.21313477 160.78051758 C-12.22775167 171.47775947 -7.28372024 183.20239929 -2.58813477 197.53051758 C17.98185733 182.18407864 28.04770858 151.51288726 31.93920898 127.24145508 C32.21729555 124.65867848 32.35670101 122.1271763 32.41186523 119.53051758 C32.45053711 118.48508789 32.48920898 117.4396582 32.52905273 116.36254883 C33.20810876 82.97562767 21.36902113 52.08800567 -1.4934082 27.72021484 C-2.84685842 26.31254137 -4.21726185 24.92122946 -5.58813477 23.53051758 C-6.36543945 22.74032227 -7.14274414 21.95012695 -7.94360352 21.13598633 C-30.98640625 -0.90327726 -63.4403621 -11.21639659 -94.85375977 -10.65307617 C-127.82669607 -9.03202177 -156.21755503 4.49332699 -179.58813477 27.53051758 Z M-147.46704102 178.98364258 C-153.60886402 186.35835455 -156.61159427 195.26026426 -158.58813477 204.53051758 C-158.81243164 205.3477832 -159.03672852 206.16504883 -159.26782227 207.00708008 C-159.78749114 209.39755692 -160.02343951 211.12214675 -159.58813477 213.53051758 C-157.44802759 216.38173631 -154.68448145 217.84282862 -151.58813477 219.53051758 C-150.04125977 220.39483398 -150.04125977 220.39483398 -148.46313477 221.27661133 C-117.92611403 237.4126507 -83.52005523 239.1729016 -50.79370117 229.24243164 C-40.85895818 226.03568927 -27.5727171 221.50739108 -21.58813477 212.53051758 C-21.80625471 209.95192153 -22.13637972 207.61374888 -22.65063477 205.09301758 C-22.7942041 204.37871582 -22.93777344 203.66441406 -23.08569336 202.9284668 C-25.50873852 191.60826313 -29.50221845 182.09775048 -38.58813477 174.53051758 C-51.22603428 166.53757397 -65.1961866 163.41197881 -80.02172852 163.32739258 C-80.81732681 163.3216925 -81.61292511 163.31599243 -82.43263245 163.31011963 C-84.11262708 163.30071692 -85.79263976 163.29415458 -87.47265625 163.2902832 C-89.98740837 163.2806638 -92.50131122 163.2496317 -95.01586914 163.21801758 C-113.71327428 163.09436907 -133.44787054 165.2637319 -147.46704102 178.98364258 Z " fill="#000000" transform="translate(250.588134765625,47.469482421875)"/>
<path d="M0 0 C2.28858146 1.44440082 4.42037373 2.98681011 6.55859375 4.64453125 C7.24695313 5.15757813 7.9353125 5.670625 8.64453125 6.19921875 C17.91080469 13.61933809 23.49790784 24.02421364 25.55859375 35.64453125 C27.13571021 51.46746115 24.54129586 64.88353393 14.55859375 77.64453125 C5.88163656 87.17865752 -5.96296552 94.34412137 -19.078125 94.98046875 C-34.78008749 95.2616887 -48.23513441 92.50502376 -60.12890625 81.45703125 C-71.73522507 68.97476384 -75.47976659 55.3855886 -74.8828125 38.71875 C-73.99128563 25.29617976 -66.65676811 14.3883257 -57.12890625 5.26953125 C-41.74099914 -7.6998965 -17.47681409 -9.70312718 0 0 Z M-48.8125 27.41015625 C-54.40616083 35.08299557 -54.15242637 42.30985285 -53.44140625 51.64453125 C-52.28141231 58.72959228 -47.69701744 63.97584111 -42.44140625 68.64453125 C-34.82396876 73.72684691 -27.98134954 75.27902369 -19.00390625 74.08203125 C-9.96491117 72.18171693 -4.35923394 67.17559717 1.1484375 59.98828125 C5.61206601 52.56950811 5.96645716 43.31813647 3.90625 35.015625 C0.58156695 26.81093507 -5.32809858 20.13603882 -13.4375 16.49609375 C-27.42937598 12.52960615 -39.68445215 16.12456982 -48.8125 27.41015625 Z " fill="#000000" transform="translate(184.44140625,75.35546875)"/>
</svg>
