<?xml version="1.0" encoding="UTF-8"?>
<svg version="1.1" xmlns="http://www.w3.org/2000/svg" width="183" height="275">
<path d="M0 0 C60.39 0 120.78 0 183 0 C183 90.75 183 181.5 183 275 C122.61 275 62.22 275 0 275 C0 184.25 0 93.5 0 0 Z " fill="#D6D8D1" transform="translate(0,0)"/>
<path d="M0 0 C1.34977849 0.63270867 2.68352881 1.30062468 4 2 C6.00431449 1.34641919 8.0040278 0.67863055 10 0 C13.375 0.375 13.375 0.375 16 1 C16 1.66 16 2.32 16 3 C19.40351338 5.03219488 22.3232927 5.36891039 26.25 5.625 C27.32765625 5.69976562 28.4053125 5.77453125 29.515625 5.8515625 C30.74539062 5.92503906 30.74539062 5.92503906 32 6 C33.49821059 9.37097383 34 11.20442119 34 15 C34.99 15.33 35.98 15.66 37 16 C37.99 17.485 37.99 17.485 39 19 C41.05003955 20.19232613 41.05003955 20.19232613 43 21 C42.34 21.33 41.68 21.66 41 22 C41.495 22.7734375 41.495 22.7734375 42 23.5625 C43.37646473 26.91763278 43.29567751 29.38742734 43 33 C41.3203125 36.0625 41.3203125 36.0625 39.125 39 C36.02018765 43.36648521 33.95634415 46.74010717 33 52 C34.485 52.495 34.485 52.495 36 53 C36.49599145 60.31587386 36.49599145 60.31587386 34.1875 63.5 C33.465625 64.325 32.74375 65.15 32 66 C30.82214968 68.62675406 29.92594524 71.26846154 29 74 C26.69 73.67 24.38 73.34 22 73 C21.7525 74.051875 21.505 75.10375 21.25 76.1875 C20.21740482 79.8163345 18.65228327 82.26483288 16 85 C15.34 85 14.68 85 14 85 C14 87.97 14 90.94 14 94 C15.32 94.66 16.64 95.32 18 96 C18 97.32 18 98.64 18 100 C18.66 100 19.32 100 20 100 C19.67 98.02 19.34 96.04 19 94 C19.99 94.33 20.98 94.66 22 95 C22 96.65 22 98.3 22 100 C20.02 100.99 20.02 100.99 18 102 C18 102.66 18 103.32 18 104 C-2.54092032 107.60592959 -2.54092032 107.60592959 -8.0625 104 C-10 101 -10 101 -11 93 C-5.06 92.67 0.88 92.34 7 92 C7 91.34 7 90.68 7 90 C8.98 89.505 8.98 89.505 11 89 C7.23190251 88.69417672 7.23190251 88.69417672 5.078125 89.9921875 C2.49043901 91.24711792 0.6089493 91.20023551 -2.25 91.125 C-3.14203125 91.10695313 -4.0340625 91.08890625 -4.953125 91.0703125 C-5.62859375 91.04710937 -6.3040625 91.02390625 -7 91 C-6.67 89.68 -6.34 88.36 -6 87 C-3.03 86.505 -3.03 86.505 0 86 C-3.00440021 83.99706653 -4.70993945 83.50728374 -8.1875 82.875 C-9.08855469 82.70742187 -9.98960938 82.53984375 -10.91796875 82.3671875 C-11.94857422 82.18542969 -11.94857422 82.18542969 -13 82 C-12.67 80.35 -12.34 78.7 -12 77 C-11.01 77 -10.02 77 -9 77 C-9 76.34 -9 75.68 -9 75 C-10.98 75 -12.96 75 -15 75 C-14.505 73.515 -14.505 73.515 -14 72 C-10.04 72 -6.08 72 -2 72 C-2 70.68 -2 69.36 -2 68 C-2.99 68 -3.98 68 -5 68 C-5 66.35 -5 64.7 -5 63 C0.445 62.505 0.445 62.505 6 62 C5.67 61.01 5.34 60.02 5 59 C4.73317514 55.8743374 4.55540852 52.749164 4.37890625 49.6171875 C4.25386719 48.75351563 4.12882812 47.88984375 4 47 C3.01 46.505 3.01 46.505 2 46 C2 47.32 2 48.64 2 50 C1.34 50 0.68 50 0 50 C0 50.66 0 51.32 0 52 C-3.47325181 53.1577506 -6.36067448 53.06866652 -10 53 C-10.226875 52.38125 -10.45375 51.7625 -10.6875 51.125 C-12.37929835 48.38589791 -13.99244161 47.94975528 -17 47 C-17 44.69 -17 42.38 -17 40 C-11.25 37 -11.25 37 -9 37 C-9 35.35 -9 33.7 -9 32 C-8.34 32 -7.68 32 -7 32 C-7 31.34 -7 30.68 -7 30 C-7.99 30 -8.98 30 -10 30 C-10.33 28.68 -10.66 27.36 -11 26 C-12.65 26 -14.3 26 -16 26 C-16.66 28.64 -17.32 31.28 -18 34 C-18.66 34 -19.32 34 -20 34 C-20.17015625 34.68964844 -20.3403125 35.37929687 -20.515625 36.08984375 C-22.13709372 42.37734748 -24.15984239 48.16109729 -27 54 C-29 52.375 -29 52.375 -31 50 C-31.31452272 46.85477278 -31.42041821 44.84083641 -30 42 C-29.34 42 -28.68 42 -28 42 C-28 44.31 -28 46.62 -28 49 C-27.34 49 -26.68 49 -26 49 C-26.08378906 47.7934375 -26.16757812 46.586875 -26.25390625 45.34375 C-26.35716289 43.72919169 -26.46000536 42.11460686 -26.5625 40.5 C-26.64661133 39.31277344 -26.64661133 39.31277344 -26.73242188 38.1015625 C-27.05189484 32.90480221 -26.79686914 28.14718438 -26 23 C-25.34 23 -24.68 23 -24 23 C-23.95101562 22.37351562 -23.90203125 21.74703125 -23.8515625 21.1015625 C-23.73941406 19.87566406 -23.73941406 19.87566406 -23.625 18.625 C-23.55539063 17.81289062 -23.48578125 17.00078125 -23.4140625 16.1640625 C-23 14 -23 14 -21 12 C-20.01 12 -19.02 12 -18 12 C-17.94199219 11.39285156 -17.88398437 10.78570312 -17.82421875 10.16015625 C-17 8 -17 8 -14.70703125 6.62109375 C-13.75183594 6.23050781 -12.79664062 5.83992188 -11.8125 5.4375 C-8.5898977 4.09335759 -5.61141576 2.78097979 -2.5625 1.0625 C-1.716875 0.711875 -0.87125 0.36125 0 0 Z " fill="#D29D6E" transform="translate(87,78)"/>
<path d="M0 0 C0.99 0.33 1.98 0.66 3 1 C3.6875 3.0625 3.6875 3.0625 4 5 C4.99 5 5.98 5 7 5 C7 5.66 7 6.32 7 7 C6.34 7 5.68 7 5 7 C5 8.65 5 10.3 5 12 C3.865625 12.45375 2.73125 12.9075 1.5625 13.375 C-2.04721692 14.57095806 -2.04721692 14.57095806 -3 17 C-2.01 17.33 -1.02 17.66 0 18 C-0.99 18 -1.98 18 -3 18 C-2.88693303 19.95894361 -2.88693303 19.95894361 -2 22 C-0.34795544 22.70211894 1.31923769 23.36971413 3 24 C3.33 24.99 3.66 25.98 4 27 C7.3 27 10.6 27 14 27 C14 26.34 14 25.68 14 25 C14.66 25 15.32 25 16 25 C16 23.68 16 22.36 16 21 C16.99 21.33 17.98 21.66 19 22 C19.495 29.425 19.495 29.425 20 37 C17.24921116 37.91692961 15.64051087 38.10886083 12.8125 38.0625 C11.554375 38.041875 10.29625 38.02125 9 38 C9 39.65 9 41.3 9 43 C9.99 43 10.98 43 12 43 C12 44.32 12 45.64 12 47 C8.04 47 4.08 47 0 47 C0 47.66 0 48.32 0 49 C1.65 49.33 3.3 49.66 5 50 C5 50.66 5 51.32 5 52 C4.01 52 3.02 52 2 52 C1.67 53.65 1.34 55.3 1 57 C1.67546875 57.03738281 2.3509375 57.07476562 3.046875 57.11328125 C4.38492188 57.21189453 4.38492188 57.21189453 5.75 57.3125 C7.07257813 57.39951172 7.07257813 57.39951172 8.421875 57.48828125 C11.32303774 58.0641181 12.79225607 59.07596148 15 61 C13.865625 61.268125 12.73125 61.53625 11.5625 61.8125 C9.7990625 62.4003125 9.7990625 62.4003125 8 63 C7.67 63.99 7.34 64.98 7 66 C9.06356895 65.7159949 11.1258285 65.42246648 13.1875 65.125 C14.33605469 64.96257812 15.48460937 64.80015625 16.66796875 64.6328125 C19.68724625 64.05939755 22.20575848 63.25240957 25 62 C25 62.66 25 63.32 25 64 C23.02 64.495 23.02 64.495 21 65 C21 65.66 21 66.32 21 67 C17.24600202 68.2039337 13.66782588 68.09877617 9.75 68.0625 C8.48671875 68.05347656 7.2234375 68.04445313 5.921875 68.03515625 C4.47554687 68.01775391 4.47554687 68.01775391 3 68 C3.20496094 68.61488281 3.40992187 69.22976562 3.62109375 69.86328125 C5.31054688 74.93164062 5.31054688 74.93164062 7 80 C9.64 80.33 12.28 80.66 15 81 C15 81.33 15 81.66 15 82 C6.73986956 82.47654599 -1.68180827 81.00758119 -9 77 C-9 76.34 -9 75.68 -9 75 C-9.66 75 -10.32 75 -11 75 C-11 74.34 -11 73.68 -11 73 C-10.34 73 -9.68 73 -9 73 C-9 72.01 -9 71.02 -9 70 C-8.01 70 -7.02 70 -6 70 C-6 65.71 -6 61.42 -6 57 C-7.32 57 -8.64 57 -10 57 C-11.59412284 53.81175432 -11.10174735 50.37103338 -11.0625 46.875 C-11.05798828 46.12089844 -11.05347656 45.36679688 -11.04882812 44.58984375 C-11.03703499 42.72652873 -11.01909942 40.86325445 -11 39 C-12.65 39 -14.3 39 -16 39 C-17.76070318 35.14082609 -18.38413485 31.78474605 -18.6875 27.5625 C-18.77386719 26.47066406 -18.86023437 25.37882812 -18.94921875 24.25390625 C-18.99954379 21.02923252 -18.63303769 18.1556691 -18 15 C-16.35 15.33 -14.7 15.66 -13 16 C-13 13.69 -13 11.38 -13 9 C-12.67 9 -12.34 9 -12 9 C-12 13.95 -12 18.9 -12 24 C-12.66 24 -13.32 24 -14 24 C-14 21.69 -14 19.38 -14 17 C-14.66 17 -15.32 17 -16 17 C-16.04125 18.258125 -16.0825 19.51625 -16.125 20.8125 C-16.15980469 21.87404297 -16.15980469 21.87404297 -16.1953125 22.95703125 C-16.13254462 25.31359719 -16.13254462 25.31359719 -14 28 C-10.97302979 23.81989828 -9.94270046 19.45859512 -8.74609375 14.5234375 C-8 12 -8 12 -6 9 C-5.34 9 -4.68 9 -4 9 C-3.81824219 8.15115234 -3.81824219 8.15115234 -3.6328125 7.28515625 C-3.46523437 6.55167969 -3.29765625 5.81820312 -3.125 5.0625 C-2.96257812 4.33160156 -2.80015625 3.60070312 -2.6328125 2.84765625 C-2 1 -2 1 0 0 Z " fill="#DAAC80" transform="translate(73,103)"/>
<path d="M0 0 C0.53625 0.37125 1.0725 0.7425 1.625 1.125 C4.94088357 2.34664131 6.7090698 1.11891627 10 0 C13.375 0.375 13.375 0.375 16 1 C16 1.66 16 2.32 16 3 C19.40351338 5.03219488 22.3232927 5.36891039 26.25 5.625 C27.32765625 5.69976562 28.4053125 5.77453125 29.515625 5.8515625 C30.74539062 5.92503906 30.74539062 5.92503906 32 6 C33.49821059 9.37097383 34 11.20442119 34 15 C34.99 15.33 35.98 15.66 37 16 C37.66 16.99 38.32 17.98 39 19 C41.05003955 20.19232613 41.05003955 20.19232613 43 21 C42.01 21.495 42.01 21.495 41 22 C41.495 22.7734375 41.495 22.7734375 42 23.5625 C43.37350638 26.91042181 43.28858251 29.39651572 43 33 C41.390625 35.921875 41.390625 35.921875 39.25 38.75 C33.66574207 46.65691389 30.72770025 54.35797174 30 64 C28 62 28 62 27.75 59.1875 C27.89751213 53.40994148 29.04224794 47.68665285 30 42 C29.34 42 28.68 42 28 42 C27.34 39.36 26.68 36.72 26 34 C25.34 34 24.68 34 24 34 C21 30.53846154 21 30.53846154 21 28 C20.46375 27.896875 19.9275 27.79375 19.375 27.6875 C15.6589627 26.61180499 12.1996713 25.09086391 9.3203125 22.47265625 C6.03298614 20.38625551 2.66492897 20.18200113 -1.125 19.8125 C-1.85332031 19.73064453 -2.58164063 19.64878906 -3.33203125 19.56445312 C-7.15718143 19.14148927 -7.15718143 19.14148927 -11 19 C-11.66 19.66 -12.32 20.32 -13 21 C-13.99 21 -14.98 21 -16 21 C-16.99 21.33 -17.98 21.66 -19 22 C-19 22.66 -19 23.32 -19 24 C-19.99 24 -20.98 24 -22 24 C-22 21.69 -22 19.38 -22 17 C-20.68 16.34 -19.36 15.68 -18 15 C-17.67 15.33 -17.34 15.66 -17 16 C-16.01 14.02 -15.02 12.04 -14 10 C-14.66 10 -15.32 10 -16 10 C-16.33 10.66 -16.66 11.32 -17 12 C-16.8984375 9.66796875 -16.8984375 9.66796875 -16 7 C-13.1640625 5.48828125 -13.1640625 5.48828125 -9.625 4.3125 C-6.02447751 3.08704501 -3.17251109 2.1150074 0 0 Z " fill="#4E3721" transform="translate(87,78)"/>
<path d="M0 0 C8.06510168 -0.49155247 15.21726112 0.95062675 23 3 C23.95808288 6.5928108 24.20508082 8.38475753 23 12 C22.67 12.33 22.34 12.66 22 13 C22.99 13 23.98 13 25 13 C26.125 20.625 26.125 20.625 25 24 C25.99 24 26.98 24 28 24 C28 23.34 28 22.68 28 22 C28.99 22.33 29.98 22.66 31 23 C31 24.32 31 25.64 31 27 C31.66 27 32.32 27 33 27 C32.505 24.03 32.505 24.03 32 21 C32.99 21.33 33.98 21.66 35 22 C35 23.65 35 25.3 35 27 C33.02 27.99 33.02 27.99 31 29 C31 29.66 31 30.32 31 31 C10.45907968 34.60592959 10.45907968 34.60592959 4.9375 31 C3 28 3 28 2 20 C7.94 19.67 13.88 19.34 20 19 C20 18.34 20 17.68 20 17 C21.32 16.67 22.64 16.34 24 16 C20.23190251 15.69417672 20.23190251 15.69417672 18.078125 16.9921875 C15.49043901 18.24711792 13.6089493 18.20023551 10.75 18.125 C9.85796875 18.10695312 8.9659375 18.08890625 8.046875 18.0703125 C7.37140625 18.04710937 6.6959375 18.02390625 6 18 C6.33 16.68 6.66 15.36 7 14 C8.98 13.67 10.96 13.34 13 13 C10.0534615 11.19933758 7.11198065 9.49836105 4 8 C8.75 5.125 8.75 5.125 11 4 C8.09907498 2.06604999 7.10325263 1.69868059 3.8125 1.375 C1.9253125 1.189375 1.9253125 1.189375 0 1 C0 0.67 0 0.34 0 0 Z " fill="#A67542" transform="translate(74,151)"/>
<path d="M0 0 C2.1519437 3.22791555 2.20086443 4.28400809 2 8 C2.99 8 3.98 8 5 8 C5 9.32 5 10.64 5 12 C1.04 12 -2.92 12 -7 12 C-7 12.66 -7 13.32 -7 14 C-5.35 14.33 -3.7 14.66 -2 15 C-2 15.66 -2 16.32 -2 17 C-2.99 17 -3.98 17 -5 17 C-5.33 18.65 -5.66 20.3 -6 22 C-5.32453125 22.03738281 -4.6490625 22.07476562 -3.953125 22.11328125 C-3.06109375 22.17902344 -2.1690625 22.24476563 -1.25 22.3125 C-0.36828125 22.37050781 0.5134375 22.42851562 1.421875 22.48828125 C4.32303774 23.0641181 5.79225607 24.07596148 8 26 C6.865625 26.268125 5.73125 26.53625 4.5625 26.8125 C3.386875 27.204375 2.21125 27.59625 1 28 C0.67 28.99 0.34 29.98 0 31 C2.06356895 30.7159949 4.1258285 30.42246648 6.1875 30.125 C7.33605469 29.96257812 8.48460938 29.80015625 9.66796875 29.6328125 C12.68724625 29.05939755 15.20575848 28.25240957 18 27 C18 27.66 18 28.32 18 29 C16.68 29.33 15.36 29.66 14 30 C14 30.66 14 31.32 14 32 C10.24600202 33.2039337 6.66782588 33.09877617 2.75 33.0625 C1.48671875 33.05347656 0.2234375 33.04445312 -1.078125 33.03515625 C-2.04234375 33.02355469 -3.0065625 33.01195312 -4 33 C-3.79503906 33.61488281 -3.59007813 34.22976562 -3.37890625 34.86328125 C-2.25260417 38.2421875 -1.12630208 41.62109375 0 45 C2.64 45.33 5.28 45.66 8 46 C8 46.33 8 46.66 8 47 C-0.26013044 47.47654599 -8.68180827 46.00758119 -16 42 C-16 41.34 -16 40.68 -16 40 C-16.66 40 -17.32 40 -18 40 C-18 39.34 -18 38.68 -18 38 C-17.34 38 -16.68 38 -16 38 C-16 37.01 -16 36.02 -16 35 C-15.01 35 -14.02 35 -13 35 C-13 30.71 -13 26.42 -13 22 C-14.32 22 -15.64 22 -17 22 C-17 20.35 -17 18.7 -17 17 C-15.68 17.33 -14.36 17.66 -13 18 C-12.76925781 17.33613281 -12.53851563 16.67226562 -12.30078125 15.98828125 C-10.28755648 10.53745529 -8.60267257 6.63368887 -4 3 C-3.34 3 -2.68 3 -2 3 C-2 2.34 -2 1.68 -2 1 C-1.34 0.67 -0.68 0.34 0 0 Z " fill="#CD9461" transform="translate(80,138)"/>
<path d="M0 0 C1.32 0.33 2.64 0.66 4 1 C2.375 6.75 2.375 6.75 -1 9 C-1.33 8.34 -1.66 7.68 -2 7 C-3.96822886 8.96822886 -3.66248381 12.34808709 -4 15 C-3.01 15 -2.02 15 -1 15 C-1 14.34 -1 13.68 -1 13 C1.64846603 10.63785462 3.61516396 9.12827868 7 8 C7 8.66 7 9.32 7 10 C8.30130859 9.73316406 8.30130859 9.73316406 9.62890625 9.4609375 C16.17565471 8.56578533 23.41572135 9.39602097 28.8125 13.4375 C29.33972656 13.87835938 29.86695313 14.31921875 30.41015625 14.7734375 C32.1318719 16.10173901 33.72234404 16.79527883 35.75 17.5625 C39.03250915 19.01437905 40.29889707 19.89798878 42 23 C42 23.66 42 24.32 42 25 C42.66 25 43.32 25 44 25 C45.25664978 27.90600261 46 29.79604584 46 33 C46.66 33 47.32 33 48 33 C48 35.64 48 38.28 48 41 C47.67 41 47.34 41 47 41 C46.34 38.69 45.68 36.38 45 34 C44.34 34.99 43.68 35.98 43 37 C42.67 36.01 42.34 35.02 42 34 C39.49552484 32.78130071 39.49552484 32.78130071 37 32 C36.67 28.7 36.34 25.4 36 22 C35.34 22 34.68 22 34 22 C34 21.34 34 20.68 34 20 C33.443125 19.896875 32.88625 19.79375 32.3125 19.6875 C28.9186337 18.67851272 25.9655058 17.18361704 23.703125 14.41015625 C21.25369398 12.38207231 19.43767039 12.70219987 16.3125 12.8125 C15.31863281 12.83957031 14.32476562 12.86664063 13.30078125 12.89453125 C12.16189453 12.94673828 12.16189453 12.94673828 11 13 C10.67 14.65 10.34 16.3 10 18 C9.34 17.67 8.68 17.34 8 17 C8.33 16.34 8.66 15.68 9 15 C8.34 15 7.68 15 7 15 C7 15.66 7 16.32 7 17 C5.35 17 3.7 17 2 17 C1.34 19.64 0.68 22.28 0 25 C-0.66 25 -1.32 25 -2 25 C-2.17015625 25.68964844 -2.3403125 26.37929687 -2.515625 27.08984375 C-4.13709372 33.37734748 -6.15984239 39.16109729 -9 45 C-11 43.375 -11 43.375 -13 41 C-13.31452272 37.85477278 -13.42041821 35.84083641 -12 33 C-11.34 33 -10.68 33 -10 33 C-10 35.31 -10 37.62 -10 40 C-9.34 40 -8.68 40 -8 40 C-8.08378906 38.7934375 -8.16757812 37.586875 -8.25390625 36.34375 C-8.35716289 34.72919169 -8.46000536 33.11460686 -8.5625 31.5 C-8.61857422 30.70851563 -8.67464844 29.91703125 -8.73242188 29.1015625 C-9.05189484 23.90480221 -8.79686914 19.14718438 -8 14 C-7.34 14 -6.68 14 -6 14 C-5.95101562 13.37351562 -5.90203125 12.74703125 -5.8515625 12.1015625 C-5.77679688 11.28429687 -5.70203125 10.46703125 -5.625 9.625 C-5.55539063 8.81289062 -5.48578125 8.00078125 -5.4140625 7.1640625 C-5 5 -5 5 -3 3 C-2.01 3 -1.02 3 0 3 C0 2.01 0 1.02 0 0 Z " fill="#B57745" transform="translate(69,87)"/>
<path d="M0 0 C0.53625 0.37125 1.0725 0.7425 1.625 1.125 C4.94088357 2.34664131 6.7090698 1.11891627 10 0 C13.375 0.375 13.375 0.375 16 1 C16 1.66 16 2.32 16 3 C16.62648437 3.20496094 17.25296875 3.40992187 17.8984375 3.62109375 C18.71570313 3.89050781 19.53296875 4.15992187 20.375 4.4375 C21.59316406 4.83775391 21.59316406 4.83775391 22.8359375 5.24609375 C25 6 25 6 27 7 C27 7.66 27 8.32 27 9 C28.32 9.33 29.64 9.66 31 10 C31 10.99 31 11.98 31 13 C29.68 13 28.36 13 27 13 C27 12.34 27 11.68 27 11 C26.39671875 11.01160156 25.7934375 11.02320312 25.171875 11.03515625 C23.97304687 11.04869141 23.97304687 11.04869141 22.75 11.0625 C21.56664063 11.07990234 21.56664063 11.07990234 20.359375 11.09765625 C16.65344068 10.94426493 14.66315194 10.66315194 12 8 C10.02 8.99 10.02 8.99 8 10 C8.556875 10.226875 9.11375 10.45375 9.6875 10.6875 C12.63246684 12.35896766 14.68156544 14.55276352 17 17 C16 18 16 18 13.6875 18.25 C11 18 11 18 8.9375 16.4375 C8.298125 15.963125 7.65875 15.48875 7 15 C6.08154297 15.23203125 6.08154297 15.23203125 5.14453125 15.46875 C1.52493823 16.36540692 -1.46427543 15.00178863 -5 14 C-5.33 14.99 -5.66 15.98 -6 17 C-6.763125 16.484375 -7.52625 15.96875 -8.3125 15.4375 C-9.199375 14.963125 -10.08625 14.48875 -11 14 C-11.99 14.33 -12.98 14.66 -14 15 C-14 15.66 -14 16.32 -14 17 C-14.66 17 -15.32 17 -16 17 C-15.34 14.69 -14.68 12.38 -14 10 C-14.66 10 -15.32 10 -16 10 C-16.33 10.66 -16.66 11.32 -17 12 C-16.8984375 9.66796875 -16.8984375 9.66796875 -16 7 C-13.1640625 5.48828125 -13.1640625 5.48828125 -9.625 4.3125 C-6.02447751 3.08704501 -3.17251109 2.1150074 0 0 Z " fill="#513B24" transform="translate(87,78)"/>
<path d="M0 0 C1.5 2.0625 1.5 2.0625 2 4 C3.19625 3.95875 4.3925 3.9175 5.625 3.875 C10.2556348 3.88319581 13.94902166 4.74294876 17.9375 7.1875 C19.67347046 10.14886136 18.67048087 12.76950128 18 16 C13.35821821 18.25056087 9.06656158 19.03457734 4.06640625 17.34765625 C0.1962835 15.47293983 -0.81422635 14.52193548 -2.3125 10.3125 C-2.6528125 8.6728125 -2.6528125 8.6728125 -3 7 C-3.66 6.67 -4.32 6.34 -5 6 C-5 7.32 -5 8.64 -5 10 C-5.66 10 -6.32 10 -7 10 C-7 10.66 -7 11.32 -7 12 C-10.47325181 13.1577506 -13.36067448 13.06866652 -17 13 C-17.268125 12.360625 -17.53625 11.72125 -17.8125 11.0625 C-18.88667752 8.66868314 -18.88667752 8.66868314 -22 8 C-22 7.01 -22 6.02 -22 5 C-18.94152152 4.45627049 -16.11227195 4 -13 4 C-13.95865509 1.66924071 -13.95865509 1.66924071 -17 0 C-11.12156971 -0.88448604 -5.83501677 -1.3307933 0 0 Z " fill="#8F633D" transform="translate(94,118)"/>
<path d="M0 0 C2.31 0 4.62 0 7 0 C8.49821059 3.37097383 9 5.20442119 9 9 C9.99 9.33 10.98 9.66 12 10 C12.66 10.99 13.32 11.98 14 13 C16.05003955 14.19232613 16.05003955 14.19232613 18 15 C17.34 15.33 16.68 15.66 16 16 C16.495 16.7734375 16.495 16.7734375 17 17.5625 C18.43544417 21.06139516 18.49558149 23.22119115 18 27 C16.28217849 30.22027435 14.3123086 33.17526844 12 36 C11.67 36 11.34 36 11 36 C11 33.69 11 31.38 11 29 C10.34 29 9.68 29 9 29 C8.67 26.69 8.34 24.38 8 22 C8.66 22 9.32 22 10 22 C10.33 21.34 10.66 20.68 11 20 C9.04783565 18.04783565 7.46800047 17.15173355 5 16 C4.67 17.32 4.34 18.64 4 20 C3.34 20 2.68 20 2 20 C2 19.34 2 18.68 2 18 C1.4225 17.979375 0.845 17.95875 0.25 17.9375 C-2.46896789 16.80459671 -2.65412421 16.06151331 -3.9375 13.5 C-4.87313912 11.59406734 -4.87313912 11.59406734 -6 10 C-8.51176074 9.18068911 -8.51176074 9.18068911 -11 9 C-11.45375 8.505 -11.9075 8.01 -12.375 7.5 C-14.90318499 5.16629078 -17.67412977 5.31376134 -21 5 C-17.59538535 3.23899242 -14.90650339 2 -11 2 C-11 2.66 -11 3.32 -11 4 C-6.71 4.33 -2.42 4.66 2 5 C2 5.66 2 6.32 2 7 C3.32 7 4.64 7 6 7 C5.67 6.01 5.34 5.02 5 4 C4.01 3.67 3.02 3.34 2 3 C2 2.34 2 1.68 2 1 C1.34 0.67 0.68 0.34 0 0 Z " fill="#513920" transform="translate(112,84)"/>
<path d="M0 0 C5 1 5 1 7 2 C7 3.32 7 4.64 7 6 C7.66 6 8.32 6 9 6 C9 7.32 9 8.64 9 10 C9.66 10 10.32 10 11 10 C11 10.66 11 11.32 11 12 C11.66 12 12.32 12 13 12 C13.33910994 14.04071515 13.67102704 16.08262621 14 18.125 C14.2784375 19.83042969 14.2784375 19.83042969 14.5625 21.5703125 C15 25 15 25 15 31 C10.05 31 5.1 31 0 31 C0 20.77 0 10.54 0 0 Z " fill="#887643" transform="translate(0,244)"/>
<path d="M0 0 C3.0312414 0.92525364 5.56103866 1.94776614 8 4 C9.01295318 7.34851879 9.10632403 10.51788789 9 14 C11.475 14.495 11.475 14.495 14 15 C14.33 14.34 14.66 13.68 15 13 C17.96909598 16.27301919 18.34354794 18.38065762 18.1875 22.75 C18.16042969 23.73484375 18.13335937 24.7196875 18.10546875 25.734375 C18.07066406 26.48203125 18.03585938 27.2296875 18 28 C17.34 27.34 16.68 26.68 16 26 C16.04125 27.11375 16.0825 28.2275 16.125 29.375 C16 33 16 33 14 35 C11.36766208 35.8563027 8.70453182 36.38929927 6 37 C6 37.66 6 38.32 6 39 C2.535 39.495 2.535 39.495 -1 40 C-1.268125 38.865625 -1.53625 37.73125 -1.8125 36.5625 C-2.204375 35.386875 -2.59625 34.21125 -3 33 C-3.99 32.67 -4.98 32.34 -6 32 C-6 29.36 -6 26.72 -6 24 C-5.4225 24.61875 -4.845 25.2375 -4.25 25.875 C-0.93409176 29.00669112 0.82951897 29.93615558 5.4375 30.1875 C8.42176021 30.03043367 11.10421581 29.70200829 14 29 C14.44415293 24.45489167 14.44415293 24.45489167 12.90625 20.34375 C10.16029671 18.40807801 7.62171431 18.23843848 4.3125 17.8125 C3.13300781 17.65394531 1.95351562 17.49539062 0.73828125 17.33203125 C-0.61716797 17.16767578 -0.61716797 17.16767578 -2 17 C-2 16.34 -2 15.68 -2 15 C1.465 14.505 1.465 14.505 5 14 C5.33 11.69 5.66 9.38 6 7 C5.34 6.67 4.68 6.34 4 6 C1.875 4.0625 1.875 4.0625 0 2 C0 1.34 0 0.68 0 0 Z " fill="#C18B5B" transform="translate(98,105)"/>
<path d="M0 0 C0.99 0.33 1.98 0.66 3 1 C3.33 5.95 3.66 10.9 4 16 C1.11788698 16.96070434 -0.69850044 17.10581883 -3.6875 17.0625 C-4.89986328 17.04896484 -4.89986328 17.04896484 -6.13671875 17.03515625 C-6.75160156 17.02355469 -7.36648437 17.01195312 -8 17 C-8.33 16.34 -8.66 15.68 -9 15 C-9.66 15 -10.32 15 -11 15 C-11 15.66 -11 16.32 -11 17 C-12.07122452 17.89513282 -13.18321025 18.74183602 -14.3125 19.5625 C-18.08938822 22.63883638 -19.23238888 25.48816215 -20.39453125 30.14453125 C-20.59433594 30.75683594 -20.79414062 31.36914062 -21 32 C-21.99 32.495 -21.99 32.495 -23 33 C-23.99 32.34 -24.98 31.68 -26 31 C-26 30.34 -26 29.68 -26 29 C-25.34 28.67 -24.68 28.34 -24 28 C-23.55140625 26.87851563 -23.55140625 26.87851563 -23.09375 25.734375 C-21.91651523 22.79128807 -20.46299746 20.72870018 -18.5 18.25 C-17.8915625 17.47140625 -17.283125 16.6928125 -16.65625 15.890625 C-15 14 -15 14 -13 13 C-13.144375 12.29875 -13.28875 11.5975 -13.4375 10.875 C-14.01478375 7.92443859 -14.51695141 4.96729849 -15 2 C-14.34 2.33 -13.68 2.66 -13 3 C-12.67 3.99 -12.34 4.98 -12 6 C-8.7 6 -5.4 6 -2 6 C-2 5.34 -2 4.68 -2 4 C-1.34 4 -0.68 4 0 4 C0 2.68 0 1.36 0 0 Z " fill="#D39B6B" transform="translate(89,124)"/>
<path d="M0 0 C8.06510168 -0.49155247 15.21726112 0.95062675 23 3 C23.95808288 6.5928108 24.20508082 8.38475753 23 12 C22.67 12.33 22.34 12.66 22 13 C22.99 13 23.98 13 25 13 C26.28571429 21.57142857 26.28571429 21.57142857 25 25 C24.34 25 23.68 25 23 25 C20 19.25 20 19.25 20 17 C21.32 16.67 22.64 16.34 24 16 C20.23190251 15.69417672 20.23190251 15.69417672 18.078125 16.9921875 C15.49043901 18.24711792 13.6089493 18.20023551 10.75 18.125 C9.85796875 18.10695312 8.9659375 18.08890625 8.046875 18.0703125 C7.37140625 18.04710937 6.6959375 18.02390625 6 18 C6.33 16.68 6.66 15.36 7 14 C8.98 13.67 10.96 13.34 13 13 C10.0534615 11.19933758 7.11198065 9.49836105 4 8 C8.75 5.125 8.75 5.125 11 4 C8.09907498 2.06604999 7.10325263 1.69868059 3.8125 1.375 C1.9253125 1.189375 1.9253125 1.189375 0 1 C0 0.67 0 0.34 0 0 Z " fill="#B48156" transform="translate(74,151)"/>
<path d="M0 0 C0.86625 0.5259375 0.86625 0.5259375 1.75 1.0625 C4.97404255 2.40585106 6.75849721 1.10211095 10 0 C13.375 0.375 13.375 0.375 16 1 C16 1.66 16 2.32 16 3 C16.62648438 3.20496094 17.25296875 3.40992187 17.8984375 3.62109375 C18.71570313 3.89050781 19.53296875 4.15992187 20.375 4.4375 C21.18710938 4.70433594 21.99921875 4.97117187 22.8359375 5.24609375 C25 6 25 6 27 7 C27 7.66 27 8.32 27 9 C28.32 9.33 29.64 9.66 31 10 C31 10.99 31 11.98 31 13 C29.68 13 28.36 13 27 13 C27 12.34 27 11.68 27 11 C26.39671875 11.01160156 25.7934375 11.02320312 25.171875 11.03515625 C23.97304687 11.04869141 23.97304687 11.04869141 22.75 11.0625 C21.56664062 11.07990234 21.56664062 11.07990234 20.359375 11.09765625 C16.65344068 10.94426493 14.66315194 10.66315194 12 8 C11.4225 8.33 10.845 8.66 10.25 9 C8 10 8 10 4 10 C4 10.66 4 11.32 4 12 C0.37 12 -3.26 12 -7 12 C-7 11.34 -7 10.68 -7 10 C-4.36 10.33 -1.72 10.66 1 11 C0.67 10.01 0.34 9.02 0 8 C0.66 7.67 1.32 7.34 2 7 C2 6.01 2 5.02 2 4 C-0.64 4 -3.28 4 -6 4 C-4.03617993 2.49440461 -2.21736634 1.10868317 0 0 Z " fill="#604A35" transform="translate(87,78)"/>
<path d="M0 0 C1.5 2.0625 1.5 2.0625 2 4 C1.01 4.495 1.01 4.495 0 5 C-0.65772428 8.02934491 -0.65772428 8.02934491 -1 11 C-1.28875 10.360625 -1.5775 9.72125 -1.875 9.0625 C-2.82823451 6.84793921 -2.82823451 6.84793921 -5 6 C-5 7.32 -5 8.64 -5 10 C-5.66 10 -6.32 10 -7 10 C-7 10.66 -7 11.32 -7 12 C-10.47325181 13.1577506 -13.36067448 13.06866652 -17 13 C-17.268125 12.360625 -17.53625 11.72125 -17.8125 11.0625 C-18.88667752 8.66868314 -18.88667752 8.66868314 -22 8 C-22 7.01 -22 6.02 -22 5 C-18.94152152 4.45627049 -16.11227195 4 -13 4 C-13.95865509 1.66924071 -13.95865509 1.66924071 -17 0 C-11.12156971 -0.88448604 -5.83501677 -1.3307933 0 0 Z " fill="#D49766" transform="translate(94,118)"/>
<path d="M0 0 C0.33 0 0.66 0 1 0 C1 1.65 1 3.3 1 5 C2.32 5.33 3.64 5.66 5 6 C5.12375 6.86625 5.12375 6.86625 5.25 7.75 C6.2128986 10.63869579 7.82728832 11.89119161 10 14 C13 18.5 13 18.5 13 21 C15.64 21.33 18.28 21.66 21 22 C21 22.33 21 22.66 21 23 C12.73986956 23.47654599 4.31819173 22.00758119 -3 18 C-3 17.34 -3 16.68 -3 16 C-3.66 16 -4.32 16 -5 16 C-5 15.34 -5 14.68 -5 14 C-4.34 14 -3.68 14 -3 14 C-3 13.01 -3 12.02 -3 11 C-2.01 11 -1.02 11 0 11 C0 7.37 0 3.74 0 0 Z " fill="#D6A166" transform="translate(67,162)"/>
<path d="M0 0 C0.86625 0.928125 0.86625 0.928125 1.75 1.875 C3.80249821 3.81347053 5.43366582 4.90014249 8 6 C7.01 6.495 7.01 6.495 6 7 C6.33 7.515625 6.66 8.03125 7 8.5625 C8.43544417 12.06139516 8.49558149 14.22119115 8 18 C6.28217849 21.22027435 4.3123086 24.17526844 2 27 C1.67 27 1.34 27 1 27 C1 24.69 1 22.38 1 20 C0.34 20 -0.32 20 -1 20 C-1.33 17.69 -1.66 15.38 -2 13 C-1.34 13 -0.68 13 0 13 C0.33 12.34 0.66 11.68 1 11 C-1.03268602 8.83656989 -1.03268602 8.83656989 -4 7 C-4 6.01 -4 5.02 -4 4 C-2.68 3.67 -1.36 3.34 0 3 C0 2.01 0 1.02 0 0 Z " fill="#795733" transform="translate(122,93)"/>
<path d="M0 0 C0.928125 0.2784375 0.928125 0.2784375 1.875 0.5625 C4.04160178 1.23686176 4.04160178 1.23686176 6 0 C6.33 0.99 6.66 1.98 7 3 C6.34 3 5.68 3 5 3 C5.92493788 6.78383679 6.39371171 8.56693694 9.625 10.875 C10.40875 11.24625 11.1925 11.6175 12 12 C12 11.34 12 10.68 12 10 C14.31 9.34 16.62 8.68 19 8 C19 7.34 19 6.68 19 6 C20.98 6.66 22.96 7.32 25 8 C24.67 8.66 24.34 9.32 24 10 C20.9375 10.625 20.9375 10.625 18 11 C17.67 11.99 17.34 12.98 17 14 C19.06356895 13.7159949 21.1258285 13.42246648 23.1875 13.125 C24.33605469 12.96257812 25.48460938 12.80015625 26.66796875 12.6328125 C29.68724625 12.05939755 32.20575848 11.25240957 35 10 C35 10.66 35 11.32 35 12 C33.68 12.33 32.36 12.66 31 13 C31 13.66 31 14.32 31 15 C27.24600202 16.2039337 23.66782588 16.09877617 19.75 16.0625 C18.48671875 16.05347656 17.2234375 16.04445312 15.921875 16.03515625 C14.95765625 16.02355469 13.9934375 16.01195312 13 16 C12.67 16.99 12.34 17.98 12 19 C9 17 9 17 8.5 14.9375 C8.335 14.298125 8.17 13.65875 8 13 C7.01 12.67 6.02 12.34 5 12 C4.67 9.69 4.34 7.38 4 5 C2.68 5 1.36 5 0 5 C0 3.35 0 1.7 0 0 Z " fill="#BE8D5C" transform="translate(63,155)"/>
<path d="M0 0 C1.32 0.33 2.64 0.66 4 1 C4 1.99 4 2.98 4 4 C7.3 4.33 10.6 4.66 14 5 C14 6.32 14 7.64 14 9 C10.59598052 10.13732426 8.22543336 9.83989957 4.75 9.0625 C3.85796875 8.86785156 2.9659375 8.67320312 2.046875 8.47265625 C1.37140625 8.31667969 0.6959375 8.16070312 0 8 C1.98 8.99 3.96 9.98 6 11 C6 11.33 6 11.66 6 12 C1.545 13.485 1.545 13.485 -3 15 C-2.01 15.66 -1.02 16.32 0 17 C-2.64 16.67 -5.28 16.34 -8 16 C-7.67 14.35 -7.34 12.7 -7 11 C-6.01 11 -5.02 11 -4 11 C-4 10.34 -4 9.68 -4 9 C-5.98 9 -7.96 9 -10 9 C-9.67 8.01 -9.34 7.02 -9 6 C-5.04 6 -1.08 6 3 6 C3 4.68 3 3.36 3 2 C2.01 2 1.02 2 0 2 C0 1.34 0 0.68 0 0 Z " fill="#B57D53" transform="translate(82,144)"/>
<path d="M0 0 C0.99 0.33 1.98 0.66 3 1 C2.34 1.66 1.68 2.32 1 3 C0.67 2.01 0.34 1.02 0 0 Z M5 1 C5.33 1 5.66 1 6 1 C6.33 3.64 6.66 6.28 7 9 C4.03 8.505 4.03 8.505 1 8 C0.7525 9.051875 0.505 10.10375 0.25 11.1875 C-0.78259518 14.8163345 -2.34771673 17.26483288 -5 20 C-5.66 20 -6.32 20 -7 20 C-7 22.97 -7 25.94 -7 29 C-6.34 29.33 -5.68 29.66 -5 30 C-5.33 30.66 -5.66 31.32 -6 32 C-6.99 32 -7.98 32 -9 32 C-9.0810206 29.89646505 -9.13919907 27.79204048 -9.1875 25.6875 C-9.22230469 24.51574219 -9.25710937 23.34398437 -9.29296875 22.13671875 C-8.95466719 18.5146367 -8.46974742 18.37289458 -6 16 C-4.98368504 12.58937038 -4.98368504 12.58937038 -4.3125 8.8125 C-4.06113281 7.54019531 -3.80976562 6.26789063 -3.55078125 4.95703125 C-3.36902344 3.98121094 -3.18726562 3.00539062 -3 2 C-1.68 2.33 -0.36 2.66 1 3 C1 3.99 1 4.98 1 6 C1.66 6 2.32 6 3 6 C3.66 4.35 4.32 2.7 5 1 Z " fill="#B1845B" transform="translate(108,143)"/>
<path d="M0 0 C0.99 0.33 1.98 0.66 3 1 C3.33 3.64 3.66 6.28 4 9 C4.66 9 5.32 9 6 9 C8 12 8 12 8 15 C6.68 15 5.36 15 4 15 C3.67 14.34 3.34 13.68 3 13 C0.65092125 12.31068656 0.65092125 12.31068656 -2.0625 11.875 C-3.44115234 11.62363281 -3.44115234 11.62363281 -4.84765625 11.3671875 C-5.55792969 11.24601563 -6.26820312 11.12484375 -7 11 C-7 10.01 -7 9.02 -7 8 C-8.32 7.67 -9.64 7.34 -11 7 C-11 6.01 -11 5.02 -11 4 C-5.555 3.505 -5.555 3.505 0 3 C0 2.01 0 1.02 0 0 Z " fill="#A66D41" transform="translate(93,137)"/>
<path d="M0 0 C2.97 0.33 5.94 0.66 9 1 C11.2247191 6.43820225 11.2247191 6.43820225 10.125 9.1875 C9.75375 9.785625 9.3825 10.38375 9 11 C9 11.99 9 12.98 9 14 C7.83984375 14.07347656 7.83984375 14.07347656 6.65625 14.1484375 C-0.13138885 14.63121894 -0.13138885 14.63121894 -6.75 16.125 C-13.16825713 17.99013455 -20.44510577 16.58866769 -27 16 C-27.33 15.01 -27.66 14.02 -28 13 C-27.01 13.165 -26.02 13.33 -25 13.5 C-17.62553531 14.51564484 -11.11110898 13.8112709 -3.83203125 12.4375 C-1.16587174 12.02562432 1.30820302 11.92126371 4 12 C4 11.34 4 10.68 4 10 C4.99 9.34 5.98 8.68 7 8 C7.25030977 5.41619823 7.25030977 5.41619823 7 3 C6.34 2.67 5.68 2.34 5 2 C5.495 4.97 5.495 4.97 6 8 C5.34 8 4.68 8 4 8 C3.71125 7.195625 3.4225 6.39125 3.125 5.5625 C2.26737432 2.8673532 2.26737432 2.8673532 0 2 C0 1.34 0 0.68 0 0 Z " fill="#CDC2AE" transform="translate(101,170)"/>
<path d="M0 0 C1.32 0 2.64 0 4 0 C7.95874421 7.91748842 3.86063046 19.79329066 2 28 C-1.12693727 21.74612546 -1.12693727 21.74612546 -1.1328125 17.75390625 C-1.13410156 16.91666016 -1.13539062 16.07941406 -1.13671875 15.21679688 C-1.13285156 14.34087891 -1.12898438 13.46496094 -1.125 12.5625 C-1.12886719 11.69044922 -1.13273437 10.81839844 -1.13671875 9.91992188 C-1.13542969 9.08138672 -1.13414063 8.24285156 -1.1328125 7.37890625 C-1.13168457 6.6113501 -1.13055664 5.84379395 -1.12939453 5.05297852 C-1 3 -1 3 0 0 Z " fill="#D1C6B5" transform="translate(49,216)"/>
<path d="M0 0 C0.33 0 0.66 0 1 0 C1.5111378 7.05654128 1.02062144 11.14138019 -3 17 C-3.515625 17.9075 -4.03125 18.815 -4.5625 19.75 C-6.74188776 23.16121563 -8.12257037 24.70752346 -12 26 C-13.03013277 27.64821244 -14.03114628 29.31503702 -15 31 C-15.66 31.33 -16.32 31.66 -17 32 C-17.99 31.34 -18.98 30.68 -20 30 C-19.38125 29.113125 -18.7625 28.22625 -18.125 27.3125 C-16.34602259 24.53938816 -15.08916398 22.0859646 -14 19 C-11.69 19.33 -9.38 19.66 -7 20 C-6.81824219 19.28972656 -6.63648437 18.57945312 -6.44921875 17.84765625 C-6.19785156 16.92855469 -5.94648437 16.00945312 -5.6875 15.0625 C-5.44386719 14.14597656 -5.20023438 13.22945312 -4.94921875 12.28515625 C-4.63597656 11.53105469 -4.32273437 10.77695313 -4 10 C-3.01 9.67 -2.02 9.34 -1 9 C-0.67 6.03 -0.34 3.06 0 0 Z " fill="#D3CAB6" transform="translate(123,132)"/>
<path d="M0 0 C2.875 0.6875 2.875 0.6875 6 2 C7.375 4.625 7.375 4.625 8 7 C6.35 6.67 4.7 6.34 3 6 C3.33 8.31 3.66 10.62 4 13 C4.66 13 5.32 13 6 13 C5.43697449 15.43977719 4.74517329 17.74949033 3.9375 20.125 C2.8966598 22.81291118 2.8966598 22.81291118 3 25 C2.34 25 1.68 25 1 25 C1 22.69 1 20.38 1 18 C0.34 18 -0.32 18 -1 18 C-1.8313455 11.41318569 -2.11805091 6.35415274 0 0 Z " fill="#452F15" transform="translate(117,100)"/>
<path d="M0 0 C7.78961124 -0.46530864 14.52678392 0.84278299 22 3 C22 4.65 22 6.3 22 8 C21.195625 8.12375 20.39125 8.2475 19.5625 8.375 C18.716875 8.58125 17.87125 8.7875 17 9 C16.67 9.66 16.34 10.32 16 11 C11.53160785 11.21278058 8.17737474 10.59138085 4 9 C6.21934164 5.67098753 7.34683329 5.24976756 11 4 C8.09907498 2.06604999 7.10325263 1.69868059 3.8125 1.375 C1.9253125 1.189375 1.9253125 1.189375 0 1 C0 0.67 0 0.34 0 0 Z " fill="#A26648" transform="translate(74,151)"/>
<path d="M0 0 C0.33 0 0.66 0 1 0 C1.33 3.63 1.66 7.26 2 11 C-2.95 11 -7.9 11 -13 11 C-13 9.02 -13 7.04 -13 5 C-11.7625 4.67 -10.525 4.34 -9.25 4 C-8.20585937 3.7215625 -8.20585937 3.7215625 -7.140625 3.4375 C-5 3 -5 3 -1 3 C-0.67 2.01 -0.34 1.02 0 0 Z " fill="#697742" transform="translate(13,264)"/>
<path d="M0 0 C8.30622213 0.34826927 8.30622213 0.34826927 11.0625 2.9375 C12 5 12 5 12 7 C12.66 7 13.32 7 14 7 C15.25664978 9.90600261 16 11.79604584 16 15 C16.66 15 17.32 15 18 15 C18 17.64 18 20.28 18 23 C17.67 23 17.34 23 17 23 C16.34 20.69 15.68 18.38 15 16 C14.34 16.99 13.68 17.98 13 19 C12.67 18.01 12.34 17.02 12 16 C9.49552484 14.78130071 9.49552484 14.78130071 7 14 C6.67 10.7 6.34 7.4 6 4 C5.34 4 4.68 4 4 4 C4 3.34 4 2.68 4 2 C2.68 1.67 1.36 1.34 0 1 C0 0.67 0 0.34 0 0 Z " fill="#BB8450" transform="translate(99,105)"/>
<path d="M0 0 C1.16273437 -0.02578125 2.32546875 -0.0515625 3.5234375 -0.078125 C6.625 0.25 6.625 0.25 8.5390625 1.640625 C9.625 3.25 9.625 3.25 9.625 5.25 C6.985 4.92 4.345 4.59 1.625 4.25 C2.615 5.178125 2.615 5.178125 3.625 6.125 C5.625 8.25 5.625 8.25 5.625 10.25 C-2.88246269 9.39925373 -2.88246269 9.39925373 -6.375 7.25 C-7.035 6.92 -7.695 6.59 -8.375 6.25 C-7.23874349 -0.08057197 -6.43723086 0.08526134 0 0 Z " fill="#734625" transform="translate(102.375,122.75)"/>
<path d="M0 0 C1.32 0.33 2.64 0.66 4 1 C3.67 1.99 3.34 2.98 3 4 C4.22976562 3.86980469 5.45953125 3.73960938 6.7265625 3.60546875 C8.35925268 3.4647196 9.99207313 3.32547599 11.625 3.1875 C12.83736328 3.05311523 12.83736328 3.05311523 14.07421875 2.91601562 C18.47599625 2.57604094 21.10562509 2.58802091 24.5859375 5.48828125 C25.38257812 6.31714844 26.17921875 7.14601563 27 8 C26.67 8.66 26.34 9.32 26 10 C22.89625829 10.25864514 21.47234514 10.35783722 18.9375 8.4375 C18.298125 7.963125 17.65875 7.48875 17 7 C16.38769531 7.1546875 15.77539062 7.309375 15.14453125 7.46875 C11.52493823 8.36540692 8.53572457 7.00178863 5 6 C4.67 6.99 4.34 7.98 4 9 C2.68 8.34 1.36 7.68 0 7 C0 4.69 0 2.38 0 0 Z " fill="#2A1809" transform="translate(77,86)"/>
<path d="M0 0 C0.99 0.33 1.98 0.66 3 1 C2.40380045 5.86896303 1.43023178 10.32790951 0 15 C-2.31 15.33 -4.62 15.66 -7 16 C-7 15.34 -7 14.68 -7 14 C-7.33 13.67 -7.66 13.34 -8 13 C-8 12.34 -8 11.68 -8 11 C-8.99 10.67 -9.98 10.34 -11 10 C-5.375 6 -5.375 6 -2 6 C-2 5.34 -2 4.68 -2 4 C-1.34 4 -0.68 4 0 4 C0 2.68 0 1.36 0 0 Z " fill="#EAAF82" transform="translate(89,124)"/>
<path d="M0 0 C3.15831622 1.05277207 3.81762951 1.64975486 6 4 C6.86625 4.86625 7.7325 5.7325 8.625 6.625 C9.75 7.75 10.875 8.875 12 10 C12.66 9.34 13.32 8.68 14 8 C16 10 16 10 16 13 C16.66 13 17.32 13 18 13 C17.67 14.98 17.34 16.96 17 19 C16.67 18.34 16.34 17.68 16 17 C15.1028125 16.9071875 15.1028125 16.9071875 14.1875 16.8125 C11.46980236 15.80306945 11.3279824 15.02582055 10.0625 12.5 C9.12686088 10.59406734 9.12686088 10.59406734 8 9 C5.48823926 8.18068911 5.48823926 8.18068911 3 8 C2.54625 7.505 2.0925 7.01 1.625 6.5 C-0.90318499 4.16629078 -3.67412977 4.31376134 -7 4 C-4.66785852 2.79371992 -2.50357861 1.8345262 0 1 C0 0.67 0 0.34 0 0 Z " fill="#72604B" transform="translate(98,85)"/>
<path d="M0 0 C1.32 0.33 2.64 0.66 4 1 C2.375 6.75 2.375 6.75 -1 9 C-1.33 8.34 -1.66 7.68 -2 7 C-3.96822886 8.96822886 -3.66248381 12.34808709 -4 15 C-3.01 15 -2.02 15 -1 15 C-1 14.34 -1 13.68 -1 13 C0.62626404 11.61767557 2.2925002 10.28062485 4 9 C5 12 5 12 3.5625 15.1875 C3.046875 16.115625 2.53125 17.04375 2 18 C-2.455 17.01 -2.455 17.01 -7 16 C-6.71812064 14.20676747 -6.4241719 12.41542874 -6.125 10.625 C-5.96257813 9.62726563 -5.80015625 8.62953125 -5.6328125 7.6015625 C-5 5 -5 5 -3 3 C-2.01 3 -1.02 3 0 3 C0 2.01 0 1.02 0 0 Z " fill="#855F39" transform="translate(69,87)"/>
<path d="M0 0 C6.625 -0.125 6.625 -0.125 10 1 C11.17755913 3.94389782 11.03348696 4.89953913 10 8 C7.9375 9.1875 7.9375 9.1875 6 10 C6 9.34 6 8.68 6 8 C5.278125 8.185625 4.55625 8.37125 3.8125 8.5625 C0.87173027 9.01995307 -1.14103058 8.73516357 -4 8 C-4.33 7.01 -4.66 6.02 -5 5 C-1.94152152 4.45627049 0.88772805 4 4 4 C3.04134491 1.66924071 3.04134491 1.66924071 0 0 Z " fill="#7B4B27" transform="translate(77,118)"/>
<path d="M0 0 C0.845625 0.61875 1.69125 1.2375 2.5625 1.875 C5.91372345 4.13047736 9.08856854 5.06125645 13 6 C13 6.33 13 6.66 13 7 C12.15695313 6.97679688 11.31390625 6.95359375 10.4453125 6.9296875 C9.34960938 6.91164063 8.25390625 6.89359375 7.125 6.875 C6.03445312 6.85179688 4.94390625 6.82859375 3.8203125 6.8046875 C0.8628949 6.69939466 0.8628949 6.69939466 -1 9 C-1.99 9 -2.98 9 -4 9 C-4.99 9.33 -5.98 9.66 -7 10 C-7 10.66 -7 11.32 -7 12 C-7.99 12 -8.98 12 -10 12 C-10 9.69 -10 7.38 -10 5 C-8.68 4.34 -7.36 3.68 -6 3 C-5.67 3.33 -5.34 3.66 -5 4 C-4.01 4.33 -3.02 4.66 -2 5 C-2 4.34 -2 3.68 -2 3 C-1.34 3 -0.68 3 0 3 C0 2.01 0 1.02 0 0 Z " fill="#734722" transform="translate(75,90)"/>
<path d="M0 0 C5.05531868 0.77774134 10.01716284 1.85948394 15 3 C15 3.66 15 4.32 15 5 C16.32 5.33 17.64 5.66 19 6 C19 6.99 19 7.98 19 9 C17.68 9 16.36 9 15 9 C15 8.34 15 7.68 15 7 C14.09507813 7.01740234 14.09507813 7.01740234 13.171875 7.03515625 C11.97304687 7.04869141 11.97304687 7.04869141 10.75 7.0625 C9.56664063 7.07990234 9.56664063 7.07990234 8.359375 7.09765625 C6.04838576 7.00200272 4.172305 6.79555907 2 6 C0 2 0 2 0 0 Z " fill="#4C3A24" transform="translate(99,82)"/>
<path d="M0 0 C0.33 0 0.66 0 1 0 C1 4.62 1 9.24 1 14 C0.34 14 -0.32 14 -1 14 C-1 14.99 -1 15.98 -1 17 C0.4540625 16.87625 0.4540625 16.87625 1.9375 16.75 C6.11540676 16.7246281 9.13921338 18.2477909 12.84375 20.04296875 C15.51899818 21.23035245 18.09782103 21.70234062 21 22 C21 22.33 21 22.66 21 23 C12.73986956 23.47654599 4.31819173 22.00758119 -3 18 C-3 17.34 -3 16.68 -3 16 C-3.66 16 -4.32 16 -5 16 C-5 15.34 -5 14.68 -5 14 C-4.34 14 -3.68 14 -3 14 C-3 13.01 -3 12.02 -3 11 C-2.01 11 -1.02 11 0 11 C0 7.37 0 3.74 0 0 Z " fill="#C7A576" transform="translate(67,162)"/>
<path d="M0 0 C2.125 0.375 2.125 0.375 4 1 C4 1.99 4 2.98 4 4 C3.44570312 4.23074219 2.89140625 4.46148437 2.3203125 4.69921875 C-2.3235231 6.67687343 -2.3235231 6.67687343 -5.375 10.5 C-5.684375 11.7375 -5.684375 11.7375 -6 13 C-6.65213539 14.34050052 -7.31379969 15.67661368 -8 17 C-8.33 17 -8.66 17 -9 17 C-9.33 18.98 -9.66 20.96 -10 23 C-10.66 23 -11.32 23 -12 23 C-12.9499165 20.46688934 -13.26651661 18.69236381 -12.28125 16.1328125 C-11.58081323 14.76908333 -10.86127251 13.41503244 -10.125 12.0703125 C-8.5280179 9.13142183 -7.28575655 6.08581571 -6 3 C-5.67 3.66 -5.34 4.32 -5 5 C-4.34 5 -3.68 5 -3 5 C-2.67 4.01 -2.34 3.02 -2 2 C-1.34 1.34 -0.68 0.68 0 0 Z " fill="#DFB68C" transform="translate(74,111)"/>
<path d="M0 0 C4.75 0.875 4.75 0.875 7 2 C7 3.32 7 4.64 7 6 C7.66 6 8.32 6 9 6 C9 7.32 9 8.64 9 10 C9.66 10 10.32 10 11 10 C11 10.66 11 11.32 11 12 C11.66 12 12.32 12 13 12 C13 12.99 13 13.98 13 15 C7.51219512 14.51219512 7.51219512 14.51219512 5.25 12.25 C4 10 4 10 2.9375 7.3125 C2.23196154 4.84061395 2.23196154 4.84061395 0 4 C0 2.68 0 1.36 0 0 Z " fill="#97937F" transform="translate(0,244)"/>
<path d="M0 0 C0.66 0.99 1.32 1.98 2 3 C-0.95183101 5.95183101 -3.95511947 6.08663988 -8 7 C-8 7.66 -8 8.32 -8 9 C-9.65 9.33 -11.3 9.66 -13 10 C-14.25664978 7.09399739 -15 5.20395416 -15 2 C-14.01 2.04125 -13.02 2.0825 -12 2.125 C-7.76164134 2.1423348 -4.06806015 1.14191162 0 0 Z " fill="#D29B6E" transform="translate(112,135)"/>
<path d="M0 0 C0.33 0.66 0.66 1.32 1 2 C1.99 2.33 2.98 2.66 4 3 C4.493778 10.28322549 4.493778 10.28322549 2.0625 13.8125 C1.381875 14.534375 0.70125 15.25625 0 16 C-0.33 16.99 -0.66 17.98 -1 19 C-1.66 19 -2.32 19 -3 19 C-3.33 16.69 -3.66 14.38 -4 12 C-3.67 12 -3.34 12 -3 12 C-2.01 8.04 -1.02 4.08 0 0 Z " fill="#A8714F" transform="translate(119,128)"/>
<path d="M0 0 C3.0312414 0.92525364 5.56103866 1.94776614 8 4 C9.01295318 7.34851879 9.10632403 10.51788789 9 14 C10.65 14.33 12.3 14.66 14 15 C14 15.99 14 16.98 14 18 C8.72 17.67 3.44 17.34 -2 17 C-2 16.34 -2 15.68 -2 15 C1.465 14.505 1.465 14.505 5 14 C5.33 11.69 5.66 9.38 6 7 C5.34 6.67 4.68 6.34 4 6 C1.875 4.0625 1.875 4.0625 0 2 C0 1.34 0 0.68 0 0 Z " fill="#BA9069" transform="translate(98,105)"/>
<path d="M0 0 C1.13888672 0.10828125 1.13888672 0.10828125 2.30078125 0.21875 C3.29464844 0.3115625 4.28851563 0.404375 5.3125 0.5 C6.79169922 0.63921875 6.79169922 0.63921875 8.30078125 0.78125 C11.04702139 1.04038857 11.04702139 1.04038857 14 1 C14.66 1.66 15.32 2.32 16 3 C18.06874034 3.6425235 18.06874034 3.6425235 20 4 C20.33 5.32 20.66 6.64 21 8 C19.68 7.67 18.36 7.34 17 7 C17 7.66 17 8.32 17 9 C11.27789404 7.13236819 5.62338249 5.14710968 0 3 C0 2.01 0 1.02 0 0 Z " fill="#492E16" transform="translate(82,92)"/>
<path d="M0 0 C0.99 0.33 1.98 0.66 3 1 C3 2.32 3 3.64 3 5 C3.66 5 4.32 5 5 5 C5 7.31 5 9.62 5 12 C5.66 12 6.32 12 7 12 C6.6596875 11.1646875 6.6596875 11.1646875 6.3125 10.3125 C5.87307337 7.06074293 7.12695226 5.59345072 9 3 C9.33 3 9.66 3 10 3 C9.6007572 7.49148146 8.62117584 11.22009328 7 15.4375 C5.24525307 20.0405318 4.36992563 24.09848536 4 29 C2 27 2 27 1.75 24.1875 C1.89751213 18.40994148 3.04224794 12.68665285 4 7 C3.34 7 2.68 7 2 7 C1.34 4.69 0.68 2.38 0 0 Z " fill="#604621" transform="translate(113,113)"/>
<path d="M0 0 C0.33 0.66 0.66 1.32 1 2 C1.928125 1.938125 2.85625 1.87625 3.8125 1.8125 C7 2 7 2 8.875 3.5 C9.24625 3.995 9.6175 4.49 10 5 C9.34 6.98 8.68 8.96 8 11 C7.34 11 6.68 11 6 11 C5.34 13.64 4.68 16.28 4 19 C1.71937172 15.57905758 1.78074993 14.31812778 1.875 10.3125 C1.89304688 9.31863281 1.91109375 8.32476562 1.9296875 7.30078125 C1.95289063 6.54152344 1.97609375 5.78226562 2 5 C1.34 5 0.68 5 0 5 C0 3.35 0 1.7 0 0 Z " fill="#A27344" transform="translate(61,101)"/>
<path d="M0 0 C9.73004484 -0.92017937 9.73004484 -0.92017937 12.84375 1.3359375 C14.1875 3 14.1875 3 16 6 C12.04179141 5.43454163 9.3340947 4.19097652 6 2 C4.35 3.98 2.7 5.96 1 8 C-0.65 7.67 -2.3 7.34 -4 7 C-4 5.68 -4 4.36 -4 3 C-3.34 3 -2.68 3 -2 3 C-1.67 3.33 -1.34 3.66 -1 4 C-0.67 2.68 -0.34 1.36 0 0 Z " fill="#D0955F" transform="translate(80,99)"/>
<path d="M0 0 C1.32 0 2.64 0 4 0 C4.33 5.94 4.66 11.88 5 18 C6.32 18 7.64 18 9 18 C9 22.29 9 26.58 9 31 C8.01 31 7.02 31 6 31 C5.94392578 30.03900391 5.94392578 30.03900391 5.88671875 29.05859375 C5.56116763 24.77536232 5.25957965 21.53912696 3.375 17.625 C1.36409115 12.32351302 2.24592375 7.53292088 3 2 C2.01 1.67 1.02 1.34 0 1 C0 0.67 0 0.34 0 0 Z " fill="#D8CDB4" transform="translate(58,142)"/>
<path d="M0 0 C0.33 0 0.66 0 1 0 C1 4.95 1 9.9 1 15 C0.34 15 -0.32 15 -1 15 C-1 12.69 -1 10.38 -1 8 C-1.66 8 -2.32 8 -3 8 C-3.14715692 15.3905476 -2.70776992 22.64424835 -2 30 C-4 29 -4 29 -4.66796875 27.171875 C-6.21945114 19.9394007 -5.84889188 13.31882457 -5 6 C-3.35 6.33 -1.7 6.66 0 7 C0 4.69 0 2.38 0 0 Z " fill="#DEBA99" transform="translate(60,112)"/>
<path d="M0 0 C0.99 0.33 1.98 0.66 3 1 C3.25 3.3125 3.25 3.3125 3 6 C0.95575462 7.97610386 -0.1176825 9 -3 9 C-3.33 8.34 -3.66 7.68 -4 7 C-6.97 7 -9.94 7 -13 7 C-13 6.01 -13 5.02 -13 4 C-8.545 3.505 -8.545 3.505 -4 3 C-4 2.34 -4 1.68 -4 1 C-3.01 1.33 -2.02 1.66 -1 2 C-1 3.32 -1 4.64 -1 6 C-0.34 6 0.32 6 1 6 C0.67 4.02 0.34 2.04 0 0 Z " fill="#AA7A46" transform="translate(106,172)"/>
<path d="M0 0 C0.99 0.66 1.98 1.32 3 2 C4.65549531 2.38499891 6.3222433 2.72793135 8 3 C8.33 3.99 8.66 4.98 9 6 C7.59054634 6.56016748 6.1719969 7.09748502 4.75 7.625 C3.56664063 8.07746094 3.56664063 8.07746094 2.359375 8.5390625 C-0.49917715 9.09752136 -1.58959839 8.53690745 -4 7 C-3.67 5.35 -3.34 3.7 -3 2 C-2.01 2 -1.02 2 0 2 C0 1.34 0 0.68 0 0 Z " fill="#D6D0C3" transform="translate(89,72)"/>
<path d="M0 0 C-0.639375 0.433125 -1.27875 0.86625 -1.9375 1.3125 C-4.26746003 2.91239177 -4.26746003 2.91239177 -5 6 C-5.65484375 6.29648438 -6.3096875 6.59296875 -6.984375 6.8984375 C-9.20205493 7.82765349 -9.20205493 7.82765349 -9.828125 10.1640625 C-10.03695312 11.38222656 -10.03695312 11.38222656 -10.25 12.625 C-10.39953125 13.44226563 -10.5490625 14.25953125 -10.703125 15.1015625 C-10.80109375 15.72804688 -10.8990625 16.35453125 -11 17 C-11.66 17 -12.32 17 -13 17 C-12.95875 18.258125 -12.9175 19.51625 -12.875 20.8125 C-12.7609626 24.29064073 -12.94074319 24.91111478 -15 28 C-14.85472716 18.8346044 -13.89957153 11.84654629 -9 4 C-8.34 4 -7.68 4 -7 4 C-7 2.68 -7 1.36 -7 0 C-4.3333581 -1.33332095 -2.83319697 -0.67102033 0 0 Z " fill="#CAC1AE" transform="translate(74,84)"/>
<path d="M0 0 C0.99 0.66 1.98 1.32 3 2 C1.28484687 5.59365417 -0.34807246 9.00216887 -3 12 C-3.66 12 -4.32 12 -5 12 C-5 14.97 -5 17.94 -5 21 C-4.34 21.33 -3.68 21.66 -3 22 C-3.33 22.66 -3.66 23.32 -4 24 C-4.99 24 -5.98 24 -7 24 C-7.10864945 21.93867858 -7.18588321 19.87568679 -7.25 17.8125 C-7.29640625 16.66394531 -7.3428125 15.51539063 -7.390625 14.33203125 C-6.92289584 10.34230148 -5.67529104 8.91486934 -3 6 C-1.95548562 4.02288349 -0.94301862 2.02749004 0 0 Z " fill="#B08F68" transform="translate(106,151)"/>
<path d="M0 0 C5.26053037 -0.31563182 8.44573816 0.33409063 13 3 C13 3.33 13 3.66 13 4 C8.545 5.485 8.545 5.485 4 7 C4.99 7.66 5.98 8.32 7 9 C4.36 8.67 1.72 8.34 -1 8 C-0.67 6.35 -0.34 4.7 0 3 C0.99 3 1.98 3 3 3 C3 2.34 3 1.68 3 1 C2.01 0.67 1.02 0.34 0 0 Z " fill="#C5845B" transform="translate(75,152)"/>
<path d="M0 0 C4.86978909 2.43489455 5.2715555 3.98751094 7 9 C7 10.32 7 11.64 7 13 C4.69 12.67 2.38 12.34 0 12 C0 8.04 0 4.08 0 0 Z " fill="#786544" transform="translate(0,248)"/>
<path d="M0 0 C3.63 0 7.26 0 11 0 C10.34 0.66 9.68 1.32 9 2 C9.33 2.99 9.66 3.98 10 5 C5.545 5.495 5.545 5.495 1 6 C0.67 6.99 0.34 7.98 0 9 C-0.91892116 5.32431536 -0.95904856 3.83619425 0 0 Z " fill="#AE8059" transform="translate(71,117)"/>
<path d="M0 0 C0.99 0.99 1.98 1.98 3 3 C3.99 3 4.98 3 6 3 C7.05404945 6.98196457 6.84098656 9.98195309 6 14 C4.68 14 3.36 14 2 14 C1.34 9.38 0.68 4.76 0 0 Z " fill="#CF9E6F" transform="translate(56,128)"/>
<path d="M0 0 C0.66 0.33 1.32 0.66 2 1 C2.73075648 3.3140622 3.40138258 5.64828869 4 8 C3.01 8 2.02 8 1 8 C1.66 9.32 2.32 10.64 3 12 C-3.77681473 10.04225352 -3.77681473 10.04225352 -6 7 C-6.6875 4.8125 -6.6875 4.8125 -7 3 C-4.525 3.99 -4.525 3.99 -2 5 C-1.855625 4.360625 -1.71125 3.72125 -1.5625 3.0625 C-1 1 -1 1 0 0 Z " fill="#6E401E" transform="translate(104,94)"/>
<path d="M0 0 C0.33 0 0.66 0 1 0 C0.67 2.31 0.34 4.62 0 7 C-3.47325181 8.1577506 -6.36067448 8.06866652 -10 8 C-10.28875 7.38125 -10.5775 6.7625 -10.875 6.125 C-11.93720042 3.86674235 -11.93720042 3.86674235 -14 2 C-12.98679687 2.10828125 -12.98679687 2.10828125 -11.953125 2.21875 C-11.06109375 2.3115625 -10.1690625 2.404375 -9.25 2.5 C-8.36828125 2.5928125 -7.4865625 2.685625 -6.578125 2.78125 C-3.76695165 3.05636313 -3.76695165 3.05636313 0 3 C0 2.01 0 1.02 0 0 Z " fill="#93633F" transform="translate(87,123)"/>
<path d="M0 0 C2.97 0.33 5.94 0.66 9 1 C11.2247191 6.43820225 11.2247191 6.43820225 10.125 9.1875 C9.75375 9.785625 9.3825 10.38375 9 11 C9 11.99 9 12.98 9 14 C8.01 14 7.02 14 6 14 C5.67 13.01 5.34 12.02 5 11 C5.66 11 6.32 11 7 11 C7 8.36 7 5.72 7 3 C6.34 2.67 5.68 2.34 5 2 C5.33 3.98 5.66 5.96 6 8 C5.34 8 4.68 8 4 8 C3.71125 7.195625 3.4225 6.39125 3.125 5.5625 C2.26737432 2.8673532 2.26737432 2.8673532 0 2 C0 1.34 0 0.68 0 0 Z " fill="#CFCEC4" transform="translate(101,170)"/>
<path d="M0 0 C0.99 0 1.98 0 3 0 C3.33 1.32 3.66 2.64 4 4 C4.99 4 5.98 4 7 4 C7 5.32 7 6.64 7 8 C4.36 8 1.72 8 -1 8 C-1 7.34 -1 6.68 -1 6 C-1.66 6 -2.32 6 -3 6 C-2 4 -1 2 0 0 Z " fill="#DCA270" transform="translate(78,142)"/>
<path d="M0 0 C0.99 0 1.98 0 3 0 C6 3.33333333 6 3.33333333 6 6 C6.66 6 7.32 6 8 6 C9.25664978 8.90600261 10 10.79604584 10 14 C10.66 14 11.32 14 12 14 C12 16.64 12 19.28 12 22 C11.67 22 11.34 22 11 22 C10.690625 20.906875 10.38125 19.81375 10.0625 18.6875 C9.08515895 13.94392508 9.08515895 13.94392508 5.9375 10.8125 C5.298125 10.544375 4.65875 10.27625 4 10 C4 8.02 4 6.04 4 4 C3.34 4 2.68 4 2 4 C1.34 2.68 0.68 1.36 0 0 Z " fill="#94683C" transform="translate(105,106)"/>
<path d="M0 0 C2.96909598 3.27301919 3.34354794 5.38065762 3.1875 9.75 C3.14689453 11.22726563 3.14689453 11.22726563 3.10546875 12.734375 C3.07066406 13.48203125 3.03585938 14.2296875 3 15 C2.34 14.34 1.68 13.68 1 13 C0.67 14.32 0.34 15.64 0 17 C-0.99 16.67 -1.98 16.34 -3 16 C-2.34 16 -1.68 16 -1 16 C-0.64393187 11.03448675 -0.64393187 11.03448675 -2.5 6.5625 C-2.995 6.046875 -3.49 5.53125 -4 5 C-3.01 5 -2.02 5 -1 5 C-0.67 3.35 -0.34 1.7 0 0 Z " fill="#B0855D" transform="translate(113,118)"/>
<path d="M0 0 C0.66 0.66 1.32 1.32 2 2 C1.34 2 0.68 2 0 2 C0.33 2.515625 0.66 3.03125 1 3.5625 C2.41178452 7.00372477 2.43260731 9.29193738 2 13 C0.60295486 15.86947042 -1.01725241 18.49718746 -3 21 C-3.33 21 -3.66 21 -4 21 C-4 19.02 -4 17.04 -4 15 C-3.01 15 -2.02 15 -1 15 C-1 12.03 -1 9.06 -1 6 C-1.66 6 -2.32 6 -3 6 C-3.33 4.68 -3.66 3.36 -4 2 C-2.68 1.34 -1.36 0.68 0 0 Z " fill="#B5A38A" transform="translate(128,98)"/>
<path d="M0 0 C2.05060599 4.10121198 2.56071615 7.47551497 3 11.9375 C3.46238584 16.60845323 4.20213109 20.64056565 6 25 C5.125 27.3125 5.125 27.3125 4 29 C3.67 29 3.34 29 3 29 C2.67 24.71 2.34 20.42 2 16 C1.34 16 0.68 16 0 16 C0 15.34 0 14.68 0 14 C-0.66 13.67 -1.32 13.34 -2 13 C-1.34 13 -0.68 13 0 13 C0 8.71 0 4.42 0 0 Z " fill="#C1C1B3" transform="translate(11,240)"/>
<path d="M0 0 C0.66 0 1.32 0 2 0 C2.66 1.32 3.32 2.64 4 4 C4 3.34 4 2.68 4 2 C5.32 1.67 6.64 1.34 8 1 C7.67 2.32 7.34 3.64 7 5 C8.32 5.33 9.64 5.66 11 6 C10.67 6.66 10.34 7.32 10 8 C3.375 8.125 3.375 8.125 0 7 C0 4.69 0 2.38 0 0 Z " fill="#CFD0C3" transform="translate(101,163)"/>
<path d="M0 0 C0.66 1.32 1.32 2.64 2 4 C1.01 4.495 1.01 4.495 0 5 C0 3.35 0 1.7 0 0 Z M2 6 C1 9 1 9 0 10 C-5.73611111 10.27314815 -5.73611111 10.27314815 -8 10 C-8.66 9.34 -9.32 8.68 -10 8 C-8.68 7.67 -7.36 7.34 -6 7 C-6.33 6.34 -6.66 5.68 -7 5 C-3.23375329 3.74458443 -1.62811066 4.62938042 2 6 Z " fill="#A97447" transform="translate(96,154)"/>
<path d="M0 0 C3.33571429 1.11190476 3.58417079 1.46320673 5.1875 4.375 C5.70376953 5.28378906 5.70376953 5.28378906 6.23046875 6.2109375 C7 8 7 8 7 11 C6.34 11 5.68 11 5 11 C5.66 12.98 6.32 14.96 7 17 C3.60582235 13.87378374 1.3937282 11.43458973 0 7 C0.99 7 1.98 7 3 7 C2.01 4.69 1.02 2.38 0 0 Z " fill="#5E381F" transform="translate(104,93)"/>
<path d="M0 0 C2.31 0 4.62 0 7 0 C8.25664978 2.90600261 9 4.79604584 9 8 C8.34 8 7.68 8 7 8 C7 8.99 7 9.98 7 11 C5.68 10.34 4.36 9.68 3 9 C3 8.34 3 7.68 3 7 C3.99 7 4.98 7 6 7 C5.67 6.01 5.34 5.02 5 4 C4.01 3.67 3.02 3.34 2 3 C2 2.34 2 1.68 2 1 C1.34 0.67 0.68 0.34 0 0 Z " fill="#816F56" transform="translate(112,84)"/>
<path d="M0 0 C0.66 0.33 1.32 0.66 2 1 C0.66666667 3.66666667 -0.66666667 6.33333333 -2 9 C-1.34 9.33 -0.68 9.66 0 10 C-2.97 9.505 -2.97 9.505 -6 9 C-6 8.34 -6 7.68 -6 7 C-6.99 6.67 -7.98 6.34 -9 6 C-3.375 2 -3.375 2 0 2 C0 1.34 0 0.68 0 0 Z " fill="#E0A477" transform="translate(87,128)"/>
<path d="M0 0 C1.98 0 3.96 0 6 0 C6.33 1.32 6.66 2.64 7 4 C5.35 3.67 3.7 3.34 2 3 C2.25561323 5.3431213 2.59270772 7.67843403 3 10 C3.66 10.33 4.32 10.66 5 11 C2.525 12.485 2.525 12.485 0 14 C0.33 11.69 0.66 9.38 1 7 C0.34 7 -0.32 7 -1 7 C-0.67 4.69 -0.34 2.38 0 0 Z " fill="#584026" transform="translate(118,103)"/>
<path d="M0 0 C1.06723961 3.46222615 1.10173486 6.64039266 1.0625 10.25 C1.05347656 11.32765625 1.04445313 12.4053125 1.03515625 13.515625 C1.02355469 14.33546875 1.01195313 15.1553125 1 16 C0.01 16 -0.98 16 -2 16 C-2.19517554 14.06325815 -2.38087873 12.12555991 -2.5625 10.1875 C-2.66691406 9.10855469 -2.77132812 8.02960938 -2.87890625 6.91796875 C-3 4 -3 4 -2 1 C-1.34 0.67 -0.68 0.34 0 0 Z " fill="#93663A" transform="translate(63,105)"/>
<path d="M0 0 C3.96 0.33 7.92 0.66 12 1 C12.33 2.32 12.66 3.64 13 5 C12.01 5.33 11.02 5.66 10 6 C9.34 6.66 8.68 7.32 8 8 C7.4225 7.236875 6.845 6.47375 6.25 5.6875 C3.93238862 2.71153714 3.93238862 2.71153714 0 0 Z " fill="#5B412A" transform="translate(102,88)"/>
<path d="M0 0 C2.475 0.495 2.475 0.495 5 1 C5 1.66 5 2.32 5 3 C4.34 3 3.68 3 3 3 C3 3.99 3 4.98 3 6 C3.66 6 4.32 6 5 6 C5.33 7.65 5.66 9.3 6 11 C4.02 11.99 2.04 12.98 0 14 C0.66 10.7 1.32 7.4 2 4 C1.34 3.67 0.68 3.34 0 3 C0 2.01 0 1.02 0 0 Z " fill="#D9CFBA" transform="translate(128,100)"/>
<path d="M0 0 C4.93876484 0.45941998 7.28996637 1.77812869 11 5 C12.31138904 5.70885894 13.63777017 6.39456452 15 7 C12.3560968 8.01688584 10.88183417 7.9773725 8.0625 7.4375 C4.10988469 5.58219077 2.57716471 3.48675226 0 0 Z " fill="#A16437" transform="translate(90,98)"/>
<path d="M0 0 C0 1.65 0 3.3 0 5 C-3.63 5 -7.26 5 -11 5 C-10.67 4.01 -10.34 3.02 -10 2 C-8.22265625 1.26953125 -8.22265625 1.26953125 -6.0625 0.8125 C-4.99708984 0.57466797 -4.99708984 0.57466797 -3.91015625 0.33203125 C-2 0 -2 0 0 0 Z " fill="#B0A294" transform="translate(183,270)"/>
<path d="M0 0 C0.33 0 0.66 0 1 0 C1.20190089 6.35987804 0.6277833 11.85221129 -1 18 C-3.20319677 13.59360646 -4.10924981 11.02549129 -4 6 C-3.01 6 -2.02 6 -1 6 C-0.67 4.02 -0.34 2.04 0 0 Z " fill="#B9B2A1" transform="translate(52,226)"/>
<path d="M0 0 C0.99 0.66 1.98 1.32 3 2 C3 2.99 3 3.98 3 5 C3.66 5 4.32 5 5 5 C4.67 6.98 4.34 8.96 4 11 C3.67 10.34 3.34 9.68 3 9 C0.97536745 8.34786708 0.97536745 8.34786708 -1 8 C-1.93065133 5.39417629 -2.14917407 4.35801776 -1.0625 1.75 C-0.711875 1.1725 -0.36125 0.595 0 0 Z " fill="#70533A" transform="translate(111,93)"/>
<path d="M0 0 C1.32 0.33 2.64 0.66 4 1 C3.67 1.99 3.34 2.98 3 4 C5.64 4 8.28 4 11 4 C8 6 8 6 5 6 C4.67 6.99 4.34 7.98 4 9 C2.68 8.34 1.36 7.68 0 7 C0 4.69 0 2.38 0 0 Z " fill="#372311" transform="translate(77,86)"/>
<path d="M0 0 C0.66 0 1.32 0 2 0 C2 1.98 2 3.96 2 6 C2.99 6.33 3.98 6.66 5 7 C5.6875 9.0625 5.6875 9.0625 6 11 C3.03 10.505 3.03 10.505 0 10 C0 10.66 0 11.32 0 12 C-0.66 12 -1.32 12 -2 12 C-2 11.01 -2 10.02 -2 9 C-1.34 9 -0.68 9 0 9 C0 6.03 0 3.06 0 0 Z " fill="#DAA870" transform="translate(68,167)"/>
<path d="M0 0 C0.98120464 3.05263664 0.98120464 4.94736336 0 8 C0.66 8.33 1.32 8.66 2 9 C1.01 9.99 0.02 10.98 -1 12 C-1.99 11.67 -2.98 11.34 -4 11 C-3.56179109 6.44262737 -3.14958831 3.42346555 0 0 Z " fill="#DACFBE" transform="translate(124,119)"/>
<path d="M0 0 C-3.08809695 1.76462683 -4.23312136 2 -8 2 C-8 2.66 -8 3.32 -8 4 C-11.63 4 -15.26 4 -19 4 C-19 3.34 -19 2.68 -19 2 C-16.36 2.33 -13.72 2.66 -11 3 C-11.33 2.01 -11.66 1.02 -12 0 C-10.56359829 -0.19573608 -9.12580496 -0.38127816 -7.6875 -0.5625 C-6.88699219 -0.66691406 -6.08648437 -0.77132812 -5.26171875 -0.87890625 C-3 -1 -3 -1 0 0 Z " fill="#574533" transform="translate(99,86)"/>
<path d="M0 0 C1.32 0.33 2.64 0.66 4 1 C4.08114106 2.77007714 4.13925505 4.54122098 4.1875 6.3125 C4.22230469 7.29863281 4.25710937 8.28476563 4.29296875 9.30078125 C4 12 4 12 1 15 C0.67 10.05 0.34 5.1 0 0 Z " fill="#BEB8AC" transform="translate(50,217)"/>
<path d="M0 0 C0.99 0 1.98 0 3 0 C3 0.66 3 1.32 3 2 C4.65 2.33 6.3 2.66 8 3 C8 4.65 8 6.3 8 8 C4.89347355 7.6641593 3.39585697 7.40950721 1.1875 5.125 C0 3 0 3 0 0 Z " fill="#BF8953" transform="translate(77,176)"/>
<path d="M0 0 C0.33 0 0.66 0 1 0 C1.62008896 6.72452032 1.07584987 11.00176628 -2.80859375 16.6015625 C-3.20175781 17.06304687 -3.59492187 17.52453125 -4 18 C-4.33 18 -4.66 18 -5 18 C-5.25 12.375 -5.25 12.375 -3 9 C-2.34 9 -1.68 9 -1 9 C-0.67 6.03 -0.34 3.06 0 0 Z " fill="#DECFBA" transform="translate(123,132)"/>
<path d="M0 0 C1.93681161 -0.08107583 3.8745934 -0.13922475 5.8125 -0.1875 C6.89144531 -0.22230469 7.97039062 -0.25710937 9.08203125 -0.29296875 C12 0 12 0 13.88671875 1.38671875 C15 3 15 3 15 5 C14.01 4.690625 13.02 4.38125 12 4.0625 C8.02268878 2.91566793 4.11232621 2.43287644 0 2 C0 1.34 0 0.68 0 0 Z " fill="#3F1901" transform="translate(97,123)"/>
<path d="M0 0 C3.96 1.98 3.96 1.98 8 4 C8 7.3 8 10.6 8 14 C7.34 14 6.68 14 6 14 C6 11.69 6 9.38 6 7 C5.34 6.67 4.68 6.34 4 6 C1.875 4.0625 1.875 4.0625 0 2 C0 1.34 0 0.68 0 0 Z " fill="#CF905A" transform="translate(98,105)"/>
<path d="M0 0 C1.32 0.33 2.64 0.66 4 1 C4 1.66 4 2.32 4 3 C7.465 2.505 7.465 2.505 11 2 C11 3.32 11 4.64 11 6 C6.39374606 6.32136655 3.66486096 5.91033076 0 3 C0 2.01 0 1.02 0 0 Z " fill="#723B18" transform="translate(82,141)"/>
<path d="M0 0 C0.9075 0.165 1.815 0.33 2.75 0.5 C7.3085515 1.1833147 11.83030511 0.98399294 16.42578125 0.83984375 C19 1 19 1 21 3 C16.85340627 4.19799449 13.00630953 3.8896192 8.75 3.5625 C8.00492188 3.51029297 7.25984375 3.45808594 6.4921875 3.40429688 C4.66105139 3.2751783 2.83046187 3.13834886 1 3 C0.67 2.01 0.34 1.02 0 0 Z " fill="#D9CDB6" transform="translate(73,183)"/>
<path d="M0 0 C3.83225427 -0.08912219 7.26562152 0.12132271 11 1 C10.67 3.31 10.34 5.62 10 8 C9.34 8 8.68 8 8 8 C7.938125 7.38125 7.87625 6.7625 7.8125 6.125 C7.18447843 3.7409707 7.18447843 3.7409707 4.5625 2.875 C3.2940625 2.441875 3.2940625 2.441875 2 2 C1.34 1.34 0.68 0.68 0 0 Z " fill="#9F714C" transform="translate(102,126)"/>
<path d="M0 0 C-0.33 2.64 -0.66 5.28 -1 8 C-1.66 8 -2.32 8 -3 8 C-6 2.25 -6 2.25 -6 0 C-3.50907189 -1.24546405 -2.58919267 -0.7767578 0 0 Z " fill="#AA8155" transform="translate(100,168)"/>
<path d="M0 0 C0.928125 0.2784375 0.928125 0.2784375 1.875 0.5625 C4.04160178 1.23686176 4.04160178 1.23686176 6 0 C6.33 0.99 6.66 1.98 7 3 C6.34 3 5.68 3 5 3 C5.66 5.97 6.32 8.94 7 12 C6.34 12 5.68 12 5 12 C4.67 9.69 4.34 7.38 4 5 C2.68 5 1.36 5 0 5 C0 3.35 0 1.7 0 0 Z " fill="#B49062" transform="translate(63,155)"/>
<path d="M0 0 C1.83691257 3.78187881 2.15837626 5.94568308 1 10 C-0.74627478 7.38058783 -1.38722388 5.96175123 -2 3 C-2.66 4.32 -3.32 5.64 -4 7 C-4.66 7 -5.32 7 -6 7 C-5.67 5.02 -5.34 3.04 -5 1 C-2 0 -2 0 0 0 Z " fill="#B98B63" transform="translate(115,142)"/>
<path d="M0 0 C0.33 0 0.66 0 1 0 C1 4.62 1 9.24 1 14 C0.34 14 -0.32 14 -1 14 C-1 14.99 -1 15.98 -1 17 C-2.32 16.67 -3.64 16.34 -5 16 C-5 15.34 -5 14.68 -5 14 C-4.34 14 -3.68 14 -3 14 C-3 13.01 -3 12.02 -3 11 C-2.01 11 -1.02 11 0 11 C0 7.37 0 3.74 0 0 Z " fill="#B99C76" transform="translate(67,162)"/>
<path d="M0 0 C7.0516156 -0.40509281 13.46182064 0.12055939 20 3 C20.33 3.66 20.66 4.32 21 5 C20.34644531 4.86722656 19.69289063 4.73445312 19.01953125 4.59765625 C15.24704978 3.85096846 11.46776356 3.14355459 7.6875 2.4375 C6.94693359 2.29892578 6.20636719 2.16035156 5.44335938 2.01757812 C3.62895786 1.67810945 1.81448601 1.33901677 0 1 C0 0.67 0 0.34 0 0 Z " fill="#75371B" transform="translate(74,151)"/>
<path d="M0 0 C0.5625 1.9375 0.5625 1.9375 1 4 C0 5 0 5 -3.5625 5.0625 C-4.696875 5.041875 -5.83125 5.02125 -7 5 C-6.67 3.68 -6.34 2.36 -6 1 C-4.02 0.67 -2.04 0.34 0 0 Z " fill="#B2774B" transform="translate(87,164)"/>
<path d="M0 0 C0.99 0.66 1.98 1.32 3 2 C1.28484687 5.59365417 -0.34807246 9.00216887 -3 12 C-3.66 12 -4.32 12 -5 12 C-5 11.34 -5 10.68 -5 10 C-4.34 10 -3.68 10 -3 10 C-2.87625 9.0925 -2.7525 8.185 -2.625 7.25 C-2.07890323 4.41029677 -1.42736197 2.47409409 0 0 Z " fill="#B39571" transform="translate(106,151)"/>
<path d="M0 0 C0.66 0 1.32 0 2 0 C1.67 2.64 1.34 5.28 1 8 C0.34 8 -0.32 8 -1 8 C-0.95875 9.258125 -0.9175 10.51625 -0.875 11.8125 C-0.7609626 15.29064073 -0.94074319 15.91111478 -3 19 C-2.88534579 16.77027727 -2.75785234 14.54121247 -2.625 12.3125 C-2.55539063 11.07113281 -2.48578125 9.82976562 -2.4140625 8.55078125 C-2.03577906 5.30682228 -1.38020024 2.93432815 0 0 Z " fill="#B9A58B" transform="translate(62,93)"/>
<path d="M0 0 C0.99 0.99 1.98 1.98 3 3 C-0.82517513 5.39073445 -4.59665524 5.55966552 -9 6 C-9 5.01 -9 4.02 -9 3 C-7.88625 2.87625 -6.7725 2.7525 -5.625 2.625 C-1.96896323 2.3534187 -1.96896323 2.3534187 0 0 Z " fill="#7C783E" transform="translate(9,263)"/>
<path d="M0 0 C1 3 1 3 -0.4375 6.1875 C-1.2109375 7.5796875 -1.2109375 7.5796875 -2 9 C-3.32 8.34 -4.64 7.68 -6 7 C-4.77065985 3.31197956 -3.06140622 2.27643027 0 0 Z " fill="#976639" transform="translate(73,96)"/>
<path d="M0 0 C3.1875 1.9375 3.1875 1.9375 6 4 C5.67 4.66 5.34 5.32 5 6 C0.48279689 6.36625971 0.48279689 6.36625971 -1.8125 4.625 C-3 3 -3 3 -3 1 C-2.01 0.67 -1.02 0.34 0 0 Z " fill="#33250F" transform="translate(98,90)"/>
<path d="M0 0 C1.98 0 3.96 0 6 0 C6 0.99 6 1.98 6 3 C8.31 3 10.62 3 13 3 C13 3.33 13 3.66 13 4 C11.41676312 4.027193 9.83338938 4.04648306 8.25 4.0625 C6.92742187 4.07990234 6.92742187 4.07990234 5.578125 4.09765625 C3.2181162 4.00826198 1.25501476 3.66912821 -1 3 C-0.67 2.01 -0.34 1.02 0 0 Z " fill="#39230E" transform="translate(83,82)"/>
<path d="M0 0 C3.67420866 0.30618405 4.78135513 0.75771784 7.3125 3.5625 C8.1478125 4.7690625 8.1478125 4.7690625 9 6 C5.65626525 5.44271087 2.96687001 4.64826111 0 3 C0 2.01 0 1.02 0 0 Z " fill="#DC9A63" transform="translate(87,99)"/>
<path d="M0 0 C7.60344828 0.60344828 7.60344828 0.60344828 10 3 C9 4 9 4 6.1875 4.25 C2.72285889 3.97826344 1.50584896 3.31309135 -1 1 C-0.67 0.67 -0.34 0.34 0 0 Z " fill="#A36634" transform="translate(81,158)"/>
<path d="M0 0 C0.99 0 1.98 0 3 0 C3 0.99 3 1.98 3 3 C4.423125 3.433125 4.423125 3.433125 5.875 3.875 C9 5 9 5 11 7 C8.03 6.67 5.06 6.34 2 6 C0 1.125 0 1.125 0 0 Z " fill="#321F0C" transform="translate(99,82)"/>
<path d="M0 0 C0.33 1.32 0.66 2.64 1 4 C-1.64 4.33 -4.28 4.66 -7 5 C-7.33 4.01 -7.66 3.02 -8 2 C-5.36 1.34 -2.72 0.68 0 0 Z " fill="#B37A50" transform="translate(93,139)"/>
<path d="M0 0 C0.5775 0.61875 1.155 1.2375 1.75 1.875 C3.80249821 3.81347053 5.43366582 4.90014249 8 6 C7.01 6.495 7.01 6.495 6 7 C5.34 6.67 4.68 6.34 4 6 C3.67 6.99 3.34 7.98 3 9 C2.01 8.67 1.02 8.34 0 8 C0 5.36 0 2.72 0 0 Z " fill="#B37B50" transform="translate(92,129)"/>
<path d="M0 0 C3.3 0 6.6 0 10 0 C8.25 2.0625 8.25 2.0625 6 4 C3.875 3.9375 3.875 3.9375 2 3 C1.34 2.01 0.68 1.02 0 0 Z " fill="#D4D3C7" transform="translate(78,186)"/>
<path d="M0 0 C2.97 0.33 5.94 0.66 9 1 C8.34 1.66 7.68 2.32 7 3 C6.34 2.67 5.68 2.34 5 2 C5.33 3.98 5.66 5.96 6 8 C5.34 8 4.68 8 4 8 C3.71125 7.195625 3.4225 6.39125 3.125 5.5625 C2.26737432 2.8673532 2.26737432 2.8673532 0 2 C0 1.34 0 0.68 0 0 Z " fill="#C2B093" transform="translate(101,170)"/>
<path d="M0 0 C2.31 0 4.62 0 7 0 C8.09658936 3.28976808 7.79953138 4.71303767 7 8 C5.29115995 6.37660195 3.62553283 4.70680947 2 3 C2 2.34 2 1.68 2 1 C1.34 0.67 0.68 0.34 0 0 Z " fill="#BD8154" transform="translate(97,145)"/>
<path d="M0 0 C3.37462715 0.54723683 5.08235 1.0549 8 3 C8 3.66 8 4.32 8 5 C5.36 4.67 2.72 4.34 0 4 C0 2.68 0 1.36 0 0 Z " fill="#3B240E" transform="translate(100,128)"/>
<path d="M0 0 C0.33 0 0.66 0 1 0 C0.67 2.31 0.34 4.62 0 7 C-3.47325181 8.1577506 -6.36067448 8.06866652 -10 8 C-10 7.67 -10 7.34 -10 7 C-9.236875 6.896875 -8.47375 6.79375 -7.6875 6.6875 C-4.78105605 5.94399108 -3.96433971 5.15141968 -2 3 C-1.34 3 -0.68 3 0 3 C0 2.01 0 1.02 0 0 Z " fill="#B3764B" transform="translate(87,123)"/>
<path d="M0 0 C0.33 0.66 0.66 1.32 1 2 C1.825 1.814375 2.65 1.62875 3.5 1.4375 C7.61926719 0.9225916 10.90823355 1.36507072 15 2 C15 2.33 15 2.66 15 3 C14.22914062 3.06058594 13.45828125 3.12117188 12.6640625 3.18359375 C11.66117188 3.26738281 10.65828125 3.35117188 9.625 3.4375 C8.12839844 3.55931641 8.12839844 3.55931641 6.6015625 3.68359375 C4.02072387 3.84965626 4.02072387 3.84965626 2 5 C1.34 4.67 0.68 4.34 0 4 C0 2.68 0 1.36 0 0 Z " fill="#9F6636" transform="translate(75,95)"/>
<path d="M0 0 C1.32 0.33 2.64 0.66 4 1 C2.375 6.75 2.375 6.75 -1 9 C-1.80967438 6.08517222 -2.21845993 4.53886783 -1.0625 1.6875 C-0.711875 1.130625 -0.36125 0.57375 0 0 Z " fill="#6E5435" transform="translate(69,87)"/>
<path d="M0 0 C0.99 0.33 1.98 0.66 3 1 C3.33 3.31 3.66 5.62 4 8 C2.68 8.33 1.36 8.66 0 9 C0 6.03 0 3.06 0 0 Z " fill="#5F543A" transform="translate(0,248)"/>
<path d="M0 0 C0.33 0.99 0.66 1.98 1 3 C1.66 3.33 2.32 3.66 3 4 C-1.455 4.495 -1.455 4.495 -6 5 C-5.67 3.68 -5.34 2.36 -5 1 C-3.35 0.67 -1.7 0.34 0 0 Z " fill="#A2825D" transform="translate(102,178)"/>
<path d="M0 0 C0.99 0.33 1.98 0.66 3 1 C3.25 3.3125 3.25 3.3125 3 6 C0.95575462 7.97610386 -0.1176825 9 -3 9 C-2.67 7.68 -2.34 6.36 -2 5 C-1.01 5.33 -0.02 5.66 1 6 C0.67 4.02 0.34 2.04 0 0 Z " fill="#7D684C" transform="translate(106,172)"/>
<path d="M0 0 C0.66 0 1.32 0 2 0 C1.25 6.75 1.25 6.75 -1 9 C-1.69748583 10.31747324 -2.36959957 11.64914193 -3 13 C-4 11 -4 11 -3.4765625 8.90625 C-3.19554687 8.1121875 -2.91453125 7.318125 -2.625 6.5 C-2.21121094 5.30890625 -2.21121094 5.30890625 -1.7890625 4.09375 C-1 2 -1 2 0 0 Z " fill="#CCA278" transform="translate(67,112)"/>
<path d="M0 0 C1.32 0.99 2.64 1.98 4 3 C3.34 4.98 2.68 6.96 2 9 C1.67 8.01 1.34 7.02 1 6 C0.34 6 -0.32 6 -1 6 C-0.67 4.02 -0.34 2.04 0 0 Z " fill="#B38251" transform="translate(67,103)"/>
<path d="M0 0 C0.66 0.33 1.32 0.66 2 1 C2.73075648 3.3140622 3.40138258 5.64828869 4 8 C2.02 7.01 0.04 6.02 -2 5 C-1.125 1.125 -1.125 1.125 0 0 Z " fill="#6E5239" transform="translate(104,94)"/>
<path d="M0 0 C1.98 1.65 3.96 3.3 6 5 C5.67 5.66 5.34 6.32 5 7 C2.4375 7.625 2.4375 7.625 0 8 C0 5.36 0 2.72 0 0 Z " fill="#635139" transform="translate(122,93)"/>
<path d="M0 0 C0.33 0 0.66 0 1 0 C1.33 2.64 1.66 5.28 2 8 C0.68 8 -0.64 8 -2 8 C-1.125 1.125 -1.125 1.125 0 0 Z " fill="#9E734E" transform="translate(113,144)"/>
<path d="M0 0 C1.5625 1.75 1.5625 1.75 3 4 C2.6875 6.25 2.6875 6.25 2 8 C1.01 8 0.02 8 -1 8 C-1.33 6.02 -1.66 4.04 -2 2 C-1.34 2 -0.68 2 0 2 C0 1.34 0 0.68 0 0 Z " fill="#806345" transform="translate(122,104)"/>
<path d="M0 0 C1.32 0.33 2.64 0.66 4 1 C4 3.64 4 6.28 4 9 C3.01 8.67 2.02 8.34 1 8 C0.67 5.36 0.34 2.72 0 0 Z " fill="#DBD3C1" transform="translate(120,85)"/>
<path d="M0 0 C0.81210938 0.29003906 1.62421875 0.58007812 2.4609375 0.87890625 C3.27820313 1.16636719 4.09546875 1.45382813 4.9375 1.75 C5.56398438 1.97816406 6.19046875 2.20632812 6.8359375 2.44140625 C6.8359375 3.10140625 6.8359375 3.76140625 6.8359375 4.44140625 C3.2059375 3.78140625 -0.4240625 3.12140625 -4.1640625 2.44140625 C-4.1640625 1.78140625 -4.1640625 1.12140625 -4.1640625 0.44140625 C-2.1640625 -0.55859375 -2.1640625 -0.55859375 0 0 Z " fill="#E1DCC9" transform="translate(66.1640625,180.55859375)"/>
<path d="M0 0 C-1 2 -1 2 -2.625 2.625 C-5.7660575 3.12095645 -8.82601831 3.06103811 -12 3 C-7.58119757 0.05413171 -5.32232661 -0.0985616 0 0 Z " fill="#99774F" transform="translate(97,181)"/>
<path d="M0 0 C2.475 0.495 2.475 0.495 5 1 C4.67 2.32 4.34 3.64 4 5 C2.68 5 1.36 5 0 5 C0 3.35 0 1.7 0 0 Z " fill="#AF7D45" transform="translate(76,171)"/>
<path d="M0 0 C1.98 0.66 3.96 1.32 6 2 C5.67 2.66 5.34 3.32 5 4 C2.67843403 4.40729228 0.3431213 4.74438677 -2 5 C-2 4.01 -2 3.02 -2 2 C-1.34 2 -0.68 2 0 2 C0 1.34 0 0.68 0 0 Z " fill="#C48254" transform="translate(82,161)"/>
<path d="M0 0 C0 0.99 0 1.98 0 3 C-3.66666667 3 -7.33333333 3 -11 3 C-7.16674383 0.29417212 -4.67461851 -0.32613618 0 0 Z " fill="#A96A42" transform="translate(89,156)"/>
<path d="M0 0 C0.33 0.99 0.66 1.98 1 3 C-1.3431213 2.74438677 -3.67843403 2.40729228 -6 2 C-6.33 1.34 -6.66 0.68 -7 0 C-3.89953913 -1.03348696 -2.94389782 -1.17755913 0 0 Z " fill="#412F1F" transform="translate(87,86)"/>
<path d="M0 0 C2.31 0 4.62 0 7 0 C7.33 0.99 7.66 1.98 8 3 C8.66 3.33 9.32 3.66 10 4 C5.78087253 3.5205537 3.20336822 2.83374881 0 0 Z " fill="#C6AD84" transform="translate(64,179)"/>
<path d="M0 0 C1.32 0 2.64 0 4 0 C4.33 1.32 4.66 2.64 5 4 C3.68 3.67 2.36 3.34 1 3 C0.67 3.66 0.34 4.32 0 5 C-0.99 4.01 -1.98 3.02 -3 2 C-2.01 2 -1.02 2 0 2 C0 1.34 0 0.68 0 0 Z " fill="#C48A5F" transform="translate(104,142)"/>
<path d="M0 0 C0.33 0 0.66 0 1 0 C1.5497272 5.63470383 -0.04952165 8.38987758 -3 13 C-3.33 13 -3.66 13 -4 13 C-4 11.02 -4 9.04 -4 7 C-3.01 7 -2.02 7 -1 7 C-0.67 4.69 -0.34 2.38 0 0 Z " fill="#9E8464" transform="translate(128,106)"/>
<path d="M0 0 C0.33 1.98 0.66 3.96 1 6 C-0.32 6 -1.64 6 -3 6 C-3.33 4.35 -3.66 2.7 -4 1 C-2 0 -2 0 0 0 Z " fill="#E6E5DB" transform="translate(127,88)"/>
<path d="M0 0 C1.32 0.66 2.64 1.32 4 2 C-0.455 3.485 -0.455 3.485 -5 5 C-3 1 -3 1 0 0 Z " fill="#B8A792" transform="translate(94,76)"/>
<path d="M0 0 C0.33 0 0.66 0 1 0 C0.25 6.625 0.25 6.625 -2 10 C-3.05236973 6.65155086 -3.20005388 5.40920111 -1.625 2.1875 C-1.08875 1.465625 -0.5525 0.74375 0 0 Z " fill="#5D4C32" transform="translate(122,116)"/>
<path d="M0 0 C-0.33 1.65 -0.66 3.3 -1 5 C-1.66 5 -2.32 5 -3 5 C-3.103125 4.360625 -3.20625 3.72125 -3.3125 3.0625 C-3.539375 2.381875 -3.76625 1.70125 -4 1 C-4.99 0.67 -5.98 0.34 -7 0 C-4.3333581 -1.33332095 -2.83319697 -0.67102033 0 0 Z " fill="#C3895A" transform="translate(91,118)"/>
<path d="M0 0 C3.88862987 1.26117725 5.89375599 2.45264167 8 6 C8 6.66 8 7.32 8 8 C4.65001479 6.88333826 4.20659778 6.25305075 2.3125 3.4375 C1.87550781 2.79683594 1.43851562 2.15617187 0.98828125 1.49609375 C0.49908203 0.75552734 0.49908203 0.75552734 0 0 Z " fill="#8B7158" transform="translate(102,89)"/>
<path d="M0 0 C3.73584906 1.47169811 3.73584906 1.47169811 5 4 C1.37 4 -2.26 4 -6 4 C-2 1 -2 1 0 0 Z " fill="#786049" transform="translate(87,78)"/>
<path d="M0 0 C2.3431213 0.25561323 4.67843403 0.59270772 7 1 C7.33 1.66 7.66 2.32 8 3 C5.36 3 2.72 3 0 3 C0 2.01 0 1.02 0 0 Z " fill="#6F824A" transform="translate(0,272)"/>
<path d="M0 0 C0.33 0 0.66 0 1 0 C1.05422947 1.4370809 1.09289723 2.87475462 1.125 4.3125 C1.14820313 5.11300781 1.17140625 5.91351563 1.1953125 6.73828125 C1 9 1 9 -1 12 C-2.36884358 7.48281619 -1.47075246 4.41225737 0 0 Z " fill="#887F71" transform="translate(52,226)"/>
<path d="M0 0 C1.32 0.33 2.64 0.66 4 1 C4 2.65 4 4.3 4 6 C3.34 6 2.68 6 2 6 C2 5.34 2 4.68 2 4 C1.34 4 0.68 4 0 4 C0 2.68 0 1.36 0 0 Z " fill="#CECEC7" transform="translate(52,210)"/>
<path d="M0 0 C0.33 0 0.66 0 1 0 C1 4.29 1 8.58 1 13 C0.01 13 -0.98 13 -2 13 C-2 12.01 -2 11.02 -2 10 C-1.34 10 -0.68 10 0 10 C0 6.7 0 3.4 0 0 Z " fill="#D1BD9F" transform="translate(66,160)"/>
<path d="M0 0 C1.37478516 0.01740234 1.37478516 0.01740234 2.77734375 0.03515625 C3.69644531 0.04417969 4.61554688 0.05320312 5.5625 0.0625 C6.27277344 0.07410156 6.98304687 0.08570312 7.71484375 0.09765625 C7.71484375 0.42765625 7.71484375 0.75765625 7.71484375 1.09765625 C5.82765625 1.22140625 5.82765625 1.22140625 3.90234375 1.34765625 C0.37673163 1.76322768 0.37673163 1.76322768 -2.28515625 4.16015625 C-2.61515625 4.79953125 -2.94515625 5.43890625 -3.28515625 6.09765625 C-3.32787725 4.4315372 -3.32579457 2.7638274 -3.28515625 1.09765625 C-2.28515625 0.09765625 -2.28515625 0.09765625 0 0 Z " fill="#A17046" transform="translate(96.28515625,121.90234375)"/>
<path d="M0 0 C1.32 0 2.64 0 4 0 C4 1.32 4 2.64 4 4 C4.99 4.33 5.98 4.66 7 5 C4.03 4.505 4.03 4.505 1 4 C0.67 2.68 0.34 1.36 0 0 Z " fill="#806345" transform="translate(118,97)"/>
<path d="M0 0 C3 1 3 1 4.16796875 2.84765625 C4.50441406 3.57855469 4.84085937 4.30945313 5.1875 5.0625 C5.53167969 5.79597656 5.87585938 6.52945313 6.23046875 7.28515625 C6.48441406 7.85105469 6.73835938 8.41695312 7 9 C4.66220476 8.04362922 3.28370631 7.46790368 1.953125 5.2734375 C1.30208333 3.515625 0.65104167 1.7578125 0 0 Z " fill="#4D2F15" transform="translate(104,93)"/>
<path d="M0 0 C1.24546405 2.49092811 0.7767578 3.41080733 0 6 C-0.66 6 -1.32 6 -2 6 C-2 6.66 -2 7.32 -2 8 C-2.66 8 -3.32 8 -4 8 C-3.40138258 5.64828869 -2.73075648 3.3140622 -2 1 C-1.34 0.67 -0.68 0.34 0 0 Z " fill="#3E2110" transform="translate(75,87)"/>
<path d="M0 0 C2.97 0.495 2.97 0.495 6 1 C5.67 1.99 5.34 2.98 5 4 C2.03 3.505 2.03 3.505 -1 3 C-0.67 2.01 -0.34 1.02 0 0 Z " fill="#664A32" transform="translate(93,79)"/>
<path d="M0 0 C1.32 0 2.64 0 4 0 C4.33 1.65 4.66 3.3 5 5 C4.01 5.495 4.01 5.495 3 6 C0 2.25 0 2.25 0 0 Z " fill="#827753" transform="translate(9,259)"/>
<path d="M0 0 C0.66 0 1.32 0 2 0 C2.07654536 4.51617599 2.10228696 8.59085217 1 13 C0.67 13 0.34 13 0 13 C-0.76398879 8.67073019 -1.12976508 5.26800142 0 1 C0 0.67 0 0.34 0 0 Z " fill="#BCBEB4" transform="translate(9,216)"/>
<path d="M0 0 C2.31 0 4.62 0 7 0 C7.33 0.99 7.66 1.98 8 3 C6.68 3.33 5.36 3.66 4 4 C3.67 3.34 3.34 2.68 3 2 C2.01 1.34 1.02 0.68 0 0 Z " fill="#C78364" transform="translate(75,152)"/>
<path d="M0 0 C1.32 0.33 2.64 0.66 4 1 C4 1.66 4 2.32 4 3 C4.99 3.33 5.98 3.66 7 4 C4 5 4 5 1.8125 4.0625 C1.214375 3.711875 0.61625 3.36125 0 3 C0 2.01 0 1.02 0 0 Z " fill="#854B23" transform="translate(82,141)"/>
<path d="M0 0 C0.78375 0.04125 1.5675 0.0825 2.375 0.125 C2.045 0.785 1.715 1.445 1.375 2.125 C2.365 3.115 3.355 4.105 4.375 5.125 C1.405 4.135 -1.565 3.145 -4.625 2.125 C-2.625 0.125 -2.625 0.125 0 0 Z " fill="#7F5B3C" transform="translate(102.625,124.875)"/>
<path d="M0 0 C2.375 0.25 2.375 0.25 5 1 C6.3125 3.0625 6.3125 3.0625 7 5 C4.69 4.34 2.38 3.68 0 3 C0 2.01 0 1.02 0 0 Z " fill="#623B17" transform="translate(105,123)"/>
<path d="M0 0 C3.3 0 6.6 0 10 0 C9.01 1.485 9.01 1.485 8 3 C4.92463146 2.34099246 2.92264434 1.46132217 0 0 Z " fill="#311001" transform="translate(73,124)"/>
<path d="M0 0 C0 0.99 0 1.98 0 3 C-1.32 3 -2.64 3 -4 3 C-4 2.34 -4 1.68 -4 1 C-4.99 0.67 -5.98 0.34 -7 0 C-3.86650268 -1.04449911 -3.01031744 -0.93423645 0 0 Z " fill="#51381C" transform="translate(118,88)"/>
<path d="M0 0 C1.98 0.495 1.98 0.495 4 1 C3.01 1 2.02 1 1 1 C1.20625 1.78375 1.4125 2.5675 1.625 3.375 C1.810625 4.674375 1.810625 4.674375 2 6 C1.34 6.66 0.68 7.32 0 8 C-0.79953138 4.71303767 -1.09658936 3.28976808 0 0 Z " fill="#D0CBC0" transform="translate(49,216)"/>
<path d="M0 0 C0.66 0 1.32 0 2 0 C1.67 1.98 1.34 3.96 1 6 C0.01 5.67 -0.98 5.34 -2 5 C-2 4.01 -2 3.02 -2 2 C-1.34 2 -0.68 2 0 2 C0 1.34 0 0.68 0 0 Z " fill="#3B1F0B" transform="translate(111,102)"/>
<path d="M0 0 C2.5 1.375 2.5 1.375 5 3 C5 3.66 5 4.32 5 5 C2.625 5.1875 2.625 5.1875 0 5 C-0.66 4.01 -1.32 3.02 -2 2 C-1.34 1.34 -0.68 0.68 0 0 Z " fill="#EBAD76" transform="translate(86,100)"/>
<path d="M0 0 C2.475 0.495 2.475 0.495 5 1 C5 1.66 5 2.32 5 3 C4.34 3 3.68 3 3 3 C2.67 3.66 2.34 4.32 2 5 C1.34 4.34 0.68 3.68 0 3 C0 2.01 0 1.02 0 0 Z " fill="#C8C4B4" transform="translate(128,100)"/>
<path d="M0 0 C2.475 0.495 2.475 0.495 5 1 C5 1.99 5 2.98 5 4 C2 4 2 4 0 3 C0 2.01 0 1.02 0 0 Z " fill="#E3E3D8" transform="translate(130,97)"/>
<path d="M0 0 C4.95 0.99 4.95 0.99 10 2 C9.67 2.66 9.34 3.32 9 4 C4.545 3.01 4.545 3.01 0 2 C0 1.34 0 0.68 0 0 Z " fill="#5A442E" transform="translate(82,92)"/>
<path d="M0 0 C4.95 0.99 4.95 0.99 10 2 C8 4 8 4 5 4.1875 C2 4 2 4 0 3 C0 2.01 0 1.02 0 0 Z " fill="#534431" transform="translate(102,82)"/>
<path d="M0 0 C0 0.99 0 1.98 0 3 C-0.99 3 -1.98 3 -3 3 C-3 2.34 -3 1.68 -3 1 C-4.32 1.33 -5.64 1.66 -7 2 C-7 1.34 -7 0.68 -7 0 C-3.86650268 -1.04449911 -3.01031744 -0.93423645 0 0 Z " fill="#624F36" transform="translate(83,83)"/>
<path d="M0 0 C1.32 0.66 2.64 1.32 4 2 C3.67 2.99 3.34 3.98 3 5 C1.35 4.67 -0.3 4.34 -2 4 C-2 3.34 -2 2.68 -2 2 C-1.34 2 -0.68 2 0 2 C0 1.34 0 0.68 0 0 Z " fill="#C7BDAD" transform="translate(87,75)"/>
</svg>
