<?xml version="1.0" encoding="UTF-8"?>
<svg version="1.1" xmlns="http://www.w3.org/2000/svg" width="512" height="512">
<path d="M0 0 C1.18464844 0.02835938 2.36929688 0.05671875 3.58984375 0.0859375 C51.19493195 2.11579913 96.60514852 22.79083766 130 56.5 C130.51847504 57.02056976 131.03695007 57.54113953 131.57113647 58.07748413 C140.45372721 67.03373695 148.28565869 76.2838443 155 87 C155.47679199 87.75023437 155.95358398 88.50046875 156.44482422 89.2734375 C183.34577154 132.09866419 192.89287828 184.23147811 182.39794922 233.84619141 C176.36534289 260.03267356 165.1648382 285.48055915 149 307 C148.4225 307.77214844 147.845 308.54429687 147.25 309.33984375 C146.8375 309.88769531 146.425 310.43554688 146 311 C147.32036556 313.92436763 148.7420176 315.98786404 151.01618958 318.24324036 C151.94344597 319.17028526 151.94344597 319.17028526 152.88943481 320.11605835 C153.56634369 320.78263458 154.24325256 321.44921082 154.94067383 322.13598633 C155.65469864 322.84709061 156.36872345 323.55819489 157.10438538 324.29084778 C158.65509017 325.83394395 160.20810111 327.37472526 161.7631321 328.91346169 C164.22675622 331.35155178 166.68407272 333.79584117 169.13981628 336.24186707 C175.24269863 342.31800664 181.35631627 348.3833084 187.46966553 354.44891357 C192.63168736 359.57141526 197.78956123 364.6980261 202.94202232 369.83014488 C205.35806032 372.23325546 207.78006511 374.6302393 210.2023468 377.02705383 C211.69224292 378.50968032 213.1818564 379.99259091 214.67114258 381.47583008 C215.67739685 382.46658539 215.67739685 382.46658539 216.70397949 383.47735596 C223.30017456 390.07206689 228.53528932 396.23758757 229.3125 405.875 C229.09397413 412.24867109 227.1370905 417.11271672 222.8125 421.8125 C218.16434131 426.0895872 213.30064889 428.06674908 207 428.375 C197.87592579 427.81282707 192.78611879 423.50497501 186.65625 417.22387695 C185.86504257 416.43339966 185.07383514 415.64292236 184.25865173 414.82849121 C181.66039798 412.22676906 179.0802801 409.60781957 176.5 406.98828125 C174.69648859 405.1754392 172.89186615 403.36370184 171.08618164 401.55302429 C166.83074463 397.28048224 162.58662851 392.99700606 158.34785748 388.70795268 C153.51854362 383.82261088 148.67490065 378.95158216 143.83004379 374.08166182 C133.87075057 364.07020803 123.92944879 354.04104825 114 344 C110.48727311 346.33172905 107.02823251 348.69957732 103.625 351.1875 C85.41473907 363.92651661 65.1584083 372.53952247 44 379 C42.9584375 379.32871094 41.916875 379.65742188 40.84375 379.99609375 C-5.88497807 393.25880628 -58.67340498 384.04096032 -100.625 361 C-108.47347051 356.54883717 -115.86228243 351.51730978 -123 346 C-123.73629639 345.43812988 -124.47259277 344.87625977 -125.23120117 344.29736328 C-132.02535141 339.00533252 -138.22936272 333.21318688 -144.3125 327.125 C-145.06543839 326.37266586 -145.06543839 326.37266586 -145.83358765 325.60513306 C-180.8583657 290.41894088 -198.63719333 241.76847365 -199.125 192.5 C-199.0959322 190.33312769 -199.05390324 188.16639678 -199 186 C-198.98324219 184.85015625 -198.96648437 183.7003125 -198.94921875 182.515625 C-197.20905824 134.58663272 -175.37264553 91.33179699 -143 57 C-142.27039063 56.21625 -141.54078125 55.4325 -140.7890625 54.625 C-134.43851693 48.0147667 -127.31084791 42.49352377 -120 37 C-119.15566406 36.360625 -118.31132813 35.72125 -117.44140625 35.0625 C-83.84377591 10.58665463 -41.26495871 -1.07181711 0 0 Z M-104 80 C-104.95519531 80.80953125 -105.91039062 81.6190625 -106.89453125 82.453125 C-133.99799168 105.97663538 -151.71028048 142.43813194 -155 178 C-155.90360726 193.80034023 -155.89746352 209.59414636 -152 225 C-151.56494141 226.76537109 -151.56494141 226.76537109 -151.12109375 228.56640625 C-140.57709081 268.0512708 -116.45137011 300.61507967 -81.3046875 321.67724609 C-64.81144719 331.14338762 -47.66406546 336.73489162 -29 340 C-27.63464111 340.25910156 -27.63464111 340.25910156 -26.24169922 340.5234375 C-19.96436328 341.44626923 -13.58505665 341.24486631 -7.25 341.25 C-6.50734894 341.25067474 -5.76469788 341.25134949 -4.99954224 341.25204468 C25.97052564 341.20727876 54.63133956 332.07881548 80 314 C81.56041016 312.89011719 81.56041016 312.89011719 83.15234375 311.7578125 C101.2343035 298.55624773 116.26763546 281.23987315 126 261 C126.85658203 259.28103516 126.85658203 259.28103516 127.73046875 257.52734375 C137.81395512 236.94808522 142.22855568 216.00136366 142.25 193.125 C142.25100708 192.38389984 142.25201416 191.64279968 142.25305176 190.87924194 C142.24299447 179.95776788 141.76481702 169.6202199 139 159 C138.56494141 157.22302734 138.56494141 157.22302734 138.12109375 155.41015625 C131.41945463 130.03365666 118.34192223 108.49967292 101 89 C100.41863281 88.34515625 99.83726562 87.6903125 99.23828125 87.015625 C74.96237843 61.33330967 37.04628035 44.76712407 1.94140625 43.6640625 C-37.50095058 43.17901772 -73.79668556 54.0166149 -104 80 Z " fill="#FFFFFF" transform="translate(241,42)"/>
</svg>
