<?xml version="1.0" encoding="UTF-8"?>
<svg version="1.1" xmlns="http://www.w3.org/2000/svg" width="3192" height="542">
<path d="M0 0 C0.70487549 0.00054382 1.40975098 0.00108765 2.13598633 0.00164795 C13.63735004 0.04236593 24.47792364 0.91016547 35.5 4.375 C36.18900391 4.58930664 36.87800781 4.80361328 37.58789062 5.02441406 C61.79978109 12.81896362 86.01725313 28.3123233 99.5 50.375 C99.5 51.365 99.5 52.355 99.5 53.375 C98.02563477 54.71850586 98.02563477 54.71850586 95.94140625 56.08984375 C94.78644653 56.862677 94.78644653 56.862677 93.6081543 57.65112305 C92.76808838 58.19937744 91.92802246 58.74763184 91.0625 59.3125 C89.30912721 60.48322466 87.55653837 61.65512418 85.8046875 62.828125 C84.47002441 63.71661133 84.47002441 63.71661133 83.10839844 64.62304688 C79.25820899 67.20905956 75.46929475 69.87783841 71.6875 72.5625 C70.99994629 73.04936279 70.31239258 73.53622559 69.60400391 74.0378418 C62.88912466 78.79786716 56.19128291 83.58187817 49.5 88.375 C46.2405115 86.98513153 44.54511325 85.46284584 42.375 82.6875 C32.63487801 71.27232518 18.48688422 65.49125713 3.7734375 64.12109375 C-11.93596731 63.46477091 -26.28499489 68.87743746 -38.1875 78.9375 C-48.34372155 88.62943713 -53.79792651 100.33276639 -56.125 114.0625 C-54.32364372 123.6096883 -46.4700629 132.65480499 -38.859375 138.3515625 C-27.98063485 145.49263494 -17.39427377 149.72839509 -4.3125 149.75 C-3.55130859 149.77449219 -2.79011719 149.79898438 -2.00585938 149.82421875 C12.28285054 149.89513046 26.37431967 142.36670029 39.35604095 137.11091614 C42.86269371 135.69211966 46.37242601 134.28120721 49.88311768 132.87243652 C59.85638687 128.86926308 69.82547755 124.85582825 79.7890625 120.82861328 C85.9075499 118.35566962 92.03120028 115.89579334 98.15763092 113.44258118 C100.47318525 112.51264747 102.78695401 111.57825342 105.09877777 110.63908386 C140.36845647 96.31448281 175.44972273 91.89893523 211.5 106.375 C225.67319548 112.42873329 237.30951137 120.78653133 248.5 131.375 C249.3353125 132.14585937 250.170625 132.91671875 251.03125 133.7109375 C257.55235982 139.93014409 262.77992426 146.73287008 267.5 154.375 C267.84804688 154.93783691 268.19609375 155.50067383 268.5546875 156.08056641 C276.72028595 169.59908302 282.75127386 185.63646472 284.5 201.375 C284.60828125 202.24640625 284.7165625 203.1178125 284.828125 204.015625 C287.69320889 230.40455554 282.70759193 256.33730556 269.5 279.375 C268.86449219 280.49519531 268.22898437 281.61539062 267.57421875 282.76953125 C263.18484112 290.0914267 263.18484112 290.0914267 260.6262207 291.15087891 C258.5 291.375 258.5 291.375 256.69506836 290.42553711 C256.08284424 289.9228833 255.47062012 289.42022949 254.83984375 288.90234375 C254.13811035 288.33926514 253.43637695 287.77618652 252.71337891 287.19604492 C251.96233887 286.5744751 251.21129883 285.95290527 250.4375 285.3125 C248.82082267 284.01336656 247.20227161 282.71656202 245.58203125 281.421875 C244.74623535 280.75091797 243.91043945 280.07996094 243.04931641 279.38867188 C238.98323031 276.17692335 234.80934261 273.11763408 230.625 270.0625 C229.04807835 268.90768689 227.47125284 267.7527425 225.89453125 266.59765625 C225.15154785 266.05383301 224.40856445 265.51000977 223.64306641 264.94970703 C218.89939192 261.46409522 214.1990708 257.92040671 209.5 254.375 C210.04269531 253.35921875 210.58539063 252.3434375 211.14453125 251.296875 C220.07771532 234.26019504 223.44178826 218.8847559 217.75390625 199.87890625 C212.71378473 185.79482836 203.7391291 175.35886274 190.5 168.375 C181.2552229 164.01852609 173.71391764 162.17340405 163.5625 162.0625 C162.68142578 162.03349609 161.80035156 162.00449219 160.89257812 161.97460938 C155.22896632 161.9194581 151.92867436 162.50650022 147.5 166.375 C136.657673 178.29567779 131.96398204 192.897253 132.25390625 208.7578125 C133.34129748 224.74073751 140.15829225 236.53967041 150.5 248.375 C151.8701542 249.98379064 153.23370758 251.59801292 154.59667969 253.21289062 C155.5344951 254.32365042 156.47395816 255.43302113 157.41503906 256.54101562 C160.29566477 259.93352952 163.13183308 263.35742012 165.9375 266.8125 C169.39274151 271.05892382 172.92697834 275.22796294 176.5 279.375 C180.81928956 284.38819488 185.05097119 289.4603732 189.22265625 294.59765625 C191.78204516 297.71896932 194.38615756 300.79930813 197 303.875 C201.90339135 309.65275753 206.73455164 315.4825875 211.5 321.375 C212.39566573 322.45326425 213.29150664 323.53138299 214.1875 324.609375 C237.44943124 352.94730066 245.02626285 385.80133291 242.29785156 422.06152344 C239.26772053 448.3264705 225.23875871 471.5131169 207.5 490.375 C206.69369141 491.27798828 206.69369141 491.27798828 205.87109375 492.19921875 C186.73337734 512.77586121 156.19520628 524.61045609 128.5078125 525.65625 C112.32366847 526.00872448 96.89019547 524.65785142 81.5 519.375 C83.46784752 511.86123449 85.70091644 504.48245257 88.1875 497.125 C88.53127686 496.10446533 88.87505371 495.08393066 89.22924805 494.0324707 C89.9501788 491.89750098 90.67293673 489.76314745 91.39746094 487.62939453 C92.50552783 484.35868336 93.60049245 481.0837592 94.6953125 477.80859375 C95.40024188 475.72629157 96.10594338 473.64425059 96.8125 471.5625 C97.30012817 470.09538574 97.30012817 470.09538574 97.79760742 468.59863281 C98.10802979 467.69338867 98.41845215 466.78814453 98.73828125 465.85546875 C99.00680908 465.06035889 99.27533691 464.26524902 99.55200195 463.44604492 C100.59535082 461.16669174 101.46721558 459.84961442 103.5 458.375 C105.41914433 458.79775589 107.33699501 459.23960301 109.22119141 459.79785156 C123.37077114 463.381482 138.53754884 459.88875781 150.9375 452.9375 C164.97900454 444.19606533 173.26577722 431.79330802 177.3125 415.8125 C179.96122889 402.94724539 178.56376351 389.09149329 172.12109375 377.4296875 C166.55893991 370.37982504 155.90618606 368.66288361 147.5 367.375 C131.96579706 365.91742055 117.73658693 370.77779967 105.3125 380 C95.79591057 388.06182417 89.72490667 399.03908098 83.3828125 409.6015625 C80.50996293 414.38181185 77.54906757 419.10266982 74.5625 423.8125 C74.06387451 424.59955322 73.56524902 425.38660645 73.05151367 426.19750977 C72.04009454 427.79321031 71.02829397 429.38866914 70.01611328 430.98388672 C67.50512826 434.94404571 65.00302351 438.90980617 62.5 442.875 C61.49742646 444.46225893 60.49482231 446.04949852 59.4921875 447.63671875 C57.02684922 451.54003737 54.56353662 455.44462993 52.10083008 459.34960938 C50.61755747 461.69928985 49.13110044 464.04693539 47.64453125 466.39453125 C45.39764125 469.9451458 43.17008009 473.50727168 40.94921875 477.07421875 C28.94135572 496.28163978 28.94135572 496.28163978 21.5 504.375 C20.83355469 505.12136719 20.16710937 505.86773437 19.48046875 506.63671875 C-0.98279087 528.39079623 -31.03264271 541.58342122 -60.75 542.65625 C-93.88534303 543.35050051 -124.51913549 534.43681537 -149.24609375 511.55078125 C-172.59593524 489.01029302 -187.32740953 462.09356389 -189.5 429.375 C-189.5 425.745 -189.5 422.115 -189.5 418.375 C-157.82 418.87 -157.82 418.87 -125.5 419.375 C-124.51 426.8 -124.51 426.8 -123.5 434.375 C-117.61883739 452.52258747 -108.49566728 464.57093812 -91.5 473.375 C-75.40008135 479.92029403 -59.59948445 479.49966491 -43.546875 472.86328125 C-36.73729297 469.53706234 -30.46079936 465.13592829 -25.5 459.375 C-21.35475149 446.93925447 -24.55705701 431.68969409 -29.97265625 420.26953125 C-38.14641584 405.02344066 -50.44629074 396.35955338 -66.73868656 391.35030937 C-74.66411261 388.95874811 -82.6873835 386.96104091 -90.72479057 384.98599625 C-93.51908844 384.29930233 -96.31181073 383.60648052 -99.10426331 382.912323 C-105.04734869 381.43616414 -110.99235243 379.96782727 -116.9375 378.5 C-161.60375446 367.46563505 -161.60375446 367.46563505 -176.20703125 363.421875 C-177.15106308 363.16318634 -178.09509491 362.90449768 -179.06773376 362.63796997 C-203.01207407 355.85244439 -224.73833869 340.35363399 -239.5 320.375 C-240.10070312 319.58867187 -240.70140625 318.80234375 -241.3203125 317.9921875 C-248.46735145 308.28118839 -253.95127801 297.77772887 -257.8125 286.375 C-258.04267822 285.70082031 -258.27285645 285.02664063 -258.51000977 284.33203125 C-262.49359923 271.87436682 -264.05957534 259.66468742 -263.9375 246.625 C-263.93445862 245.93011475 -263.93141724 245.23522949 -263.92828369 244.51928711 C-263.85468036 233.09997623 -262.91555909 222.32007476 -259.5 211.375 C-259.29632813 210.70194824 -259.09265625 210.02889648 -258.8828125 209.33544922 C-253.91304875 193.41763338 -245.62394634 178.76442281 -234.5 166.375 C-233.58541016 165.24771484 -233.58541016 165.24771484 -232.65234375 164.09765625 C-221.78931998 150.9743855 -206.47768473 141.28948053 -191.0625 134.4375 C-190.40008301 134.14262695 -189.73766602 133.84775391 -189.05517578 133.54394531 C-185.22073668 131.90908433 -181.63668072 130.88009703 -177.5 130.375 C-173.21276024 142.84164941 -169.19669932 155.38856132 -165.3175354 167.98742676 C-164.8145479 169.61961013 -164.30964685 171.25120505 -163.80282593 172.88220215 C-163.08279101 175.20227863 -162.37041154 177.52456989 -161.66015625 179.84765625 C-161.44173065 180.54792435 -161.22330505 181.24819244 -160.9982605 181.96968079 C-159.98868924 185.30323914 -159.5 187.84932808 -159.5 191.375 C-160.52738281 191.83648437 -161.55476563 192.29796875 -162.61328125 192.7734375 C-178.90636341 200.33744915 -190.37302142 210.61316996 -196.72265625 227.91796875 C-201.63993307 243.4605171 -200.19815221 259.70499689 -192.8125 274.25 C-186.3834551 284.90658063 -177.72121224 293.01912454 -166.5 298.375 C-163.07535274 299.02477755 -160.75361723 298.52708155 -157.5 297.375 C-156.22769531 297.00568359 -156.22769531 297.00568359 -154.9296875 296.62890625 C-138.95866329 291.50998823 -127.38319894 282.1209838 -119.5 267.375 C-107.8900117 240.60166334 -115.86338446 205.1907112 -117.93652344 176.92285156 C-120.78287852 137.96896004 -120.78287852 137.96896004 -120.7890625 119.1875 C-120.79244629 117.2925177 -120.79244629 117.2925177 -120.79589844 115.35925293 C-120.70645677 105.33112213 -119.50805205 95.9439936 -116.5 86.375 C-116.28569336 85.68599609 -116.07138672 84.99699219 -115.85058594 84.28710938 C-110.80397666 68.61103339 -103.02157932 54.98445521 -92.5 42.375 C-91.38625 41.03115234 -91.38625 41.03115234 -90.25 39.66015625 C-67.67410272 13.49630387 -34.1191979 -0.09914878 0 0 Z M60.015625 197.859375 C58.67324435 198.38819162 57.33079394 198.91683119 55.98828125 199.4453125 C53.88814108 200.27644625 51.78881821 201.1095169 49.69091797 201.94628906 C18.44663926 214.38413127 -13.45761873 218.10247276 -45.55859375 206.36328125 C-48.456797 205.21575359 -48.456797 205.21575359 -51.5 205.375 C-51.46970703 205.97111084 -51.43941406 206.56722168 -51.40820312 207.18139648 C-49.4022147 247.70622026 -50.16770438 283.03144105 -75.49609375 316.58203125 C-77.62607376 319.25971239 -77.62607376 319.25971239 -78.5 322.375 C-77.51829834 322.61621582 -76.53659668 322.85743164 -75.52514648 323.10595703 C-71.8041376 324.02333386 -68.0868303 324.95504189 -64.37036133 325.890625 C-62.77625118 326.2899124 -61.18122308 326.68555668 -59.58520508 327.07714844 C-45.93829353 330.42977553 -32.69023056 334.48905557 -20.4375 341.5625 C-19.45716797 342.12215454 -19.45716797 342.12215454 -18.45703125 342.69311523 C-2.57241255 352.03261172 11.91109567 365.20549624 21.16796875 381.26953125 C21.60753906 381.96433594 22.04710937 382.65914062 22.5 383.375 C23.16 383.375 23.82 383.375 24.5 383.375 C26.15093426 381.09423598 26.15093426 381.09423598 27.84375 378.14453125 C28.50785889 377.03746826 29.17196777 375.93040527 29.85620117 374.78979492 C30.38097549 373.9066713 30.38097549 373.9066713 30.91635132 373.00570679 C49.89764072 341.15783044 74.32591068 316.45489133 111.3125 307.0625 C112.364375 306.835625 113.41625 306.60875 114.5 306.375 C111.38317666 302.07883811 108.16848214 297.9465027 104.70166016 293.92529297 C94.09783739 281.61442247 85.11003346 269.28074252 78.5 254.375 C77.77683594 252.75851563 77.77683594 252.75851563 77.0390625 251.109375 C69.56152579 233.07265009 68.29666476 214.64666235 68.5 195.375 C65.39028637 195.375 62.89474746 196.71345176 60.015625 197.859375 Z " fill="#4E2E91" transform="translate(263.5,-0.375)"/>
<path d="M0 0 C18.15 0 36.3 0 55 0 C57.70413929 6.76034823 60.13231722 13.30634558 62.1875 20.25 C62.48224716 21.23164627 62.77699432 22.21329254 63.08067322 23.22468567 C63.72072839 25.35822709 64.35871354 27.49239038 64.99484253 29.62710571 C66.02705277 33.09077795 67.06468272 36.5527862 68.10375977 40.0144043 C69.22276788 43.74235502 70.34147698 47.47039223 71.45863342 51.19889832 C75.70924621 65.38508897 80.00699429 79.55694684 84.30552673 93.72867584 C85.35741144 97.19708642 86.40866133 100.66568938 87.45996094 104.13427734 C95.63112821 131.09220204 103.81387104 158.04661529 112 185 C120.69870373 156.73602395 129.2916644 128.4420114 137.7746582 100.11254883 C138.5372486 97.56591092 139.29985968 95.01927921 140.0625 92.47265625 C140.25456213 91.8312652 140.44662426 91.18987415 140.64450645 90.52904701 C145.84825048 73.15292861 151.081006 55.78554606 156.31489182 38.41848755 C157.06061455 35.943757 157.8061149 33.46895957 158.55154419 30.99414062 C159.7228114 27.10559918 160.89453078 23.2171943 162.06663513 19.32890511 C162.50049138 17.88944725 162.93420949 16.44994775 163.36778259 15.01040459 C163.96229788 13.03667609 164.55736677 11.06311535 165.15258789 9.08959961 C165.48690323 7.98039658 165.82121857 6.87119354 166.16566467 5.7283783 C166.75198063 3.81105359 167.36597315 1.90208054 168 0 C184.17 0 200.34 0 217 0 C220.37593886 9.00250362 220.37593886 9.00250362 221.76049805 13.54418945 C222.23765762 15.10333069 222.23765762 15.10333069 222.72445679 16.69396973 C223.06675323 17.82234253 223.40904968 18.95071533 223.76171875 20.11328125 C224.13704742 21.34405396 224.5123761 22.57482666 224.89907837 23.84289551 C225.94490736 27.27410565 226.9869401 30.70645819 228.02804947 34.13910294 C228.68966815 36.31964573 229.35230496 38.4998767 230.01522827 40.68002319 C244.52239027 88.3992595 258.73925783 136.2067001 273 184 C274.68973438 180.72017595 275.85290528 177.51953075 276.92919922 173.98388672 C277.30570618 172.75322479 277.68221313 171.52256287 278.07012939 170.25460815 C278.48172318 168.89632382 278.89324007 167.53801618 279.3046875 166.1796875 C279.73999693 164.75187226 280.17561218 163.32415023 280.61151123 161.89651489 C281.79082766 158.03073999 282.96565131 154.16361295 284.13959503 150.29620361 C285.37367618 146.23318819 286.61168718 142.17137027 287.84912109 138.109375 C290.65771609 128.88663831 293.45957952 119.66186356 296.26016235 110.43669128 C297.21208382 107.30149163 298.16453176 104.16645205 299.11701679 101.03142357 C310.04761539 65.06195272 310.04761539 65.06195272 320.87890625 29.0625 C321.1688446 28.09401123 321.45878296 27.12552246 321.75750732 26.12768555 C323.06312603 21.76447617 324.36620417 17.40053514 325.66455078 13.03515625 C326.10318006 11.56510117 326.54181868 10.09504888 326.98046875 8.625 C327.35067139 7.37976563 327.72087402 6.13453125 328.10229492 4.8515625 C329 2 329 2 330 0 C348.48 0 366.96 0 386 0 C383.74984339 10.12570474 383.74984339 10.12570474 382.25439453 14.74511719 C381.91789886 15.79123169 381.5814032 16.83734619 381.23471069 17.91516113 C380.87108429 19.03112671 380.50745789 20.14709229 380.1328125 21.296875 C379.74622467 22.49405151 379.35963684 23.69122803 378.96133423 24.92468262 C377.90768439 28.18671671 376.84875856 31.44701558 375.78874207 34.70698547 C374.89349477 37.46257883 374.00145588 40.21920652 373.109375 42.97582626 C366.29220362 64.03936348 359.39635839 85.07704658 352.48138428 106.10864258 C346.67672976 123.76444274 340.95867375 141.44531542 335.32556152 159.15655518 C325.13063243 191.18412186 314.52853622 223.0809877 304 255 C286.51 255 269.02 255 251 255 C241.72974378 226.03044932 241.72974378 226.03044932 237.59375 212.80078125 C237.10984726 211.25478195 236.62591367 209.7087923 236.14195251 208.16281128 C234.59302429 203.21321044 233.04628323 198.26292769 231.5 193.3125 C231.23473133 192.46339176 230.96946266 191.61428352 230.69615555 190.73944473 C222.43817632 164.30425229 214.21194761 137.85919337 206.04541016 111.39559937 C204.97541305 107.9284323 203.90354794 104.46185147 202.83007812 100.99575806 C201.57191274 96.93263822 200.31793596 92.86825002 199.06732368 88.80279922 C198.60757105 87.31052927 198.14640037 85.81869538 197.68372917 84.32732773 C197.05400699 82.29647511 196.42951875 80.26408682 195.80639648 78.23120117 C195.45544418 77.09349777 195.10449188 75.95579437 194.74290466 74.78361511 C194 72 194 72 194 69 C193.34 69 192.68 69 192 69 C191.85257103 69.85583427 191.85257103 69.85583427 191.7021637 70.72895813 C190.35426225 78.02230809 188.27269923 84.9811249 186.02734375 92.04296875 C185.42184613 93.97018964 184.81635049 95.89741116 184.21093369 97.82465744 C183.56739999 99.86989254 182.9213589 101.91431982 182.27456665 103.95852661 C180.91549425 108.25442344 179.56377521 112.5526108 178.21362305 116.85131836 C177.87253305 117.93720356 177.87253305 117.93720356 177.52455235 119.04502583 C177.06315903 120.51391562 176.6017832 121.98281091 176.14042473 123.45171165 C175.44294432 125.67159976 174.74481222 127.891282 174.04652405 130.11091614 C169.75751942 143.74779707 165.52633678 157.40220081 161.3125 171.0625 C160.62888214 173.27654763 159.9452071 175.49057761 159.26147461 177.70458984 C156.17905245 187.6880221 153.10063689 197.67268805 150.02383327 207.65785313 C148.2335578 213.46750837 146.44159861 219.27664334 144.64926147 225.08566284 C143.52043666 228.74622778 142.39361145 232.40740434 141.2668457 236.06860352 C140.58425114 238.28144484 139.90155806 240.49425579 139.21875 242.70703125 C138.90608688 243.72496765 138.59342377 244.74290405 138.27128601 245.79168701 C137.9851796 246.71741516 137.69907318 247.64314331 137.40429688 248.59692383 C137.15578979 249.40366043 136.90728271 250.21039703 136.65124512 251.0415802 C136 253 136 253 135 255 C117.51 255 100.02 255 82 255 C77.50023674 243.75059185 77.50023674 243.75059185 76.04321289 239.20483398 C75.71003555 238.17148422 75.37685822 237.13813446 75.03358459 236.07347107 C74.68347824 234.97543655 74.33337189 233.87740204 73.97265625 232.74609375 C73.59181381 231.5618129 73.21097137 230.37753204 72.81858826 229.15736389 C71.99515807 226.59530835 71.17299417 224.03288853 70.35302734 221.46972656 C69.03580947 217.35236227 67.71362633 213.23660277 66.390625 209.12109375 C64.99961557 204.79335222 63.60887562 200.46552541 62.21975708 196.13717651 C57.76698936 182.263501 53.2878084 168.39841839 48.80453491 154.53457642 C46.61318426 147.75784521 44.42387719 140.9804536 42.234375 134.203125 C41.79672753 132.84849547 41.35908003 131.49386596 40.9214325 130.13923645 C34.15276652 109.18804369 27.38763076 88.23572056 20.63616943 67.27897644 C18.37636155 60.26567806 16.11281335 53.25360746 13.84479904 46.24295998 C12.02421496 40.61476349 10.20796247 34.98517533 8.39318848 29.35510254 C7.63683705 27.01126113 6.87896657 24.66790933 6.11950684 22.32507324 C5.08087519 19.12033498 4.04759447 15.91391989 3.015625 12.70703125 C2.70733765 11.76026016 2.39905029 10.81348907 2.0814209 9.83802795 C1.66648376 8.54305641 1.66648376 8.54305641 1.24316406 7.22192383 C1.00148499 6.47405106 0.75980591 5.72617828 0.51080322 4.9556427 C0 3 0 3 0 0 Z " fill="#2E3192" transform="translate(1227,143)"/>
<path d="M0 0 C20.0245849 18.77993605 27.4078412 45.21880513 28.90234375 71.77734375 C29.03258502 77.22688909 29.02955336 82.67370231 29.01586914 88.12426758 C29.01558637 89.7222239 29.01574675 91.32018035 29.01631165 92.9181366 C29.01659612 97.21476205 29.01075646 101.51135903 29.00373769 105.80797791 C28.99744541 110.31360873 28.99689573 114.81924035 28.99571228 119.32487488 C28.99261617 127.83844671 28.98442618 136.35200554 28.97436279 144.86557168 C28.96314796 154.56580772 28.95767772 164.26604442 28.95266736 173.96628535 C28.94224196 193.90331365 28.9239181 213.84032418 28.90234375 233.77734375 C11.74234375 233.77734375 -5.41765625 233.77734375 -23.09765625 233.77734375 C-23.42765625 225.52734375 -23.75765625 217.27734375 -24.09765625 208.77734375 C-25.43828125 210.05609375 -26.77890625 211.33484375 -28.16015625 212.65234375 C-57.72855893 239.17202694 -93.96085679 243.42905355 -132.09765625 241.77734375 C-138.25200686 241.34447507 -144.14509652 240.39049179 -150.09765625 238.77734375 C-151.20052979 238.47932861 -151.20052979 238.47932861 -152.32568359 238.17529297 C-174.79898502 231.84712224 -195.39992389 219.85913116 -207.28515625 199.0546875 C-219.65870904 176.18746408 -221.68649897 148.60049642 -214.49560547 123.69189453 C-208.49453111 104.37607693 -196.02806386 88.37146832 -178.09765625 78.77734375 C-157.56226391 68.16267912 -136.58693519 65.19367962 -113.78515625 65.40234375 C-112.88690125 65.40666412 -111.98864624 65.4109845 -111.06317139 65.41543579 C-97.88804513 65.48969032 -85.00100798 65.88398569 -72.09765625 68.77734375 C-71.31986816 68.94363281 -70.54208008 69.10992187 -69.74072266 69.28125 C-54.58423939 72.60490521 -39.4381603 77.76947434 -26.09765625 85.77734375 C-26.35082708 81.85933204 -26.62853688 77.94340521 -26.91015625 74.02734375 C-26.98041016 72.93550781 -27.05066406 71.84367187 -27.12304688 70.71875 C-28.26008342 55.34601587 -31.85277523 41.66929774 -43.43359375 30.84375 C-66.27712754 13.1249386 -100.25908721 13.91202165 -127.55859375 17.03125 C-145.60653425 19.3398581 -162.6404658 23.79977944 -179.72363281 30.00878906 C-182.09765625 30.77734375 -182.09765625 30.77734375 -187.09765625 31.77734375 C-187.09765625 17.25734375 -187.09765625 2.73734375 -187.09765625 -12.22265625 C-178.07822017 -16.73237429 -178.07822017 -16.73237429 -174.4609375 -17.78515625 C-173.6472168 -18.02266602 -172.83349609 -18.26017578 -171.99511719 -18.50488281 C-171.14208008 -18.74174805 -170.28904297 -18.97861328 -169.41015625 -19.22265625 C-168.50168945 -19.47756836 -167.59322266 -19.73248047 -166.65722656 -19.99511719 C-114.47270767 -34.24032321 -42.89426596 -38.66516046 0 0 Z M-153.91015625 123.58984375 C-162.90369083 134.5611232 -163.98518941 148.06352499 -163.09765625 161.77734375 C-161.78533746 171.6793855 -158.0273383 180.34658723 -150.51171875 187.1015625 C-131.92556299 201.18434999 -108.64520645 202.24917252 -86.2421875 199.55859375 C-62.51028948 196.23586292 -42.75071911 185.03488433 -28.03222656 166.12353516 C-25.82519147 162.30606634 -25.42190805 159.26337301 -25.35546875 154.96484375 C-25.3374118 154.23289795 -25.31935486 153.50095215 -25.30075073 152.74682617 C-25.27188264 151.20735878 -25.25400626 149.66764982 -25.24658203 148.12792969 C-25.2226864 145.7803058 -25.12423639 143.44307428 -25.0234375 141.09765625 C-24.6699013 133.24782805 -24.6699013 133.24782805 -28.10229492 126.52172852 C-30.71091917 124.93064031 -33.23370909 123.83174516 -36.09765625 122.77734375 C-37.4716162 122.07282119 -38.83835565 121.35392768 -40.1953125 120.6171875 C-49.89589293 115.87621151 -59.59067149 112.27003531 -70.09765625 109.77734375 C-70.77280273 109.61363281 -71.44794922 109.44992187 -72.14355469 109.28125 C-98.11821171 103.26318681 -134.28854299 102.59054275 -153.91015625 123.58984375 Z " fill="#2E3192" transform="translate(1838.09765625,164.22265625)"/>
<path d="M0 0 C1.01320313 0.78310547 1.01320313 0.78310547 2.046875 1.58203125 C7.53950864 5.95346216 11.7314929 11.46844089 16 17 C16.60972656 17.78246094 17.21945313 18.56492188 17.84765625 19.37109375 C41.34625009 51.11293008 41 87.72102718 41 126 C-32.59 126 -106.18 126 -182 126 C-178.14247896 146.57344557 -173.05063742 164.15608167 -155.33007812 176.33251953 C-116.46982801 201.99960738 -65.62595722 199.14246076 -21.81347656 190.57958984 C-10.79048046 188.30879908 0.11535823 185.58693949 10.6875 181.69921875 C13 181 13 181 17 181 C17 195.19 17 209.38 17 224 C11.1195414 226.61353716 5.87677859 228.85739268 -0.25 230.4375 C-1.04229004 230.64286377 -1.83458008 230.84822754 -2.65087891 231.05981445 C-10.16484966 232.92521043 -17.75249971 234.34438777 -25.375 235.6875 C-26.50711914 235.88980225 -27.63923828 236.09210449 -28.80566406 236.30053711 C-46.58909953 239.30659375 -64.356964 240.38789433 -82.375 240.3125 C-83.31122192 240.31034485 -84.24744385 240.3081897 -85.21203613 240.30596924 C-99.30741568 240.25405753 -113.15961314 239.92635839 -127 237 C-128.41152344 236.70198486 -128.41152344 236.70198486 -129.8515625 236.39794922 C-165.38310056 228.57562018 -196.04158223 210.83901442 -216.0234375 179.86328125 C-229.7703521 157.18877269 -234.22581557 131.84545273 -234.25 105.6875 C-234.25100708 104.93222015 -234.25201416 104.17694031 -234.25305176 103.39877319 C-234.2422286 91.38077044 -233.62820365 79.76857365 -231 68 C-230.85014648 67.32001953 -230.70029297 66.64003906 -230.54589844 65.93945312 C-223.25947924 33.97821732 -205.76395821 6.7171072 -178 -11 C-126.64931533 -43.28370343 -46.63593874 -38.36392168 0 0 Z M-164.625 38.625 C-176.46952604 52.87763299 -182 69.6425265 -182 88 C-125.24 88 -68.48 88 -10 88 C-12.71222494 64.94608801 -17.24215974 45.77606759 -35.97265625 30.58984375 C-51.47216506 19.30891328 -69.87819655 13.64095431 -89 13 C-90.72476563 12.92265625 -90.72476563 12.92265625 -92.484375 12.84375 C-119.26476114 12.19843949 -145.66033574 18.54476726 -164.625 38.625 Z " fill="#2E3192" transform="translate(3151,166)"/>
<path d="M0 0 C40.01928068 -0.76500417 77.49361802 9.75202069 107.11328125 37.4140625 C139.59436152 70.5638709 140.76953125 112.8557902 140.76953125 157.125 C67.17953125 157.125 -6.41046875 157.125 -82.23046875 157.125 C-78.48183551 177.11771063 -73.33119251 194.88035963 -56.23046875 207.125 C-16.09272517 233.23691497 35.72843402 230.34631998 80.80908203 221.18188477 C88.433091 219.54170116 95.89611393 217.49007486 103.31616211 215.0925293 C104.06647705 214.85058838 104.81679199 214.60864746 105.58984375 214.359375 C106.23195801 214.14506836 106.87407227 213.93076172 107.53564453 213.70996094 C110.55675864 212.91885827 113.67794356 212.56665538 116.76953125 212.125 C116.76953125 226.315 116.76953125 240.505 116.76953125 255.125 C110.02660548 258.1218559 104.2704168 260.33177788 97.26953125 262.125 C96.27904785 262.37991211 95.28856445 262.63482422 94.26806641 262.89746094 C86.94344456 264.71799851 79.59385526 266.16851815 72.14453125 267.375 C71.21833984 267.52582031 70.29214844 267.67664063 69.33789062 267.83203125 C52.05005623 270.455339 34.80315394 271.50699252 17.33203125 271.4375 C16.39619202 271.43600952 15.46035278 271.43451904 14.49615479 271.4329834 C0.72262935 271.39363466 -12.70209035 270.92668158 -26.23046875 268.125 C-27.32705811 267.91617188 -27.32705811 267.91617188 -28.44580078 267.703125 C-60.56999575 261.52841878 -92.39718351 245.12322203 -111.515625 217.8671875 C-123.38452349 200.09850072 -130.40258991 181.27058712 -133.23046875 160.125 C-133.32545654 159.46387207 -133.42044434 158.80274414 -133.51831055 158.12158203 C-138.27055881 121.4806919 -132.04413937 80.19127003 -109.85546875 49.9375 C-86.83312761 20.39280926 -57.1834415 6.29415031 -20.50244141 1.40234375 C-13.68330734 0.56991991 -6.86143496 0.26549688 0 0 Z M-63.23046875 68.125 C-76.2044787 82.35390639 -82.23046875 100.06295926 -82.23046875 119.125 C-25.47046875 119.125 31.28953125 119.125 89.76953125 119.125 C88.17557132 98.40352094 83.13138874 78.90870612 67.33056641 64.44921875 C51.69595096 51.18644832 31.09370555 44.77334398 10.76953125 44.125 C9.56167969 44.08503906 8.35382812 44.04507813 7.109375 44.00390625 C-19.16066516 43.43162353 -43.91193197 49.29416822 -63.23046875 68.125 Z " fill="#2E3192" transform="translate(2299.23046875,134.875)"/>
<path d="M0 0 C38.68824768 -0.74044493 76.35177554 8.96925857 105.01269531 35.98291016 C128.1556211 58.50960419 137.8359745 88.58634447 140.703125 120.125 C140.703125 132.335 140.703125 144.545 140.703125 157.125 C67.113125 157.125 -6.476875 157.125 -82.296875 157.125 C-78.79166382 176.98786333 -73.659659 194.70754864 -56.765625 206.9609375 C-53.99272736 208.78563164 -51.17656467 210.47444616 -48.296875 212.125 C-46.99363281 212.89650391 -46.99363281 212.89650391 -45.6640625 213.68359375 C-4.91325835 236.0326815 53.05136405 229.706472 95.91674805 217.32299805 C99.71049354 216.18537246 103.4930716 215.0154606 107.26318359 213.80175781 C110.02713172 213.03513141 112.87385468 212.59654505 115.703125 212.125 C115.703125 226.645 115.703125 241.165 115.703125 256.125 C97.99786301 262.026754 97.99786301 262.026754 90.515625 263.6875 C89.61344238 263.89020508 88.71125977 264.09291016 87.78173828 264.30175781 C51.42666176 272.13811939 9.41283668 275.85041397 -27.296875 268.125 C-28.22725586 267.93164062 -29.15763672 267.73828125 -30.11621094 267.5390625 C-63.52403562 260.30609545 -94.92125567 243.74390771 -114.171875 214.55859375 C-129.24887612 190.47267026 -134.52559506 165.06287856 -134.546875 136.8125 C-134.54754974 136.00887024 -134.54822449 135.20524048 -134.54891968 134.3772583 C-134.53250955 122.0696643 -134.06712128 110.16575547 -131.296875 98.125 C-131.13058594 97.37734375 -130.96429687 96.6296875 -130.79296875 95.859375 C-123.68308661 64.89188835 -105.94735796 37.46028524 -78.80786133 20.36523438 C-54.65430742 5.67625944 -27.866938 1.05656637 0 0 Z M-38.296875 51.125 C-39.286875 51.54523438 -40.276875 51.96546875 -41.296875 52.3984375 C-56.98014227 59.63994611 -70.82526282 72.79970251 -77.06787109 89.14355469 C-80.60830893 99.32377213 -82.296875 108.11487402 -82.296875 119.125 C-25.866875 119.125 30.563125 119.125 88.703125 119.125 C88.703125 100.3693487 83.35252339 81.98087978 70.4296875 67.83203125 C54.70260631 52.28285822 32.66549494 44.60313578 10.703125 44.125 C8.98416016 44.04958984 8.98416016 44.04958984 7.23046875 43.97265625 C-7.9966023 43.59159842 -24.19137478 45.09735892 -38.296875 51.125 Z " fill="#2E3192" transform="translate(1066.296875,134.875)"/>
<path d="M0 0 C1.04590805 0.00222061 2.0918161 0.00444122 3.16941833 0.00672913 C4.35056717 0.00680466 5.531716 0.00688019 6.74865723 0.00695801 C8.03404892 0.01211929 9.31944061 0.01728058 10.64378357 0.02259827 C11.95193527 0.02401321 13.26008698 0.02542816 14.60787964 0.02688599 C18.09150591 0.03071042 21.57509071 0.04054005 25.05870056 0.05158997 C28.6111444 0.06180569 32.16359491 0.06638395 35.71604919 0.07142639 C42.69067564 0.0821624 49.66527449 0.09923792 56.63987732 0.12025452 C54.91866818 6.18992381 53.00829227 12.02017622 50.44456482 17.78431702 C50.14020004 18.48191635 49.83583527 19.17951569 49.52224731 19.89825439 C48.86695609 21.39882397 48.20917148 22.8983068 47.54908752 24.39677429 C45.74047559 28.50376273 43.9516691 32.61939233 42.15940857 36.73353577 C41.59947456 38.01670937 41.59947456 38.01670937 41.02822876 39.32580566 C37.02722151 48.50308212 33.11007981 57.71544967 29.20237732 66.93275452 C28.49131143 68.60871311 27.78021101 70.28465705 27.06907654 71.96058655 C25.6392442 75.33082999 24.20997026 78.70130962 22.7809906 82.07191467 C19.59267348 89.59111246 16.39674152 97.10707376 13.20137024 104.62327576 C11.43055946 108.78880226 9.66024348 112.95453904 7.88987732 117.12025452 C7.18154636 118.78692219 6.47321302 120.45358886 5.76487732 122.12025452 C5.41425232 122.94525452 5.06362732 123.77025452 4.70237732 124.62025452 C-13.36012268 167.12025452 -31.42262268 209.62025452 -49.48512268 252.12025452 C-49.83569733 252.9451387 -50.18627197 253.77002289 -50.54747009 254.61990356 C-51.2563043 256.28774337 -51.96514627 257.95557987 -52.67399597 259.62341309 C-54.43722939 263.77210385 -56.20033095 267.92085056 -57.96315002 272.06971741 C-61.24089342 279.78363914 -64.51987641 287.49702634 -67.80342102 295.20848083 C-69.33088134 298.79596412 -70.85761198 302.38375773 -72.3842926 305.97157288 C-73.10251822 307.65890133 -73.82108937 309.34608275 -74.54005432 311.03309631 C-75.54609879 313.39379081 -76.55087498 315.75502185 -77.55543518 318.11634827 C-77.83714569 318.77646408 -78.1188562 319.4365799 -78.40910339 320.11669922 C-81.79766585 328.08931299 -85.06105668 336.10823708 -88.36012268 344.12025452 C-104.53012268 344.12025452 -120.70012268 344.12025452 -137.36012268 344.12025452 C-150.92828687 312.26935644 -164.4946388 280.41769225 -178.04615784 248.55970764 C-179.5533243 245.01660241 -181.06080439 241.47363093 -182.56861877 237.93080139 C-190.96097329 218.21141394 -199.32365898 198.4798802 -207.65000916 178.73252869 C-215.62141759 159.83071803 -223.65830728 140.9569798 -231.70826721 122.08851624 C-232.18060791 120.98096481 -232.65294861 119.87341339 -233.13960266 118.7322998 C-234.0166261 116.67600264 -234.89406941 114.61988448 -235.77204895 112.56399536 C-236.56716635 110.69971866 -237.36016248 108.83453552 -238.15083313 106.96836853 C-239.01807403 104.92584615 -239.89304358 102.88659868 -240.77302551 100.84953308 C-241.23183105 99.77557281 -241.6906366 98.70161255 -242.16334534 97.59510803 C-242.79377243 96.13102257 -242.79377243 96.13102257 -243.43693542 94.63735962 C-244.36012268 92.12025452 -244.36012268 92.12025452 -244.36012268 89.12025452 C-225.55012268 89.12025452 -206.74012268 89.12025452 -187.36012268 89.12025452 C-182.86029339 98.1199131 -182.86029339 98.1199131 -181.38746643 101.74891663 C-180.88293442 102.98522324 -180.88293442 102.98522324 -180.36820984 104.24650574 C-180.01491608 105.12136627 -179.66162231 105.99622681 -179.29762268 106.89759827 C-178.91395538 107.84013458 -178.53028809 108.7826709 -178.13499451 109.75376892 C-176.87378885 112.85392146 -175.61699565 115.95584319 -174.36012268 119.05775452 C-173.46869676 121.25084457 -172.5769264 123.44379465 -171.68482971 125.63661194 C-169.83078241 130.19474166 -167.97821927 134.75347031 -166.12672424 139.31263733 C-162.25512832 148.84316235 -158.36657477 158.36675762 -154.47755432 167.8901825 C-153.23176838 170.94096881 -151.98632674 173.99189548 -150.74098206 177.04286194 C-148.28120974 183.06886945 -145.82085108 189.09463736 -143.36012268 195.12025452 C-142.95797546 196.10499756 -142.55582825 197.0897406 -142.14149475 198.10432434 C-132.60073436 221.46503685 -123.04162141 244.81744908 -113.36012268 268.12025452 C-110.55561844 265.31575028 -109.51560998 261.91263914 -108.07887268 258.28431702 C-107.75372177 257.47553604 -107.42857086 256.66675507 -107.09356689 255.83346558 C-106.38523328 254.07007568 -105.67921358 252.305755 -104.97520447 250.54063416 C-103.45311704 246.72493897 -101.91967821 242.91384017 -100.38677979 239.10247803 C-99.58343031 237.10490411 -98.78063397 235.10710767 -97.97836304 233.10910034 C-93.87986307 222.90679907 -89.7181011 212.7307957 -85.54762268 202.55775452 C-84.04082131 198.87948824 -82.5344599 195.20104184 -81.02809143 191.52259827 C-80.64913727 190.5973938 -80.27018311 189.67218933 -79.87974548 188.71894836 C-75.36327436 177.69010436 -70.86210968 166.65501673 -66.36012268 155.62025452 C-60.03457037 140.11706395 -53.70206079 124.61674915 -47.36012268 109.12025452 C-41.3865242 94.5224832 -35.41651404 79.92325124 -29.45402527 65.32093811 C-28.60498954 63.24163062 -27.75584941 61.16236576 -26.90660095 59.08314514 C-22.51939002 48.34085403 -18.1418257 37.59486276 -13.79762268 26.83509827 C-13.44294418 25.95725174 -13.08826569 25.07940521 -12.72283936 24.17495728 C-11.06643466 20.07480994 -9.41259045 15.97366856 -7.76368713 11.87049866 C-7.18785391 10.44329581 -6.61193193 9.01612877 -6.03590393 7.58900452 C-5.77652039 6.94056076 -5.51713684 6.292117 -5.24989319 5.62402344 C-3.03706138 0.15474634 -3.03706138 0.15474634 0 0 Z " fill="#492E91" transform="translate(2131.360122680664,53.87974548339844)"/>
<path d="M0 0 C17.49 0 34.98 0 53 0 C53.33 13.86 53.66 27.72 54 42 C56.31 39.36 58.62 36.72 61 34 C84.18889914 9.06099527 121.27939854 1.33453833 154 0 C157.3 0 160.6 0 164 0 C164 14.19 164 28.38 164 43 C159.111875 43.4125 154.22375 43.825 149.1875 44.25 C118.73133177 47.03772185 86.90818665 53.59289232 66 78 C63.45446821 81.55335458 61.14843305 85.19420431 59 89 C58.31742126 90.06206665 57.63484253 91.1241333 56.93157959 92.21838379 C53.81836917 98.53761018 54.4285479 105.53585324 54.45410156 112.41210938 C54.44535726 113.9699303 54.4348685 115.52774225 54.42277527 117.08554077 C54.39499927 121.29574855 54.39150872 125.50566203 54.39249516 129.7159481 C54.3893588 134.1229137 54.36372559 138.52974816 54.34051514 142.93664551 C54.30000683 151.27329608 54.2796266 159.60986854 54.26654124 167.94660234 C54.25065366 177.44123581 54.21223064 186.93573666 54.17194796 196.43029308 C54.08961968 215.95351046 54.03845791 235.47664351 54 255 C36.18 255 18.36 255 0 255 C0 170.85 0 86.7 0 0 Z " fill="#2E3192" transform="translate(2487,143)"/>
<path d="M0 0 C1.08168457 0.34200439 2.16336914 0.68400879 3.27783203 1.03637695 C4.062146 1.2492334 4.84645996 1.46208984 5.65454102 1.68139648 C6.70363647 2.046604 6.70363647 2.046604 7.77392578 2.41918945 C8.57169434 2.69553223 9.36946289 2.971875 10.19140625 3.2565918 C11.02430176 3.5551709 11.85719727 3.85375 12.71533203 4.16137695 C13.59205566 4.47413574 14.4687793 4.78689453 15.37207031 5.10913086 C37.82042662 13.23550916 60.10243455 23.60053598 71.71142578 45.7746582 C79.64702506 63.17646196 80.74180851 83.77775091 75.27783203 102.03637695 C71.56878779 111.55525202 66.56649645 118.93428244 59.27783203 126.03637695 C58.62556641 126.72086914 57.97330078 127.40536133 57.30126953 128.1105957 C42.32691496 142.82477809 20.45753919 148.31181009 0.27783203 151.03637695 C-0.4132666 151.13208984 -1.10436523 151.22780273 -1.81640625 151.32641602 C-45.27285121 156.5177447 -93.15103856 150.07974052 -131.72216797 129.03637695 C-132.72216797 128.03637695 -132.72216797 128.03637695 -132.84242249 126.13182068 C-132.84020187 125.29909134 -132.83798126 124.466362 -132.83569336 123.60839844 C-132.83561783 122.66749863 -132.8355423 121.72659882 -132.83546448 120.75718689 C-132.83030319 119.73428055 -132.82514191 118.71137421 -132.81982422 117.6574707 C-132.81840927 116.61567154 -132.81699432 115.57387238 -132.8155365 114.50050354 C-132.80991877 111.15826601 -132.79736327 107.81609438 -132.78466797 104.47387695 C-132.77965525 102.21411229 -132.77509195 99.95434659 -132.77099609 97.69458008 C-132.75994358 92.14182305 -132.74318821 86.58910471 -132.72216797 81.03637695 C-131.93982536 81.41243828 -131.93982536 81.41243828 -131.14167786 81.7960968 C-117.45861307 88.42846494 -117.45861307 88.42846494 -103.40966797 94.22387695 C-102.5534082 94.54573975 -101.69714844 94.86760254 -100.81494141 95.19921875 C-68.31168553 107.10626448 -24.88133214 116.19539211 8.27783203 102.03637695 C14.56936635 98.60463096 19.05552546 93.95021961 21.27783203 87.03637695 C22.14374433 77.62379782 21.84352532 69.76992797 16.03564453 62.05981445 C3.63535188 47.59618151 -22.134846 42.88805198 -39.72216797 38.03637695 C-38.3561446 34.99575532 -36.79806735 32.83699727 -34.48510742 30.4453125 C-33.82714676 29.76168137 -33.1691861 29.07805023 -32.49128723 28.373703 C-31.77986069 27.64750259 -31.06843414 26.92130219 -30.33544922 26.1730957 C-29.6002153 25.42171829 -28.86498138 24.67034088 -28.10746765 23.89619446 C-26.55115591 22.31225387 -24.99173399 20.73136405 -23.42944336 19.15332031 C-21.0431488 16.73248055 -18.68484976 14.28635565 -16.32568359 11.83911133 C-14.80977444 10.30295735 -13.29224873 8.7683966 -11.77294922 7.2355957 C-11.07164383 6.49927414 -10.37033844 5.76295258 -9.64778137 5.00431824 C-4.64541855 0.04539993 -4.64541855 0.04539993 0 0 Z " fill="#2E3192" transform="translate(2802.72216796875,253.963623046875)"/>
<path d="M0 0 C0.74186554 0.26107544 1.48373108 0.52215088 2.24807739 0.7911377 C3.17918335 1.05080322 4.11028931 1.31046875 5.0696106 1.57800293 C29.79999525 10.13924988 54.67443762 20.44145827 67.56057739 44.6661377 C71.60842564 53.23481645 73.73766762 62.34082348 74.24807739 71.7911377 C74.32735474 73.23553223 74.32735474 73.23553223 74.40823364 74.70910645 C74.93993397 93.68849639 69.47811347 109.0434589 57.11526489 123.24035645 C37.58902646 143.8513859 6.98008105 150.26117531 -20.37309265 151.02418518 C-59.0535687 151.86871546 -102.02300824 148.62889631 -135.75192261 127.7911377 C-136.75192261 126.7911377 -136.75192261 126.7911377 -136.87217712 124.88658142 C-136.86995651 124.05385208 -136.8677359 123.22112274 -136.865448 122.36315918 C-136.86537247 121.42225937 -136.86529694 120.48135956 -136.86521912 119.51194763 C-136.86005783 118.48904129 -136.85489655 117.46613495 -136.84957886 116.41223145 C-136.84816391 115.37043228 -136.84674896 114.32863312 -136.84529114 113.25526428 C-136.83967341 109.91302676 -136.82711791 106.57085513 -136.81442261 103.2286377 C-136.80940989 100.96887303 -136.80484659 98.70910733 -136.80075073 96.44934082 C-136.78969822 90.89658379 -136.77294285 85.34386545 -136.75192261 79.7911377 C-136.23199738 80.04151794 -135.71207214 80.29189819 -135.1763916 80.54986572 C-121.34521405 87.2400232 -121.34521405 87.2400232 -107.12692261 93.0411377 C-105.81775879 93.52888672 -105.81775879 93.52888672 -104.48214722 94.02648926 C-71.95779215 105.96344618 -28.91380046 114.9513116 4.24807739 100.7911377 C9.81265647 97.75591275 13.70831187 93.87066874 16.56057739 88.1661377 C18.2298228 79.97166022 18.13678591 71.35090313 14.24807739 63.7911377 C2.25358367 47.08086011 -25.1972895 42.12420589 -43.75192261 36.7911377 C-42.38961296 33.77173902 -40.83648304 31.58502991 -38.56246948 29.1842041 C-37.91419189 28.49734528 -37.26591431 27.81048645 -36.59799194 27.10281372 C-33.61875019 24.00762139 -30.63074986 20.92163778 -27.62399292 17.85314941 C-26.04416311 16.23006778 -24.47698493 14.59457379 -22.92282104 12.94689941 C-20.67564901 10.56588776 -18.39150455 8.22671221 -16.09567261 5.8927002 C-15.40985107 5.15121735 -14.72402954 4.4097345 -14.01742554 3.64578247 C-9.24084228 -1.0914459 -6.49820042 -1.91446544 0 0 Z " fill="#2E3192" transform="translate(821.7519226074219,255.2088623046875)"/>
<path d="M0 0 C0.75659912 0.22010742 1.51319824 0.44021484 2.29272461 0.66699219 C9.40247006 2.88313717 15.45130494 5.92944843 22.375 9.125 C22.375 24.305 22.375 39.485 22.375 55.125 C19.49274179 53.97209672 16.61779624 52.79966462 13.765625 51.57421875 C-7.2639433 42.5677552 -29.63991986 36.75435338 -52.625 36.125 C-53.66720703 36.0943042 -53.66720703 36.0943042 -54.73046875 36.06298828 C-72.29416398 35.61196809 -92.40417858 35.58706505 -107.78515625 45.0390625 C-109.625 46.125 -109.625 46.125 -112.625 47.125 C-113.72668984 48.82269234 -113.72668984 48.82269234 -114.625 51.125 C-115.13160156 52.16527344 -115.63820313 53.20554688 -116.16015625 54.27734375 C-117.81803619 58.16088457 -118.12624002 61.87171901 -118.0625 66.0625 C-118.05420166 66.76616699 -118.04590332 67.46983398 -118.03735352 68.19482422 C-117.79502387 75.6337406 -115.94237434 80.15364122 -110.625 85.25 C-98.74820376 94.41632407 -83.72602976 97.82047513 -69.625 102.125 C-68.12210189 102.59019726 -66.61945422 103.05620531 -65.1171875 103.5234375 C-62.28911587 104.39982893 -59.45915965 105.26855414 -56.625 106.125 C-58.0011536 109.21679136 -59.57658445 111.32138753 -61.97314453 113.70019531 C-62.65369904 114.38059875 -63.33425354 115.0610022 -64.03543091 115.76202393 C-65.1355098 116.84661896 -65.1355098 116.84661896 -66.2578125 117.953125 C-67.00964813 118.70213074 -67.76148376 119.45113647 -68.53610229 120.22283936 C-70.93607901 122.6116302 -73.34292009 124.99336897 -75.75 127.375 C-77.37936352 128.99433169 -79.00827534 130.61411802 -80.63671875 132.234375 C-84.62758806 136.20320505 -88.62411415 140.16626899 -92.625 144.125 C-103.62446138 140.94700225 -114.51841952 137.75669967 -125.0625 133.25 C-126.5786792 132.60720093 -126.5786792 132.60720093 -128.12548828 131.95141602 C-146.75117157 123.88228452 -162.74990031 112.42815895 -170.625 93.125 C-173.25790138 84.338526 -174.14539074 75.89166461 -174.0625 66.75 C-174.05492676 65.57115234 -174.04735352 64.39230469 -174.03955078 63.17773438 C-173.6984294 45.10079131 -168.19235425 30.83608026 -155.47265625 17.84765625 C-117.60607418 -18.35674389 -46.03295402 -13.45843238 0 0 Z " fill="#2E3192" transform="translate(857.625,143.875)"/>
<path d="M0 0 C0.64461182 0.16411377 1.28922363 0.32822754 1.95336914 0.49731445 C9.63920107 2.67555936 16.06616814 6.21837847 23.5 9.6875 C23.5 24.8675 23.5 40.0475 23.5 55.6875 C20.61774179 54.53459672 17.74279624 53.36216462 14.890625 52.13671875 C-6.1389433 43.1302552 -28.51491986 37.31685338 -51.5 36.6875 C-52.54220703 36.6568042 -52.54220703 36.6568042 -53.60546875 36.62548828 C-83.91878235 35.77823166 -83.91878235 35.77823166 -110.31640625 48.35546875 C-116.2688416 54.85294637 -117.03079024 61.51903108 -116.8671875 70.14453125 C-116.11090072 77.44189411 -113.14099562 82.65140928 -107.625 87.4375 C-96.62756127 94.98153962 -82.7319842 98.33131658 -70.0625 102.0625 C-68.54082549 102.51629001 -67.01934004 102.97071446 -65.49804688 103.42578125 C-61.83415677 104.52030477 -58.16786011 105.60635869 -54.5 106.6875 C-58.74210136 111.75461299 -63.17717089 116.49973371 -67.8671875 121.15234375 C-68.54677521 121.83051651 -69.22636292 122.50868927 -69.92654419 123.20741272 C-72.07367002 125.34899141 -74.22426627 127.48704529 -76.375 129.625 C-77.84137773 131.08635589 -79.3075258 132.54794226 -80.7734375 134.00976562 C-84.34631 137.57167935 -87.92229684 141.13043865 -91.5 144.6875 C-102.58261211 141.49309396 -113.50854411 138.23950737 -124.125 133.6875 C-125.09566406 133.28789062 -126.06632812 132.88828125 -127.06640625 132.4765625 C-146.59311783 124.24651225 -161.21287716 112.43098129 -169.5 92.6875 C-175.72262413 76.28439895 -174.51136807 54.3372781 -168.12890625 38.2265625 C-159.53543491 19.22612947 -143.58745297 8.08523601 -124.5 0.6875 C-85.36579988 -13.34098906 -39.59626262 -10.42962359 0 0 Z " fill="#2E3192" transform="translate(2841.5,143.3125)"/>
</svg>
