<svg width="22" height="25" viewBox="0 0 22 25" fill="none" xmlns="http://www.w3.org/2000/svg">
<path d="M11.5546 0.0208431C12.9367 7.82311e-08 14.3086 0.0108384 15.6797 0C15.7253 1.69329 16.421 3.21734 17.5279 4.3462L17.5262 4.34453C18.7174 5.40419 20.2675 6.09118 21.9764 6.2079L22 6.20956V10.4082C20.3857 10.3682 18.8677 10.0005 17.4992 9.36854L17.5684 9.39688C16.9065 9.08257 16.3467 8.75992 15.8148 8.39975L15.8587 8.4281C15.8486 11.4704 15.8689 14.5126 15.8376 17.544C15.7507 19.0889 15.2306 20.4979 14.3964 21.6743L14.4133 21.6484C13.0186 23.621 10.7593 24.9158 8.19016 24.9925H8.17834C8.07449 24.9975 7.95207 25 7.82881 25C6.36821 25 5.00301 24.5981 3.8396 23.9003L3.87337 23.9195C1.75592 22.6614 0.295321 20.5087 0.0251525 18.0051L0.0217754 17.9709C0.000668501 17.4498 -0.0094629 16.9287 0.011644 16.4185C0.42534 12.4341 3.80583 9.35186 7.91492 9.35186C8.37674 9.35186 8.82928 9.39105 9.26915 9.46525L9.22186 9.45858C9.24297 11.0001 9.17965 12.5425 9.17965 14.0841C8.82252 13.9565 8.41051 13.8823 7.98078 13.8823C6.40367 13.8823 5.06211 14.8778 4.56568 16.2676L4.55808 16.2926C4.44579 16.6486 4.38078 17.058 4.38078 17.4815C4.38078 17.6532 4.39175 17.8233 4.41202 17.9901L4.41033 17.9701C4.69063 19.6758 6.17149 20.9631 7.95714 20.9631C8.00864 20.9631 8.0593 20.9623 8.10995 20.9598H8.10235C9.33753 20.9231 10.4098 20.267 11.016 19.2973L11.0244 19.2823C11.2498 18.9722 11.4043 18.597 11.4558 18.1893L11.4567 18.1776C11.5622 16.3126 11.52 14.4584 11.5301 12.5934C11.5403 8.39475 11.52 4.20613 11.5512 0.018342L11.5546 0.0208431Z" fill="#464646"/>
</svg>
