<?xml version="1.0" encoding="UTF-8"?>
<svg version="1.1" xmlns="http://www.w3.org/2000/svg" width="320" height="320">
<path d="M0 0 C11.87319234 9.9335124 21.88381466 25.45110666 24.0546875 41.10546875 C25.85652974 62.84019081 21.02279168 81.06873298 7.1171875 98.16796875 C-0.29320156 106.2385261 -9.71483581 111.57247911 -19.6328125 115.98046875 C-20.3340625 116.31046875 -21.0353125 116.64046875 -21.7578125 116.98046875 C-35.89595806 122.72409038 -54.4882355 120.68879967 -68.27734375 115.42578125 C-86.55561114 107.55272079 -98.56491878 94.15498818 -106.85546875 76.35546875 C-113.35396877 59.95781997 -111.54396151 41.08896356 -105.03515625 25.109375 C-97.46788695 8.22530061 -84.73692883 -3.63994408 -67.73828125 -10.71875 C-43.94810062 -19.56089381 -20.18623935 -14.99076463 0 0 Z M-62.6328125 17.98046875 C-63.40625 18.46644531 -64.1796875 18.95242187 -64.9765625 19.453125 C-72.45282733 24.72389171 -78.64535919 32.33552273 -81.19921875 41.234375 C-83.1441792 53.55245786 -82.31051767 64.64408404 -75.3828125 75.16796875 C-69.10568937 83.65590255 -61.24868987 89.40322287 -50.8203125 91.6640625 C-40.21890714 93.19748006 -30.30587751 91.71636161 -21.3203125 85.73046875 C-12.4874328 79.04990468 -5.89936356 70.22421505 -3.9140625 59.15234375 C-2.40649907 47.51060392 -5.4558956 36.29318586 -12.6328125 26.98046875 C-19.42940406 19.44194906 -27.15126171 14.25583695 -37.4296875 13.5390625 C-46.28509422 13.20791842 -54.91305685 13.12681641 -62.6328125 17.98046875 Z " fill="#000000" transform="translate(189.6328125,41.01953125)"/>
<path d="M0 0 C3.69412988 3.35829989 5.83575445 7.20295925 6.26171875 12.22265625 C6.01418374 16.45904112 5.40676531 18.44919817 2.6875 21.8125 C-1.66707332 25.23395046 -3.7573754 26.11977291 -9.265625 26.1484375 C-10.53341797 26.16608154 -11.80121094 26.18372559 -13.10742188 26.2019043 C-14.10793579 26.21246353 -14.10793579 26.21246353 -15.12866211 26.22323608 C-26.53305878 26.37148783 -37.1613965 26.7293227 -47.9375 30.875 C-49.70673828 31.50921875 -49.70673828 31.50921875 -51.51171875 32.15625 C-72.81673211 40.44793088 -85.96272588 56.67459487 -95.12744141 76.96337891 C-98.1461443 84.08708104 -99.02369732 91.01334118 -99.4375 98.6875 C-99.8367278 106.06191545 -100.47690928 110.1800673 -105.5625 115.75 C-109.75983164 118.39276437 -113.00980295 119.1497457 -117.9375 118.875 C-122.85348643 117.45692699 -125.55905916 114.78230329 -128.0234375 110.41796875 C-133.30820561 95.71547284 -125.97875294 74.62296659 -119.9375 60.875 C-115.39566357 51.44960801 -109.88467021 41.73846364 -102.9375 33.875 C-102.2775 33.875 -101.6175 33.875 -100.9375 33.875 C-100.72480469 33.32714844 -100.51210937 32.77929688 -100.29296875 32.21484375 C-98.46324217 29.05632437 -95.94501105 26.84160271 -93.25 24.4375 C-92.70545166 23.94741455 -92.16090332 23.4573291 -91.59985352 22.95239258 C-77.894683 10.74166342 -60.82484109 2.85289176 -42.9375 -1.125 C-42.03128906 -1.32996094 -41.12507813 -1.53492188 -40.19140625 -1.74609375 C-27.33574091 -4.27536305 -12.37865214 -4.74076039 0 0 Z " fill="#000000" transform="translate(167.9375,175.125)"/>
<path d="M0 0 C9.69803974 6.94709252 14.54042697 16.24929042 17.21875 27.7109375 C18.68130572 36.91839055 16.83135107 46.09914544 11.7109375 53.8671875 C5.41481431 61.86496561 -2.18300108 68.65389245 -10.25390625 74.81640625 C-12.08796527 76.26068422 -13.68444288 77.77113566 -15.3125 79.4375 C-18.94577074 81.99424608 -23.02965306 82.11417331 -27.3125 81.4375 C-32.41459922 78.74205136 -35.48631037 75.9160689 -37.3125 70.4375 C-37.69479129 65.27656763 -37.20811357 62.67657391 -34.3125 58.4375 C-29.06619218 52.44796524 -23.02983168 47.46727653 -16.6953125 42.67578125 C-13.95425354 40.10098324 -12.64379161 37.94685715 -11.3125 34.4375 C-11.27153752 31.18098311 -12.00711512 28.41692011 -13.3125 25.4375 C-17.30369047 22.31938245 -23.44485235 22.96280378 -28.3125 23.4375 C-31.71579711 24.49630354 -32.86407643 25.60471337 -34.54296875 28.72265625 C-35.39095027 30.49428534 -36.22687937 32.27173265 -37.05078125 34.0546875 C-39.00628564 37.74774532 -41.65337317 39.60793659 -45.3125 41.4375 C-50.55558569 41.84081428 -53.87377553 41.29801133 -58.3125 38.4375 C-62.14467095 34.1910403 -63.68430916 31.51921834 -63.58984375 25.71484375 C-62.38195104 15.79651348 -54.89925639 7.23492797 -47.53125 1.04296875 C-33.12187676 -9.38353195 -15.06820993 -9.27706955 0 0 Z " fill="#000000" transform="translate(263.3125,172.5625)"/>
<path d="M0 0 C4.79642058 2.39821029 7.60178971 5.20357942 10 10 C10.87302198 14.45419379 10.37579076 17.28868177 8.25 21.3125 C4.88177862 25.33565332 2.83099928 27.04657465 -2.375 27.875 C-7.8313807 28.31401914 -10.87463616 26.43605665 -15.3125 23.4375 C-18.29158873 19.13437183 -18.543496 14.02641455 -17.62890625 8.93359375 C-16.16855077 4.73393792 -13.82197588 2.54180154 -9.9609375 0.66015625 C-6.35081478 -0.55520379 -3.82117717 -0.48522885 0 0 Z " fill="#000000" transform="translate(244,266)"/>
</svg>
