<svg width="41" height="41" viewBox="0 0 41 41" fill="none" xmlns="http://www.w3.org/2000/svg">
<g clip-path="url(#clip0_2857_417)">
<path fill-rule="evenodd" clip-rule="evenodd" d="M16.3763 25.8019V14.2977C20.4603 16.2194 23.6234 18.0759 27.3643 20.0773C24.2789 21.7885 20.4603 23.7085 16.3763 25.8019ZM39.1366 8.57612C38.4321 7.64796 37.2314 6.92547 35.9531 6.68628C32.1958 5.97278 8.75552 5.97075 5.00026 6.68628C3.97517 6.87845 3.06236 7.34294 2.27823 8.06462C-1.02574 11.1312 0.00956567 27.5764 0.805952 30.2403C1.14084 31.3933 1.57376 32.2249 2.11898 32.7707C2.82143 33.4924 3.78321 33.9893 4.88793 34.2121C7.98158 34.852 23.9195 35.2098 35.8877 34.3082C36.9904 34.1161 37.9665 33.6032 38.7363 32.8508C41.7911 29.7965 41.5829 12.4278 39.1366 8.57612Z" fill="#464646"/>
</g>
<defs>
<clipPath id="clip0_2857_417">
<rect width="41" height="41" fill="white"/>
</clipPath>
</defs>
</svg>
