<svg width="117" height="93" viewBox="0 0 117 93" fill="none" xmlns="http://www.w3.org/2000/svg">
<path fill-rule="evenodd" clip-rule="evenodd" d="M116.419 51.9106C116.419 52.0369 116.419 52.1643 116.419 52.2917V63.8751C116.419 64.0025 116.419 64.1299 116.419 64.2561C116.419 69.3905 116.42 73.8141 115.944 77.3569C115.433 81.1533 114.282 84.7928 111.33 87.7443C108.379 90.6963 104.739 91.8471 100.943 92.3579C97.4 92.834 92.9763 92.834 87.842 92.8334H52.3299C47.1955 92.834 42.7716 92.834 39.2291 92.3579C35.4326 91.8471 31.7934 90.6963 28.8416 87.7443C25.8898 84.7928 24.7388 81.1533 24.2283 77.3569C23.752 73.8141 23.7523 69.3905 23.7526 64.2561V51.9106C23.7523 46.7763 23.752 42.3526 24.2283 38.8099C24.7388 35.0134 25.8898 31.3743 28.8416 28.4224C31.7934 25.4706 35.4326 24.3196 39.2291 23.8091C42.7716 23.3329 47.1955 23.3331 52.3299 23.3334H87.4609C87.5884 23.3334 87.7158 23.3334 87.842 23.3334C92.9763 23.3331 97.4 23.3329 100.943 23.8092C104.739 24.3196 108.379 25.4706 111.33 28.4224C114.282 31.3743 115.433 35.0134 115.944 38.8099C116.42 42.3526 116.419 46.7763 116.419 51.9106ZM52.7109 58.0834C52.7109 48.4872 60.4903 40.7084 70.0859 40.7084C79.6822 40.7084 87.4609 48.4872 87.4609 58.0834C87.4609 67.6796 79.6822 75.4584 70.0859 75.4584C60.4903 75.4584 52.7109 67.6796 52.7109 58.0834Z" fill="url(#paint0_linear_4541_7316)"/>
<path d="M93.2324 17.5644C91.5748 17.5414 89.8709 17.5416 88.1496 17.5418H52.0235C47.1371 17.5413 42.3883 17.5407 38.458 18.0692C34.023 18.6654 28.9559 20.1181 24.7469 24.3271C20.5378 28.5362 19.0852 33.6033 18.4889 38.0384C17.9605 41.9687 17.961 46.7172 17.9615 51.6042V64.5625C17.9613 66.2601 17.9611 67.9408 17.9831 69.5764C17.6081 69.5578 17.2454 69.5358 16.8955 69.5086C14.7339 69.3418 12.5796 68.974 10.4867 67.9767C6.88908 66.2624 3.99012 63.3636 2.27579 59.7659C1.27846 57.6728 0.910749 55.5188 0.743949 53.3574C0.585836 51.3077 0.585894 48.8231 0.58601 45.9435L0.585952 28.7437C0.585662 23.6095 0.58543 19.1857 1.06174 15.6432C1.57216 11.8467 2.72319 8.20747 5.67503 5.25563C8.62681 2.30385 12.266 1.15281 16.0625 0.642394C19.605 0.166088 24.0288 0.166319 29.1631 0.166609L73.2077 0.166319C75.6506 0.164176 77.7553 0.162324 79.6277 0.576139C86.2285 2.03523 91.3842 7.19063 92.8432 13.7916C93.0997 14.9515 93.1964 16.2007 93.2324 17.5644Z" fill="url(#paint1_linear_4541_7316)"/>
<defs>
<linearGradient id="paint0_linear_4541_7316" x1="-10.4709" y1="211.977" x2="157.556" y2="188.884" gradientUnits="userSpaceOnUse">
<stop offset="0.561" stop-color="#2E3192"/>
<stop offset="1" stop-color="#90278E"/>
</linearGradient>
<linearGradient id="paint1_linear_4541_7316" x1="-10.4709" y1="211.977" x2="157.556" y2="188.884" gradientUnits="userSpaceOnUse">
<stop offset="0.561" stop-color="#2E3192"/>
<stop offset="1" stop-color="#90278E"/>
</linearGradient>
</defs>
</svg>
