<svg width="34" height="34" viewBox="0 0 34 34" fill="none" xmlns="http://www.w3.org/2000/svg">
<path fill-rule="evenodd" clip-rule="evenodd" d="M0.0578498 9.57169C0.0578498 7.82377 1.42808 6.47034 3.49165 6.47034C5.55523 6.47034 9.789 6.42348 9.789 6.42348C9.789 6.42348 9.72439 4.96757 9.72439 3.11593C9.72439 1.2647 11.4037 0 13.417 0C15.4308 0 25.4062 0.083522 26.385 0.083522C27.3638 0.083522 28.1579 0.441562 29.2551 1.26449C30.3521 2.08784 32.0107 3.46397 32.832 4.38083C33.6533 5.2977 34 5.83299 34 6.58948C34 7.34617 34 22.5973 33.9873 24.3644C33.9749 26.1317 32.3243 27.4381 30.3698 27.4639C28.4154 27.4897 24.2186 27.4897 24.2186 27.4897C24.2186 27.4897 24.317 28.7967 24.317 30.6452C24.317 32.4937 22.6056 33.9384 20.6609 33.9894C18.7164 34.0405 5.47141 33.8874 3.58391 33.9384C1.69642 33.9894 0 32.5233 0 30.7262C0 28.9292 0.0578498 11.3194 0.0578498 9.57169ZM3.59088 10.3936L3.34766 29.7334C3.34621 29.8425 3.36675 29.9509 3.40808 30.0522C3.44942 30.1535 3.51074 30.2457 3.58848 30.3234C3.66621 30.4012 3.75882 30.4629 3.86093 30.5051C3.96304 30.5472 4.07262 30.5689 4.18331 30.569L19.7885 30.6148C19.8985 30.6161 20.0076 30.5955 20.1093 30.5541C20.211 30.5128 20.3032 30.4516 20.3803 30.3742C20.4574 30.2968 20.5179 30.2048 20.558 30.1038C20.5982 30.0027 20.6172 29.8947 20.614 29.7863L20.568 27.9342C20.567 27.8794 20.5551 27.8254 20.5328 27.7752C20.5105 27.725 20.4783 27.6796 20.4381 27.6418C20.3979 27.604 20.3505 27.5744 20.2987 27.5547C20.2468 27.5351 20.1915 27.5258 20.136 27.5274C20.136 27.5274 15.5195 27.6607 13.4291 27.5885C11.3385 27.516 9.90913 26.1707 9.90849 24.3567C9.90786 22.5428 9.90913 9.95555 9.90913 9.95555C9.90924 9.90076 9.89834 9.84649 9.87705 9.79589C9.85575 9.74529 9.8245 9.69935 9.78509 9.66074C9.74568 9.62214 9.6989 9.59162 9.64746 9.57097C9.59601 9.55033 9.54093 9.53995 9.48539 9.54044L4.44553 9.55752C4.22059 9.55908 4.0052 9.64744 3.84547 9.80369C3.68573 9.95995 3.59435 10.1717 3.59088 10.3936ZM26.0778 3.0499C25.7261 2.74789 25.441 2.87494 25.441 3.33567V6.92961C25.441 7.15997 25.6298 7.34763 25.8627 7.34888L30.2685 7.36992C30.7338 7.37221 30.8261 7.12914 30.4746 6.82713L26.0778 3.0499ZM13.9155 3.22632C13.8599 3.22582 13.8048 3.23615 13.7533 3.2567C13.7017 3.27725 13.6548 3.30763 13.6152 3.34609C13.5756 3.38455 13.5441 3.43034 13.5224 3.48084C13.5008 3.53134 13.4894 3.58556 13.489 3.64039L13.3569 23.6963C13.3561 23.7781 13.3717 23.8593 13.403 23.9352C13.4343 24.011 13.4805 24.08 13.539 24.138C13.5975 24.1961 13.6671 24.2421 13.7437 24.2735C13.8204 24.3048 13.9026 24.3208 13.9856 24.3205L29.8625 24.2817C29.9756 24.2812 30.0841 24.2371 30.1647 24.1588C30.2453 24.0805 30.2917 23.9743 30.2941 23.8627L30.5618 10.8614C30.5633 10.8069 30.5537 10.7528 30.5335 10.702C30.5134 10.6513 30.4831 10.6051 30.4445 10.5662C30.4059 10.5273 30.3597 10.4964 30.3088 10.4754C30.2579 10.4544 30.2032 10.4437 30.1479 10.444C30.1479 10.444 24.6223 10.4527 23.6488 10.4527C22.6753 10.4527 22.0579 9.98992 22.0579 9.10263C22.0579 8.21534 22.0393 3.69454 22.0393 3.69454C22.0385 3.58342 21.9934 3.47708 21.9139 3.39845C21.8343 3.31982 21.7265 3.2752 21.6139 3.27422L13.9155 3.22632Z" fill="url(#paint0_linear_5048_350)"/>
<defs>
<linearGradient id="paint0_linear_5048_350" x1="-3.24545" y1="77.7143" x2="46.4061" y2="72.255" gradientUnits="userSpaceOnUse">
<stop offset="0.561" stop-color="#2E3192"/>
<stop offset="1" stop-color="#90278E"/>
</linearGradient>
</defs>
</svg>
