<svg width="129" height="97" viewBox="0 0 129 97" fill="none" xmlns="http://www.w3.org/2000/svg">
<path d="M104.812 64.625H92.7188V72.6875H104.812V64.625Z" fill="url(#paint0_linear_4541_7312)"/>
<path d="M129 24.3125H0V40.4375H129V24.3125Z" fill="url(#paint1_linear_4541_7312)"/>
<path d="M129 20.2812V8.1875C129 3.73095 125.394 0.125 120.938 0.125H8.0625C3.60595 0.125 0 3.73095 0 8.1875V20.2812H129Z" fill="url(#paint2_linear_4541_7312)"/>
<path d="M0 44.4688V88.8125C0 93.269 3.60595 96.875 8.0625 96.875H120.938C125.394 96.875 129 93.269 129 88.8125V44.4688H0ZM42.3281 76.7188H22.1719C21.0572 76.7188 20.1562 75.8178 20.1562 74.7031C20.1562 73.5885 21.0572 72.6875 22.1719 72.6875H42.3281C43.4428 72.6875 44.3438 73.5885 44.3438 74.7031C44.3438 75.8178 43.4428 76.7188 42.3281 76.7188ZM50.3906 64.625H22.1719C21.0572 64.625 20.1562 63.724 20.1562 62.6094C20.1562 61.4947 21.0572 60.5938 22.1719 60.5938H50.3906C51.5053 60.5938 52.4062 61.4947 52.4062 62.6094C52.4062 63.724 51.5053 64.625 50.3906 64.625ZM70.5469 64.625H58.4531C57.3385 64.625 56.4375 63.724 56.4375 62.6094C56.4375 61.4947 57.3385 60.5938 58.4531 60.5938H70.5469C71.6615 60.5938 72.5625 61.4947 72.5625 62.6094C72.5625 63.724 71.6615 64.625 70.5469 64.625ZM108.844 74.7031C108.844 75.8178 107.943 76.7188 106.828 76.7188H90.7031C89.5885 76.7188 88.6875 75.8178 88.6875 74.7031V62.6094C88.6875 61.4947 89.5885 60.5938 90.7031 60.5938H106.828C107.943 60.5938 108.844 61.4947 108.844 62.6094V74.7031Z" fill="url(#paint3_linear_4541_7312)"/>
<defs>
<linearGradient id="paint0_linear_4541_7312" x1="-12.3136" y1="221.268" x2="174.336" y2="193.905" gradientUnits="userSpaceOnUse">
<stop offset="0.561" stop-color="#2E3192"/>
<stop offset="1" stop-color="#90278E"/>
</linearGradient>
<linearGradient id="paint1_linear_4541_7312" x1="-12.3136" y1="221.268" x2="174.336" y2="193.905" gradientUnits="userSpaceOnUse">
<stop offset="0.561" stop-color="#2E3192"/>
<stop offset="1" stop-color="#90278E"/>
</linearGradient>
<linearGradient id="paint2_linear_4541_7312" x1="-12.3136" y1="221.268" x2="174.336" y2="193.905" gradientUnits="userSpaceOnUse">
<stop offset="0.561" stop-color="#2E3192"/>
<stop offset="1" stop-color="#90278E"/>
</linearGradient>
<linearGradient id="paint3_linear_4541_7312" x1="-12.3136" y1="221.268" x2="174.336" y2="193.905" gradientUnits="userSpaceOnUse">
<stop offset="0.561" stop-color="#2E3192"/>
<stop offset="1" stop-color="#90278E"/>
</linearGradient>
</defs>
</svg>
