<svg width="81" height="81" viewBox="0 0 81 81" fill="none" xmlns="http://www.w3.org/2000/svg">
<path fill-rule="evenodd" clip-rule="evenodd" d="M8.99838 40.5103C8.99689 35.4808 10.1998 30.524 12.5064 26.0545C14.813 21.5851 18.1564 17.733 22.2568 14.8203C26.3572 11.9077 31.0954 10.0193 36.0751 9.31307C41.0548 8.60681 46.1313 9.10325 50.8799 10.7608C52.0071 11.1535 53.2441 11.0823 54.3189 10.5629C55.3936 10.0434 56.2179 9.11833 56.6106 7.9911C57.0033 6.86386 56.932 5.62681 56.4126 4.55209C55.8932 3.47737 54.9681 2.653 53.8409 2.26035C45.5489 -0.632509 36.5413 -0.751716 28.1757 1.9207C19.8101 4.59311 12.5399 9.91233 7.4607 17.0766C2.38154 24.2409 -0.231271 32.8621 0.0160748 41.6407C0.263421 50.4193 3.35752 58.8796 8.83203 65.7466C14.3065 72.6135 21.8648 77.5149 30.3676 79.712C38.8704 81.9092 47.857 81.283 55.9729 77.9278C64.0888 74.5726 70.8942 68.6703 75.3634 61.1105C79.8326 53.5506 81.7234 44.7429 80.7508 36.0148C80.6858 35.4274 80.5058 34.8586 80.2209 34.3408C79.9361 33.823 79.552 33.3663 79.0907 32.9969C78.6294 32.6275 78.0998 32.3526 77.5323 32.1879C76.9647 32.0232 76.3702 31.9718 75.7828 32.0368C75.1954 32.1018 74.6266 32.2819 74.1088 32.5668C73.591 32.8516 73.1343 33.2357 72.7649 33.697C72.3955 34.1583 72.1206 34.6879 71.9559 35.2554C71.7912 35.823 71.7398 36.4174 71.8048 37.0048C72.2788 41.2614 71.8798 45.5698 70.6322 49.6669C69.3846 53.764 67.3146 57.5637 64.5488 60.8336C61.7829 64.1036 58.3793 66.7752 54.5459 68.6852C50.7125 70.5951 46.53 71.7033 42.2538 71.942C37.9776 72.1806 33.6977 71.5448 29.6756 70.0733C25.6535 68.6018 21.9737 66.3255 18.8611 63.3837C15.7485 60.4418 13.2686 56.8961 11.5728 52.9633C9.87701 49.0305 9.00103 44.7932 8.99838 40.5103ZM75.3733 16.4893C76.1634 15.5942 76.5656 14.4219 76.4913 13.2303C76.417 12.0387 75.8724 10.9254 74.9773 10.1353C74.0822 9.34527 72.9099 8.94313 71.7183 9.01739C70.5267 9.09166 69.4134 9.63624 68.6234 10.5313L39.6659 43.2913L25.3424 31.6228C24.8844 31.2494 24.3573 30.9697 23.7913 30.8C23.2252 30.6302 22.6313 30.5735 22.0434 30.6333C20.856 30.754 19.7652 31.3414 19.0109 32.2663C18.6374 32.7243 18.3578 33.2514 18.188 33.8174C18.0182 34.3835 17.9616 34.9774 18.0213 35.5654C18.142 36.7528 18.7294 37.8436 19.6544 38.5978L37.3349 52.9978C38.2356 53.7307 39.3848 54.087 40.5421 53.9922C41.6994 53.8974 42.7753 53.359 43.5449 52.4893L75.3733 16.4893Z" fill="#26B738"/>
</svg>
